  0
SECTION
  2
BLOCKS
  0
ENDSEC
  0
SECTION
  2
ENTITIES
  0
LINE
  8
0
 10
61
 20
-54
 11
66
 21
-54
  0
LINE
  8
0
 10
66
 20
-54
 11
66
 21
-50
  0
LINE
  8
0
 10
66
 20
-50
 11
63
 21
-50
  0
LINE
  8
0
 10
63
 20
-50
 11
63
 21
-45
  0
LINE
  8
0
 10
63
 20
-45
 11
66
 21
-45
  0
LINE
  8
0
 10
66
 20
-45
 11
66
 21
45
  0
LINE
  8
0
 10
66
 20
45
 11
63
 21
45
  0
LINE
  8
0
 10
63
 20
45
 11
63
 21
50
  0
LINE
  8
0
 10
63
 20
50
 11
66
 21
50
  0
LINE
  8
0
 10
66
 20
50
 11
66
 21
54
  0
LINE
  8
0
 10
66
 20
54
 11
61
 21
54
  0
LINE
  8
0
 10
61
 20
54
 11
61
 21
57
  0
LINE
  8
0
 10
61
 20
57
 11
2.5
 21
57
  0
LINE
  8
0
 10
2.5
 20
57
 11
2.5
 21
54
  0
LINE
  8
0
 10
2.5
 20
54
 11
-2.49998
 21
54
  0
LINE
  8
0
 10
-2.49998
 20
54
 11
-2.49998
 21
57
  0
LINE
  8
0
 10
-2.49998
 20
57
 11
-61
 21
57
  0
LINE
  8
0
 10
-61
 20
57
 11
-61
 21
54
  0
LINE
  8
0
 10
-61
 20
54
 11
-66
 21
54
  0
LINE
  8
0
 10
-66
 20
54
 11
-66
 21
50
  0
LINE
  8
0
 10
-66
 20
50
 11
-63
 21
50
  0
LINE
  8
0
 10
-63
 20
50
 11
-63
 21
45
  0
LINE
  8
0
 10
-63
 20
45
 11
-66
 21
45
  0
LINE
  8
0
 10
-66
 20
45
 11
-66
 21
-45
  0
LINE
  8
0
 10
-66
 20
-45
 11
-63
 21
-45
  0
LINE
  8
0
 10
-63
 20
-45
 11
-63
 21
-50
  0
LINE
  8
0
 10
-63
 20
-50
 11
-66
 21
-50
  0
LINE
  8
0
 10
-66
 20
-50
 11
-66
 21
-54
  0
LINE
  8
0
 10
-66
 20
-54
 11
-61
 21
-54
  0
LINE
  8
0
 10
-61
 20
-54
 11
-61
 21
-57
  0
LINE
  8
0
 10
-61
 20
-57
 11
-2.5
 21
-57
  0
LINE
  8
0
 10
-2.5
 20
-57
 11
-2.5
 21
-54
  0
LINE
  8
0
 10
-2.5
 20
-54
 11
2.49998
 21
-54
  0
LINE
  8
0
 10
2.49998
 20
-54
 11
2.49998
 21
-57
  0
LINE
  8
0
 10
2.49998
 20
-57
 11
61
 21
-57
  0
LINE
  8
0
 10
61
 20
-57
 11
61
 21
-54
  0
LINE
  8
0
 10
-59.0937
 20
48.5029
 11
-59.1885
 21
48.5117
  0
LINE
  8
0
 10
-59.1885
 20
48.5117
 11
-59.2812
 21
48.5264
  0
LINE
  8
0
 10
-59.2812
 20
48.5264
 11
-59.373
 21
48.5469
  0
LINE
  8
0
 10
-59.373
 20
48.5469
 11
-59.4639
 21
48.5732
  0
LINE
  8
0
 10
-59.4639
 20
48.5732
 11
-59.5517
 21
48.6055
  0
LINE
  8
0
 10
-59.5517
 20
48.6055
 11
-59.6387
 21
48.6426
  0
LINE
  8
0
 10
-59.6387
 20
48.6426
 11
-59.7226
 21
48.6855
  0
LINE
  8
0
 10
-59.7226
 20
48.6855
 11
-59.8037
 21
48.7334
  0
LINE
  8
0
 10
-59.8037
 20
48.7334
 11
-59.8818
 21
48.7861
  0
LINE
  8
0
 10
-59.8818
 20
48.7861
 11
-59.956
 21
48.8438
  0
LINE
  8
0
 10
-59.956
 20
48.8438
 11
-60.0264
 21
48.9062
  0
LINE
  8
0
 10
-60.0264
 20
48.9062
 11
-60.0937
 21
48.9736
  0
LINE
  8
0
 10
-60.0937
 20
48.9736
 11
-60.1562
 21
49.0439
  0
LINE
  8
0
 10
-60.1562
 20
49.0439
 11
-60.2139
 21
49.1182
  0
LINE
  8
0
 10
-60.2139
 20
49.1182
 11
-60.2666
 21
49.1963
  0
LINE
  8
0
 10
-60.2666
 20
49.1963
 11
-60.3144
 21
49.2773
  0
LINE
  8
0
 10
-60.3144
 20
49.2773
 11
-60.3574
 21
49.3613
  0
LINE
  8
0
 10
-60.3574
 20
49.3613
 11
-60.3945
 21
49.4482
  0
LINE
  8
0
 10
-60.3945
 20
49.4482
 11
-60.4267
 21
49.5361
  0
LINE
  8
0
 10
-60.4267
 20
49.5361
 11
-60.4531
 21
49.627
  0
LINE
  8
0
 10
-60.4531
 20
49.627
 11
-60.4736
 21
49.7188
  0
LINE
  8
0
 10
-60.4736
 20
49.7188
 11
-60.4883
 21
49.8115
  0
LINE
  8
0
 10
-60.4883
 20
49.8115
 11
-60.4971
 21
49.9062
  0
LINE
  8
0
 10
-60.4971
 20
49.9062
 11
-60.5
 21
50
  0
LINE
  8
0
 10
-60.5
 20
50
 11
-60.4971
 21
50.0938
  0
LINE
  8
0
 10
-60.4971
 20
50.0938
 11
-60.4883
 21
50.1885
  0
LINE
  8
0
 10
-60.4883
 20
50.1885
 11
-60.4736
 21
50.2812
  0
LINE
  8
0
 10
-60.4736
 20
50.2812
 11
-60.4531
 21
50.373
  0
LINE
  8
0
 10
-60.4531
 20
50.373
 11
-60.4267
 21
50.4639
  0
LINE
  8
0
 10
-60.4267
 20
50.4639
 11
-60.3945
 21
50.5518
  0
LINE
  8
0
 10
-60.3945
 20
50.5518
 11
-60.3574
 21
50.6387
  0
LINE
  8
0
 10
-60.3574
 20
50.6387
 11
-60.3144
 21
50.7227
  0
LINE
  8
0
 10
-60.3144
 20
50.7227
 11
-60.2666
 21
50.8037
  0
LINE
  8
0
 10
-60.2666
 20
50.8037
 11
-60.2139
 21
50.8818
  0
LINE
  8
0
 10
-60.2139
 20
50.8818
 11
-60.1562
 21
50.9561
  0
LINE
  8
0
 10
-60.1562
 20
50.9561
 11
-60.0937
 21
51.0264
  0
LINE
  8
0
 10
-60.0937
 20
51.0264
 11
-60.0264
 21
51.0938
  0
LINE
  8
0
 10
-60.0264
 20
51.0938
 11
-59.956
 21
51.1562
  0
LINE
  8
0
 10
-59.956
 20
51.1562
 11
-59.8818
 21
51.2139
  0
LINE
  8
0
 10
-59.8818
 20
51.2139
 11
-59.8037
 21
51.2666
  0
LINE
  8
0
 10
-59.8037
 20
51.2666
 11
-59.7226
 21
51.3145
  0
LINE
  8
0
 10
-59.7226
 20
51.3145
 11
-59.6387
 21
51.3574
  0
LINE
  8
0
 10
-59.6387
 20
51.3574
 11
-59.5517
 21
51.3945
  0
LINE
  8
0
 10
-59.5517
 20
51.3945
 11
-59.4639
 21
51.4268
  0
LINE
  8
0
 10
-59.4639
 20
51.4268
 11
-59.373
 21
51.4531
  0
LINE
  8
0
 10
-59.373
 20
51.4531
 11
-59.2812
 21
51.4736
  0
LINE
  8
0
 10
-59.2812
 20
51.4736
 11
-59.1885
 21
51.4883
  0
LINE
  8
0
 10
-59.1885
 20
51.4883
 11
-59.0937
 21
51.4971
  0
LINE
  8
0
 10
-59.0937
 20
51.4971
 11
-59
 21
51.5
  0
LINE
  8
0
 10
-59
 20
51.5
 11
-58.9062
 21
51.4971
  0
LINE
  8
0
 10
-58.9062
 20
51.4971
 11
-58.8115
 21
51.4883
  0
LINE
  8
0
 10
-58.8115
 20
51.4883
 11
-58.7187
 21
51.4736
  0
LINE
  8
0
 10
-58.7187
 20
51.4736
 11
-58.6269
 21
51.4531
  0
LINE
  8
0
 10
-58.6269
 20
51.4531
 11
-58.5361
 21
51.4268
  0
LINE
  8
0
 10
-58.5361
 20
51.4268
 11
-58.4482
 21
51.3945
  0
LINE
  8
0
 10
-58.4482
 20
51.3945
 11
-58.3613
 21
51.3574
  0
LINE
  8
0
 10
-58.3613
 20
51.3574
 11
-58.2773
 21
51.3145
  0
LINE
  8
0
 10
-58.2773
 20
51.3145
 11
-58.1963
 21
51.2666
  0
LINE
  8
0
 10
-58.1963
 20
51.2666
 11
-58.1181
 21
51.2139
  0
LINE
  8
0
 10
-58.1181
 20
51.2139
 11
-58.0439
 21
51.1562
  0
LINE
  8
0
 10
-58.0439
 20
51.1562
 11
-57.9736
 21
51.0938
  0
LINE
  8
0
 10
-57.9736
 20
51.0938
 11
-57.9062
 21
51.0264
  0
LINE
  8
0
 10
-57.9062
 20
51.0264
 11
-57.8437
 21
50.9561
  0
LINE
  8
0
 10
-57.8437
 20
50.9561
 11
-57.7861
 21
50.8818
  0
LINE
  8
0
 10
-57.7861
 20
50.8818
 11
-57.7334
 21
50.8037
  0
LINE
  8
0
 10
-57.7334
 20
50.8037
 11
-57.6855
 21
50.7227
  0
LINE
  8
0
 10
-57.6855
 20
50.7227
 11
-57.6426
 21
50.6387
  0
LINE
  8
0
 10
-57.6426
 20
50.6387
 11
-57.6055
 21
50.5518
  0
LINE
  8
0
 10
-57.6055
 20
50.5518
 11
-57.5732
 21
50.4639
  0
LINE
  8
0
 10
-57.5732
 20
50.4639
 11
-57.5469
 21
50.373
  0
LINE
  8
0
 10
-57.5469
 20
50.373
 11
-57.5264
 21
50.2812
  0
LINE
  8
0
 10
-57.5264
 20
50.2812
 11
-57.5117
 21
50.1885
  0
LINE
  8
0
 10
-57.5117
 20
50.1885
 11
-57.5029
 21
50.0938
  0
LINE
  8
0
 10
-57.5029
 20
50.0938
 11
-57.5
 21
50
  0
LINE
  8
0
 10
-57.5
 20
50
 11
-57.5029
 21
49.9062
  0
LINE
  8
0
 10
-57.5029
 20
49.9062
 11
-57.5117
 21
49.8115
  0
LINE
  8
0
 10
-57.5117
 20
49.8115
 11
-57.5264
 21
49.7188
  0
LINE
  8
0
 10
-57.5264
 20
49.7188
 11
-57.5469
 21
49.627
  0
LINE
  8
0
 10
-57.5469
 20
49.627
 11
-57.5732
 21
49.5361
  0
LINE
  8
0
 10
-57.5732
 20
49.5361
 11
-57.6055
 21
49.4482
  0
LINE
  8
0
 10
-57.6055
 20
49.4482
 11
-57.6426
 21
49.3613
  0
LINE
  8
0
 10
-57.6426
 20
49.3613
 11
-57.6855
 21
49.2773
  0
LINE
  8
0
 10
-57.6855
 20
49.2773
 11
-57.7334
 21
49.1963
  0
LINE
  8
0
 10
-57.7334
 20
49.1963
 11
-57.7861
 21
49.1182
  0
LINE
  8
0
 10
-57.7861
 20
49.1182
 11
-57.8437
 21
49.0439
  0
LINE
  8
0
 10
-57.8437
 20
49.0439
 11
-57.9062
 21
48.9736
  0
LINE
  8
0
 10
-57.9062
 20
48.9736
 11
-57.9736
 21
48.9062
  0
LINE
  8
0
 10
-57.9736
 20
48.9062
 11
-58.0439
 21
48.8438
  0
LINE
  8
0
 10
-58.0439
 20
48.8438
 11
-58.1181
 21
48.7861
  0
LINE
  8
0
 10
-58.1181
 20
48.7861
 11
-58.1963
 21
48.7334
  0
LINE
  8
0
 10
-58.1963
 20
48.7334
 11
-58.2773
 21
48.6855
  0
LINE
  8
0
 10
-58.2773
 20
48.6855
 11
-58.3613
 21
48.6426
  0
LINE
  8
0
 10
-58.3613
 20
48.6426
 11
-58.4482
 21
48.6055
  0
LINE
  8
0
 10
-58.4482
 20
48.6055
 11
-58.5361
 21
48.5732
  0
LINE
  8
0
 10
-58.5361
 20
48.5732
 11
-58.6269
 21
48.5469
  0
LINE
  8
0
 10
-58.6269
 20
48.5469
 11
-58.7187
 21
48.5264
  0
LINE
  8
0
 10
-58.7187
 20
48.5264
 11
-58.8115
 21
48.5117
  0
LINE
  8
0
 10
-58.8115
 20
48.5117
 11
-58.9062
 21
48.5029
  0
LINE
  8
0
 10
-58.9062
 20
48.5029
 11
-59
 21
48.5
  0
LINE
  8
0
 10
-59
 20
48.5
 11
-59.0937
 21
48.5029
  0
LINE
  8
0
 10
58.9062
 20
48.5029
 11
58.8115
 21
48.5117
  0
LINE
  8
0
 10
58.8115
 20
48.5117
 11
58.7188
 21
48.5264
  0
LINE
  8
0
 10
58.7188
 20
48.5264
 11
58.627
 21
48.5469
  0
LINE
  8
0
 10
58.627
 20
48.5469
 11
58.5361
 21
48.5732
  0
LINE
  8
0
 10
58.5361
 20
48.5732
 11
58.4482
 21
48.6055
  0
LINE
  8
0
 10
58.4482
 20
48.6055
 11
58.3613
 21
48.6426
  0
LINE
  8
0
 10
58.3613
 20
48.6426
 11
58.2773
 21
48.6855
  0
LINE
  8
0
 10
58.2773
 20
48.6855
 11
58.1963
 21
48.7334
  0
LINE
  8
0
 10
58.1963
 20
48.7334
 11
58.1182
 21
48.7861
  0
LINE
  8
0
 10
58.1182
 20
48.7861
 11
58.0439
 21
48.8437
  0
LINE
  8
0
 10
58.0439
 20
48.8437
 11
57.9736
 21
48.9062
  0
LINE
  8
0
 10
57.9736
 20
48.9062
 11
57.9062
 21
48.9736
  0
LINE
  8
0
 10
57.9062
 20
48.9736
 11
57.8438
 21
49.0439
  0
LINE
  8
0
 10
57.8438
 20
49.0439
 11
57.7861
 21
49.1181
  0
LINE
  8
0
 10
57.7861
 20
49.1181
 11
57.7334
 21
49.1963
  0
LINE
  8
0
 10
57.7334
 20
49.1963
 11
57.6855
 21
49.2773
  0
LINE
  8
0
 10
57.6855
 20
49.2773
 11
57.6426
 21
49.3613
  0
LINE
  8
0
 10
57.6426
 20
49.3613
 11
57.6055
 21
49.4482
  0
LINE
  8
0
 10
57.6055
 20
49.4482
 11
57.5732
 21
49.5361
  0
LINE
  8
0
 10
57.5732
 20
49.5361
 11
57.5469
 21
49.6269
  0
LINE
  8
0
 10
57.5469
 20
49.6269
 11
57.5264
 21
49.7187
  0
LINE
  8
0
 10
57.5264
 20
49.7187
 11
57.5117
 21
49.8115
  0
LINE
  8
0
 10
57.5117
 20
49.8115
 11
57.5029
 21
49.9062
  0
LINE
  8
0
 10
57.5029
 20
49.9062
 11
57.5
 21
50
  0
LINE
  8
0
 10
57.5
 20
50
 11
57.5029
 21
50.0937
  0
LINE
  8
0
 10
57.5029
 20
50.0937
 11
57.5117
 21
50.1885
  0
LINE
  8
0
 10
57.5117
 20
50.1885
 11
57.5264
 21
50.2812
  0
LINE
  8
0
 10
57.5264
 20
50.2812
 11
57.5469
 21
50.373
  0
LINE
  8
0
 10
57.5469
 20
50.373
 11
57.5732
 21
50.4639
  0
LINE
  8
0
 10
57.5732
 20
50.4639
 11
57.6055
 21
50.5517
  0
LINE
  8
0
 10
57.6055
 20
50.5517
 11
57.6426
 21
50.6387
  0
LINE
  8
0
 10
57.6426
 20
50.6387
 11
57.6855
 21
50.7226
  0
LINE
  8
0
 10
57.6855
 20
50.7226
 11
57.7334
 21
50.8037
  0
LINE
  8
0
 10
57.7334
 20
50.8037
 11
57.7861
 21
50.8818
  0
LINE
  8
0
 10
57.7861
 20
50.8818
 11
57.8438
 21
50.956
  0
LINE
  8
0
 10
57.8438
 20
50.956
 11
57.9062
 21
51.0264
  0
LINE
  8
0
 10
57.9062
 20
51.0264
 11
57.9736
 21
51.0937
  0
LINE
  8
0
 10
57.9736
 20
51.0937
 11
58.0439
 21
51.1562
  0
LINE
  8
0
 10
58.0439
 20
51.1562
 11
58.1182
 21
51.2139
  0
LINE
  8
0
 10
58.1182
 20
51.2139
 11
58.1963
 21
51.2666
  0
LINE
  8
0
 10
58.1963
 20
51.2666
 11
58.2773
 21
51.3144
  0
LINE
  8
0
 10
58.2773
 20
51.3144
 11
58.3613
 21
51.3574
  0
LINE
  8
0
 10
58.3613
 20
51.3574
 11
58.4482
 21
51.3945
  0
LINE
  8
0
 10
58.4482
 20
51.3945
 11
58.5361
 21
51.4267
  0
LINE
  8
0
 10
58.5361
 20
51.4267
 11
58.627
 21
51.4531
  0
LINE
  8
0
 10
58.627
 20
51.4531
 11
58.7188
 21
51.4736
  0
LINE
  8
0
 10
58.7188
 20
51.4736
 11
58.8115
 21
51.4883
  0
LINE
  8
0
 10
58.8115
 20
51.4883
 11
58.9062
 21
51.4971
  0
LINE
  8
0
 10
58.9062
 20
51.4971
 11
59
 21
51.5
  0
LINE
  8
0
 10
59
 20
51.5
 11
59.0938
 21
51.4971
  0
LINE
  8
0
 10
59.0938
 20
51.4971
 11
59.1885
 21
51.4883
  0
LINE
  8
0
 10
59.1885
 20
51.4883
 11
59.2812
 21
51.4736
  0
LINE
  8
0
 10
59.2812
 20
51.4736
 11
59.373
 21
51.4531
  0
LINE
  8
0
 10
59.373
 20
51.4531
 11
59.4639
 21
51.4267
  0
LINE
  8
0
 10
59.4639
 20
51.4267
 11
59.5518
 21
51.3945
  0
LINE
  8
0
 10
59.5518
 20
51.3945
 11
59.6387
 21
51.3574
  0
LINE
  8
0
 10
59.6387
 20
51.3574
 11
59.7227
 21
51.3144
  0
LINE
  8
0
 10
59.7227
 20
51.3144
 11
59.8037
 21
51.2666
  0
LINE
  8
0
 10
59.8037
 20
51.2666
 11
59.8818
 21
51.2139
  0
LINE
  8
0
 10
59.8818
 20
51.2139
 11
59.9561
 21
51.1562
  0
LINE
  8
0
 10
59.9561
 20
51.1562
 11
60.0264
 21
51.0937
  0
LINE
  8
0
 10
60.0264
 20
51.0937
 11
60.0938
 21
51.0264
  0
LINE
  8
0
 10
60.0938
 20
51.0264
 11
60.1562
 21
50.956
  0
LINE
  8
0
 10
60.1562
 20
50.956
 11
60.2139
 21
50.8818
  0
LINE
  8
0
 10
60.2139
 20
50.8818
 11
60.2666
 21
50.8037
  0
LINE
  8
0
 10
60.2666
 20
50.8037
 11
60.3145
 21
50.7226
  0
LINE
  8
0
 10
60.3145
 20
50.7226
 11
60.3574
 21
50.6387
  0
LINE
  8
0
 10
60.3574
 20
50.6387
 11
60.3945
 21
50.5517
  0
LINE
  8
0
 10
60.3945
 20
50.5517
 11
60.4268
 21
50.4639
  0
LINE
  8
0
 10
60.4268
 20
50.4639
 11
60.4531
 21
50.373
  0
LINE
  8
0
 10
60.4531
 20
50.373
 11
60.4736
 21
50.2812
  0
LINE
  8
0
 10
60.4736
 20
50.2812
 11
60.4883
 21
50.1885
  0
LINE
  8
0
 10
60.4883
 20
50.1885
 11
60.4971
 21
50.0937
  0
LINE
  8
0
 10
60.4971
 20
50.0937
 11
60.5
 21
50
  0
LINE
  8
0
 10
60.5
 20
50
 11
60.4971
 21
49.9062
  0
LINE
  8
0
 10
60.4971
 20
49.9062
 11
60.4883
 21
49.8115
  0
LINE
  8
0
 10
60.4883
 20
49.8115
 11
60.4736
 21
49.7187
  0
LINE
  8
0
 10
60.4736
 20
49.7187
 11
60.4531
 21
49.6269
  0
LINE
  8
0
 10
60.4531
 20
49.6269
 11
60.4268
 21
49.5361
  0
LINE
  8
0
 10
60.4268
 20
49.5361
 11
60.3945
 21
49.4482
  0
LINE
  8
0
 10
60.3945
 20
49.4482
 11
60.3574
 21
49.3613
  0
LINE
  8
0
 10
60.3574
 20
49.3613
 11
60.3145
 21
49.2773
  0
LINE
  8
0
 10
60.3145
 20
49.2773
 11
60.2666
 21
49.1963
  0
LINE
  8
0
 10
60.2666
 20
49.1963
 11
60.2139
 21
49.1181
  0
LINE
  8
0
 10
60.2139
 20
49.1181
 11
60.1562
 21
49.0439
  0
LINE
  8
0
 10
60.1562
 20
49.0439
 11
60.0938
 21
48.9736
  0
LINE
  8
0
 10
60.0938
 20
48.9736
 11
60.0264
 21
48.9062
  0
LINE
  8
0
 10
60.0264
 20
48.9062
 11
59.9561
 21
48.8437
  0
LINE
  8
0
 10
59.9561
 20
48.8437
 11
59.8818
 21
48.7861
  0
LINE
  8
0
 10
59.8818
 20
48.7861
 11
59.8037
 21
48.7334
  0
LINE
  8
0
 10
59.8037
 20
48.7334
 11
59.7227
 21
48.6855
  0
LINE
  8
0
 10
59.7227
 20
48.6855
 11
59.6387
 21
48.6426
  0
LINE
  8
0
 10
59.6387
 20
48.6426
 11
59.5518
 21
48.6055
  0
LINE
  8
0
 10
59.5518
 20
48.6055
 11
59.4639
 21
48.5732
  0
LINE
  8
0
 10
59.4639
 20
48.5732
 11
59.373
 21
48.5469
  0
LINE
  8
0
 10
59.373
 20
48.5469
 11
59.2812
 21
48.5264
  0
LINE
  8
0
 10
59.2812
 20
48.5264
 11
59.1885
 21
48.5117
  0
LINE
  8
0
 10
59.1885
 20
48.5117
 11
59.0938
 21
48.5029
  0
LINE
  8
0
 10
59.0938
 20
48.5029
 11
59
 21
48.5
  0
LINE
  8
0
 10
59
 20
48.5
 11
58.9062
 21
48.5029
  0
LINE
  8
0
 10
29
 20
-7
 11
29
 21
47
  0
LINE
  8
0
 10
29
 20
47
 11
31
 21
47
  0
LINE
  8
0
 10
31
 20
47
 11
31
 21
-7
  0
LINE
  8
0
 10
31
 20
-7
 11
29
 21
-7
  0
LINE
  8
0
 10
-11
 20
-6.99998
 11
-11
 21
47
  0
LINE
  8
0
 10
-11
 20
47
 11
-8.99998
 21
47
  0
LINE
  8
0
 10
-8.99998
 20
47
 11
-9
 21
-6.99998
  0
LINE
  8
0
 10
-9
 20
-6.99998
 11
-11
 21
-6.99998
  0
LINE
  8
0
 10
-31
 20
-6.99998
 11
-31
 21
47
  0
LINE
  8
0
 10
-31
 20
47
 11
-29
 21
47
  0
LINE
  8
0
 10
-29
 20
47
 11
-29
 21
-6.99998
  0
LINE
  8
0
 10
-29
 20
-6.99998
 11
-31
 21
-6.99998
  0
LINE
  8
0
 10
9
 20
-7
 11
9
 21
47
  0
LINE
  8
0
 10
9
 20
47
 11
11
 21
47
  0
LINE
  8
0
 10
11
 20
47
 11
11
 21
-7
  0
LINE
  8
0
 10
11
 20
-7
 11
9
 21
-7
  0
LINE
  8
0
 10
-51
 20
-6.99998
 11
-51
 21
47
  0
LINE
  8
0
 10
-51
 20
47
 11
-49
 21
47
  0
LINE
  8
0
 10
-49
 20
47
 11
-49
 21
-6.99998
  0
LINE
  8
0
 10
-49
 20
-6.99998
 11
-51
 21
-6.99998
  0
LINE
  8
0
 10
49
 20
-7
 11
49
 21
47
  0
LINE
  8
0
 10
49
 20
47
 11
51
 21
47
  0
LINE
  8
0
 10
51
 20
47
 11
51
 21
-7
  0
LINE
  8
0
 10
51
 20
-7
 11
49
 21
-7
  0
LINE
  8
0
 10
49.5918
 20
-32.4873
 11
49.1855
 21
-32.4492
  0
LINE
  8
0
 10
49.1855
 20
-32.4492
 11
48.7822
 21
-32.3848
  0
LINE
  8
0
 10
48.7822
 20
-32.3848
 11
48.3838
 21
-32.2959
  0
LINE
  8
0
 10
48.3838
 20
-32.2959
 11
47.9912
 21
-32.1816
  0
LINE
  8
0
 10
47.9912
 20
-32.1816
 11
47.6074
 21
-32.0439
  0
LINE
  8
0
 10
47.6074
 20
-32.0439
 11
47.2324
 21
-31.8818
  0
LINE
  8
0
 10
47.2324
 20
-31.8818
 11
46.8681
 21
-31.6963
  0
LINE
  8
0
 10
46.8681
 20
-31.6963
 11
46.5176
 21
-31.4883
  0
LINE
  8
0
 10
46.5176
 20
-31.4883
 11
46.1797
 21
-31.2588
  0
LINE
  8
0
 10
46.1797
 20
-31.2588
 11
45.8564
 21
-31.0088
  0
LINE
  8
0
 10
45.8564
 20
-31.0088
 11
45.5508
 21
-30.7383
  0
LINE
  8
0
 10
45.5508
 20
-30.7383
 11
45.2617
 21
-30.4492
  0
LINE
  8
0
 10
45.2617
 20
-30.4492
 11
44.9912
 21
-30.1436
  0
LINE
  8
0
 10
44.9912
 20
-30.1436
 11
44.7412
 21
-29.8203
  0
LINE
  8
0
 10
44.7412
 20
-29.8203
 11
44.5117
 21
-29.4824
  0
LINE
  8
0
 10
44.5117
 20
-29.4824
 11
44.3037
 21
-29.1318
  0
LINE
  8
0
 10
44.3037
 20
-29.1318
 11
44.1182
 21
-28.7676
  0
LINE
  8
0
 10
44.1182
 20
-28.7676
 11
43.9561
 21
-28.3926
  0
LINE
  8
0
 10
43.9561
 20
-28.3926
 11
43.8184
 21
-28.0088
  0
LINE
  8
0
 10
43.8184
 20
-28.0088
 11
43.7041
 21
-27.6162
  0
LINE
  8
0
 10
43.7041
 20
-27.6162
 11
43.6152
 21
-27.2178
  0
LINE
  8
0
 10
43.6152
 20
-27.2178
 11
43.5508
 21
-26.8145
  0
LINE
  8
0
 10
43.5508
 20
-26.8145
 11
43.5127
 21
-26.4082
  0
LINE
  8
0
 10
43.5127
 20
-26.4082
 11
43.5
 21
-26
  0
LINE
  8
0
 10
43.5
 20
-26
 11
43.5127
 21
-25.5918
  0
LINE
  8
0
 10
43.5127
 20
-25.5918
 11
43.5508
 21
-25.1855
  0
LINE
  8
0
 10
43.5508
 20
-25.1855
 11
43.6152
 21
-24.7822
  0
LINE
  8
0
 10
43.6152
 20
-24.7822
 11
43.7041
 21
-24.3838
  0
LINE
  8
0
 10
43.7041
 20
-24.3838
 11
43.8184
 21
-23.9912
  0
LINE
  8
0
 10
43.8184
 20
-23.9912
 11
43.9561
 21
-23.6074
  0
LINE
  8
0
 10
43.9561
 20
-23.6074
 11
44.1182
 21
-23.2324
  0
LINE
  8
0
 10
44.1182
 20
-23.2324
 11
44.3037
 21
-22.8682
  0
LINE
  8
0
 10
44.3037
 20
-22.8682
 11
44.5117
 21
-22.5176
  0
LINE
  8
0
 10
44.5117
 20
-22.5176
 11
44.7412
 21
-22.1797
  0
LINE
  8
0
 10
44.7412
 20
-22.1797
 11
44.9912
 21
-21.8564
  0
LINE
  8
0
 10
44.9912
 20
-21.8564
 11
45.2617
 21
-21.5508
  0
LINE
  8
0
 10
45.2617
 20
-21.5508
 11
45.5508
 21
-21.2617
  0
LINE
  8
0
 10
45.5508
 20
-21.2617
 11
45.8564
 21
-20.9912
  0
LINE
  8
0
 10
45.8564
 20
-20.9912
 11
46.1797
 21
-20.7412
  0
LINE
  8
0
 10
46.1797
 20
-20.7412
 11
46.5176
 21
-20.5117
  0
LINE
  8
0
 10
46.5176
 20
-20.5117
 11
46.8682
 21
-20.3037
  0
LINE
  8
0
 10
46.8682
 20
-20.3037
 11
47.2324
 21
-20.1182
  0
LINE
  8
0
 10
47.2324
 20
-20.1182
 11
47.6074
 21
-19.9561
  0
LINE
  8
0
 10
47.6074
 20
-19.9561
 11
47.9912
 21
-19.8184
  0
LINE
  8
0
 10
47.9912
 20
-19.8184
 11
48.3838
 21
-19.7041
  0
LINE
  8
0
 10
48.3838
 20
-19.7041
 11
48.7822
 21
-19.6152
  0
LINE
  8
0
 10
48.7822
 20
-19.6152
 11
49.1855
 21
-19.5508
  0
LINE
  8
0
 10
49.1855
 20
-19.5508
 11
49.5918
 21
-19.5127
  0
LINE
  8
0
 10
49.5918
 20
-19.5127
 11
50
 21
-19.5
  0
LINE
  8
0
 10
50
 20
-19.5
 11
50.4082
 21
-19.5127
  0
LINE
  8
0
 10
50.4082
 20
-19.5127
 11
50.8145
 21
-19.5508
  0
LINE
  8
0
 10
50.8145
 20
-19.5508
 11
51.2178
 21
-19.6152
  0
LINE
  8
0
 10
51.2178
 20
-19.6152
 11
51.6162
 21
-19.7041
  0
LINE
  8
0
 10
51.6162
 20
-19.7041
 11
52.0088
 21
-19.8184
  0
LINE
  8
0
 10
52.0088
 20
-19.8184
 11
52.3926
 21
-19.9561
  0
LINE
  8
0
 10
52.3926
 20
-19.9561
 11
52.7676
 21
-20.1182
  0
LINE
  8
0
 10
52.7676
 20
-20.1182
 11
53.1318
 21
-20.3037
  0
LINE
  8
0
 10
53.1318
 20
-20.3037
 11
53.4824
 21
-20.5117
  0
LINE
  8
0
 10
53.4824
 20
-20.5117
 11
53.8203
 21
-20.7412
  0
LINE
  8
0
 10
53.8203
 20
-20.7412
 11
54.1436
 21
-20.9912
  0
LINE
  8
0
 10
54.1436
 20
-20.9912
 11
54.4492
 21
-21.2617
  0
LINE
  8
0
 10
54.4492
 20
-21.2617
 11
54.7383
 21
-21.5508
  0
LINE
  8
0
 10
54.7383
 20
-21.5508
 11
55.0088
 21
-21.8564
  0
LINE
  8
0
 10
55.0088
 20
-21.8564
 11
55.2588
 21
-22.1797
  0
LINE
  8
0
 10
55.2588
 20
-22.1797
 11
55.4883
 21
-22.5176
  0
LINE
  8
0
 10
55.4883
 20
-22.5176
 11
55.6963
 21
-22.8682
  0
LINE
  8
0
 10
55.6963
 20
-22.8682
 11
55.8818
 21
-23.2324
  0
LINE
  8
0
 10
55.8818
 20
-23.2324
 11
56.0439
 21
-23.6074
  0
LINE
  8
0
 10
56.0439
 20
-23.6074
 11
56.1816
 21
-23.9912
  0
LINE
  8
0
 10
56.1816
 20
-23.9912
 11
56.2959
 21
-24.3838
  0
LINE
  8
0
 10
56.2959
 20
-24.3838
 11
56.3848
 21
-24.7822
  0
LINE
  8
0
 10
56.3848
 20
-24.7822
 11
56.4492
 21
-25.1855
  0
LINE
  8
0
 10
56.4492
 20
-25.1855
 11
56.4873
 21
-25.5918
  0
LINE
  8
0
 10
56.4873
 20
-25.5918
 11
56.5
 21
-26
  0
LINE
  8
0
 10
56.5
 20
-26
 11
56.4873
 21
-26.4082
  0
LINE
  8
0
 10
56.4873
 20
-26.4082
 11
56.4492
 21
-26.8145
  0
LINE
  8
0
 10
56.4492
 20
-26.8145
 11
56.3848
 21
-27.2178
  0
LINE
  8
0
 10
56.3848
 20
-27.2178
 11
56.2959
 21
-27.6162
  0
LINE
  8
0
 10
56.2959
 20
-27.6162
 11
56.1816
 21
-28.0088
  0
LINE
  8
0
 10
56.1816
 20
-28.0088
 11
56.0439
 21
-28.3926
  0
LINE
  8
0
 10
56.0439
 20
-28.3926
 11
55.8818
 21
-28.7676
  0
LINE
  8
0
 10
55.8818
 20
-28.7676
 11
55.6963
 21
-29.1318
  0
LINE
  8
0
 10
55.6963
 20
-29.1318
 11
55.4883
 21
-29.4824
  0
LINE
  8
0
 10
55.4883
 20
-29.4824
 11
55.2588
 21
-29.8203
  0
LINE
  8
0
 10
55.2588
 20
-29.8203
 11
55.0088
 21
-30.1436
  0
LINE
  8
0
 10
55.0088
 20
-30.1436
 11
54.7383
 21
-30.4492
  0
LINE
  8
0
 10
54.7383
 20
-30.4492
 11
54.4492
 21
-30.7383
  0
LINE
  8
0
 10
54.4492
 20
-30.7383
 11
54.1435
 21
-31.0088
  0
LINE
  8
0
 10
54.1435
 20
-31.0088
 11
53.8203
 21
-31.2588
  0
LINE
  8
0
 10
53.8203
 20
-31.2588
 11
53.4824
 21
-31.4883
  0
LINE
  8
0
 10
53.4824
 20
-31.4883
 11
53.1318
 21
-31.6963
  0
LINE
  8
0
 10
53.1318
 20
-31.6963
 11
52.7676
 21
-31.8818
  0
LINE
  8
0
 10
52.7676
 20
-31.8818
 11
52.3926
 21
-32.0439
  0
LINE
  8
0
 10
52.3926
 20
-32.0439
 11
52.0088
 21
-32.1816
  0
LINE
  8
0
 10
52.0088
 20
-32.1816
 11
51.6162
 21
-32.2959
  0
LINE
  8
0
 10
51.6162
 20
-32.2959
 11
51.2178
 21
-32.3848
  0
LINE
  8
0
 10
51.2178
 20
-32.3848
 11
50.8144
 21
-32.4492
  0
LINE
  8
0
 10
50.8144
 20
-32.4492
 11
50.4082
 21
-32.4873
  0
LINE
  8
0
 10
50.4082
 20
-32.4873
 11
50
 21
-32.5
  0
LINE
  8
0
 10
50
 20
-32.5
 11
49.5918
 21
-32.4873
  0
LINE
  8
0
 10
9.59178
 20
-32.4873
 11
9.18553
 21
-32.4492
  0
LINE
  8
0
 10
9.18553
 20
-32.4492
 11
8.78221
 21
-32.3848
  0
LINE
  8
0
 10
8.78221
 20
-32.3848
 11
8.38377
 21
-32.2959
  0
LINE
  8
0
 10
8.38377
 20
-32.2959
 11
7.9912
 21
-32.1816
  0
LINE
  8
0
 10
7.9912
 20
-32.1816
 11
7.60741
 21
-32.0439
  0
LINE
  8
0
 10
7.60741
 20
-32.0439
 11
7.23241
 21
-31.8818
  0
LINE
  8
0
 10
7.23241
 20
-31.8818
 11
6.86815
 21
-31.6963
  0
LINE
  8
0
 10
6.86815
 20
-31.6963
 11
6.51756
 21
-31.4883
  0
LINE
  8
0
 10
6.51756
 20
-31.4883
 11
6.17967
 21
-31.2588
  0
LINE
  8
0
 10
6.17967
 20
-31.2588
 11
5.85643
 21
-31.0088
  0
LINE
  8
0
 10
5.85643
 20
-31.0088
 11
5.55077
 21
-30.7383
  0
LINE
  8
0
 10
5.55077
 20
-30.7383
 11
5.2617
 21
-30.4492
  0
LINE
  8
0
 10
5.2617
 20
-30.4492
 11
4.9912
 21
-30.1436
  0
LINE
  8
0
 10
4.9912
 20
-30.1436
 11
4.7412
 21
-29.8203
  0
LINE
  8
0
 10
4.7412
 20
-29.8203
 11
4.5117
 21
-29.4824
  0
LINE
  8
0
 10
4.5117
 20
-29.4824
 11
4.3037
 21
-29.1318
  0
LINE
  8
0
 10
4.3037
 20
-29.1318
 11
4.11815
 21
-28.7676
  0
LINE
  8
0
 10
4.11815
 20
-28.7676
 11
3.95604
 21
-28.3926
  0
LINE
  8
0
 10
3.95604
 20
-28.3926
 11
3.81834
 21
-28.0088
  0
LINE
  8
0
 10
3.81834
 20
-28.0088
 11
3.70409
 21
-27.6162
  0
LINE
  8
0
 10
3.70409
 20
-27.6162
 11
3.61522
 21
-27.2178
  0
LINE
  8
0
 10
3.61522
 20
-27.2178
 11
3.55077
 21
-26.8145
  0
LINE
  8
0
 10
3.55077
 20
-26.8145
 11
3.51268
 21
-26.4082
  0
LINE
  8
0
 10
3.51268
 20
-26.4082
 11
3.49998
 21
-26
  0
LINE
  8
0
 10
3.49998
 20
-26
 11
3.51268
 21
-25.5918
  0
LINE
  8
0
 10
3.51268
 20
-25.5918
 11
3.55077
 21
-25.1855
  0
LINE
  8
0
 10
3.55077
 20
-25.1855
 11
3.61522
 21
-24.7822
  0
LINE
  8
0
 10
3.61522
 20
-24.7822
 11
3.70409
 21
-24.3838
  0
LINE
  8
0
 10
3.70409
 20
-24.3838
 11
3.81834
 21
-23.9912
  0
LINE
  8
0
 10
3.81834
 20
-23.9912
 11
3.95604
 21
-23.6074
  0
LINE
  8
0
 10
3.95604
 20
-23.6074
 11
4.11815
 21
-23.2324
  0
LINE
  8
0
 10
4.11815
 20
-23.2324
 11
4.3037
 21
-22.8682
  0
LINE
  8
0
 10
4.3037
 20
-22.8682
 11
4.5117
 21
-22.5176
  0
LINE
  8
0
 10
4.5117
 20
-22.5176
 11
4.7412
 21
-22.1797
  0
LINE
  8
0
 10
4.7412
 20
-22.1797
 11
4.9912
 21
-21.8564
  0
LINE
  8
0
 10
4.9912
 20
-21.8564
 11
5.2617
 21
-21.5508
  0
LINE
  8
0
 10
5.2617
 20
-21.5508
 11
5.55077
 21
-21.2617
  0
LINE
  8
0
 10
5.55077
 20
-21.2617
 11
5.85643
 21
-20.9912
  0
LINE
  8
0
 10
5.85643
 20
-20.9912
 11
6.17967
 21
-20.7412
  0
LINE
  8
0
 10
6.17967
 20
-20.7412
 11
6.51756
 21
-20.5117
  0
LINE
  8
0
 10
6.51756
 20
-20.5117
 11
6.86815
 21
-20.3037
  0
LINE
  8
0
 10
6.86815
 20
-20.3037
 11
7.23241
 21
-20.1182
  0
LINE
  8
0
 10
7.23241
 20
-20.1182
 11
7.60741
 21
-19.9561
  0
LINE
  8
0
 10
7.60741
 20
-19.9561
 11
7.9912
 21
-19.8184
  0
LINE
  8
0
 10
7.9912
 20
-19.8184
 11
8.38377
 21
-19.7041
  0
LINE
  8
0
 10
8.38377
 20
-19.7041
 11
8.78221
 21
-19.6152
  0
LINE
  8
0
 10
8.78221
 20
-19.6152
 11
9.18553
 21
-19.5508
  0
LINE
  8
0
 10
9.18553
 20
-19.5508
 11
9.59178
 21
-19.5127
  0
LINE
  8
0
 10
9.59178
 20
-19.5127
 11
9.99998
 21
-19.5
  0
LINE
  8
0
 10
9.99998
 20
-19.5
 11
10.4082
 21
-19.5127
  0
LINE
  8
0
 10
10.4082
 20
-19.5127
 11
10.8144
 21
-19.5508
  0
LINE
  8
0
 10
10.8144
 20
-19.5508
 11
11.2178
 21
-19.6152
  0
LINE
  8
0
 10
11.2178
 20
-19.6152
 11
11.6162
 21
-19.7041
  0
LINE
  8
0
 10
11.6162
 20
-19.7041
 11
12.0088
 21
-19.8184
  0
LINE
  8
0
 10
12.0088
 20
-19.8184
 11
12.3926
 21
-19.9561
  0
LINE
  8
0
 10
12.3926
 20
-19.9561
 11
12.7676
 21
-20.1182
  0
LINE
  8
0
 10
12.7676
 20
-20.1182
 11
13.1318
 21
-20.3037
  0
LINE
  8
0
 10
13.1318
 20
-20.3037
 11
13.4824
 21
-20.5117
  0
LINE
  8
0
 10
13.4824
 20
-20.5117
 11
13.8203
 21
-20.7412
  0
LINE
  8
0
 10
13.8203
 20
-20.7412
 11
14.1435
 21
-20.9912
  0
LINE
  8
0
 10
14.1435
 20
-20.9912
 11
14.4492
 21
-21.2617
  0
LINE
  8
0
 10
14.4492
 20
-21.2617
 11
14.7383
 21
-21.5508
  0
LINE
  8
0
 10
14.7383
 20
-21.5508
 11
15.0088
 21
-21.8564
  0
LINE
  8
0
 10
15.0088
 20
-21.8564
 11
15.2588
 21
-22.1797
  0
LINE
  8
0
 10
15.2588
 20
-22.1797
 11
15.4883
 21
-22.5176
  0
LINE
  8
0
 10
15.4883
 20
-22.5176
 11
15.6963
 21
-22.8682
  0
LINE
  8
0
 10
15.6963
 20
-22.8682
 11
15.8818
 21
-23.2324
  0
LINE
  8
0
 10
15.8818
 20
-23.2324
 11
16.0439
 21
-23.6074
  0
LINE
  8
0
 10
16.0439
 20
-23.6074
 11
16.1816
 21
-23.9912
  0
LINE
  8
0
 10
16.1816
 20
-23.9912
 11
16.2959
 21
-24.3838
  0
LINE
  8
0
 10
16.2959
 20
-24.3838
 11
16.3848
 21
-24.7822
  0
LINE
  8
0
 10
16.3848
 20
-24.7822
 11
16.4492
 21
-25.1855
  0
LINE
  8
0
 10
16.4492
 20
-25.1855
 11
16.4873
 21
-25.5918
  0
LINE
  8
0
 10
16.4873
 20
-25.5918
 11
16.5
 21
-26
  0
LINE
  8
0
 10
16.5
 20
-26
 11
16.4873
 21
-26.4082
  0
LINE
  8
0
 10
16.4873
 20
-26.4082
 11
16.4492
 21
-26.8145
  0
LINE
  8
0
 10
16.4492
 20
-26.8145
 11
16.3848
 21
-27.2178
  0
LINE
  8
0
 10
16.3848
 20
-27.2178
 11
16.2959
 21
-27.6162
  0
LINE
  8
0
 10
16.2959
 20
-27.6162
 11
16.1816
 21
-28.0088
  0
LINE
  8
0
 10
16.1816
 20
-28.0088
 11
16.0439
 21
-28.3926
  0
LINE
  8
0
 10
16.0439
 20
-28.3926
 11
15.8818
 21
-28.7676
  0
LINE
  8
0
 10
15.8818
 20
-28.7676
 11
15.6963
 21
-29.1318
  0
LINE
  8
0
 10
15.6963
 20
-29.1318
 11
15.4883
 21
-29.4824
  0
LINE
  8
0
 10
15.4883
 20
-29.4824
 11
15.2588
 21
-29.8203
  0
LINE
  8
0
 10
15.2588
 20
-29.8203
 11
15.0088
 21
-30.1436
  0
LINE
  8
0
 10
15.0088
 20
-30.1436
 11
14.7383
 21
-30.4492
  0
LINE
  8
0
 10
14.7383
 20
-30.4492
 11
14.4492
 21
-30.7383
  0
LINE
  8
0
 10
14.4492
 20
-30.7383
 11
14.1435
 21
-31.0088
  0
LINE
  8
0
 10
14.1435
 20
-31.0088
 11
13.8203
 21
-31.2588
  0
LINE
  8
0
 10
13.8203
 20
-31.2588
 11
13.4824
 21
-31.4883
  0
LINE
  8
0
 10
13.4824
 20
-31.4883
 11
13.1318
 21
-31.6963
  0
LINE
  8
0
 10
13.1318
 20
-31.6963
 11
12.7676
 21
-31.8818
  0
LINE
  8
0
 10
12.7676
 20
-31.8818
 11
12.3926
 21
-32.0439
  0
LINE
  8
0
 10
12.3926
 20
-32.0439
 11
12.0088
 21
-32.1816
  0
LINE
  8
0
 10
12.0088
 20
-32.1816
 11
11.6162
 21
-32.2959
  0
LINE
  8
0
 10
11.6162
 20
-32.2959
 11
11.2178
 21
-32.3848
  0
LINE
  8
0
 10
11.2178
 20
-32.3848
 11
10.8144
 21
-32.4492
  0
LINE
  8
0
 10
10.8144
 20
-32.4492
 11
10.4082
 21
-32.4873
  0
LINE
  8
0
 10
10.4082
 20
-32.4873
 11
9.99998
 21
-32.5
  0
LINE
  8
0
 10
9.99998
 20
-32.5
 11
9.59178
 21
-32.4873
  0
LINE
  8
0
 10
-10.4082
 20
-32.4873
 11
-10.8145
 21
-32.4492
  0
LINE
  8
0
 10
-10.8145
 20
-32.4492
 11
-11.2178
 21
-32.3848
  0
LINE
  8
0
 10
-11.2178
 20
-32.3848
 11
-11.6162
 21
-32.2959
  0
LINE
  8
0
 10
-11.6162
 20
-32.2959
 11
-12.0088
 21
-32.1816
  0
LINE
  8
0
 10
-12.0088
 20
-32.1816
 11
-12.3926
 21
-32.0439
  0
LINE
  8
0
 10
-12.3926
 20
-32.0439
 11
-12.7676
 21
-31.8818
  0
LINE
  8
0
 10
-12.7676
 20
-31.8818
 11
-13.1318
 21
-31.6963
  0
LINE
  8
0
 10
-13.1318
 20
-31.6963
 11
-13.4824
 21
-31.4883
  0
LINE
  8
0
 10
-13.4824
 20
-31.4883
 11
-13.8203
 21
-31.2588
  0
LINE
  8
0
 10
-13.8203
 20
-31.2588
 11
-14.1436
 21
-31.0088
  0
LINE
  8
0
 10
-14.1436
 20
-31.0088
 11
-14.4492
 21
-30.7383
  0
LINE
  8
0
 10
-14.4492
 20
-30.7383
 11
-14.7383
 21
-30.4492
  0
LINE
  8
0
 10
-14.7383
 20
-30.4492
 11
-15.0088
 21
-30.1435
  0
LINE
  8
0
 10
-15.0088
 20
-30.1435
 11
-15.2588
 21
-29.8203
  0
LINE
  8
0
 10
-15.2588
 20
-29.8203
 11
-15.4883
 21
-29.4824
  0
LINE
  8
0
 10
-15.4883
 20
-29.4824
 11
-15.6963
 21
-29.1318
  0
LINE
  8
0
 10
-15.6963
 20
-29.1318
 11
-15.8818
 21
-28.7676
  0
LINE
  8
0
 10
-15.8818
 20
-28.7676
 11
-16.0439
 21
-28.3926
  0
LINE
  8
0
 10
-16.0439
 20
-28.3926
 11
-16.1816
 21
-28.0088
  0
LINE
  8
0
 10
-16.1816
 20
-28.0088
 11
-16.2959
 21
-27.6162
  0
LINE
  8
0
 10
-16.2959
 20
-27.6162
 11
-16.3848
 21
-27.2178
  0
LINE
  8
0
 10
-16.3848
 20
-27.2178
 11
-16.4492
 21
-26.8144
  0
LINE
  8
0
 10
-16.4492
 20
-26.8144
 11
-16.4873
 21
-26.4082
  0
LINE
  8
0
 10
-16.4873
 20
-26.4082
 11
-16.5
 21
-26
  0
LINE
  8
0
 10
-16.5
 20
-26
 11
-16.4873
 21
-25.5918
  0
LINE
  8
0
 10
-16.4873
 20
-25.5918
 11
-16.4492
 21
-25.1855
  0
LINE
  8
0
 10
-16.4492
 20
-25.1855
 11
-16.3848
 21
-24.7822
  0
LINE
  8
0
 10
-16.3848
 20
-24.7822
 11
-16.2959
 21
-24.3838
  0
LINE
  8
0
 10
-16.2959
 20
-24.3838
 11
-16.1816
 21
-23.9912
  0
LINE
  8
0
 10
-16.1816
 20
-23.9912
 11
-16.0439
 21
-23.6074
  0
LINE
  8
0
 10
-16.0439
 20
-23.6074
 11
-15.8818
 21
-23.2324
  0
LINE
  8
0
 10
-15.8818
 20
-23.2324
 11
-15.6963
 21
-22.8681
  0
LINE
  8
0
 10
-15.6963
 20
-22.8681
 11
-15.4883
 21
-22.5176
  0
LINE
  8
0
 10
-15.4883
 20
-22.5176
 11
-15.2588
 21
-22.1797
  0
LINE
  8
0
 10
-15.2588
 20
-22.1797
 11
-15.0088
 21
-21.8564
  0
LINE
  8
0
 10
-15.0088
 20
-21.8564
 11
-14.7383
 21
-21.5508
  0
LINE
  8
0
 10
-14.7383
 20
-21.5508
 11
-14.4492
 21
-21.2617
  0
LINE
  8
0
 10
-14.4492
 20
-21.2617
 11
-14.1436
 21
-20.9912
  0
LINE
  8
0
 10
-14.1436
 20
-20.9912
 11
-13.8203
 21
-20.7412
  0
LINE
  8
0
 10
-13.8203
 20
-20.7412
 11
-13.4824
 21
-20.5117
  0
LINE
  8
0
 10
-13.4824
 20
-20.5117
 11
-13.1318
 21
-20.3037
  0
LINE
  8
0
 10
-13.1318
 20
-20.3037
 11
-12.7676
 21
-20.1182
  0
LINE
  8
0
 10
-12.7676
 20
-20.1182
 11
-12.3926
 21
-19.9561
  0
LINE
  8
0
 10
-12.3926
 20
-19.9561
 11
-12.0088
 21
-19.8184
  0
LINE
  8
0
 10
-12.0088
 20
-19.8184
 11
-11.6162
 21
-19.7041
  0
LINE
  8
0
 10
-11.6162
 20
-19.7041
 11
-11.2178
 21
-19.6152
  0
LINE
  8
0
 10
-11.2178
 20
-19.6152
 11
-10.8145
 21
-19.5508
  0
LINE
  8
0
 10
-10.8145
 20
-19.5508
 11
-10.4082
 21
-19.5127
  0
LINE
  8
0
 10
-10.4082
 20
-19.5127
 11
-10
 21
-19.5
  0
LINE
  8
0
 10
-10
 20
-19.5
 11
-9.5918
 21
-19.5127
  0
LINE
  8
0
 10
-9.5918
 20
-19.5127
 11
-9.18555
 21
-19.5508
  0
LINE
  8
0
 10
-9.18555
 20
-19.5508
 11
-8.78223
 21
-19.6152
  0
LINE
  8
0
 10
-8.78223
 20
-19.6152
 11
-8.38379
 21
-19.7041
  0
LINE
  8
0
 10
-8.38379
 20
-19.7041
 11
-7.99121
 21
-19.8184
  0
LINE
  8
0
 10
-7.99121
 20
-19.8184
 11
-7.60742
 21
-19.9561
  0
LINE
  8
0
 10
-7.60742
 20
-19.9561
 11
-7.23242
 21
-20.1182
  0
LINE
  8
0
 10
-7.23242
 20
-20.1182
 11
-6.86816
 21
-20.3037
  0
LINE
  8
0
 10
-6.86816
 20
-20.3037
 11
-6.51758
 21
-20.5117
  0
LINE
  8
0
 10
-6.51758
 20
-20.5117
 11
-6.17969
 21
-20.7412
  0
LINE
  8
0
 10
-6.17969
 20
-20.7412
 11
-5.85645
 21
-20.9912
  0
LINE
  8
0
 10
-5.85645
 20
-20.9912
 11
-5.55078
 21
-21.2617
  0
LINE
  8
0
 10
-5.55078
 20
-21.2617
 11
-5.26172
 21
-21.5508
  0
LINE
  8
0
 10
-5.26172
 20
-21.5508
 11
-4.99121
 21
-21.8564
  0
LINE
  8
0
 10
-4.99121
 20
-21.8564
 11
-4.74121
 21
-22.1797
  0
LINE
  8
0
 10
-4.74121
 20
-22.1797
 11
-4.51172
 21
-22.5176
  0
LINE
  8
0
 10
-4.51172
 20
-22.5176
 11
-4.30371
 21
-22.8682
  0
LINE
  8
0
 10
-4.30371
 20
-22.8682
 11
-4.11816
 21
-23.2324
  0
LINE
  8
0
 10
-4.11816
 20
-23.2324
 11
-3.95605
 21
-23.6074
  0
LINE
  8
0
 10
-3.95605
 20
-23.6074
 11
-3.81836
 21
-23.9912
  0
LINE
  8
0
 10
-3.81836
 20
-23.9912
 11
-3.7041
 21
-24.3838
  0
LINE
  8
0
 10
-3.7041
 20
-24.3838
 11
-3.61523
 21
-24.7822
  0
LINE
  8
0
 10
-3.61523
 20
-24.7822
 11
-3.55078
 21
-25.1855
  0
LINE
  8
0
 10
-3.55078
 20
-25.1855
 11
-3.5127
 21
-25.5918
  0
LINE
  8
0
 10
-3.5127
 20
-25.5918
 11
-3.5
 21
-26
  0
LINE
  8
0
 10
-3.5
 20
-26
 11
-3.5127
 21
-26.4082
  0
LINE
  8
0
 10
-3.5127
 20
-26.4082
 11
-3.55078
 21
-26.8145
  0
LINE
  8
0
 10
-3.55078
 20
-26.8145
 11
-3.61523
 21
-27.2178
  0
LINE
  8
0
 10
-3.61523
 20
-27.2178
 11
-3.7041
 21
-27.6162
  0
LINE
  8
0
 10
-3.7041
 20
-27.6162
 11
-3.81836
 21
-28.0088
  0
LINE
  8
0
 10
-3.81836
 20
-28.0088
 11
-3.95605
 21
-28.3926
  0
LINE
  8
0
 10
-3.95605
 20
-28.3926
 11
-4.11816
 21
-28.7676
  0
LINE
  8
0
 10
-4.11816
 20
-28.7676
 11
-4.30371
 21
-29.1318
  0
LINE
  8
0
 10
-4.30371
 20
-29.1318
 11
-4.51172
 21
-29.4824
  0
LINE
  8
0
 10
-4.51172
 20
-29.4824
 11
-4.74121
 21
-29.8203
  0
LINE
  8
0
 10
-4.74121
 20
-29.8203
 11
-4.99121
 21
-30.1436
  0
LINE
  8
0
 10
-4.99121
 20
-30.1436
 11
-5.26172
 21
-30.4492
  0
LINE
  8
0
 10
-5.26172
 20
-30.4492
 11
-5.55078
 21
-30.7383
  0
LINE
  8
0
 10
-5.55078
 20
-30.7383
 11
-5.85645
 21
-31.0088
  0
LINE
  8
0
 10
-5.85645
 20
-31.0088
 11
-6.17969
 21
-31.2588
  0
LINE
  8
0
 10
-6.17969
 20
-31.2588
 11
-6.51758
 21
-31.4883
  0
LINE
  8
0
 10
-6.51758
 20
-31.4883
 11
-6.86816
 21
-31.6963
  0
LINE
  8
0
 10
-6.86816
 20
-31.6963
 11
-7.23242
 21
-31.8818
  0
LINE
  8
0
 10
-7.23242
 20
-31.8818
 11
-7.60742
 21
-32.0439
  0
LINE
  8
0
 10
-7.60742
 20
-32.0439
 11
-7.99121
 21
-32.1816
  0
LINE
  8
0
 10
-7.99121
 20
-32.1816
 11
-8.38379
 21
-32.2959
  0
LINE
  8
0
 10
-8.38379
 20
-32.2959
 11
-8.78223
 21
-32.3848
  0
LINE
  8
0
 10
-8.78223
 20
-32.3848
 11
-9.18555
 21
-32.4492
  0
LINE
  8
0
 10
-9.18555
 20
-32.4492
 11
-9.5918
 21
-32.4873
  0
LINE
  8
0
 10
-9.5918
 20
-32.4873
 11
-10
 21
-32.5
  0
LINE
  8
0
 10
-10
 20
-32.5
 11
-10.4082
 21
-32.4873
  0
LINE
  8
0
 10
29.5918
 20
-32.4873
 11
29.1855
 21
-32.4492
  0
LINE
  8
0
 10
29.1855
 20
-32.4492
 11
28.7822
 21
-32.3848
  0
LINE
  8
0
 10
28.7822
 20
-32.3848
 11
28.3838
 21
-32.2959
  0
LINE
  8
0
 10
28.3838
 20
-32.2959
 11
27.9912
 21
-32.1816
  0
LINE
  8
0
 10
27.9912
 20
-32.1816
 11
27.6074
 21
-32.0439
  0
LINE
  8
0
 10
27.6074
 20
-32.0439
 11
27.2324
 21
-31.8818
  0
LINE
  8
0
 10
27.2324
 20
-31.8818
 11
26.8681
 21
-31.6963
  0
LINE
  8
0
 10
26.8681
 20
-31.6963
 11
26.5176
 21
-31.4883
  0
LINE
  8
0
 10
26.5176
 20
-31.4883
 11
26.1797
 21
-31.2588
  0
LINE
  8
0
 10
26.1797
 20
-31.2588
 11
25.8564
 21
-31.0088
  0
LINE
  8
0
 10
25.8564
 20
-31.0088
 11
25.5508
 21
-30.7383
  0
LINE
  8
0
 10
25.5508
 20
-30.7383
 11
25.2617
 21
-30.4492
  0
LINE
  8
0
 10
25.2617
 20
-30.4492
 11
24.9912
 21
-30.1436
  0
LINE
  8
0
 10
24.9912
 20
-30.1436
 11
24.7412
 21
-29.8203
  0
LINE
  8
0
 10
24.7412
 20
-29.8203
 11
24.5117
 21
-29.4824
  0
LINE
  8
0
 10
24.5117
 20
-29.4824
 11
24.3037
 21
-29.1318
  0
LINE
  8
0
 10
24.3037
 20
-29.1318
 11
24.1181
 21
-28.7676
  0
LINE
  8
0
 10
24.1181
 20
-28.7676
 11
23.956
 21
-28.3926
  0
LINE
  8
0
 10
23.956
 20
-28.3926
 11
23.8183
 21
-28.0088
  0
LINE
  8
0
 10
23.8183
 20
-28.0088
 11
23.7041
 21
-27.6162
  0
LINE
  8
0
 10
23.7041
 20
-27.6162
 11
23.6152
 21
-27.2178
  0
LINE
  8
0
 10
23.6152
 20
-27.2178
 11
23.5508
 21
-26.8145
  0
LINE
  8
0
 10
23.5508
 20
-26.8145
 11
23.5127
 21
-26.4082
  0
LINE
  8
0
 10
23.5127
 20
-26.4082
 11
23.5
 21
-26
  0
LINE
  8
0
 10
23.5
 20
-26
 11
23.5127
 21
-25.5918
  0
LINE
  8
0
 10
23.5127
 20
-25.5918
 11
23.5508
 21
-25.1855
  0
LINE
  8
0
 10
23.5508
 20
-25.1855
 11
23.6152
 21
-24.7822
  0
LINE
  8
0
 10
23.6152
 20
-24.7822
 11
23.7041
 21
-24.3838
  0
LINE
  8
0
 10
23.7041
 20
-24.3838
 11
23.8183
 21
-23.9912
  0
LINE
  8
0
 10
23.8183
 20
-23.9912
 11
23.956
 21
-23.6074
  0
LINE
  8
0
 10
23.956
 20
-23.6074
 11
24.1181
 21
-23.2324
  0
LINE
  8
0
 10
24.1181
 20
-23.2324
 11
24.3037
 21
-22.8682
  0
LINE
  8
0
 10
24.3037
 20
-22.8682
 11
24.5117
 21
-22.5176
  0
LINE
  8
0
 10
24.5117
 20
-22.5176
 11
24.7412
 21
-22.1797
  0
LINE
  8
0
 10
24.7412
 20
-22.1797
 11
24.9912
 21
-21.8564
  0
LINE
  8
0
 10
24.9912
 20
-21.8564
 11
25.2617
 21
-21.5508
  0
LINE
  8
0
 10
25.2617
 20
-21.5508
 11
25.5508
 21
-21.2617
  0
LINE
  8
0
 10
25.5508
 20
-21.2617
 11
25.8564
 21
-20.9912
  0
LINE
  8
0
 10
25.8564
 20
-20.9912
 11
26.1797
 21
-20.7412
  0
LINE
  8
0
 10
26.1797
 20
-20.7412
 11
26.5176
 21
-20.5117
  0
LINE
  8
0
 10
26.5176
 20
-20.5117
 11
26.8681
 21
-20.3037
  0
LINE
  8
0
 10
26.8681
 20
-20.3037
 11
27.2324
 21
-20.1182
  0
LINE
  8
0
 10
27.2324
 20
-20.1182
 11
27.6074
 21
-19.9561
  0
LINE
  8
0
 10
27.6074
 20
-19.9561
 11
27.9912
 21
-19.8184
  0
LINE
  8
0
 10
27.9912
 20
-19.8184
 11
28.3838
 21
-19.7041
  0
LINE
  8
0
 10
28.3838
 20
-19.7041
 11
28.7822
 21
-19.6152
  0
LINE
  8
0
 10
28.7822
 20
-19.6152
 11
29.1855
 21
-19.5508
  0
LINE
  8
0
 10
29.1855
 20
-19.5508
 11
29.5918
 21
-19.5127
  0
LINE
  8
0
 10
29.5918
 20
-19.5127
 11
30
 21
-19.5
  0
LINE
  8
0
 10
30
 20
-19.5
 11
30.4082
 21
-19.5127
  0
LINE
  8
0
 10
30.4082
 20
-19.5127
 11
30.8144
 21
-19.5508
  0
LINE
  8
0
 10
30.8144
 20
-19.5508
 11
31.2178
 21
-19.6152
  0
LINE
  8
0
 10
31.2178
 20
-19.6152
 11
31.6162
 21
-19.7041
  0
LINE
  8
0
 10
31.6162
 20
-19.7041
 11
32.0088
 21
-19.8184
  0
LINE
  8
0
 10
32.0088
 20
-19.8184
 11
32.3926
 21
-19.9561
  0
LINE
  8
0
 10
32.3926
 20
-19.9561
 11
32.7676
 21
-20.1182
  0
LINE
  8
0
 10
32.7676
 20
-20.1182
 11
33.1318
 21
-20.3037
  0
LINE
  8
0
 10
33.1318
 20
-20.3037
 11
33.4824
 21
-20.5117
  0
LINE
  8
0
 10
33.4824
 20
-20.5117
 11
33.8203
 21
-20.7412
  0
LINE
  8
0
 10
33.8203
 20
-20.7412
 11
34.1436
 21
-20.9912
  0
LINE
  8
0
 10
34.1436
 20
-20.9912
 11
34.4492
 21
-21.2617
  0
LINE
  8
0
 10
34.4492
 20
-21.2617
 11
34.7383
 21
-21.5508
  0
LINE
  8
0
 10
34.7383
 20
-21.5508
 11
35.0088
 21
-21.8564
  0
LINE
  8
0
 10
35.0088
 20
-21.8564
 11
35.2588
 21
-22.1797
  0
LINE
  8
0
 10
35.2588
 20
-22.1797
 11
35.4883
 21
-22.5176
  0
LINE
  8
0
 10
35.4883
 20
-22.5176
 11
35.6963
 21
-22.8682
  0
LINE
  8
0
 10
35.6963
 20
-22.8682
 11
35.8818
 21
-23.2324
  0
LINE
  8
0
 10
35.8818
 20
-23.2324
 11
36.0439
 21
-23.6074
  0
LINE
  8
0
 10
36.0439
 20
-23.6074
 11
36.1816
 21
-23.9912
  0
LINE
  8
0
 10
36.1816
 20
-23.9912
 11
36.2959
 21
-24.3838
  0
LINE
  8
0
 10
36.2959
 20
-24.3838
 11
36.3848
 21
-24.7822
  0
LINE
  8
0
 10
36.3848
 20
-24.7822
 11
36.4492
 21
-25.1855
  0
LINE
  8
0
 10
36.4492
 20
-25.1855
 11
36.4873
 21
-25.5918
  0
LINE
  8
0
 10
36.4873
 20
-25.5918
 11
36.5
 21
-26
  0
LINE
  8
0
 10
36.5
 20
-26
 11
36.4873
 21
-26.4082
  0
LINE
  8
0
 10
36.4873
 20
-26.4082
 11
36.4492
 21
-26.8145
  0
LINE
  8
0
 10
36.4492
 20
-26.8145
 11
36.3848
 21
-27.2178
  0
LINE
  8
0
 10
36.3848
 20
-27.2178
 11
36.2959
 21
-27.6162
  0
LINE
  8
0
 10
36.2959
 20
-27.6162
 11
36.1816
 21
-28.0088
  0
LINE
  8
0
 10
36.1816
 20
-28.0088
 11
36.0439
 21
-28.3926
  0
LINE
  8
0
 10
36.0439
 20
-28.3926
 11
35.8818
 21
-28.7676
  0
LINE
  8
0
 10
35.8818
 20
-28.7676
 11
35.6963
 21
-29.1318
  0
LINE
  8
0
 10
35.6963
 20
-29.1318
 11
35.4883
 21
-29.4824
  0
LINE
  8
0
 10
35.4883
 20
-29.4824
 11
35.2588
 21
-29.8203
  0
LINE
  8
0
 10
35.2588
 20
-29.8203
 11
35.0088
 21
-30.1436
  0
LINE
  8
0
 10
35.0088
 20
-30.1436
 11
34.7383
 21
-30.4492
  0
LINE
  8
0
 10
34.7383
 20
-30.4492
 11
34.4492
 21
-30.7383
  0
LINE
  8
0
 10
34.4492
 20
-30.7383
 11
34.1435
 21
-31.0088
  0
LINE
  8
0
 10
34.1435
 20
-31.0088
 11
33.8203
 21
-31.2588
  0
LINE
  8
0
 10
33.8203
 20
-31.2588
 11
33.4824
 21
-31.4883
  0
LINE
  8
0
 10
33.4824
 20
-31.4883
 11
33.1318
 21
-31.6963
  0
LINE
  8
0
 10
33.1318
 20
-31.6963
 11
32.7676
 21
-31.8818
  0
LINE
  8
0
 10
32.7676
 20
-31.8818
 11
32.3926
 21
-32.0439
  0
LINE
  8
0
 10
32.3926
 20
-32.0439
 11
32.0088
 21
-32.1816
  0
LINE
  8
0
 10
32.0088
 20
-32.1816
 11
31.6162
 21
-32.2959
  0
LINE
  8
0
 10
31.6162
 20
-32.2959
 11
31.2178
 21
-32.3848
  0
LINE
  8
0
 10
31.2178
 20
-32.3848
 11
30.8144
 21
-32.4492
  0
LINE
  8
0
 10
30.8144
 20
-32.4492
 11
30.4082
 21
-32.4873
  0
LINE
  8
0
 10
30.4082
 20
-32.4873
 11
30
 21
-32.5
  0
LINE
  8
0
 10
30
 20
-32.5
 11
29.5918
 21
-32.4873
  0
LINE
  8
0
 10
-30.251
 20
-29.9922
 11
-30.501
 21
-29.9687
  0
LINE
  8
0
 10
-30.501
 20
-29.9687
 11
-30.75
 21
-29.9287
  0
LINE
  8
0
 10
-30.75
 20
-29.9287
 11
-30.9951
 21
-29.874
  0
LINE
  8
0
 10
-30.9951
 20
-29.874
 11
-31.2363
 21
-29.8047
  0
LINE
  8
0
 10
-31.2363
 20
-29.8047
 11
-31.4727
 21
-29.7187
  0
LINE
  8
0
 10
-31.4727
 20
-29.7187
 11
-31.7031
 21
-29.6191
  0
LINE
  8
0
 10
-31.7031
 20
-29.6191
 11
-31.9268
 21
-29.5049
  0
LINE
  8
0
 10
-31.9268
 20
-29.5049
 11
-32.1436
 21
-29.3769
  0
LINE
  8
0
 10
-32.1436
 20
-29.3769
 11
-32.3516
 21
-29.2363
  0
LINE
  8
0
 10
-32.3516
 20
-29.2363
 11
-32.5498
 21
-29.082
  0
LINE
  8
0
 10
-32.5498
 20
-29.082
 11
-32.7383
 21
-28.916
  0
LINE
  8
0
 10
-32.7383
 20
-28.916
 11
-32.916
 21
-28.7383
  0
LINE
  8
0
 10
-32.916
 20
-28.7383
 11
-33.082
 21
-28.5498
  0
LINE
  8
0
 10
-33.082
 20
-28.5498
 11
-33.2363
 21
-28.3515
  0
LINE
  8
0
 10
-33.2363
 20
-28.3515
 11
-33.377
 21
-28.1435
  0
LINE
  8
0
 10
-33.377
 20
-28.1435
 11
-33.5049
 21
-27.9267
  0
LINE
  8
0
 10
-33.5049
 20
-27.9267
 11
-33.6191
 21
-27.7031
  0
LINE
  8
0
 10
-33.6191
 20
-27.7031
 11
-33.7188
 21
-27.4726
  0
LINE
  8
0
 10
-33.7188
 20
-27.4726
 11
-33.8047
 21
-27.2363
  0
LINE
  8
0
 10
-33.8047
 20
-27.2363
 11
-33.874
 21
-26.9951
  0
LINE
  8
0
 10
-33.874
 20
-26.9951
 11
-33.9287
 21
-26.75
  0
LINE
  8
0
 10
-33.9287
 20
-26.75
 11
-33.9688
 21
-26.501
  0
LINE
  8
0
 10
-33.9688
 20
-26.501
 11
-33.9922
 21
-26.251
  0
LINE
  8
0
 10
-33.9922
 20
-26.251
 11
-34
 21
-26
  0
LINE
  8
0
 10
-34
 20
-26
 11
-33.9922
 21
-25.749
  0
LINE
  8
0
 10
-33.9922
 20
-25.749
 11
-33.9688
 21
-25.499
  0
LINE
  8
0
 10
-33.9688
 20
-25.499
 11
-33.9287
 21
-25.25
  0
LINE
  8
0
 10
-33.9287
 20
-25.25
 11
-33.874
 21
-25.0049
  0
LINE
  8
0
 10
-33.874
 20
-25.0049
 11
-33.8047
 21
-24.7637
  0
LINE
  8
0
 10
-33.8047
 20
-24.7637
 11
-33.7188
 21
-24.5273
  0
LINE
  8
0
 10
-33.7188
 20
-24.5273
 11
-33.6191
 21
-24.2969
  0
LINE
  8
0
 10
-33.6191
 20
-24.2969
 11
-33.5049
 21
-24.0732
  0
LINE
  8
0
 10
-33.5049
 20
-24.0732
 11
-33.377
 21
-23.8564
  0
LINE
  8
0
 10
-33.377
 20
-23.8564
 11
-33.2363
 21
-23.6484
  0
LINE
  8
0
 10
-33.2363
 20
-23.6484
 11
-33.082
 21
-23.4502
  0
LINE
  8
0
 10
-33.082
 20
-23.4502
 11
-32.916
 21
-23.2617
  0
LINE
  8
0
 10
-32.916
 20
-23.2617
 11
-32.7383
 21
-23.084
  0
LINE
  8
0
 10
-32.7383
 20
-23.084
 11
-32.5498
 21
-22.918
  0
LINE
  8
0
 10
-32.5498
 20
-22.918
 11
-32.3516
 21
-22.7637
  0
LINE
  8
0
 10
-32.3516
 20
-22.7637
 11
-32.1436
 21
-22.623
  0
LINE
  8
0
 10
-32.1436
 20
-22.623
 11
-31.9268
 21
-22.4951
  0
LINE
  8
0
 10
-31.9268
 20
-22.4951
 11
-31.7031
 21
-22.3808
  0
LINE
  8
0
 10
-31.7031
 20
-22.3808
 11
-31.4727
 21
-22.2812
  0
LINE
  8
0
 10
-31.4727
 20
-22.2812
 11
-31.2363
 21
-22.1953
  0
LINE
  8
0
 10
-31.2363
 20
-22.1953
 11
-30.9951
 21
-22.126
  0
LINE
  8
0
 10
-30.9951
 20
-22.126
 11
-30.75
 21
-22.0713
  0
LINE
  8
0
 10
-30.75
 20
-22.0713
 11
-30.501
 21
-22.0312
  0
LINE
  8
0
 10
-30.501
 20
-22.0312
 11
-30.251
 21
-22.0078
  0
LINE
  8
0
 10
-30.251
 20
-22.0078
 11
-30
 21
-22
  0
LINE
  8
0
 10
-30
 20
-22
 11
-29.749
 21
-22.0078
  0
LINE
  8
0
 10
-29.749
 20
-22.0078
 11
-29.499
 21
-22.0312
  0
LINE
  8
0
 10
-29.499
 20
-22.0312
 11
-29.25
 21
-22.0713
  0
LINE
  8
0
 10
-29.25
 20
-22.0713
 11
-29.0049
 21
-22.126
  0
LINE
  8
0
 10
-29.0049
 20
-22.126
 11
-28.7637
 21
-22.1953
  0
LINE
  8
0
 10
-28.7637
 20
-22.1953
 11
-28.5273
 21
-22.2812
  0
LINE
  8
0
 10
-28.5273
 20
-22.2812
 11
-28.2969
 21
-22.3808
  0
LINE
  8
0
 10
-28.2969
 20
-22.3808
 11
-28.0732
 21
-22.4951
  0
LINE
  8
0
 10
-28.0732
 20
-22.4951
 11
-27.8564
 21
-22.623
  0
LINE
  8
0
 10
-27.8564
 20
-22.623
 11
-27.6484
 21
-22.7637
  0
LINE
  8
0
 10
-27.6484
 20
-22.7637
 11
-27.4502
 21
-22.918
  0
LINE
  8
0
 10
-27.4502
 20
-22.918
 11
-27.2617
 21
-23.084
  0
LINE
  8
0
 10
-27.2617
 20
-23.084
 11
-27.084
 21
-23.2617
  0
LINE
  8
0
 10
-27.084
 20
-23.2617
 11
-26.918
 21
-23.4502
  0
LINE
  8
0
 10
-26.918
 20
-23.4502
 11
-26.7637
 21
-23.6484
  0
LINE
  8
0
 10
-26.7637
 20
-23.6484
 11
-26.623
 21
-23.8564
  0
LINE
  8
0
 10
-26.623
 20
-23.8564
 11
-26.4951
 21
-24.0732
  0
LINE
  8
0
 10
-26.4951
 20
-24.0732
 11
-26.3809
 21
-24.2969
  0
LINE
  8
0
 10
-26.3809
 20
-24.2969
 11
-26.2812
 21
-24.5273
  0
LINE
  8
0
 10
-26.2812
 20
-24.5273
 11
-26.1953
 21
-24.7637
  0
LINE
  8
0
 10
-26.1953
 20
-24.7637
 11
-26.126
 21
-25.0049
  0
LINE
  8
0
 10
-26.126
 20
-25.0049
 11
-26.0713
 21
-25.25
  0
LINE
  8
0
 10
-26.0713
 20
-25.25
 11
-26.0312
 21
-25.499
  0
LINE
  8
0
 10
-26.0312
 20
-25.499
 11
-26.0078
 21
-25.749
  0
LINE
  8
0
 10
-26.0078
 20
-25.749
 11
-26
 21
-26
  0
LINE
  8
0
 10
-26
 20
-26
 11
-26.0078
 21
-26.251
  0
LINE
  8
0
 10
-26.0078
 20
-26.251
 11
-26.0312
 21
-26.501
  0
LINE
  8
0
 10
-26.0312
 20
-26.501
 11
-26.0713
 21
-26.75
  0
LINE
  8
0
 10
-26.0713
 20
-26.75
 11
-26.126
 21
-26.9951
  0
LINE
  8
0
 10
-26.126
 20
-26.9951
 11
-26.1953
 21
-27.2363
  0
LINE
  8
0
 10
-26.1953
 20
-27.2363
 11
-26.2812
 21
-27.4726
  0
LINE
  8
0
 10
-26.2812
 20
-27.4726
 11
-26.3809
 21
-27.7031
  0
LINE
  8
0
 10
-26.3809
 20
-27.7031
 11
-26.4951
 21
-27.9267
  0
LINE
  8
0
 10
-26.4951
 20
-27.9267
 11
-26.623
 21
-28.1435
  0
LINE
  8
0
 10
-26.623
 20
-28.1435
 11
-26.7637
 21
-28.3515
  0
LINE
  8
0
 10
-26.7637
 20
-28.3515
 11
-26.918
 21
-28.5498
  0
LINE
  8
0
 10
-26.918
 20
-28.5498
 11
-27.084
 21
-28.7383
  0
LINE
  8
0
 10
-27.084
 20
-28.7383
 11
-27.2617
 21
-28.916
  0
LINE
  8
0
 10
-27.2617
 20
-28.916
 11
-27.4502
 21
-29.082
  0
LINE
  8
0
 10
-27.4502
 20
-29.082
 11
-27.6484
 21
-29.2363
  0
LINE
  8
0
 10
-27.6484
 20
-29.2363
 11
-27.8564
 21
-29.3769
  0
LINE
  8
0
 10
-27.8564
 20
-29.3769
 11
-28.0732
 21
-29.5049
  0
LINE
  8
0
 10
-28.0732
 20
-29.5049
 11
-28.2969
 21
-29.6191
  0
LINE
  8
0
 10
-28.2969
 20
-29.6191
 11
-28.5273
 21
-29.7187
  0
LINE
  8
0
 10
-28.5273
 20
-29.7187
 11
-28.7637
 21
-29.8047
  0
LINE
  8
0
 10
-28.7637
 20
-29.8047
 11
-29.0049
 21
-29.874
  0
LINE
  8
0
 10
-29.0049
 20
-29.874
 11
-29.25
 21
-29.9287
  0
LINE
  8
0
 10
-29.25
 20
-29.9287
 11
-29.499
 21
-29.9687
  0
LINE
  8
0
 10
-29.499
 20
-29.9687
 11
-29.749
 21
-29.9922
  0
LINE
  8
0
 10
-29.749
 20
-29.9922
 11
-30
 21
-30
  0
LINE
  8
0
 10
-30
 20
-30
 11
-30.251
 21
-29.9922
  0
LINE
  8
0
 10
-52.5
 20
-27
 11
-52.5
 21
-25
  0
LINE
  8
0
 10
-52.5
 20
-25
 11
-47.5
 21
-25
  0
LINE
  8
0
 10
-47.5
 20
-25
 11
-47.5
 21
-27
  0
LINE
  8
0
 10
-47.5
 20
-27
 11
-52.5
 21
-27
  0
LINE
  8
0
 10
-50.251
 20
-45.9922
 11
-50.501
 21
-45.9687
  0
LINE
  8
0
 10
-50.501
 20
-45.9687
 11
-50.75
 21
-45.9287
  0
LINE
  8
0
 10
-50.75
 20
-45.9287
 11
-50.9951
 21
-45.874
  0
LINE
  8
0
 10
-50.9951
 20
-45.874
 11
-51.2363
 21
-45.8047
  0
LINE
  8
0
 10
-51.2363
 20
-45.8047
 11
-51.4727
 21
-45.7187
  0
LINE
  8
0
 10
-51.4727
 20
-45.7187
 11
-51.7031
 21
-45.6191
  0
LINE
  8
0
 10
-51.7031
 20
-45.6191
 11
-51.9268
 21
-45.5049
  0
LINE
  8
0
 10
-51.9268
 20
-45.5049
 11
-52.1436
 21
-45.3769
  0
LINE
  8
0
 10
-52.1436
 20
-45.3769
 11
-52.3516
 21
-45.2363
  0
LINE
  8
0
 10
-52.3516
 20
-45.2363
 11
-52.5498
 21
-45.082
  0
LINE
  8
0
 10
-52.5498
 20
-45.082
 11
-52.7383
 21
-44.916
  0
LINE
  8
0
 10
-52.7383
 20
-44.916
 11
-52.916
 21
-44.7383
  0
LINE
  8
0
 10
-52.916
 20
-44.7383
 11
-53.082
 21
-44.5498
  0
LINE
  8
0
 10
-53.082
 20
-44.5498
 11
-53.2363
 21
-44.3515
  0
LINE
  8
0
 10
-53.2363
 20
-44.3515
 11
-53.377
 21
-44.1435
  0
LINE
  8
0
 10
-53.377
 20
-44.1435
 11
-53.5049
 21
-43.9267
  0
LINE
  8
0
 10
-53.5049
 20
-43.9267
 11
-53.6191
 21
-43.7031
  0
LINE
  8
0
 10
-53.6191
 20
-43.7031
 11
-53.7188
 21
-43.4726
  0
LINE
  8
0
 10
-53.7188
 20
-43.4726
 11
-53.8047
 21
-43.2363
  0
LINE
  8
0
 10
-53.8047
 20
-43.2363
 11
-53.874
 21
-42.9951
  0
LINE
  8
0
 10
-53.874
 20
-42.9951
 11
-53.9287
 21
-42.75
  0
LINE
  8
0
 10
-53.9287
 20
-42.75
 11
-53.9688
 21
-42.501
  0
LINE
  8
0
 10
-53.9688
 20
-42.501
 11
-53.9922
 21
-42.251
  0
LINE
  8
0
 10
-53.9922
 20
-42.251
 11
-54
 21
-42
  0
LINE
  8
0
 10
-54
 20
-42
 11
-53.9922
 21
-41.749
  0
LINE
  8
0
 10
-53.9922
 20
-41.749
 11
-53.9688
 21
-41.499
  0
LINE
  8
0
 10
-53.9688
 20
-41.499
 11
-53.9287
 21
-41.25
  0
LINE
  8
0
 10
-53.9287
 20
-41.25
 11
-53.874
 21
-41.0049
  0
LINE
  8
0
 10
-53.874
 20
-41.0049
 11
-53.8047
 21
-40.7637
  0
LINE
  8
0
 10
-53.8047
 20
-40.7637
 11
-53.7188
 21
-40.5273
  0
LINE
  8
0
 10
-53.7188
 20
-40.5273
 11
-53.6191
 21
-40.2969
  0
LINE
  8
0
 10
-53.6191
 20
-40.2969
 11
-53.5049
 21
-40.0732
  0
LINE
  8
0
 10
-53.5049
 20
-40.0732
 11
-53.377
 21
-39.8564
  0
LINE
  8
0
 10
-53.377
 20
-39.8564
 11
-53.2363
 21
-39.6484
  0
LINE
  8
0
 10
-53.2363
 20
-39.6484
 11
-53.082
 21
-39.4502
  0
LINE
  8
0
 10
-53.082
 20
-39.4502
 11
-52.916
 21
-39.2617
  0
LINE
  8
0
 10
-52.916
 20
-39.2617
 11
-52.7383
 21
-39.084
  0
LINE
  8
0
 10
-52.7383
 20
-39.084
 11
-52.5498
 21
-38.918
  0
LINE
  8
0
 10
-52.5498
 20
-38.918
 11
-52.3516
 21
-38.7637
  0
LINE
  8
0
 10
-52.3516
 20
-38.7637
 11
-52.1436
 21
-38.623
  0
LINE
  8
0
 10
-52.1436
 20
-38.623
 11
-51.9268
 21
-38.4951
  0
LINE
  8
0
 10
-51.9268
 20
-38.4951
 11
-51.7031
 21
-38.3808
  0
LINE
  8
0
 10
-51.7031
 20
-38.3808
 11
-51.4727
 21
-38.2812
  0
LINE
  8
0
 10
-51.4727
 20
-38.2812
 11
-51.2363
 21
-38.1953
  0
LINE
  8
0
 10
-51.2363
 20
-38.1953
 11
-50.9951
 21
-38.126
  0
LINE
  8
0
 10
-50.9951
 20
-38.126
 11
-50.75
 21
-38.0713
  0
LINE
  8
0
 10
-50.75
 20
-38.0713
 11
-50.501
 21
-38.0312
  0
LINE
  8
0
 10
-50.501
 20
-38.0312
 11
-50.251
 21
-38.0078
  0
LINE
  8
0
 10
-50.251
 20
-38.0078
 11
-50
 21
-38
  0
LINE
  8
0
 10
-50
 20
-38
 11
-49.749
 21
-38.0078
  0
LINE
  8
0
 10
-49.749
 20
-38.0078
 11
-49.499
 21
-38.0312
  0
LINE
  8
0
 10
-49.499
 20
-38.0312
 11
-49.25
 21
-38.0713
  0
LINE
  8
0
 10
-49.25
 20
-38.0713
 11
-49.0049
 21
-38.126
  0
LINE
  8
0
 10
-49.0049
 20
-38.126
 11
-48.7637
 21
-38.1953
  0
LINE
  8
0
 10
-48.7637
 20
-38.1953
 11
-48.5273
 21
-38.2812
  0
LINE
  8
0
 10
-48.5273
 20
-38.2812
 11
-48.2969
 21
-38.3808
  0
LINE
  8
0
 10
-48.2969
 20
-38.3808
 11
-48.0732
 21
-38.4951
  0
LINE
  8
0
 10
-48.0732
 20
-38.4951
 11
-47.8564
 21
-38.623
  0
LINE
  8
0
 10
-47.8564
 20
-38.623
 11
-47.6484
 21
-38.7637
  0
LINE
  8
0
 10
-47.6484
 20
-38.7637
 11
-47.4502
 21
-38.918
  0
LINE
  8
0
 10
-47.4502
 20
-38.918
 11
-47.2617
 21
-39.084
  0
LINE
  8
0
 10
-47.2617
 20
-39.084
 11
-47.084
 21
-39.2617
  0
LINE
  8
0
 10
-47.084
 20
-39.2617
 11
-46.918
 21
-39.4502
  0
LINE
  8
0
 10
-46.918
 20
-39.4502
 11
-46.7637
 21
-39.6484
  0
LINE
  8
0
 10
-46.7637
 20
-39.6484
 11
-46.623
 21
-39.8564
  0
LINE
  8
0
 10
-46.623
 20
-39.8564
 11
-46.4951
 21
-40.0732
  0
LINE
  8
0
 10
-46.4951
 20
-40.0732
 11
-46.3809
 21
-40.2969
  0
LINE
  8
0
 10
-46.3809
 20
-40.2969
 11
-46.2812
 21
-40.5273
  0
LINE
  8
0
 10
-46.2812
 20
-40.5273
 11
-46.1953
 21
-40.7637
  0
LINE
  8
0
 10
-46.1953
 20
-40.7637
 11
-46.126
 21
-41.0049
  0
LINE
  8
0
 10
-46.126
 20
-41.0049
 11
-46.0713
 21
-41.25
  0
LINE
  8
0
 10
-46.0713
 20
-41.25
 11
-46.0312
 21
-41.499
  0
LINE
  8
0
 10
-46.0312
 20
-41.499
 11
-46.0078
 21
-41.749
  0
LINE
  8
0
 10
-46.0078
 20
-41.749
 11
-46
 21
-42
  0
LINE
  8
0
 10
-46
 20
-42
 11
-46.0078
 21
-42.251
  0
LINE
  8
0
 10
-46.0078
 20
-42.251
 11
-46.0312
 21
-42.501
  0
LINE
  8
0
 10
-46.0312
 20
-42.501
 11
-46.0713
 21
-42.75
  0
LINE
  8
0
 10
-46.0713
 20
-42.75
 11
-46.126
 21
-42.9951
  0
LINE
  8
0
 10
-46.126
 20
-42.9951
 11
-46.1953
 21
-43.2363
  0
LINE
  8
0
 10
-46.1953
 20
-43.2363
 11
-46.2812
 21
-43.4726
  0
LINE
  8
0
 10
-46.2812
 20
-43.4726
 11
-46.3809
 21
-43.7031
  0
LINE
  8
0
 10
-46.3809
 20
-43.7031
 11
-46.4951
 21
-43.9267
  0
LINE
  8
0
 10
-46.4951
 20
-43.9267
 11
-46.623
 21
-44.1435
  0
LINE
  8
0
 10
-46.623
 20
-44.1435
 11
-46.7637
 21
-44.3515
  0
LINE
  8
0
 10
-46.7637
 20
-44.3515
 11
-46.918
 21
-44.5498
  0
LINE
  8
0
 10
-46.918
 20
-44.5498
 11
-47.084
 21
-44.7383
  0
LINE
  8
0
 10
-47.084
 20
-44.7383
 11
-47.2617
 21
-44.916
  0
LINE
  8
0
 10
-47.2617
 20
-44.916
 11
-47.4502
 21
-45.082
  0
LINE
  8
0
 10
-47.4502
 20
-45.082
 11
-47.6484
 21
-45.2363
  0
LINE
  8
0
 10
-47.6484
 20
-45.2363
 11
-47.8564
 21
-45.3769
  0
LINE
  8
0
 10
-47.8564
 20
-45.3769
 11
-48.0732
 21
-45.5049
  0
LINE
  8
0
 10
-48.0732
 20
-45.5049
 11
-48.2969
 21
-45.6191
  0
LINE
  8
0
 10
-48.2969
 20
-45.6191
 11
-48.5273
 21
-45.7187
  0
LINE
  8
0
 10
-48.5273
 20
-45.7187
 11
-48.7637
 21
-45.8047
  0
LINE
  8
0
 10
-48.7637
 20
-45.8047
 11
-49.0049
 21
-45.874
  0
LINE
  8
0
 10
-49.0049
 20
-45.874
 11
-49.25
 21
-45.9287
  0
LINE
  8
0
 10
-49.25
 20
-45.9287
 11
-49.499
 21
-45.9687
  0
LINE
  8
0
 10
-49.499
 20
-45.9687
 11
-49.749
 21
-45.9922
  0
LINE
  8
0
 10
-49.749
 20
-45.9922
 11
-50
 21
-46
  0
LINE
  8
0
 10
-50
 20
-46
 11
-50.251
 21
-45.9922
  0
LINE
  8
0
 10
-30.251
 20
-45.9922
 11
-30.501
 21
-45.9687
  0
LINE
  8
0
 10
-30.501
 20
-45.9687
 11
-30.75
 21
-45.9287
  0
LINE
  8
0
 10
-30.75
 20
-45.9287
 11
-30.9951
 21
-45.874
  0
LINE
  8
0
 10
-30.9951
 20
-45.874
 11
-31.2363
 21
-45.8047
  0
LINE
  8
0
 10
-31.2363
 20
-45.8047
 11
-31.4727
 21
-45.7187
  0
LINE
  8
0
 10
-31.4727
 20
-45.7187
 11
-31.7031
 21
-45.6191
  0
LINE
  8
0
 10
-31.7031
 20
-45.6191
 11
-31.9268
 21
-45.5049
  0
LINE
  8
0
 10
-31.9268
 20
-45.5049
 11
-32.1436
 21
-45.3769
  0
LINE
  8
0
 10
-32.1436
 20
-45.3769
 11
-32.3516
 21
-45.2363
  0
LINE
  8
0
 10
-32.3516
 20
-45.2363
 11
-32.5498
 21
-45.082
  0
LINE
  8
0
 10
-32.5498
 20
-45.082
 11
-32.7383
 21
-44.916
  0
LINE
  8
0
 10
-32.7383
 20
-44.916
 11
-32.916
 21
-44.7383
  0
LINE
  8
0
 10
-32.916
 20
-44.7383
 11
-33.082
 21
-44.5498
  0
LINE
  8
0
 10
-33.082
 20
-44.5498
 11
-33.2363
 21
-44.3515
  0
LINE
  8
0
 10
-33.2363
 20
-44.3515
 11
-33.377
 21
-44.1435
  0
LINE
  8
0
 10
-33.377
 20
-44.1435
 11
-33.5049
 21
-43.9267
  0
LINE
  8
0
 10
-33.5049
 20
-43.9267
 11
-33.6191
 21
-43.7031
  0
LINE
  8
0
 10
-33.6191
 20
-43.7031
 11
-33.7188
 21
-43.4726
  0
LINE
  8
0
 10
-33.7188
 20
-43.4726
 11
-33.8047
 21
-43.2363
  0
LINE
  8
0
 10
-33.8047
 20
-43.2363
 11
-33.874
 21
-42.9951
  0
LINE
  8
0
 10
-33.874
 20
-42.9951
 11
-33.9287
 21
-42.75
  0
LINE
  8
0
 10
-33.9287
 20
-42.75
 11
-33.9688
 21
-42.501
  0
LINE
  8
0
 10
-33.9688
 20
-42.501
 11
-33.9922
 21
-42.251
  0
LINE
  8
0
 10
-33.9922
 20
-42.251
 11
-34
 21
-42
  0
LINE
  8
0
 10
-34
 20
-42
 11
-33.9922
 21
-41.749
  0
LINE
  8
0
 10
-33.9922
 20
-41.749
 11
-33.9688
 21
-41.499
  0
LINE
  8
0
 10
-33.9688
 20
-41.499
 11
-33.9287
 21
-41.25
  0
LINE
  8
0
 10
-33.9287
 20
-41.25
 11
-33.874
 21
-41.0049
  0
LINE
  8
0
 10
-33.874
 20
-41.0049
 11
-33.8047
 21
-40.7637
  0
LINE
  8
0
 10
-33.8047
 20
-40.7637
 11
-33.7188
 21
-40.5273
  0
LINE
  8
0
 10
-33.7188
 20
-40.5273
 11
-33.6191
 21
-40.2969
  0
LINE
  8
0
 10
-33.6191
 20
-40.2969
 11
-33.5049
 21
-40.0732
  0
LINE
  8
0
 10
-33.5049
 20
-40.0732
 11
-33.377
 21
-39.8564
  0
LINE
  8
0
 10
-33.377
 20
-39.8564
 11
-33.2363
 21
-39.6484
  0
LINE
  8
0
 10
-33.2363
 20
-39.6484
 11
-33.082
 21
-39.4502
  0
LINE
  8
0
 10
-33.082
 20
-39.4502
 11
-32.916
 21
-39.2617
  0
LINE
  8
0
 10
-32.916
 20
-39.2617
 11
-32.7383
 21
-39.084
  0
LINE
  8
0
 10
-32.7383
 20
-39.084
 11
-32.5498
 21
-38.918
  0
LINE
  8
0
 10
-32.5498
 20
-38.918
 11
-32.3516
 21
-38.7637
  0
LINE
  8
0
 10
-32.3516
 20
-38.7637
 11
-32.1436
 21
-38.623
  0
LINE
  8
0
 10
-32.1436
 20
-38.623
 11
-31.9268
 21
-38.4951
  0
LINE
  8
0
 10
-31.9268
 20
-38.4951
 11
-31.7031
 21
-38.3808
  0
LINE
  8
0
 10
-31.7031
 20
-38.3808
 11
-31.4727
 21
-38.2812
  0
LINE
  8
0
 10
-31.4727
 20
-38.2812
 11
-31.2363
 21
-38.1953
  0
LINE
  8
0
 10
-31.2363
 20
-38.1953
 11
-30.9951
 21
-38.126
  0
LINE
  8
0
 10
-30.9951
 20
-38.126
 11
-30.75
 21
-38.0713
  0
LINE
  8
0
 10
-30.75
 20
-38.0713
 11
-30.501
 21
-38.0312
  0
LINE
  8
0
 10
-30.501
 20
-38.0312
 11
-30.251
 21
-38.0078
  0
LINE
  8
0
 10
-30.251
 20
-38.0078
 11
-30
 21
-38
  0
LINE
  8
0
 10
-30
 20
-38
 11
-29.749
 21
-38.0078
  0
LINE
  8
0
 10
-29.749
 20
-38.0078
 11
-29.499
 21
-38.0312
  0
LINE
  8
0
 10
-29.499
 20
-38.0312
 11
-29.25
 21
-38.0713
  0
LINE
  8
0
 10
-29.25
 20
-38.0713
 11
-29.0049
 21
-38.126
  0
LINE
  8
0
 10
-29.0049
 20
-38.126
 11
-28.7637
 21
-38.1953
  0
LINE
  8
0
 10
-28.7637
 20
-38.1953
 11
-28.5273
 21
-38.2812
  0
LINE
  8
0
 10
-28.5273
 20
-38.2812
 11
-28.2969
 21
-38.3809
  0
LINE
  8
0
 10
-28.2969
 20
-38.3809
 11
-28.0732
 21
-38.4951
  0
LINE
  8
0
 10
-28.0732
 20
-38.4951
 11
-27.8564
 21
-38.623
  0
LINE
  8
0
 10
-27.8564
 20
-38.623
 11
-27.6484
 21
-38.7637
  0
LINE
  8
0
 10
-27.6484
 20
-38.7637
 11
-27.4502
 21
-38.918
  0
LINE
  8
0
 10
-27.4502
 20
-38.918
 11
-27.2617
 21
-39.084
  0
LINE
  8
0
 10
-27.2617
 20
-39.084
 11
-27.084
 21
-39.2617
  0
LINE
  8
0
 10
-27.084
 20
-39.2617
 11
-26.918
 21
-39.4502
  0
LINE
  8
0
 10
-26.918
 20
-39.4502
 11
-26.7637
 21
-39.6484
  0
LINE
  8
0
 10
-26.7637
 20
-39.6484
 11
-26.623
 21
-39.8564
  0
LINE
  8
0
 10
-26.623
 20
-39.8564
 11
-26.4951
 21
-40.0732
  0
LINE
  8
0
 10
-26.4951
 20
-40.0732
 11
-26.3809
 21
-40.2969
  0
LINE
  8
0
 10
-26.3809
 20
-40.2969
 11
-26.2812
 21
-40.5273
  0
LINE
  8
0
 10
-26.2812
 20
-40.5273
 11
-26.1953
 21
-40.7637
  0
LINE
  8
0
 10
-26.1953
 20
-40.7637
 11
-26.126
 21
-41.0049
  0
LINE
  8
0
 10
-26.126
 20
-41.0049
 11
-26.0713
 21
-41.25
  0
LINE
  8
0
 10
-26.0713
 20
-41.25
 11
-26.0312
 21
-41.499
  0
LINE
  8
0
 10
-26.0312
 20
-41.499
 11
-26.0078
 21
-41.749
  0
LINE
  8
0
 10
-26.0078
 20
-41.749
 11
-26
 21
-42
  0
LINE
  8
0
 10
-26
 20
-42
 11
-26.0078
 21
-42.251
  0
LINE
  8
0
 10
-26.0078
 20
-42.251
 11
-26.0312
 21
-42.501
  0
LINE
  8
0
 10
-26.0312
 20
-42.501
 11
-26.0713
 21
-42.75
  0
LINE
  8
0
 10
-26.0713
 20
-42.75
 11
-26.126
 21
-42.9951
  0
LINE
  8
0
 10
-26.126
 20
-42.9951
 11
-26.1953
 21
-43.2363
  0
LINE
  8
0
 10
-26.1953
 20
-43.2363
 11
-26.2812
 21
-43.4727
  0
LINE
  8
0
 10
-26.2812
 20
-43.4727
 11
-26.3809
 21
-43.7031
  0
LINE
  8
0
 10
-26.3809
 20
-43.7031
 11
-26.4951
 21
-43.9268
  0
LINE
  8
0
 10
-26.4951
 20
-43.9268
 11
-26.623
 21
-44.1436
  0
LINE
  8
0
 10
-26.623
 20
-44.1436
 11
-26.7637
 21
-44.3516
  0
LINE
  8
0
 10
-26.7637
 20
-44.3516
 11
-26.918
 21
-44.5498
  0
LINE
  8
0
 10
-26.918
 20
-44.5498
 11
-27.084
 21
-44.7383
  0
LINE
  8
0
 10
-27.084
 20
-44.7383
 11
-27.2617
 21
-44.916
  0
LINE
  8
0
 10
-27.2617
 20
-44.916
 11
-27.4502
 21
-45.082
  0
LINE
  8
0
 10
-27.4502
 20
-45.082
 11
-27.6484
 21
-45.2363
  0
LINE
  8
0
 10
-27.6484
 20
-45.2363
 11
-27.8564
 21
-45.377
  0
LINE
  8
0
 10
-27.8564
 20
-45.377
 11
-28.0732
 21
-45.5049
  0
LINE
  8
0
 10
-28.0732
 20
-45.5049
 11
-28.2969
 21
-45.6191
  0
LINE
  8
0
 10
-28.2969
 20
-45.6191
 11
-28.5273
 21
-45.7188
  0
LINE
  8
0
 10
-28.5273
 20
-45.7188
 11
-28.7637
 21
-45.8047
  0
LINE
  8
0
 10
-28.7637
 20
-45.8047
 11
-29.0049
 21
-45.874
  0
LINE
  8
0
 10
-29.0049
 20
-45.874
 11
-29.25
 21
-45.9287
  0
LINE
  8
0
 10
-29.25
 20
-45.9287
 11
-29.499
 21
-45.9687
  0
LINE
  8
0
 10
-29.499
 20
-45.9687
 11
-29.749
 21
-45.9922
  0
LINE
  8
0
 10
-29.749
 20
-45.9922
 11
-30
 21
-46
  0
LINE
  8
0
 10
-30
 20
-46
 11
-30.251
 21
-45.9922
  0
LINE
  8
0
 10
-10.251
 20
-45.9922
 11
-10.501
 21
-45.9688
  0
LINE
  8
0
 10
-10.501
 20
-45.9688
 11
-10.75
 21
-45.9287
  0
LINE
  8
0
 10
-10.75
 20
-45.9287
 11
-10.9951
 21
-45.874
  0
LINE
  8
0
 10
-10.9951
 20
-45.874
 11
-11.2363
 21
-45.8047
  0
LINE
  8
0
 10
-11.2363
 20
-45.8047
 11
-11.4727
 21
-45.7188
  0
LINE
  8
0
 10
-11.4727
 20
-45.7188
 11
-11.7031
 21
-45.6191
  0
LINE
  8
0
 10
-11.7031
 20
-45.6191
 11
-11.9268
 21
-45.5049
  0
LINE
  8
0
 10
-11.9268
 20
-45.5049
 11
-12.1436
 21
-45.377
  0
LINE
  8
0
 10
-12.1436
 20
-45.377
 11
-12.3516
 21
-45.2363
  0
LINE
  8
0
 10
-12.3516
 20
-45.2363
 11
-12.5498
 21
-45.082
  0
LINE
  8
0
 10
-12.5498
 20
-45.082
 11
-12.7383
 21
-44.916
  0
LINE
  8
0
 10
-12.7383
 20
-44.916
 11
-12.916
 21
-44.7383
  0
LINE
  8
0
 10
-12.916
 20
-44.7383
 11
-13.082
 21
-44.5498
  0
LINE
  8
0
 10
-13.082
 20
-44.5498
 11
-13.2363
 21
-44.3516
  0
LINE
  8
0
 10
-13.2363
 20
-44.3516
 11
-13.377
 21
-44.1436
  0
LINE
  8
0
 10
-13.377
 20
-44.1436
 11
-13.5049
 21
-43.9268
  0
LINE
  8
0
 10
-13.5049
 20
-43.9268
 11
-13.6191
 21
-43.7031
  0
LINE
  8
0
 10
-13.6191
 20
-43.7031
 11
-13.7188
 21
-43.4727
  0
LINE
  8
0
 10
-13.7188
 20
-43.4727
 11
-13.8047
 21
-43.2363
  0
LINE
  8
0
 10
-13.8047
 20
-43.2363
 11
-13.874
 21
-42.9951
  0
LINE
  8
0
 10
-13.874
 20
-42.9951
 11
-13.9287
 21
-42.75
  0
LINE
  8
0
 10
-13.9287
 20
-42.75
 11
-13.9688
 21
-42.501
  0
LINE
  8
0
 10
-13.9688
 20
-42.501
 11
-13.9922
 21
-42.251
  0
LINE
  8
0
 10
-13.9922
 20
-42.251
 11
-14
 21
-42
  0
LINE
  8
0
 10
-14
 20
-42
 11
-13.9922
 21
-41.749
  0
LINE
  8
0
 10
-13.9922
 20
-41.749
 11
-13.9688
 21
-41.499
  0
LINE
  8
0
 10
-13.9688
 20
-41.499
 11
-13.9287
 21
-41.25
  0
LINE
  8
0
 10
-13.9287
 20
-41.25
 11
-13.874
 21
-41.0049
  0
LINE
  8
0
 10
-13.874
 20
-41.0049
 11
-13.8047
 21
-40.7637
  0
LINE
  8
0
 10
-13.8047
 20
-40.7637
 11
-13.7188
 21
-40.5273
  0
LINE
  8
0
 10
-13.7188
 20
-40.5273
 11
-13.6191
 21
-40.2969
  0
LINE
  8
0
 10
-13.6191
 20
-40.2969
 11
-13.5049
 21
-40.0732
  0
LINE
  8
0
 10
-13.5049
 20
-40.0732
 11
-13.377
 21
-39.8564
  0
LINE
  8
0
 10
-13.377
 20
-39.8564
 11
-13.2363
 21
-39.6484
  0
LINE
  8
0
 10
-13.2363
 20
-39.6484
 11
-13.082
 21
-39.4502
  0
LINE
  8
0
 10
-13.082
 20
-39.4502
 11
-12.916
 21
-39.2617
  0
LINE
  8
0
 10
-12.916
 20
-39.2617
 11
-12.7383
 21
-39.084
  0
LINE
  8
0
 10
-12.7383
 20
-39.084
 11
-12.5498
 21
-38.918
  0
LINE
  8
0
 10
-12.5498
 20
-38.918
 11
-12.3516
 21
-38.7637
  0
LINE
  8
0
 10
-12.3516
 20
-38.7637
 11
-12.1436
 21
-38.623
  0
LINE
  8
0
 10
-12.1436
 20
-38.623
 11
-11.9268
 21
-38.4951
  0
LINE
  8
0
 10
-11.9268
 20
-38.4951
 11
-11.7031
 21
-38.3809
  0
LINE
  8
0
 10
-11.7031
 20
-38.3809
 11
-11.4727
 21
-38.2812
  0
LINE
  8
0
 10
-11.4727
 20
-38.2812
 11
-11.2363
 21
-38.1953
  0
LINE
  8
0
 10
-11.2363
 20
-38.1953
 11
-10.9951
 21
-38.126
  0
LINE
  8
0
 10
-10.9951
 20
-38.126
 11
-10.75
 21
-38.0713
  0
LINE
  8
0
 10
-10.75
 20
-38.0713
 11
-10.501
 21
-38.0312
  0
LINE
  8
0
 10
-10.501
 20
-38.0312
 11
-10.251
 21
-38.0078
  0
LINE
  8
0
 10
-10.251
 20
-38.0078
 11
-10
 21
-38
  0
LINE
  8
0
 10
-10
 20
-38
 11
-9.74902
 21
-38.0078
  0
LINE
  8
0
 10
-9.74902
 20
-38.0078
 11
-9.49902
 21
-38.0312
  0
LINE
  8
0
 10
-9.49902
 20
-38.0312
 11
-9.25
 21
-38.0713
  0
LINE
  8
0
 10
-9.25
 20
-38.0713
 11
-9.00488
 21
-38.126
  0
LINE
  8
0
 10
-9.00488
 20
-38.126
 11
-8.76367
 21
-38.1953
  0
LINE
  8
0
 10
-8.76367
 20
-38.1953
 11
-8.52734
 21
-38.2812
  0
LINE
  8
0
 10
-8.52734
 20
-38.2812
 11
-8.29688
 21
-38.3809
  0
LINE
  8
0
 10
-8.29688
 20
-38.3809
 11
-8.07324
 21
-38.4951
  0
LINE
  8
0
 10
-8.07324
 20
-38.4951
 11
-7.85645
 21
-38.623
  0
LINE
  8
0
 10
-7.85645
 20
-38.623
 11
-7.64844
 21
-38.7637
  0
LINE
  8
0
 10
-7.64844
 20
-38.7637
 11
-7.4502
 21
-38.918
  0
LINE
  8
0
 10
-7.4502
 20
-38.918
 11
-7.26172
 21
-39.084
  0
LINE
  8
0
 10
-7.26172
 20
-39.084
 11
-7.08398
 21
-39.2617
  0
LINE
  8
0
 10
-7.08398
 20
-39.2617
 11
-6.91797
 21
-39.4502
  0
LINE
  8
0
 10
-6.91797
 20
-39.4502
 11
-6.76367
 21
-39.6484
  0
LINE
  8
0
 10
-6.76367
 20
-39.6484
 11
-6.62305
 21
-39.8564
  0
LINE
  8
0
 10
-6.62305
 20
-39.8564
 11
-6.49512
 21
-40.0732
  0
LINE
  8
0
 10
-6.49512
 20
-40.0732
 11
-6.38086
 21
-40.2969
  0
LINE
  8
0
 10
-6.38086
 20
-40.2969
 11
-6.28125
 21
-40.5273
  0
LINE
  8
0
 10
-6.28125
 20
-40.5273
 11
-6.19531
 21
-40.7637
  0
LINE
  8
0
 10
-6.19531
 20
-40.7637
 11
-6.12598
 21
-41.0049
  0
LINE
  8
0
 10
-6.12598
 20
-41.0049
 11
-6.07129
 21
-41.25
  0
LINE
  8
0
 10
-6.07129
 20
-41.25
 11
-6.03125
 21
-41.499
  0
LINE
  8
0
 10
-6.03125
 20
-41.499
 11
-6.00781
 21
-41.749
  0
LINE
  8
0
 10
-6.00781
 20
-41.749
 11
-6
 21
-42
  0
LINE
  8
0
 10
-6
 20
-42
 11
-6.00781
 21
-42.251
  0
LINE
  8
0
 10
-6.00781
 20
-42.251
 11
-6.03125
 21
-42.501
  0
LINE
  8
0
 10
-6.03125
 20
-42.501
 11
-6.07129
 21
-42.75
  0
LINE
  8
0
 10
-6.07129
 20
-42.75
 11
-6.12598
 21
-42.9951
  0
LINE
  8
0
 10
-6.12598
 20
-42.9951
 11
-6.19531
 21
-43.2363
  0
LINE
  8
0
 10
-6.19531
 20
-43.2363
 11
-6.28125
 21
-43.4727
  0
LINE
  8
0
 10
-6.28125
 20
-43.4727
 11
-6.38086
 21
-43.7031
  0
LINE
  8
0
 10
-6.38086
 20
-43.7031
 11
-6.49512
 21
-43.9268
  0
LINE
  8
0
 10
-6.49512
 20
-43.9268
 11
-6.62305
 21
-44.1436
  0
LINE
  8
0
 10
-6.62305
 20
-44.1436
 11
-6.76367
 21
-44.3516
  0
LINE
  8
0
 10
-6.76367
 20
-44.3516
 11
-6.91797
 21
-44.5498
  0
LINE
  8
0
 10
-6.91797
 20
-44.5498
 11
-7.08398
 21
-44.7383
  0
LINE
  8
0
 10
-7.08398
 20
-44.7383
 11
-7.26172
 21
-44.916
  0
LINE
  8
0
 10
-7.26172
 20
-44.916
 11
-7.4502
 21
-45.082
  0
LINE
  8
0
 10
-7.4502
 20
-45.082
 11
-7.64844
 21
-45.2363
  0
LINE
  8
0
 10
-7.64844
 20
-45.2363
 11
-7.85645
 21
-45.377
  0
LINE
  8
0
 10
-7.85645
 20
-45.377
 11
-8.07324
 21
-45.5049
  0
LINE
  8
0
 10
-8.07324
 20
-45.5049
 11
-8.29688
 21
-45.6191
  0
LINE
  8
0
 10
-8.29688
 20
-45.6191
 11
-8.52734
 21
-45.7188
  0
LINE
  8
0
 10
-8.52734
 20
-45.7188
 11
-8.76367
 21
-45.8047
  0
LINE
  8
0
 10
-8.76367
 20
-45.8047
 11
-9.00488
 21
-45.874
  0
LINE
  8
0
 10
-9.00488
 20
-45.874
 11
-9.25
 21
-45.9287
  0
LINE
  8
0
 10
-9.25
 20
-45.9287
 11
-9.49902
 21
-45.9688
  0
LINE
  8
0
 10
-9.49902
 20
-45.9688
 11
-9.74902
 21
-45.9922
  0
LINE
  8
0
 10
-9.74902
 20
-45.9922
 11
-10
 21
-46
  0
LINE
  8
0
 10
-10
 20
-46
 11
-10.251
 21
-45.9922
  0
LINE
  8
0
 10
49.749
 20
-45.9922
 11
49.499
 21
-45.9688
  0
LINE
  8
0
 10
49.499
 20
-45.9688
 11
49.25
 21
-45.9287
  0
LINE
  8
0
 10
49.25
 20
-45.9287
 11
49.0049
 21
-45.874
  0
LINE
  8
0
 10
49.0049
 20
-45.874
 11
48.7637
 21
-45.8047
  0
LINE
  8
0
 10
48.7637
 20
-45.8047
 11
48.5273
 21
-45.7188
  0
LINE
  8
0
 10
48.5273
 20
-45.7188
 11
48.2969
 21
-45.6191
  0
LINE
  8
0
 10
48.2969
 20
-45.6191
 11
48.0732
 21
-45.5049
  0
LINE
  8
0
 10
48.0732
 20
-45.5049
 11
47.8564
 21
-45.377
  0
LINE
  8
0
 10
47.8564
 20
-45.377
 11
47.6484
 21
-45.2363
  0
LINE
  8
0
 10
47.6484
 20
-45.2363
 11
47.4502
 21
-45.082
  0
LINE
  8
0
 10
47.4502
 20
-45.082
 11
47.2617
 21
-44.916
  0
LINE
  8
0
 10
47.2617
 20
-44.916
 11
47.084
 21
-44.7383
  0
LINE
  8
0
 10
47.084
 20
-44.7383
 11
46.918
 21
-44.5498
  0
LINE
  8
0
 10
46.918
 20
-44.5498
 11
46.7637
 21
-44.3516
  0
LINE
  8
0
 10
46.7637
 20
-44.3516
 11
46.623
 21
-44.1436
  0
LINE
  8
0
 10
46.623
 20
-44.1436
 11
46.4951
 21
-43.9268
  0
LINE
  8
0
 10
46.4951
 20
-43.9268
 11
46.3808
 21
-43.7031
  0
LINE
  8
0
 10
46.3808
 20
-43.7031
 11
46.2812
 21
-43.4727
  0
LINE
  8
0
 10
46.2812
 20
-43.4727
 11
46.1953
 21
-43.2363
  0
LINE
  8
0
 10
46.1953
 20
-43.2363
 11
46.126
 21
-42.9951
  0
LINE
  8
0
 10
46.126
 20
-42.9951
 11
46.0713
 21
-42.75
  0
LINE
  8
0
 10
46.0713
 20
-42.75
 11
46.0312
 21
-42.501
  0
LINE
  8
0
 10
46.0312
 20
-42.501
 11
46.0078
 21
-42.251
  0
LINE
  8
0
 10
46.0078
 20
-42.251
 11
46
 21
-42
  0
LINE
  8
0
 10
46
 20
-42
 11
46.0078
 21
-41.749
  0
LINE
  8
0
 10
46.0078
 20
-41.749
 11
46.0312
 21
-41.499
  0
LINE
  8
0
 10
46.0312
 20
-41.499
 11
46.0713
 21
-41.25
  0
LINE
  8
0
 10
46.0713
 20
-41.25
 11
46.126
 21
-41.0049
  0
LINE
  8
0
 10
46.126
 20
-41.0049
 11
46.1953
 21
-40.7637
  0
LINE
  8
0
 10
46.1953
 20
-40.7637
 11
46.2812
 21
-40.5273
  0
LINE
  8
0
 10
46.2812
 20
-40.5273
 11
46.3808
 21
-40.2969
  0
LINE
  8
0
 10
46.3808
 20
-40.2969
 11
46.4951
 21
-40.0732
  0
LINE
  8
0
 10
46.4951
 20
-40.0732
 11
46.623
 21
-39.8564
  0
LINE
  8
0
 10
46.623
 20
-39.8564
 11
46.7637
 21
-39.6484
  0
LINE
  8
0
 10
46.7637
 20
-39.6484
 11
46.918
 21
-39.4502
  0
LINE
  8
0
 10
46.918
 20
-39.4502
 11
47.084
 21
-39.2617
  0
LINE
  8
0
 10
47.084
 20
-39.2617
 11
47.2617
 21
-39.084
  0
LINE
  8
0
 10
47.2617
 20
-39.084
 11
47.4502
 21
-38.918
  0
LINE
  8
0
 10
47.4502
 20
-38.918
 11
47.6484
 21
-38.7637
  0
LINE
  8
0
 10
47.6484
 20
-38.7637
 11
47.8564
 21
-38.623
  0
LINE
  8
0
 10
47.8564
 20
-38.623
 11
48.0732
 21
-38.4951
  0
LINE
  8
0
 10
48.0732
 20
-38.4951
 11
48.2969
 21
-38.3809
  0
LINE
  8
0
 10
48.2969
 20
-38.3809
 11
48.5273
 21
-38.2812
  0
LINE
  8
0
 10
48.5273
 20
-38.2812
 11
48.7637
 21
-38.1953
  0
LINE
  8
0
 10
48.7637
 20
-38.1953
 11
49.0049
 21
-38.126
  0
LINE
  8
0
 10
49.0049
 20
-38.126
 11
49.25
 21
-38.0713
  0
LINE
  8
0
 10
49.25
 20
-38.0713
 11
49.499
 21
-38.0312
  0
LINE
  8
0
 10
49.499
 20
-38.0312
 11
49.749
 21
-38.0078
  0
LINE
  8
0
 10
49.749
 20
-38.0078
 11
50
 21
-38
  0
LINE
  8
0
 10
50
 20
-38
 11
50.251
 21
-38.0078
  0
LINE
  8
0
 10
50.251
 20
-38.0078
 11
50.501
 21
-38.0312
  0
LINE
  8
0
 10
50.501
 20
-38.0312
 11
50.75
 21
-38.0713
  0
LINE
  8
0
 10
50.75
 20
-38.0713
 11
50.9951
 21
-38.126
  0
LINE
  8
0
 10
50.9951
 20
-38.126
 11
51.2363
 21
-38.1953
  0
LINE
  8
0
 10
51.2363
 20
-38.1953
 11
51.4726
 21
-38.2812
  0
LINE
  8
0
 10
51.4726
 20
-38.2812
 11
51.7031
 21
-38.3809
  0
LINE
  8
0
 10
51.7031
 20
-38.3809
 11
51.9267
 21
-38.4951
  0
LINE
  8
0
 10
51.9267
 20
-38.4951
 11
52.1435
 21
-38.623
  0
LINE
  8
0
 10
52.1435
 20
-38.623
 11
52.3515
 21
-38.7637
  0
LINE
  8
0
 10
52.3515
 20
-38.7637
 11
52.5498
 21
-38.918
  0
LINE
  8
0
 10
52.5498
 20
-38.918
 11
52.7383
 21
-39.084
  0
LINE
  8
0
 10
52.7383
 20
-39.084
 11
52.916
 21
-39.2617
  0
LINE
  8
0
 10
52.916
 20
-39.2617
 11
53.082
 21
-39.4502
  0
LINE
  8
0
 10
53.082
 20
-39.4502
 11
53.2363
 21
-39.6484
  0
LINE
  8
0
 10
53.2363
 20
-39.6484
 11
53.3769
 21
-39.8564
  0
LINE
  8
0
 10
53.3769
 20
-39.8564
 11
53.5049
 21
-40.0732
  0
LINE
  8
0
 10
53.5049
 20
-40.0732
 11
53.6191
 21
-40.2969
  0
LINE
  8
0
 10
53.6191
 20
-40.2969
 11
53.7187
 21
-40.5273
  0
LINE
  8
0
 10
53.7187
 20
-40.5273
 11
53.8047
 21
-40.7637
  0
LINE
  8
0
 10
53.8047
 20
-40.7637
 11
53.874
 21
-41.0049
  0
LINE
  8
0
 10
53.874
 20
-41.0049
 11
53.9287
 21
-41.25
  0
LINE
  8
0
 10
53.9287
 20
-41.25
 11
53.9687
 21
-41.499
  0
LINE
  8
0
 10
53.9687
 20
-41.499
 11
53.9922
 21
-41.749
  0
LINE
  8
0
 10
53.9922
 20
-41.749
 11
54
 21
-42
  0
LINE
  8
0
 10
54
 20
-42
 11
53.9922
 21
-42.251
  0
LINE
  8
0
 10
53.9922
 20
-42.251
 11
53.9687
 21
-42.501
  0
LINE
  8
0
 10
53.9687
 20
-42.501
 11
53.9287
 21
-42.75
  0
LINE
  8
0
 10
53.9287
 20
-42.75
 11
53.874
 21
-42.9951
  0
LINE
  8
0
 10
53.874
 20
-42.9951
 11
53.8047
 21
-43.2363
  0
LINE
  8
0
 10
53.8047
 20
-43.2363
 11
53.7187
 21
-43.4727
  0
LINE
  8
0
 10
53.7187
 20
-43.4727
 11
53.6191
 21
-43.7031
  0
LINE
  8
0
 10
53.6191
 20
-43.7031
 11
53.5049
 21
-43.9268
  0
LINE
  8
0
 10
53.5049
 20
-43.9268
 11
53.3769
 21
-44.1436
  0
LINE
  8
0
 10
53.3769
 20
-44.1436
 11
53.2363
 21
-44.3516
  0
LINE
  8
0
 10
53.2363
 20
-44.3516
 11
53.082
 21
-44.5498
  0
LINE
  8
0
 10
53.082
 20
-44.5498
 11
52.916
 21
-44.7383
  0
LINE
  8
0
 10
52.916
 20
-44.7383
 11
52.7383
 21
-44.916
  0
LINE
  8
0
 10
52.7383
 20
-44.916
 11
52.5498
 21
-45.082
  0
LINE
  8
0
 10
52.5498
 20
-45.082
 11
52.3515
 21
-45.2363
  0
LINE
  8
0
 10
52.3515
 20
-45.2363
 11
52.1435
 21
-45.377
  0
LINE
  8
0
 10
52.1435
 20
-45.377
 11
51.9267
 21
-45.5049
  0
LINE
  8
0
 10
51.9267
 20
-45.5049
 11
51.7031
 21
-45.6191
  0
LINE
  8
0
 10
51.7031
 20
-45.6191
 11
51.4726
 21
-45.7188
  0
LINE
  8
0
 10
51.4726
 20
-45.7188
 11
51.2363
 21
-45.8047
  0
LINE
  8
0
 10
51.2363
 20
-45.8047
 11
50.9951
 21
-45.874
  0
LINE
  8
0
 10
50.9951
 20
-45.874
 11
50.75
 21
-45.9287
  0
LINE
  8
0
 10
50.75
 20
-45.9287
 11
50.501
 21
-45.9688
  0
LINE
  8
0
 10
50.501
 20
-45.9688
 11
50.251
 21
-45.9922
  0
LINE
  8
0
 10
50.251
 20
-45.9922
 11
50
 21
-46
  0
LINE
  8
0
 10
50
 20
-46
 11
49.749
 21
-45.9922
  0
LINE
  8
0
 10
29.749
 20
-45.9922
 11
29.499
 21
-45.9688
  0
LINE
  8
0
 10
29.499
 20
-45.9688
 11
29.25
 21
-45.9287
  0
LINE
  8
0
 10
29.25
 20
-45.9287
 11
29.0049
 21
-45.874
  0
LINE
  8
0
 10
29.0049
 20
-45.874
 11
28.7637
 21
-45.8047
  0
LINE
  8
0
 10
28.7637
 20
-45.8047
 11
28.5273
 21
-45.7188
  0
LINE
  8
0
 10
28.5273
 20
-45.7188
 11
28.2969
 21
-45.6191
  0
LINE
  8
0
 10
28.2969
 20
-45.6191
 11
28.0732
 21
-45.5049
  0
LINE
  8
0
 10
28.0732
 20
-45.5049
 11
27.8564
 21
-45.377
  0
LINE
  8
0
 10
27.8564
 20
-45.377
 11
27.6484
 21
-45.2363
  0
LINE
  8
0
 10
27.6484
 20
-45.2363
 11
27.4502
 21
-45.082
  0
LINE
  8
0
 10
27.4502
 20
-45.082
 11
27.2617
 21
-44.916
  0
LINE
  8
0
 10
27.2617
 20
-44.916
 11
27.084
 21
-44.7383
  0
LINE
  8
0
 10
27.084
 20
-44.7383
 11
26.918
 21
-44.5498
  0
LINE
  8
0
 10
26.918
 20
-44.5498
 11
26.7637
 21
-44.3516
  0
LINE
  8
0
 10
26.7637
 20
-44.3516
 11
26.623
 21
-44.1436
  0
LINE
  8
0
 10
26.623
 20
-44.1436
 11
26.4951
 21
-43.9268
  0
LINE
  8
0
 10
26.4951
 20
-43.9268
 11
26.3808
 21
-43.7031
  0
LINE
  8
0
 10
26.3808
 20
-43.7031
 11
26.2812
 21
-43.4727
  0
LINE
  8
0
 10
26.2812
 20
-43.4727
 11
26.1953
 21
-43.2363
  0
LINE
  8
0
 10
26.1953
 20
-43.2363
 11
26.126
 21
-42.9951
  0
LINE
  8
0
 10
26.126
 20
-42.9951
 11
26.0713
 21
-42.75
  0
LINE
  8
0
 10
26.0713
 20
-42.75
 11
26.0312
 21
-42.501
  0
LINE
  8
0
 10
26.0312
 20
-42.501
 11
26.0078
 21
-42.251
  0
LINE
  8
0
 10
26.0078
 20
-42.251
 11
26
 21
-42
  0
LINE
  8
0
 10
26
 20
-42
 11
26.0078
 21
-41.749
  0
LINE
  8
0
 10
26.0078
 20
-41.749
 11
26.0312
 21
-41.499
  0
LINE
  8
0
 10
26.0312
 20
-41.499
 11
26.0713
 21
-41.25
  0
LINE
  8
0
 10
26.0713
 20
-41.25
 11
26.126
 21
-41.0049
  0
LINE
  8
0
 10
26.126
 20
-41.0049
 11
26.1953
 21
-40.7637
  0
LINE
  8
0
 10
26.1953
 20
-40.7637
 11
26.2812
 21
-40.5273
  0
LINE
  8
0
 10
26.2812
 20
-40.5273
 11
26.3808
 21
-40.2969
  0
LINE
  8
0
 10
26.3808
 20
-40.2969
 11
26.4951
 21
-40.0732
  0
LINE
  8
0
 10
26.4951
 20
-40.0732
 11
26.623
 21
-39.8564
  0
LINE
  8
0
 10
26.623
 20
-39.8564
 11
26.7637
 21
-39.6484
  0
LINE
  8
0
 10
26.7637
 20
-39.6484
 11
26.918
 21
-39.4502
  0
LINE
  8
0
 10
26.918
 20
-39.4502
 11
27.084
 21
-39.2617
  0
LINE
  8
0
 10
27.084
 20
-39.2617
 11
27.2617
 21
-39.084
  0
LINE
  8
0
 10
27.2617
 20
-39.084
 11
27.4502
 21
-38.918
  0
LINE
  8
0
 10
27.4502
 20
-38.918
 11
27.6484
 21
-38.7637
  0
LINE
  8
0
 10
27.6484
 20
-38.7637
 11
27.8564
 21
-38.623
  0
LINE
  8
0
 10
27.8564
 20
-38.623
 11
28.0732
 21
-38.4951
  0
LINE
  8
0
 10
28.0732
 20
-38.4951
 11
28.2969
 21
-38.3809
  0
LINE
  8
0
 10
28.2969
 20
-38.3809
 11
28.5273
 21
-38.2812
  0
LINE
  8
0
 10
28.5273
 20
-38.2812
 11
28.7637
 21
-38.1953
  0
LINE
  8
0
 10
28.7637
 20
-38.1953
 11
29.0049
 21
-38.126
  0
LINE
  8
0
 10
29.0049
 20
-38.126
 11
29.25
 21
-38.0713
  0
LINE
  8
0
 10
29.25
 20
-38.0713
 11
29.499
 21
-38.0312
  0
LINE
  8
0
 10
29.499
 20
-38.0312
 11
29.749
 21
-38.0078
  0
LINE
  8
0
 10
29.749
 20
-38.0078
 11
30
 21
-38
  0
LINE
  8
0
 10
30
 20
-38
 11
30.251
 21
-38.0078
  0
LINE
  8
0
 10
30.251
 20
-38.0078
 11
30.501
 21
-38.0312
  0
LINE
  8
0
 10
30.501
 20
-38.0312
 11
30.75
 21
-38.0713
  0
LINE
  8
0
 10
30.75
 20
-38.0713
 11
30.9951
 21
-38.126
  0
LINE
  8
0
 10
30.9951
 20
-38.126
 11
31.2363
 21
-38.1953
  0
LINE
  8
0
 10
31.2363
 20
-38.1953
 11
31.4726
 21
-38.2812
  0
LINE
  8
0
 10
31.4726
 20
-38.2812
 11
31.7031
 21
-38.3809
  0
LINE
  8
0
 10
31.7031
 20
-38.3809
 11
31.9267
 21
-38.4951
  0
LINE
  8
0
 10
31.9267
 20
-38.4951
 11
32.1435
 21
-38.623
  0
LINE
  8
0
 10
32.1435
 20
-38.623
 11
32.3515
 21
-38.7637
  0
LINE
  8
0
 10
32.3515
 20
-38.7637
 11
32.5498
 21
-38.918
  0
LINE
  8
0
 10
32.5498
 20
-38.918
 11
32.7383
 21
-39.084
  0
LINE
  8
0
 10
32.7383
 20
-39.084
 11
32.916
 21
-39.2617
  0
LINE
  8
0
 10
32.916
 20
-39.2617
 11
33.082
 21
-39.4502
  0
LINE
  8
0
 10
33.082
 20
-39.4502
 11
33.2363
 21
-39.6484
  0
LINE
  8
0
 10
33.2363
 20
-39.6484
 11
33.3769
 21
-39.8564
  0
LINE
  8
0
 10
33.3769
 20
-39.8564
 11
33.5049
 21
-40.0732
  0
LINE
  8
0
 10
33.5049
 20
-40.0732
 11
33.6191
 21
-40.2969
  0
LINE
  8
0
 10
33.6191
 20
-40.2969
 11
33.7187
 21
-40.5273
  0
LINE
  8
0
 10
33.7187
 20
-40.5273
 11
33.8047
 21
-40.7637
  0
LINE
  8
0
 10
33.8047
 20
-40.7637
 11
33.874
 21
-41.0049
  0
LINE
  8
0
 10
33.874
 20
-41.0049
 11
33.9287
 21
-41.25
  0
LINE
  8
0
 10
33.9287
 20
-41.25
 11
33.9687
 21
-41.499
  0
LINE
  8
0
 10
33.9687
 20
-41.499
 11
33.9922
 21
-41.749
  0
LINE
  8
0
 10
33.9922
 20
-41.749
 11
34
 21
-42
  0
LINE
  8
0
 10
34
 20
-42
 11
33.9922
 21
-42.251
  0
LINE
  8
0
 10
33.9922
 20
-42.251
 11
33.9687
 21
-42.501
  0
LINE
  8
0
 10
33.9687
 20
-42.501
 11
33.9287
 21
-42.75
  0
LINE
  8
0
 10
33.9287
 20
-42.75
 11
33.874
 21
-42.9951
  0
LINE
  8
0
 10
33.874
 20
-42.9951
 11
33.8047
 21
-43.2363
  0
LINE
  8
0
 10
33.8047
 20
-43.2363
 11
33.7187
 21
-43.4727
  0
LINE
  8
0
 10
33.7187
 20
-43.4727
 11
33.6191
 21
-43.7031
  0
LINE
  8
0
 10
33.6191
 20
-43.7031
 11
33.5049
 21
-43.9268
  0
LINE
  8
0
 10
33.5049
 20
-43.9268
 11
33.3769
 21
-44.1436
  0
LINE
  8
0
 10
33.3769
 20
-44.1436
 11
33.2363
 21
-44.3516
  0
LINE
  8
0
 10
33.2363
 20
-44.3516
 11
33.082
 21
-44.5498
  0
LINE
  8
0
 10
33.082
 20
-44.5498
 11
32.916
 21
-44.7383
  0
LINE
  8
0
 10
32.916
 20
-44.7383
 11
32.7383
 21
-44.916
  0
LINE
  8
0
 10
32.7383
 20
-44.916
 11
32.5498
 21
-45.082
  0
LINE
  8
0
 10
32.5498
 20
-45.082
 11
32.3515
 21
-45.2363
  0
LINE
  8
0
 10
32.3515
 20
-45.2363
 11
32.1435
 21
-45.377
  0
LINE
  8
0
 10
32.1435
 20
-45.377
 11
31.9267
 21
-45.5049
  0
LINE
  8
0
 10
31.9267
 20
-45.5049
 11
31.7031
 21
-45.6191
  0
LINE
  8
0
 10
31.7031
 20
-45.6191
 11
31.4726
 21
-45.7188
  0
LINE
  8
0
 10
31.4726
 20
-45.7188
 11
31.2363
 21
-45.8047
  0
LINE
  8
0
 10
31.2363
 20
-45.8047
 11
30.9951
 21
-45.874
  0
LINE
  8
0
 10
30.9951
 20
-45.874
 11
30.75
 21
-45.9287
  0
LINE
  8
0
 10
30.75
 20
-45.9287
 11
30.501
 21
-45.9688
  0
LINE
  8
0
 10
30.501
 20
-45.9688
 11
30.251
 21
-45.9922
  0
LINE
  8
0
 10
30.251
 20
-45.9922
 11
30
 21
-46
  0
LINE
  8
0
 10
30
 20
-46
 11
29.749
 21
-45.9922
  0
LINE
  8
0
 10
9.74901
 20
-45.9922
 11
9.49901
 21
-45.9688
  0
LINE
  8
0
 10
9.49901
 20
-45.9688
 11
9.24998
 21
-45.9287
  0
LINE
  8
0
 10
9.24998
 20
-45.9287
 11
9.00487
 21
-45.874
  0
LINE
  8
0
 10
9.00487
 20
-45.874
 11
8.76366
 21
-45.8047
  0
LINE
  8
0
 10
8.76366
 20
-45.8047
 11
8.52733
 21
-45.7188
  0
LINE
  8
0
 10
8.52733
 20
-45.7188
 11
8.29686
 21
-45.6191
  0
LINE
  8
0
 10
8.29686
 20
-45.6191
 11
8.07323
 21
-45.5049
  0
LINE
  8
0
 10
8.07323
 20
-45.5049
 11
7.85643
 21
-45.377
  0
LINE
  8
0
 10
7.85643
 20
-45.377
 11
7.64842
 21
-45.2363
  0
LINE
  8
0
 10
7.64842
 20
-45.2363
 11
7.45018
 21
-45.082
  0
LINE
  8
0
 10
7.45018
 20
-45.082
 11
7.2617
 21
-44.916
  0
LINE
  8
0
 10
7.2617
 20
-44.916
 11
7.08397
 21
-44.7383
  0
LINE
  8
0
 10
7.08397
 20
-44.7383
 11
6.91795
 21
-44.5498
  0
LINE
  8
0
 10
6.91795
 20
-44.5498
 11
6.76366
 21
-44.3516
  0
LINE
  8
0
 10
6.76366
 20
-44.3516
 11
6.62303
 21
-44.1436
  0
LINE
  8
0
 10
6.62303
 20
-44.1436
 11
6.4951
 21
-43.9268
  0
LINE
  8
0
 10
6.4951
 20
-43.9268
 11
6.38084
 21
-43.7031
  0
LINE
  8
0
 10
6.38084
 20
-43.7031
 11
6.28123
 21
-43.4727
  0
LINE
  8
0
 10
6.28123
 20
-43.4727
 11
6.1953
 21
-43.2363
  0
LINE
  8
0
 10
6.1953
 20
-43.2363
 11
6.12596
 21
-42.9951
  0
LINE
  8
0
 10
6.12596
 20
-42.9951
 11
6.07127
 21
-42.75
  0
LINE
  8
0
 10
6.07127
 20
-42.75
 11
6.03123
 21
-42.501
  0
LINE
  8
0
 10
6.03123
 20
-42.501
 11
6.0078
 21
-42.251
  0
LINE
  8
0
 10
6.0078
 20
-42.251
 11
5.99998
 21
-42
  0
LINE
  8
0
 10
5.99998
 20
-42
 11
6.0078
 21
-41.749
  0
LINE
  8
0
 10
6.0078
 20
-41.749
 11
6.03123
 21
-41.499
  0
LINE
  8
0
 10
6.03123
 20
-41.499
 11
6.07127
 21
-41.25
  0
LINE
  8
0
 10
6.07127
 20
-41.25
 11
6.12596
 21
-41.0049
  0
LINE
  8
0
 10
6.12596
 20
-41.0049
 11
6.1953
 21
-40.7637
  0
LINE
  8
0
 10
6.1953
 20
-40.7637
 11
6.28123
 21
-40.5273
  0
LINE
  8
0
 10
6.28123
 20
-40.5273
 11
6.38084
 21
-40.2969
  0
LINE
  8
0
 10
6.38084
 20
-40.2969
 11
6.4951
 21
-40.0732
  0
LINE
  8
0
 10
6.4951
 20
-40.0732
 11
6.62303
 21
-39.8564
  0
LINE
  8
0
 10
6.62303
 20
-39.8564
 11
6.76366
 21
-39.6484
  0
LINE
  8
0
 10
6.76366
 20
-39.6484
 11
6.91795
 21
-39.4502
  0
LINE
  8
0
 10
6.91795
 20
-39.4502
 11
7.08397
 21
-39.2617
  0
LINE
  8
0
 10
7.08397
 20
-39.2617
 11
7.2617
 21
-39.084
  0
LINE
  8
0
 10
7.2617
 20
-39.084
 11
7.45018
 21
-38.918
  0
LINE
  8
0
 10
7.45018
 20
-38.918
 11
7.64842
 21
-38.7637
  0
LINE
  8
0
 10
7.64842
 20
-38.7637
 11
7.85643
 21
-38.623
  0
LINE
  8
0
 10
7.85643
 20
-38.623
 11
8.07323
 21
-38.4951
  0
LINE
  8
0
 10
8.07323
 20
-38.4951
 11
8.29686
 21
-38.3809
  0
LINE
  8
0
 10
8.29686
 20
-38.3809
 11
8.52733
 21
-38.2812
  0
LINE
  8
0
 10
8.52733
 20
-38.2812
 11
8.76366
 21
-38.1953
  0
LINE
  8
0
 10
8.76366
 20
-38.1953
 11
9.00487
 21
-38.126
  0
LINE
  8
0
 10
9.00487
 20
-38.126
 11
9.24998
 21
-38.0713
  0
LINE
  8
0
 10
9.24998
 20
-38.0713
 11
9.49901
 21
-38.0312
  0
LINE
  8
0
 10
9.49901
 20
-38.0312
 11
9.74901
 21
-38.0078
  0
LINE
  8
0
 10
9.74901
 20
-38.0078
 11
9.99998
 21
-38
  0
LINE
  8
0
 10
9.99998
 20
-38
 11
10.251
 21
-38.0078
  0
LINE
  8
0
 10
10.251
 20
-38.0078
 11
10.501
 21
-38.0312
  0
LINE
  8
0
 10
10.501
 20
-38.0312
 11
10.75
 21
-38.0713
  0
LINE
  8
0
 10
10.75
 20
-38.0713
 11
10.9951
 21
-38.126
  0
LINE
  8
0
 10
10.9951
 20
-38.126
 11
11.2363
 21
-38.1953
  0
LINE
  8
0
 10
11.2363
 20
-38.1953
 11
11.4726
 21
-38.2812
  0
LINE
  8
0
 10
11.4726
 20
-38.2812
 11
11.7031
 21
-38.3809
  0
LINE
  8
0
 10
11.7031
 20
-38.3809
 11
11.9267
 21
-38.4951
  0
LINE
  8
0
 10
11.9267
 20
-38.4951
 11
12.1435
 21
-38.623
  0
LINE
  8
0
 10
12.1435
 20
-38.623
 11
12.3515
 21
-38.7637
  0
LINE
  8
0
 10
12.3515
 20
-38.7637
 11
12.5498
 21
-38.918
  0
LINE
  8
0
 10
12.5498
 20
-38.918
 11
12.7383
 21
-39.084
  0
LINE
  8
0
 10
12.7383
 20
-39.084
 11
12.916
 21
-39.2617
  0
LINE
  8
0
 10
12.916
 20
-39.2617
 11
13.082
 21
-39.4502
  0
LINE
  8
0
 10
13.082
 20
-39.4502
 11
13.2363
 21
-39.6484
  0
LINE
  8
0
 10
13.2363
 20
-39.6484
 11
13.3769
 21
-39.8564
  0
LINE
  8
0
 10
13.3769
 20
-39.8564
 11
13.5049
 21
-40.0732
  0
LINE
  8
0
 10
13.5049
 20
-40.0732
 11
13.6191
 21
-40.2969
  0
LINE
  8
0
 10
13.6191
 20
-40.2969
 11
13.7187
 21
-40.5273
  0
LINE
  8
0
 10
13.7187
 20
-40.5273
 11
13.8047
 21
-40.7637
  0
LINE
  8
0
 10
13.8047
 20
-40.7637
 11
13.874
 21
-41.0049
  0
LINE
  8
0
 10
13.874
 20
-41.0049
 11
13.9287
 21
-41.25
  0
LINE
  8
0
 10
13.9287
 20
-41.25
 11
13.9687
 21
-41.499
  0
LINE
  8
0
 10
13.9687
 20
-41.499
 11
13.9922
 21
-41.749
  0
LINE
  8
0
 10
13.9922
 20
-41.749
 11
14
 21
-42
  0
LINE
  8
0
 10
14
 20
-42
 11
13.9922
 21
-42.251
  0
LINE
  8
0
 10
13.9922
 20
-42.251
 11
13.9687
 21
-42.501
  0
LINE
  8
0
 10
13.9687
 20
-42.501
 11
13.9287
 21
-42.75
  0
LINE
  8
0
 10
13.9287
 20
-42.75
 11
13.874
 21
-42.9951
  0
LINE
  8
0
 10
13.874
 20
-42.9951
 11
13.8047
 21
-43.2363
  0
LINE
  8
0
 10
13.8047
 20
-43.2363
 11
13.7187
 21
-43.4727
  0
LINE
  8
0
 10
13.7187
 20
-43.4727
 11
13.6191
 21
-43.7031
  0
LINE
  8
0
 10
13.6191
 20
-43.7031
 11
13.5049
 21
-43.9268
  0
LINE
  8
0
 10
13.5049
 20
-43.9268
 11
13.3769
 21
-44.1436
  0
LINE
  8
0
 10
13.3769
 20
-44.1436
 11
13.2363
 21
-44.3516
  0
LINE
  8
0
 10
13.2363
 20
-44.3516
 11
13.082
 21
-44.5498
  0
LINE
  8
0
 10
13.082
 20
-44.5498
 11
12.916
 21
-44.7383
  0
LINE
  8
0
 10
12.916
 20
-44.7383
 11
12.7383
 21
-44.916
  0
LINE
  8
0
 10
12.7383
 20
-44.916
 11
12.5498
 21
-45.082
  0
LINE
  8
0
 10
12.5498
 20
-45.082
 11
12.3515
 21
-45.2363
  0
LINE
  8
0
 10
12.3515
 20
-45.2363
 11
12.1435
 21
-45.377
  0
LINE
  8
0
 10
12.1435
 20
-45.377
 11
11.9267
 21
-45.5049
  0
LINE
  8
0
 10
11.9267
 20
-45.5049
 11
11.7031
 21
-45.6191
  0
LINE
  8
0
 10
11.7031
 20
-45.6191
 11
11.4726
 21
-45.7188
  0
LINE
  8
0
 10
11.4726
 20
-45.7188
 11
11.2363
 21
-45.8047
  0
LINE
  8
0
 10
11.2363
 20
-45.8047
 11
10.9951
 21
-45.874
  0
LINE
  8
0
 10
10.9951
 20
-45.874
 11
10.75
 21
-45.9287
  0
LINE
  8
0
 10
10.75
 20
-45.9287
 11
10.501
 21
-45.9688
  0
LINE
  8
0
 10
10.501
 20
-45.9688
 11
10.251
 21
-45.9922
  0
LINE
  8
0
 10
10.251
 20
-45.9922
 11
9.99998
 21
-46
  0
LINE
  8
0
 10
9.99998
 20
-46
 11
9.74901
 21
-45.9922
  0
LINE
  8
0
 10
-59.0938
 20
-51.4971
 11
-59.1885
 21
-51.4883
  0
LINE
  8
0
 10
-59.1885
 20
-51.4883
 11
-59.2812
 21
-51.4736
  0
LINE
  8
0
 10
-59.2812
 20
-51.4736
 11
-59.373
 21
-51.4531
  0
LINE
  8
0
 10
-59.373
 20
-51.4531
 11
-59.4639
 21
-51.4267
  0
LINE
  8
0
 10
-59.4639
 20
-51.4267
 11
-59.5518
 21
-51.3945
  0
LINE
  8
0
 10
-59.5518
 20
-51.3945
 11
-59.6387
 21
-51.3574
  0
LINE
  8
0
 10
-59.6387
 20
-51.3574
 11
-59.7227
 21
-51.3144
  0
LINE
  8
0
 10
-59.7227
 20
-51.3144
 11
-59.8037
 21
-51.2666
  0
LINE
  8
0
 10
-59.8037
 20
-51.2666
 11
-59.8818
 21
-51.2139
  0
LINE
  8
0
 10
-59.8818
 20
-51.2139
 11
-59.9561
 21
-51.1562
  0
LINE
  8
0
 10
-59.9561
 20
-51.1562
 11
-60.0264
 21
-51.0937
  0
LINE
  8
0
 10
-60.0264
 20
-51.0937
 11
-60.0938
 21
-51.0264
  0
LINE
  8
0
 10
-60.0938
 20
-51.0264
 11
-60.1562
 21
-50.956
  0
LINE
  8
0
 10
-60.1562
 20
-50.956
 11
-60.2139
 21
-50.8818
  0
LINE
  8
0
 10
-60.2139
 20
-50.8818
 11
-60.2666
 21
-50.8037
  0
LINE
  8
0
 10
-60.2666
 20
-50.8037
 11
-60.3145
 21
-50.7226
  0
LINE
  8
0
 10
-60.3145
 20
-50.7226
 11
-60.3574
 21
-50.6387
  0
LINE
  8
0
 10
-60.3574
 20
-50.6387
 11
-60.3945
 21
-50.5517
  0
LINE
  8
0
 10
-60.3945
 20
-50.5517
 11
-60.4268
 21
-50.4639
  0
LINE
  8
0
 10
-60.4268
 20
-50.4639
 11
-60.4531
 21
-50.373
  0
LINE
  8
0
 10
-60.4531
 20
-50.373
 11
-60.4736
 21
-50.2812
  0
LINE
  8
0
 10
-60.4736
 20
-50.2812
 11
-60.4883
 21
-50.1885
  0
LINE
  8
0
 10
-60.4883
 20
-50.1885
 11
-60.4971
 21
-50.0937
  0
LINE
  8
0
 10
-60.4971
 20
-50.0937
 11
-60.5
 21
-50
  0
LINE
  8
0
 10
-60.5
 20
-50
 11
-60.4971
 21
-49.9062
  0
LINE
  8
0
 10
-60.4971
 20
-49.9062
 11
-60.4883
 21
-49.8115
  0
LINE
  8
0
 10
-60.4883
 20
-49.8115
 11
-60.4736
 21
-49.7187
  0
LINE
  8
0
 10
-60.4736
 20
-49.7187
 11
-60.4531
 21
-49.6269
  0
LINE
  8
0
 10
-60.4531
 20
-49.6269
 11
-60.4268
 21
-49.5361
  0
LINE
  8
0
 10
-60.4268
 20
-49.5361
 11
-60.3945
 21
-49.4482
  0
LINE
  8
0
 10
-60.3945
 20
-49.4482
 11
-60.3574
 21
-49.3613
  0
LINE
  8
0
 10
-60.3574
 20
-49.3613
 11
-60.3145
 21
-49.2773
  0
LINE
  8
0
 10
-60.3145
 20
-49.2773
 11
-60.2666
 21
-49.1963
  0
LINE
  8
0
 10
-60.2666
 20
-49.1963
 11
-60.2139
 21
-49.1181
  0
LINE
  8
0
 10
-60.2139
 20
-49.1181
 11
-60.1562
 21
-49.0439
  0
LINE
  8
0
 10
-60.1562
 20
-49.0439
 11
-60.0938
 21
-48.9736
  0
LINE
  8
0
 10
-60.0938
 20
-48.9736
 11
-60.0264
 21
-48.9062
  0
LINE
  8
0
 10
-60.0264
 20
-48.9062
 11
-59.9561
 21
-48.8437
  0
LINE
  8
0
 10
-59.9561
 20
-48.8437
 11
-59.8818
 21
-48.7861
  0
LINE
  8
0
 10
-59.8818
 20
-48.7861
 11
-59.8037
 21
-48.7334
  0
LINE
  8
0
 10
-59.8037
 20
-48.7334
 11
-59.7227
 21
-48.6855
  0
LINE
  8
0
 10
-59.7227
 20
-48.6855
 11
-59.6387
 21
-48.6426
  0
LINE
  8
0
 10
-59.6387
 20
-48.6426
 11
-59.5518
 21
-48.6055
  0
LINE
  8
0
 10
-59.5518
 20
-48.6055
 11
-59.4639
 21
-48.5732
  0
LINE
  8
0
 10
-59.4639
 20
-48.5732
 11
-59.373
 21
-48.5469
  0
LINE
  8
0
 10
-59.373
 20
-48.5469
 11
-59.2812
 21
-48.5264
  0
LINE
  8
0
 10
-59.2812
 20
-48.5264
 11
-59.1885
 21
-48.5117
  0
LINE
  8
0
 10
-59.1885
 20
-48.5117
 11
-59.0938
 21
-48.5029
  0
LINE
  8
0
 10
-59.0938
 20
-48.5029
 11
-59
 21
-48.5
  0
LINE
  8
0
 10
-59
 20
-48.5
 11
-58.9062
 21
-48.5029
  0
LINE
  8
0
 10
-58.9062
 20
-48.5029
 11
-58.8115
 21
-48.5117
  0
LINE
  8
0
 10
-58.8115
 20
-48.5117
 11
-58.7188
 21
-48.5264
  0
LINE
  8
0
 10
-58.7188
 20
-48.5264
 11
-58.627
 21
-48.5469
  0
LINE
  8
0
 10
-58.627
 20
-48.5469
 11
-58.5361
 21
-48.5732
  0
LINE
  8
0
 10
-58.5361
 20
-48.5732
 11
-58.4482
 21
-48.6055
  0
LINE
  8
0
 10
-58.4482
 20
-48.6055
 11
-58.3613
 21
-48.6426
  0
LINE
  8
0
 10
-58.3613
 20
-48.6426
 11
-58.2773
 21
-48.6855
  0
LINE
  8
0
 10
-58.2773
 20
-48.6855
 11
-58.1963
 21
-48.7334
  0
LINE
  8
0
 10
-58.1963
 20
-48.7334
 11
-58.1182
 21
-48.7861
  0
LINE
  8
0
 10
-58.1182
 20
-48.7861
 11
-58.0439
 21
-48.8437
  0
LINE
  8
0
 10
-58.0439
 20
-48.8437
 11
-57.9736
 21
-48.9062
  0
LINE
  8
0
 10
-57.9736
 20
-48.9062
 11
-57.9062
 21
-48.9736
  0
LINE
  8
0
 10
-57.9062
 20
-48.9736
 11
-57.8438
 21
-49.0439
  0
LINE
  8
0
 10
-57.8438
 20
-49.0439
 11
-57.7861
 21
-49.1181
  0
LINE
  8
0
 10
-57.7861
 20
-49.1181
 11
-57.7334
 21
-49.1963
  0
LINE
  8
0
 10
-57.7334
 20
-49.1963
 11
-57.6855
 21
-49.2773
  0
LINE
  8
0
 10
-57.6855
 20
-49.2773
 11
-57.6426
 21
-49.3613
  0
LINE
  8
0
 10
-57.6426
 20
-49.3613
 11
-57.6055
 21
-49.4482
  0
LINE
  8
0
 10
-57.6055
 20
-49.4482
 11
-57.5732
 21
-49.5361
  0
LINE
  8
0
 10
-57.5732
 20
-49.5361
 11
-57.5469
 21
-49.6269
  0
LINE
  8
0
 10
-57.5469
 20
-49.6269
 11
-57.5264
 21
-49.7187
  0
LINE
  8
0
 10
-57.5264
 20
-49.7187
 11
-57.5117
 21
-49.8115
  0
LINE
  8
0
 10
-57.5117
 20
-49.8115
 11
-57.5029
 21
-49.9062
  0
LINE
  8
0
 10
-57.5029
 20
-49.9062
 11
-57.5
 21
-50
  0
LINE
  8
0
 10
-57.5
 20
-50
 11
-57.5029
 21
-50.0937
  0
LINE
  8
0
 10
-57.5029
 20
-50.0937
 11
-57.5117
 21
-50.1885
  0
LINE
  8
0
 10
-57.5117
 20
-50.1885
 11
-57.5264
 21
-50.2812
  0
LINE
  8
0
 10
-57.5264
 20
-50.2812
 11
-57.5469
 21
-50.373
  0
LINE
  8
0
 10
-57.5469
 20
-50.373
 11
-57.5732
 21
-50.4639
  0
LINE
  8
0
 10
-57.5732
 20
-50.4639
 11
-57.6055
 21
-50.5517
  0
LINE
  8
0
 10
-57.6055
 20
-50.5517
 11
-57.6426
 21
-50.6387
  0
LINE
  8
0
 10
-57.6426
 20
-50.6387
 11
-57.6855
 21
-50.7226
  0
LINE
  8
0
 10
-57.6855
 20
-50.7226
 11
-57.7334
 21
-50.8037
  0
LINE
  8
0
 10
-57.7334
 20
-50.8037
 11
-57.7861
 21
-50.8818
  0
LINE
  8
0
 10
-57.7861
 20
-50.8818
 11
-57.8438
 21
-50.956
  0
LINE
  8
0
 10
-57.8438
 20
-50.956
 11
-57.9062
 21
-51.0264
  0
LINE
  8
0
 10
-57.9062
 20
-51.0264
 11
-57.9736
 21
-51.0937
  0
LINE
  8
0
 10
-57.9736
 20
-51.0937
 11
-58.0439
 21
-51.1562
  0
LINE
  8
0
 10
-58.0439
 20
-51.1562
 11
-58.1182
 21
-51.2139
  0
LINE
  8
0
 10
-58.1182
 20
-51.2139
 11
-58.1963
 21
-51.2666
  0
LINE
  8
0
 10
-58.1963
 20
-51.2666
 11
-58.2773
 21
-51.3144
  0
LINE
  8
0
 10
-58.2773
 20
-51.3144
 11
-58.3613
 21
-51.3574
  0
LINE
  8
0
 10
-58.3613
 20
-51.3574
 11
-58.4482
 21
-51.3945
  0
LINE
  8
0
 10
-58.4482
 20
-51.3945
 11
-58.5361
 21
-51.4267
  0
LINE
  8
0
 10
-58.5361
 20
-51.4267
 11
-58.627
 21
-51.4531
  0
LINE
  8
0
 10
-58.627
 20
-51.4531
 11
-58.7188
 21
-51.4736
  0
LINE
  8
0
 10
-58.7188
 20
-51.4736
 11
-58.8115
 21
-51.4883
  0
LINE
  8
0
 10
-58.8115
 20
-51.4883
 11
-58.9062
 21
-51.4971
  0
LINE
  8
0
 10
-58.9062
 20
-51.4971
 11
-59
 21
-51.5
  0
LINE
  8
0
 10
-59
 20
-51.5
 11
-59.0938
 21
-51.4971
  0
LINE
  8
0
 10
58.9062
 20
-51.4971
 11
58.8115
 21
-51.4883
  0
LINE
  8
0
 10
58.8115
 20
-51.4883
 11
58.7187
 21
-51.4736
  0
LINE
  8
0
 10
58.7187
 20
-51.4736
 11
58.6269
 21
-51.4531
  0
LINE
  8
0
 10
58.6269
 20
-51.4531
 11
58.5361
 21
-51.4268
  0
LINE
  8
0
 10
58.5361
 20
-51.4268
 11
58.4482
 21
-51.3945
  0
LINE
  8
0
 10
58.4482
 20
-51.3945
 11
58.3613
 21
-51.3574
  0
LINE
  8
0
 10
58.3613
 20
-51.3574
 11
58.2773
 21
-51.3145
  0
LINE
  8
0
 10
58.2773
 20
-51.3145
 11
58.1963
 21
-51.2666
  0
LINE
  8
0
 10
58.1963
 20
-51.2666
 11
58.1181
 21
-51.2139
  0
LINE
  8
0
 10
58.1181
 20
-51.2139
 11
58.0439
 21
-51.1562
  0
LINE
  8
0
 10
58.0439
 20
-51.1562
 11
57.9736
 21
-51.0938
  0
LINE
  8
0
 10
57.9736
 20
-51.0938
 11
57.9062
 21
-51.0264
  0
LINE
  8
0
 10
57.9062
 20
-51.0264
 11
57.8437
 21
-50.9561
  0
LINE
  8
0
 10
57.8437
 20
-50.9561
 11
57.7861
 21
-50.8818
  0
LINE
  8
0
 10
57.7861
 20
-50.8818
 11
57.7334
 21
-50.8037
  0
LINE
  8
0
 10
57.7334
 20
-50.8037
 11
57.6855
 21
-50.7227
  0
LINE
  8
0
 10
57.6855
 20
-50.7227
 11
57.6426
 21
-50.6387
  0
LINE
  8
0
 10
57.6426
 20
-50.6387
 11
57.6055
 21
-50.5518
  0
LINE
  8
0
 10
57.6055
 20
-50.5518
 11
57.5732
 21
-50.4639
  0
LINE
  8
0
 10
57.5732
 20
-50.4639
 11
57.5469
 21
-50.373
  0
LINE
  8
0
 10
57.5469
 20
-50.373
 11
57.5264
 21
-50.2812
  0
LINE
  8
0
 10
57.5264
 20
-50.2812
 11
57.5117
 21
-50.1885
  0
LINE
  8
0
 10
57.5117
 20
-50.1885
 11
57.5029
 21
-50.0938
  0
LINE
  8
0
 10
57.5029
 20
-50.0938
 11
57.5
 21
-50
  0
LINE
  8
0
 10
57.5
 20
-50
 11
57.5029
 21
-49.9062
  0
LINE
  8
0
 10
57.5029
 20
-49.9062
 11
57.5117
 21
-49.8115
  0
LINE
  8
0
 10
57.5117
 20
-49.8115
 11
57.5264
 21
-49.7188
  0
LINE
  8
0
 10
57.5264
 20
-49.7188
 11
57.5469
 21
-49.627
  0
LINE
  8
0
 10
57.5469
 20
-49.627
 11
57.5732
 21
-49.5361
  0
LINE
  8
0
 10
57.5732
 20
-49.5361
 11
57.6055
 21
-49.4482
  0
LINE
  8
0
 10
57.6055
 20
-49.4482
 11
57.6426
 21
-49.3613
  0
LINE
  8
0
 10
57.6426
 20
-49.3613
 11
57.6855
 21
-49.2773
  0
LINE
  8
0
 10
57.6855
 20
-49.2773
 11
57.7334
 21
-49.1963
  0
LINE
  8
0
 10
57.7334
 20
-49.1963
 11
57.7861
 21
-49.1182
  0
LINE
  8
0
 10
57.7861
 20
-49.1182
 11
57.8437
 21
-49.0439
  0
LINE
  8
0
 10
57.8437
 20
-49.0439
 11
57.9062
 21
-48.9736
  0
LINE
  8
0
 10
57.9062
 20
-48.9736
 11
57.9736
 21
-48.9062
  0
LINE
  8
0
 10
57.9736
 20
-48.9062
 11
58.0439
 21
-48.8438
  0
LINE
  8
0
 10
58.0439
 20
-48.8438
 11
58.1181
 21
-48.7861
  0
LINE
  8
0
 10
58.1181
 20
-48.7861
 11
58.1963
 21
-48.7334
  0
LINE
  8
0
 10
58.1963
 20
-48.7334
 11
58.2773
 21
-48.6855
  0
LINE
  8
0
 10
58.2773
 20
-48.6855
 11
58.3613
 21
-48.6426
  0
LINE
  8
0
 10
58.3613
 20
-48.6426
 11
58.4482
 21
-48.6055
  0
LINE
  8
0
 10
58.4482
 20
-48.6055
 11
58.5361
 21
-48.5732
  0
LINE
  8
0
 10
58.5361
 20
-48.5732
 11
58.6269
 21
-48.5469
  0
LINE
  8
0
 10
58.6269
 20
-48.5469
 11
58.7187
 21
-48.5264
  0
LINE
  8
0
 10
58.7187
 20
-48.5264
 11
58.8115
 21
-48.5117
  0
LINE
  8
0
 10
58.8115
 20
-48.5117
 11
58.9062
 21
-48.5029
  0
LINE
  8
0
 10
58.9062
 20
-48.5029
 11
59
 21
-48.5
  0
LINE
  8
0
 10
59
 20
-48.5
 11
59.0937
 21
-48.5029
  0
LINE
  8
0
 10
59.0937
 20
-48.5029
 11
59.1885
 21
-48.5117
  0
LINE
  8
0
 10
59.1885
 20
-48.5117
 11
59.2812
 21
-48.5264
  0
LINE
  8
0
 10
59.2812
 20
-48.5264
 11
59.373
 21
-48.5469
  0
LINE
  8
0
 10
59.373
 20
-48.5469
 11
59.4639
 21
-48.5732
  0
LINE
  8
0
 10
59.4639
 20
-48.5732
 11
59.5517
 21
-48.6055
  0
LINE
  8
0
 10
59.5517
 20
-48.6055
 11
59.6387
 21
-48.6426
  0
LINE
  8
0
 10
59.6387
 20
-48.6426
 11
59.7226
 21
-48.6855
  0
LINE
  8
0
 10
59.7226
 20
-48.6855
 11
59.8037
 21
-48.7334
  0
LINE
  8
0
 10
59.8037
 20
-48.7334
 11
59.8818
 21
-48.7861
  0
LINE
  8
0
 10
59.8818
 20
-48.7861
 11
59.956
 21
-48.8438
  0
LINE
  8
0
 10
59.956
 20
-48.8438
 11
60.0264
 21
-48.9062
  0
LINE
  8
0
 10
60.0264
 20
-48.9062
 11
60.0937
 21
-48.9736
  0
LINE
  8
0
 10
60.0937
 20
-48.9736
 11
60.1562
 21
-49.0439
  0
LINE
  8
0
 10
60.1562
 20
-49.0439
 11
60.2139
 21
-49.1182
  0
LINE
  8
0
 10
60.2139
 20
-49.1182
 11
60.2666
 21
-49.1963
  0
LINE
  8
0
 10
60.2666
 20
-49.1963
 11
60.3144
 21
-49.2773
  0
LINE
  8
0
 10
60.3144
 20
-49.2773
 11
60.3574
 21
-49.3613
  0
LINE
  8
0
 10
60.3574
 20
-49.3613
 11
60.3945
 21
-49.4482
  0
LINE
  8
0
 10
60.3945
 20
-49.4482
 11
60.4267
 21
-49.5361
  0
LINE
  8
0
 10
60.4267
 20
-49.5361
 11
60.4531
 21
-49.627
  0
LINE
  8
0
 10
60.4531
 20
-49.627
 11
60.4736
 21
-49.7188
  0
LINE
  8
0
 10
60.4736
 20
-49.7188
 11
60.4883
 21
-49.8115
  0
LINE
  8
0
 10
60.4883
 20
-49.8115
 11
60.4971
 21
-49.9062
  0
LINE
  8
0
 10
60.4971
 20
-49.9062
 11
60.5
 21
-50
  0
LINE
  8
0
 10
60.5
 20
-50
 11
60.4971
 21
-50.0938
  0
LINE
  8
0
 10
60.4971
 20
-50.0938
 11
60.4883
 21
-50.1885
  0
LINE
  8
0
 10
60.4883
 20
-50.1885
 11
60.4736
 21
-50.2812
  0
LINE
  8
0
 10
60.4736
 20
-50.2812
 11
60.4531
 21
-50.373
  0
LINE
  8
0
 10
60.4531
 20
-50.373
 11
60.4267
 21
-50.4639
  0
LINE
  8
0
 10
60.4267
 20
-50.4639
 11
60.3945
 21
-50.5518
  0
LINE
  8
0
 10
60.3945
 20
-50.5518
 11
60.3574
 21
-50.6387
  0
LINE
  8
0
 10
60.3574
 20
-50.6387
 11
60.3144
 21
-50.7227
  0
LINE
  8
0
 10
60.3144
 20
-50.7227
 11
60.2666
 21
-50.8037
  0
LINE
  8
0
 10
60.2666
 20
-50.8037
 11
60.2139
 21
-50.8818
  0
LINE
  8
0
 10
60.2139
 20
-50.8818
 11
60.1562
 21
-50.9561
  0
LINE
  8
0
 10
60.1562
 20
-50.9561
 11
60.0937
 21
-51.0264
  0
LINE
  8
0
 10
60.0937
 20
-51.0264
 11
60.0264
 21
-51.0938
  0
LINE
  8
0
 10
60.0264
 20
-51.0938
 11
59.956
 21
-51.1562
  0
LINE
  8
0
 10
59.956
 20
-51.1562
 11
59.8818
 21
-51.2139
  0
LINE
  8
0
 10
59.8818
 20
-51.2139
 11
59.8037
 21
-51.2666
  0
LINE
  8
0
 10
59.8037
 20
-51.2666
 11
59.7226
 21
-51.3145
  0
LINE
  8
0
 10
59.7226
 20
-51.3145
 11
59.6387
 21
-51.3574
  0
LINE
  8
0
 10
59.6387
 20
-51.3574
 11
59.5517
 21
-51.3945
  0
LINE
  8
0
 10
59.5517
 20
-51.3945
 11
59.4639
 21
-51.4268
  0
LINE
  8
0
 10
59.4639
 20
-51.4268
 11
59.373
 21
-51.4531
  0
LINE
  8
0
 10
59.373
 20
-51.4531
 11
59.2812
 21
-51.4736
  0
LINE
  8
0
 10
59.2812
 20
-51.4736
 11
59.1885
 21
-51.4883
  0
LINE
  8
0
 10
59.1885
 20
-51.4883
 11
59.0937
 21
-51.4971
  0
LINE
  8
0
 10
59.0937
 20
-51.4971
 11
59
 21
-51.5
  0
LINE
  8
0
 10
59
 20
-51.5
 11
58.9062
 21
-51.4971
  0
LINE
  8
0
 10
-2.5
 20
-173
 11
2.49998
 21
-173
  0
LINE
  8
0
 10
2.49998
 20
-173
 11
2.49998
 21
-176
  0
LINE
  8
0
 10
2.49998
 20
-176
 11
61
 21
-176
  0
LINE
  8
0
 10
61
 20
-176
 11
61
 21
-173
  0
LINE
  8
0
 10
61
 20
-173
 11
66
 21
-173
  0
LINE
  8
0
 10
66
 20
-173
 11
66
 21
-169
  0
LINE
  8
0
 10
66
 20
-169
 11
63
 21
-169
  0
LINE
  8
0
 10
63
 20
-169
 11
63
 21
-164
  0
LINE
  8
0
 10
63
 20
-164
 11
66
 21
-164
  0
LINE
  8
0
 10
66
 20
-164
 11
66
 21
-74
  0
LINE
  8
0
 10
66
 20
-74
 11
63
 21
-74
  0
LINE
  8
0
 10
63
 20
-74
 11
63
 21
-69
  0
LINE
  8
0
 10
63
 20
-69
 11
66
 21
-69
  0
LINE
  8
0
 10
66
 20
-69
 11
66
 21
-65
  0
LINE
  8
0
 10
66
 20
-65
 11
61
 21
-65
  0
LINE
  8
0
 10
61
 20
-65
 11
61
 21
-62
  0
LINE
  8
0
 10
61
 20
-62
 11
2.5
 21
-62
  0
LINE
  8
0
 10
2.5
 20
-62
 11
2.5
 21
-65
  0
LINE
  8
0
 10
2.5
 20
-65
 11
-2.49998
 21
-65
  0
LINE
  8
0
 10
-2.49998
 20
-65
 11
-2.49998
 21
-62
  0
LINE
  8
0
 10
-2.49998
 20
-62
 11
-61
 21
-62
  0
LINE
  8
0
 10
-61
 20
-62
 11
-61
 21
-65
  0
LINE
  8
0
 10
-61
 20
-65
 11
-66
 21
-65
  0
LINE
  8
0
 10
-66
 20
-65
 11
-66
 21
-69
  0
LINE
  8
0
 10
-66
 20
-69
 11
-63
 21
-69
  0
LINE
  8
0
 10
-63
 20
-69
 11
-63
 21
-74
  0
LINE
  8
0
 10
-63
 20
-74
 11
-66
 21
-74
  0
LINE
  8
0
 10
-66
 20
-74
 11
-66
 21
-164
  0
LINE
  8
0
 10
-66
 20
-164
 11
-63
 21
-164
  0
LINE
  8
0
 10
-63
 20
-164
 11
-63
 21
-169
  0
LINE
  8
0
 10
-63
 20
-169
 11
-66
 21
-169
  0
LINE
  8
0
 10
-66
 20
-169
 11
-66
 21
-173
  0
LINE
  8
0
 10
-66
 20
-173
 11
-61
 21
-173
  0
LINE
  8
0
 10
-61
 20
-173
 11
-61
 21
-176
  0
LINE
  8
0
 10
-61
 20
-176
 11
-2.5
 21
-176
  0
LINE
  8
0
 10
-2.5
 20
-176
 11
-2.5
 21
-173
  0
LINE
  8
0
 10
-59.0937
 20
-70.4971
 11
-59.1885
 21
-70.4883
  0
LINE
  8
0
 10
-59.1885
 20
-70.4883
 11
-59.2812
 21
-70.4736
  0
LINE
  8
0
 10
-59.2812
 20
-70.4736
 11
-59.373
 21
-70.4531
  0
LINE
  8
0
 10
-59.373
 20
-70.4531
 11
-59.4639
 21
-70.4268
  0
LINE
  8
0
 10
-59.4639
 20
-70.4268
 11
-59.5517
 21
-70.3945
  0
LINE
  8
0
 10
-59.5517
 20
-70.3945
 11
-59.6387
 21
-70.3574
  0
LINE
  8
0
 10
-59.6387
 20
-70.3574
 11
-59.7226
 21
-70.3145
  0
LINE
  8
0
 10
-59.7226
 20
-70.3145
 11
-59.8037
 21
-70.2666
  0
LINE
  8
0
 10
-59.8037
 20
-70.2666
 11
-59.8818
 21
-70.2139
  0
LINE
  8
0
 10
-59.8818
 20
-70.2139
 11
-59.956
 21
-70.1562
  0
LINE
  8
0
 10
-59.956
 20
-70.1562
 11
-60.0264
 21
-70.0938
  0
LINE
  8
0
 10
-60.0264
 20
-70.0938
 11
-60.0937
 21
-70.0264
  0
LINE
  8
0
 10
-60.0937
 20
-70.0264
 11
-60.1562
 21
-69.9561
  0
LINE
  8
0
 10
-60.1562
 20
-69.9561
 11
-60.2139
 21
-69.8818
  0
LINE
  8
0
 10
-60.2139
 20
-69.8818
 11
-60.2666
 21
-69.8037
  0
LINE
  8
0
 10
-60.2666
 20
-69.8037
 11
-60.3144
 21
-69.7227
  0
LINE
  8
0
 10
-60.3144
 20
-69.7227
 11
-60.3574
 21
-69.6387
  0
LINE
  8
0
 10
-60.3574
 20
-69.6387
 11
-60.3945
 21
-69.5518
  0
LINE
  8
0
 10
-60.3945
 20
-69.5518
 11
-60.4267
 21
-69.4639
  0
LINE
  8
0
 10
-60.4267
 20
-69.4639
 11
-60.4531
 21
-69.373
  0
LINE
  8
0
 10
-60.4531
 20
-69.373
 11
-60.4736
 21
-69.2812
  0
LINE
  8
0
 10
-60.4736
 20
-69.2812
 11
-60.4883
 21
-69.1885
  0
LINE
  8
0
 10
-60.4883
 20
-69.1885
 11
-60.4971
 21
-69.0938
  0
LINE
  8
0
 10
-60.4971
 20
-69.0938
 11
-60.5
 21
-69
  0
LINE
  8
0
 10
-60.5
 20
-69
 11
-60.4971
 21
-68.9062
  0
LINE
  8
0
 10
-60.4971
 20
-68.9062
 11
-60.4883
 21
-68.8115
  0
LINE
  8
0
 10
-60.4883
 20
-68.8115
 11
-60.4736
 21
-68.7188
  0
LINE
  8
0
 10
-60.4736
 20
-68.7188
 11
-60.4531
 21
-68.627
  0
LINE
  8
0
 10
-60.4531
 20
-68.627
 11
-60.4267
 21
-68.5361
  0
LINE
  8
0
 10
-60.4267
 20
-68.5361
 11
-60.3945
 21
-68.4482
  0
LINE
  8
0
 10
-60.3945
 20
-68.4482
 11
-60.3574
 21
-68.3613
  0
LINE
  8
0
 10
-60.3574
 20
-68.3613
 11
-60.3144
 21
-68.2773
  0
LINE
  8
0
 10
-60.3144
 20
-68.2773
 11
-60.2666
 21
-68.1963
  0
LINE
  8
0
 10
-60.2666
 20
-68.1963
 11
-60.2139
 21
-68.1182
  0
LINE
  8
0
 10
-60.2139
 20
-68.1182
 11
-60.1562
 21
-68.0439
  0
LINE
  8
0
 10
-60.1562
 20
-68.0439
 11
-60.0937
 21
-67.9736
  0
LINE
  8
0
 10
-60.0937
 20
-67.9736
 11
-60.0264
 21
-67.9062
  0
LINE
  8
0
 10
-60.0264
 20
-67.9062
 11
-59.956
 21
-67.8438
  0
LINE
  8
0
 10
-59.956
 20
-67.8438
 11
-59.8818
 21
-67.7861
  0
LINE
  8
0
 10
-59.8818
 20
-67.7861
 11
-59.8037
 21
-67.7334
  0
LINE
  8
0
 10
-59.8037
 20
-67.7334
 11
-59.7226
 21
-67.6855
  0
LINE
  8
0
 10
-59.7226
 20
-67.6855
 11
-59.6387
 21
-67.6426
  0
LINE
  8
0
 10
-59.6387
 20
-67.6426
 11
-59.5517
 21
-67.6055
  0
LINE
  8
0
 10
-59.5517
 20
-67.6055
 11
-59.4639
 21
-67.5732
  0
LINE
  8
0
 10
-59.4639
 20
-67.5732
 11
-59.373
 21
-67.5469
  0
LINE
  8
0
 10
-59.373
 20
-67.5469
 11
-59.2812
 21
-67.5264
  0
LINE
  8
0
 10
-59.2812
 20
-67.5264
 11
-59.1885
 21
-67.5117
  0
LINE
  8
0
 10
-59.1885
 20
-67.5117
 11
-59.0937
 21
-67.5029
  0
LINE
  8
0
 10
-59.0937
 20
-67.5029
 11
-59
 21
-67.5
  0
LINE
  8
0
 10
-59
 20
-67.5
 11
-58.9062
 21
-67.5029
  0
LINE
  8
0
 10
-58.9062
 20
-67.5029
 11
-58.8115
 21
-67.5117
  0
LINE
  8
0
 10
-58.8115
 20
-67.5117
 11
-58.7187
 21
-67.5264
  0
LINE
  8
0
 10
-58.7187
 20
-67.5264
 11
-58.6269
 21
-67.5469
  0
LINE
  8
0
 10
-58.6269
 20
-67.5469
 11
-58.5361
 21
-67.5732
  0
LINE
  8
0
 10
-58.5361
 20
-67.5732
 11
-58.4482
 21
-67.6055
  0
LINE
  8
0
 10
-58.4482
 20
-67.6055
 11
-58.3613
 21
-67.6426
  0
LINE
  8
0
 10
-58.3613
 20
-67.6426
 11
-58.2773
 21
-67.6855
  0
LINE
  8
0
 10
-58.2773
 20
-67.6855
 11
-58.1963
 21
-67.7334
  0
LINE
  8
0
 10
-58.1963
 20
-67.7334
 11
-58.1181
 21
-67.7861
  0
LINE
  8
0
 10
-58.1181
 20
-67.7861
 11
-58.0439
 21
-67.8438
  0
LINE
  8
0
 10
-58.0439
 20
-67.8438
 11
-57.9736
 21
-67.9062
  0
LINE
  8
0
 10
-57.9736
 20
-67.9062
 11
-57.9062
 21
-67.9736
  0
LINE
  8
0
 10
-57.9062
 20
-67.9736
 11
-57.8437
 21
-68.0439
  0
LINE
  8
0
 10
-57.8437
 20
-68.0439
 11
-57.7861
 21
-68.1182
  0
LINE
  8
0
 10
-57.7861
 20
-68.1182
 11
-57.7334
 21
-68.1963
  0
LINE
  8
0
 10
-57.7334
 20
-68.1963
 11
-57.6855
 21
-68.2773
  0
LINE
  8
0
 10
-57.6855
 20
-68.2773
 11
-57.6426
 21
-68.3613
  0
LINE
  8
0
 10
-57.6426
 20
-68.3613
 11
-57.6055
 21
-68.4482
  0
LINE
  8
0
 10
-57.6055
 20
-68.4482
 11
-57.5732
 21
-68.5361
  0
LINE
  8
0
 10
-57.5732
 20
-68.5361
 11
-57.5469
 21
-68.627
  0
LINE
  8
0
 10
-57.5469
 20
-68.627
 11
-57.5264
 21
-68.7188
  0
LINE
  8
0
 10
-57.5264
 20
-68.7188
 11
-57.5117
 21
-68.8115
  0
LINE
  8
0
 10
-57.5117
 20
-68.8115
 11
-57.5029
 21
-68.9062
  0
LINE
  8
0
 10
-57.5029
 20
-68.9062
 11
-57.5
 21
-69
  0
LINE
  8
0
 10
-57.5
 20
-69
 11
-57.5029
 21
-69.0938
  0
LINE
  8
0
 10
-57.5029
 20
-69.0938
 11
-57.5117
 21
-69.1885
  0
LINE
  8
0
 10
-57.5117
 20
-69.1885
 11
-57.5264
 21
-69.2812
  0
LINE
  8
0
 10
-57.5264
 20
-69.2812
 11
-57.5469
 21
-69.373
  0
LINE
  8
0
 10
-57.5469
 20
-69.373
 11
-57.5732
 21
-69.4639
  0
LINE
  8
0
 10
-57.5732
 20
-69.4639
 11
-57.6055
 21
-69.5518
  0
LINE
  8
0
 10
-57.6055
 20
-69.5518
 11
-57.6426
 21
-69.6387
  0
LINE
  8
0
 10
-57.6426
 20
-69.6387
 11
-57.6855
 21
-69.7227
  0
LINE
  8
0
 10
-57.6855
 20
-69.7227
 11
-57.7334
 21
-69.8037
  0
LINE
  8
0
 10
-57.7334
 20
-69.8037
 11
-57.7861
 21
-69.8818
  0
LINE
  8
0
 10
-57.7861
 20
-69.8818
 11
-57.8437
 21
-69.9561
  0
LINE
  8
0
 10
-57.8437
 20
-69.9561
 11
-57.9062
 21
-70.0264
  0
LINE
  8
0
 10
-57.9062
 20
-70.0264
 11
-57.9736
 21
-70.0938
  0
LINE
  8
0
 10
-57.9736
 20
-70.0938
 11
-58.0439
 21
-70.1562
  0
LINE
  8
0
 10
-58.0439
 20
-70.1562
 11
-58.1181
 21
-70.2139
  0
LINE
  8
0
 10
-58.1181
 20
-70.2139
 11
-58.1963
 21
-70.2666
  0
LINE
  8
0
 10
-58.1963
 20
-70.2666
 11
-58.2773
 21
-70.3145
  0
LINE
  8
0
 10
-58.2773
 20
-70.3145
 11
-58.3613
 21
-70.3574
  0
LINE
  8
0
 10
-58.3613
 20
-70.3574
 11
-58.4482
 21
-70.3945
  0
LINE
  8
0
 10
-58.4482
 20
-70.3945
 11
-58.5361
 21
-70.4268
  0
LINE
  8
0
 10
-58.5361
 20
-70.4268
 11
-58.6269
 21
-70.4531
  0
LINE
  8
0
 10
-58.6269
 20
-70.4531
 11
-58.7187
 21
-70.4736
  0
LINE
  8
0
 10
-58.7187
 20
-70.4736
 11
-58.8115
 21
-70.4883
  0
LINE
  8
0
 10
-58.8115
 20
-70.4883
 11
-58.9062
 21
-70.4971
  0
LINE
  8
0
 10
-58.9062
 20
-70.4971
 11
-59
 21
-70.5
  0
LINE
  8
0
 10
-59
 20
-70.5
 11
-59.0937
 21
-70.4971
  0
LINE
  8
0
 10
58.9062
 20
-70.4971
 11
58.8115
 21
-70.4883
  0
LINE
  8
0
 10
58.8115
 20
-70.4883
 11
58.7188
 21
-70.4736
  0
LINE
  8
0
 10
58.7188
 20
-70.4736
 11
58.627
 21
-70.4531
  0
LINE
  8
0
 10
58.627
 20
-70.4531
 11
58.5361
 21
-70.4268
  0
LINE
  8
0
 10
58.5361
 20
-70.4268
 11
58.4482
 21
-70.3945
  0
LINE
  8
0
 10
58.4482
 20
-70.3945
 11
58.3613
 21
-70.3574
  0
LINE
  8
0
 10
58.3613
 20
-70.3574
 11
58.2773
 21
-70.3145
  0
LINE
  8
0
 10
58.2773
 20
-70.3145
 11
58.1963
 21
-70.2666
  0
LINE
  8
0
 10
58.1963
 20
-70.2666
 11
58.1182
 21
-70.2139
  0
LINE
  8
0
 10
58.1182
 20
-70.2139
 11
58.0439
 21
-70.1562
  0
LINE
  8
0
 10
58.0439
 20
-70.1562
 11
57.9736
 21
-70.0938
  0
LINE
  8
0
 10
57.9736
 20
-70.0938
 11
57.9062
 21
-70.0264
  0
LINE
  8
0
 10
57.9062
 20
-70.0264
 11
57.8438
 21
-69.9561
  0
LINE
  8
0
 10
57.8438
 20
-69.9561
 11
57.7861
 21
-69.8818
  0
LINE
  8
0
 10
57.7861
 20
-69.8818
 11
57.7334
 21
-69.8037
  0
LINE
  8
0
 10
57.7334
 20
-69.8037
 11
57.6855
 21
-69.7227
  0
LINE
  8
0
 10
57.6855
 20
-69.7227
 11
57.6426
 21
-69.6387
  0
LINE
  8
0
 10
57.6426
 20
-69.6387
 11
57.6055
 21
-69.5518
  0
LINE
  8
0
 10
57.6055
 20
-69.5518
 11
57.5732
 21
-69.4639
  0
LINE
  8
0
 10
57.5732
 20
-69.4639
 11
57.5469
 21
-69.373
  0
LINE
  8
0
 10
57.5469
 20
-69.373
 11
57.5264
 21
-69.2812
  0
LINE
  8
0
 10
57.5264
 20
-69.2812
 11
57.5117
 21
-69.1885
  0
LINE
  8
0
 10
57.5117
 20
-69.1885
 11
57.5029
 21
-69.0938
  0
LINE
  8
0
 10
57.5029
 20
-69.0938
 11
57.5
 21
-69
  0
LINE
  8
0
 10
57.5
 20
-69
 11
57.5029
 21
-68.9062
  0
LINE
  8
0
 10
57.5029
 20
-68.9062
 11
57.5117
 21
-68.8115
  0
LINE
  8
0
 10
57.5117
 20
-68.8115
 11
57.5264
 21
-68.7188
  0
LINE
  8
0
 10
57.5264
 20
-68.7188
 11
57.5469
 21
-68.627
  0
LINE
  8
0
 10
57.5469
 20
-68.627
 11
57.5732
 21
-68.5361
  0
LINE
  8
0
 10
57.5732
 20
-68.5361
 11
57.6055
 21
-68.4482
  0
LINE
  8
0
 10
57.6055
 20
-68.4482
 11
57.6426
 21
-68.3613
  0
LINE
  8
0
 10
57.6426
 20
-68.3613
 11
57.6855
 21
-68.2773
  0
LINE
  8
0
 10
57.6855
 20
-68.2773
 11
57.7334
 21
-68.1963
  0
LINE
  8
0
 10
57.7334
 20
-68.1963
 11
57.7861
 21
-68.1182
  0
LINE
  8
0
 10
57.7861
 20
-68.1182
 11
57.8438
 21
-68.0439
  0
LINE
  8
0
 10
57.8438
 20
-68.0439
 11
57.9062
 21
-67.9736
  0
LINE
  8
0
 10
57.9062
 20
-67.9736
 11
57.9736
 21
-67.9062
  0
LINE
  8
0
 10
57.9736
 20
-67.9062
 11
58.0439
 21
-67.8438
  0
LINE
  8
0
 10
58.0439
 20
-67.8438
 11
58.1182
 21
-67.7861
  0
LINE
  8
0
 10
58.1182
 20
-67.7861
 11
58.1963
 21
-67.7334
  0
LINE
  8
0
 10
58.1963
 20
-67.7334
 11
58.2773
 21
-67.6855
  0
LINE
  8
0
 10
58.2773
 20
-67.6855
 11
58.3613
 21
-67.6426
  0
LINE
  8
0
 10
58.3613
 20
-67.6426
 11
58.4482
 21
-67.6055
  0
LINE
  8
0
 10
58.4482
 20
-67.6055
 11
58.5361
 21
-67.5732
  0
LINE
  8
0
 10
58.5361
 20
-67.5732
 11
58.627
 21
-67.5469
  0
LINE
  8
0
 10
58.627
 20
-67.5469
 11
58.7188
 21
-67.5264
  0
LINE
  8
0
 10
58.7188
 20
-67.5264
 11
58.8115
 21
-67.5117
  0
LINE
  8
0
 10
58.8115
 20
-67.5117
 11
58.9062
 21
-67.5029
  0
LINE
  8
0
 10
58.9062
 20
-67.5029
 11
59
 21
-67.5
  0
LINE
  8
0
 10
59
 20
-67.5
 11
59.0938
 21
-67.5029
  0
LINE
  8
0
 10
59.0938
 20
-67.5029
 11
59.1885
 21
-67.5117
  0
LINE
  8
0
 10
59.1885
 20
-67.5117
 11
59.2812
 21
-67.5264
  0
LINE
  8
0
 10
59.2812
 20
-67.5264
 11
59.373
 21
-67.5469
  0
LINE
  8
0
 10
59.373
 20
-67.5469
 11
59.4639
 21
-67.5732
  0
LINE
  8
0
 10
59.4639
 20
-67.5732
 11
59.5518
 21
-67.6055
  0
LINE
  8
0
 10
59.5518
 20
-67.6055
 11
59.6387
 21
-67.6426
  0
LINE
  8
0
 10
59.6387
 20
-67.6426
 11
59.7227
 21
-67.6855
  0
LINE
  8
0
 10
59.7227
 20
-67.6855
 11
59.8037
 21
-67.7334
  0
LINE
  8
0
 10
59.8037
 20
-67.7334
 11
59.8818
 21
-67.7861
  0
LINE
  8
0
 10
59.8818
 20
-67.7861
 11
59.9561
 21
-67.8438
  0
LINE
  8
0
 10
59.9561
 20
-67.8438
 11
60.0264
 21
-67.9062
  0
LINE
  8
0
 10
60.0264
 20
-67.9062
 11
60.0938
 21
-67.9736
  0
LINE
  8
0
 10
60.0938
 20
-67.9736
 11
60.1562
 21
-68.0439
  0
LINE
  8
0
 10
60.1562
 20
-68.0439
 11
60.2139
 21
-68.1182
  0
LINE
  8
0
 10
60.2139
 20
-68.1182
 11
60.2666
 21
-68.1963
  0
LINE
  8
0
 10
60.2666
 20
-68.1963
 11
60.3145
 21
-68.2773
  0
LINE
  8
0
 10
60.3145
 20
-68.2773
 11
60.3574
 21
-68.3613
  0
LINE
  8
0
 10
60.3574
 20
-68.3613
 11
60.3945
 21
-68.4482
  0
LINE
  8
0
 10
60.3945
 20
-68.4482
 11
60.4268
 21
-68.5361
  0
LINE
  8
0
 10
60.4268
 20
-68.5361
 11
60.4531
 21
-68.627
  0
LINE
  8
0
 10
60.4531
 20
-68.627
 11
60.4736
 21
-68.7188
  0
LINE
  8
0
 10
60.4736
 20
-68.7188
 11
60.4883
 21
-68.8115
  0
LINE
  8
0
 10
60.4883
 20
-68.8115
 11
60.4971
 21
-68.9062
  0
LINE
  8
0
 10
60.4971
 20
-68.9062
 11
60.5
 21
-69
  0
LINE
  8
0
 10
60.5
 20
-69
 11
60.4971
 21
-69.0938
  0
LINE
  8
0
 10
60.4971
 20
-69.0938
 11
60.4883
 21
-69.1885
  0
LINE
  8
0
 10
60.4883
 20
-69.1885
 11
60.4736
 21
-69.2812
  0
LINE
  8
0
 10
60.4736
 20
-69.2812
 11
60.4531
 21
-69.373
  0
LINE
  8
0
 10
60.4531
 20
-69.373
 11
60.4268
 21
-69.4639
  0
LINE
  8
0
 10
60.4268
 20
-69.4639
 11
60.3945
 21
-69.5518
  0
LINE
  8
0
 10
60.3945
 20
-69.5518
 11
60.3574
 21
-69.6387
  0
LINE
  8
0
 10
60.3574
 20
-69.6387
 11
60.3145
 21
-69.7227
  0
LINE
  8
0
 10
60.3145
 20
-69.7227
 11
60.2666
 21
-69.8037
  0
LINE
  8
0
 10
60.2666
 20
-69.8037
 11
60.2139
 21
-69.8818
  0
LINE
  8
0
 10
60.2139
 20
-69.8818
 11
60.1562
 21
-69.9561
  0
LINE
  8
0
 10
60.1562
 20
-69.9561
 11
60.0938
 21
-70.0264
  0
LINE
  8
0
 10
60.0938
 20
-70.0264
 11
60.0264
 21
-70.0938
  0
LINE
  8
0
 10
60.0264
 20
-70.0938
 11
59.9561
 21
-70.1562
  0
LINE
  8
0
 10
59.9561
 20
-70.1562
 11
59.8818
 21
-70.2139
  0
LINE
  8
0
 10
59.8818
 20
-70.2139
 11
59.8037
 21
-70.2666
  0
LINE
  8
0
 10
59.8037
 20
-70.2666
 11
59.7227
 21
-70.3145
  0
LINE
  8
0
 10
59.7227
 20
-70.3145
 11
59.6387
 21
-70.3574
  0
LINE
  8
0
 10
59.6387
 20
-70.3574
 11
59.5518
 21
-70.3945
  0
LINE
  8
0
 10
59.5518
 20
-70.3945
 11
59.4639
 21
-70.4268
  0
LINE
  8
0
 10
59.4639
 20
-70.4268
 11
59.373
 21
-70.4531
  0
LINE
  8
0
 10
59.373
 20
-70.4531
 11
59.2812
 21
-70.4736
  0
LINE
  8
0
 10
59.2812
 20
-70.4736
 11
59.1885
 21
-70.4883
  0
LINE
  8
0
 10
59.1885
 20
-70.4883
 11
59.0938
 21
-70.4971
  0
LINE
  8
0
 10
59.0938
 20
-70.4971
 11
59
 21
-70.5
  0
LINE
  8
0
 10
59
 20
-70.5
 11
58.9062
 21
-70.4971
  0
LINE
  8
0
 10
-49.0937
 20
-80.4971
 11
-49.1885
 21
-80.4883
  0
LINE
  8
0
 10
-49.1885
 20
-80.4883
 11
-49.2812
 21
-80.4736
  0
LINE
  8
0
 10
-49.2812
 20
-80.4736
 11
-49.373
 21
-80.4531
  0
LINE
  8
0
 10
-49.373
 20
-80.4531
 11
-49.4639
 21
-80.4268
  0
LINE
  8
0
 10
-49.4639
 20
-80.4268
 11
-49.5517
 21
-80.3945
  0
LINE
  8
0
 10
-49.5517
 20
-80.3945
 11
-49.6387
 21
-80.3574
  0
LINE
  8
0
 10
-49.6387
 20
-80.3574
 11
-49.7226
 21
-80.3145
  0
LINE
  8
0
 10
-49.7226
 20
-80.3145
 11
-49.8037
 21
-80.2666
  0
LINE
  8
0
 10
-49.8037
 20
-80.2666
 11
-49.8818
 21
-80.2139
  0
LINE
  8
0
 10
-49.8818
 20
-80.2139
 11
-49.956
 21
-80.1562
  0
LINE
  8
0
 10
-49.956
 20
-80.1562
 11
-50.0264
 21
-80.0938
  0
LINE
  8
0
 10
-50.0264
 20
-80.0938
 11
-50.0937
 21
-80.0264
  0
LINE
  8
0
 10
-50.0937
 20
-80.0264
 11
-50.1562
 21
-79.9561
  0
LINE
  8
0
 10
-50.1562
 20
-79.9561
 11
-50.2139
 21
-79.8818
  0
LINE
  8
0
 10
-50.2139
 20
-79.8818
 11
-50.2666
 21
-79.8037
  0
LINE
  8
0
 10
-50.2666
 20
-79.8037
 11
-50.3144
 21
-79.7227
  0
LINE
  8
0
 10
-50.3144
 20
-79.7227
 11
-50.3574
 21
-79.6387
  0
LINE
  8
0
 10
-50.3574
 20
-79.6387
 11
-50.3945
 21
-79.5518
  0
LINE
  8
0
 10
-50.3945
 20
-79.5518
 11
-50.4267
 21
-79.4639
  0
LINE
  8
0
 10
-50.4267
 20
-79.4639
 11
-50.4531
 21
-79.373
  0
LINE
  8
0
 10
-50.4531
 20
-79.373
 11
-50.4736
 21
-79.2812
  0
LINE
  8
0
 10
-50.4736
 20
-79.2812
 11
-50.4883
 21
-79.1885
  0
LINE
  8
0
 10
-50.4883
 20
-79.1885
 11
-50.4971
 21
-79.0938
  0
LINE
  8
0
 10
-50.4971
 20
-79.0938
 11
-50.5
 21
-79
  0
LINE
  8
0
 10
-50.5
 20
-79
 11
-50.4971
 21
-78.9062
  0
LINE
  8
0
 10
-50.4971
 20
-78.9062
 11
-50.4883
 21
-78.8115
  0
LINE
  8
0
 10
-50.4883
 20
-78.8115
 11
-50.4736
 21
-78.7188
  0
LINE
  8
0
 10
-50.4736
 20
-78.7188
 11
-50.4531
 21
-78.627
  0
LINE
  8
0
 10
-50.4531
 20
-78.627
 11
-50.4267
 21
-78.5361
  0
LINE
  8
0
 10
-50.4267
 20
-78.5361
 11
-50.3945
 21
-78.4482
  0
LINE
  8
0
 10
-50.3945
 20
-78.4482
 11
-50.3574
 21
-78.3613
  0
LINE
  8
0
 10
-50.3574
 20
-78.3613
 11
-50.3144
 21
-78.2773
  0
LINE
  8
0
 10
-50.3144
 20
-78.2773
 11
-50.2666
 21
-78.1963
  0
LINE
  8
0
 10
-50.2666
 20
-78.1963
 11
-50.2139
 21
-78.1182
  0
LINE
  8
0
 10
-50.2139
 20
-78.1182
 11
-50.1562
 21
-78.0439
  0
LINE
  8
0
 10
-50.1562
 20
-78.0439
 11
-50.0937
 21
-77.9736
  0
LINE
  8
0
 10
-50.0937
 20
-77.9736
 11
-50.0264
 21
-77.9062
  0
LINE
  8
0
 10
-50.0264
 20
-77.9062
 11
-49.956
 21
-77.8438
  0
LINE
  8
0
 10
-49.956
 20
-77.8438
 11
-49.8818
 21
-77.7861
  0
LINE
  8
0
 10
-49.8818
 20
-77.7861
 11
-49.8037
 21
-77.7334
  0
LINE
  8
0
 10
-49.8037
 20
-77.7334
 11
-49.7226
 21
-77.6855
  0
LINE
  8
0
 10
-49.7226
 20
-77.6855
 11
-49.6387
 21
-77.6426
  0
LINE
  8
0
 10
-49.6387
 20
-77.6426
 11
-49.5517
 21
-77.6055
  0
LINE
  8
0
 10
-49.5517
 20
-77.6055
 11
-49.4639
 21
-77.5732
  0
LINE
  8
0
 10
-49.4639
 20
-77.5732
 11
-49.373
 21
-77.5469
  0
LINE
  8
0
 10
-49.373
 20
-77.5469
 11
-49.2812
 21
-77.5264
  0
LINE
  8
0
 10
-49.2812
 20
-77.5264
 11
-49.1885
 21
-77.5117
  0
LINE
  8
0
 10
-49.1885
 20
-77.5117
 11
-49.0937
 21
-77.5029
  0
LINE
  8
0
 10
-49.0937
 20
-77.5029
 11
-49
 21
-77.5
  0
LINE
  8
0
 10
-49
 20
-77.5
 11
-48.9062
 21
-77.5029
  0
LINE
  8
0
 10
-48.9062
 20
-77.5029
 11
-48.8115
 21
-77.5117
  0
LINE
  8
0
 10
-48.8115
 20
-77.5117
 11
-48.7187
 21
-77.5264
  0
LINE
  8
0
 10
-48.7187
 20
-77.5264
 11
-48.6269
 21
-77.5469
  0
LINE
  8
0
 10
-48.6269
 20
-77.5469
 11
-48.5361
 21
-77.5732
  0
LINE
  8
0
 10
-48.5361
 20
-77.5732
 11
-48.4482
 21
-77.6055
  0
LINE
  8
0
 10
-48.4482
 20
-77.6055
 11
-48.3613
 21
-77.6426
  0
LINE
  8
0
 10
-48.3613
 20
-77.6426
 11
-48.2773
 21
-77.6855
  0
LINE
  8
0
 10
-48.2773
 20
-77.6855
 11
-48.1963
 21
-77.7334
  0
LINE
  8
0
 10
-48.1963
 20
-77.7334
 11
-48.1181
 21
-77.7861
  0
LINE
  8
0
 10
-48.1181
 20
-77.7861
 11
-48.0439
 21
-77.8438
  0
LINE
  8
0
 10
-48.0439
 20
-77.8438
 11
-47.9736
 21
-77.9062
  0
LINE
  8
0
 10
-47.9736
 20
-77.9062
 11
-47.9062
 21
-77.9736
  0
LINE
  8
0
 10
-47.9062
 20
-77.9736
 11
-47.8437
 21
-78.0439
  0
LINE
  8
0
 10
-47.8437
 20
-78.0439
 11
-47.7861
 21
-78.1182
  0
LINE
  8
0
 10
-47.7861
 20
-78.1182
 11
-47.7334
 21
-78.1963
  0
LINE
  8
0
 10
-47.7334
 20
-78.1963
 11
-47.6855
 21
-78.2773
  0
LINE
  8
0
 10
-47.6855
 20
-78.2773
 11
-47.6426
 21
-78.3613
  0
LINE
  8
0
 10
-47.6426
 20
-78.3613
 11
-47.6055
 21
-78.4482
  0
LINE
  8
0
 10
-47.6055
 20
-78.4482
 11
-47.5732
 21
-78.5361
  0
LINE
  8
0
 10
-47.5732
 20
-78.5361
 11
-47.5469
 21
-78.627
  0
LINE
  8
0
 10
-47.5469
 20
-78.627
 11
-47.5264
 21
-78.7188
  0
LINE
  8
0
 10
-47.5264
 20
-78.7188
 11
-47.5117
 21
-78.8115
  0
LINE
  8
0
 10
-47.5117
 20
-78.8115
 11
-47.5029
 21
-78.9062
  0
LINE
  8
0
 10
-47.5029
 20
-78.9062
 11
-47.5
 21
-79
  0
LINE
  8
0
 10
-47.5
 20
-79
 11
-47.5029
 21
-79.0938
  0
LINE
  8
0
 10
-47.5029
 20
-79.0938
 11
-47.5117
 21
-79.1885
  0
LINE
  8
0
 10
-47.5117
 20
-79.1885
 11
-47.5264
 21
-79.2812
  0
LINE
  8
0
 10
-47.5264
 20
-79.2812
 11
-47.5469
 21
-79.373
  0
LINE
  8
0
 10
-47.5469
 20
-79.373
 11
-47.5732
 21
-79.4639
  0
LINE
  8
0
 10
-47.5732
 20
-79.4639
 11
-47.6055
 21
-79.5518
  0
LINE
  8
0
 10
-47.6055
 20
-79.5518
 11
-47.6426
 21
-79.6387
  0
LINE
  8
0
 10
-47.6426
 20
-79.6387
 11
-47.6855
 21
-79.7227
  0
LINE
  8
0
 10
-47.6855
 20
-79.7227
 11
-47.7334
 21
-79.8037
  0
LINE
  8
0
 10
-47.7334
 20
-79.8037
 11
-47.7861
 21
-79.8818
  0
LINE
  8
0
 10
-47.7861
 20
-79.8818
 11
-47.8437
 21
-79.9561
  0
LINE
  8
0
 10
-47.8437
 20
-79.9561
 11
-47.9062
 21
-80.0264
  0
LINE
  8
0
 10
-47.9062
 20
-80.0264
 11
-47.9736
 21
-80.0938
  0
LINE
  8
0
 10
-47.9736
 20
-80.0938
 11
-48.0439
 21
-80.1562
  0
LINE
  8
0
 10
-48.0439
 20
-80.1562
 11
-48.1181
 21
-80.2139
  0
LINE
  8
0
 10
-48.1181
 20
-80.2139
 11
-48.1963
 21
-80.2666
  0
LINE
  8
0
 10
-48.1963
 20
-80.2666
 11
-48.2773
 21
-80.3145
  0
LINE
  8
0
 10
-48.2773
 20
-80.3145
 11
-48.3613
 21
-80.3574
  0
LINE
  8
0
 10
-48.3613
 20
-80.3574
 11
-48.4482
 21
-80.3945
  0
LINE
  8
0
 10
-48.4482
 20
-80.3945
 11
-48.5361
 21
-80.4268
  0
LINE
  8
0
 10
-48.5361
 20
-80.4268
 11
-48.6269
 21
-80.4531
  0
LINE
  8
0
 10
-48.6269
 20
-80.4531
 11
-48.7187
 21
-80.4736
  0
LINE
  8
0
 10
-48.7187
 20
-80.4736
 11
-48.8115
 21
-80.4883
  0
LINE
  8
0
 10
-48.8115
 20
-80.4883
 11
-48.9062
 21
-80.4971
  0
LINE
  8
0
 10
-48.9062
 20
-80.4971
 11
-49
 21
-80.5
  0
LINE
  8
0
 10
-49
 20
-80.5
 11
-49.0937
 21
-80.4971
  0
LINE
  8
0
 10
48.9062
 20
-80.4971
 11
48.8115
 21
-80.4883
  0
LINE
  8
0
 10
48.8115
 20
-80.4883
 11
48.7188
 21
-80.4736
  0
LINE
  8
0
 10
48.7188
 20
-80.4736
 11
48.627
 21
-80.4531
  0
LINE
  8
0
 10
48.627
 20
-80.4531
 11
48.5361
 21
-80.4268
  0
LINE
  8
0
 10
48.5361
 20
-80.4268
 11
48.4482
 21
-80.3945
  0
LINE
  8
0
 10
48.4482
 20
-80.3945
 11
48.3613
 21
-80.3574
  0
LINE
  8
0
 10
48.3613
 20
-80.3574
 11
48.2773
 21
-80.3145
  0
LINE
  8
0
 10
48.2773
 20
-80.3145
 11
48.1963
 21
-80.2666
  0
LINE
  8
0
 10
48.1963
 20
-80.2666
 11
48.1182
 21
-80.2139
  0
LINE
  8
0
 10
48.1182
 20
-80.2139
 11
48.0439
 21
-80.1562
  0
LINE
  8
0
 10
48.0439
 20
-80.1562
 11
47.9736
 21
-80.0938
  0
LINE
  8
0
 10
47.9736
 20
-80.0938
 11
47.9062
 21
-80.0264
  0
LINE
  8
0
 10
47.9062
 20
-80.0264
 11
47.8438
 21
-79.9561
  0
LINE
  8
0
 10
47.8438
 20
-79.9561
 11
47.7861
 21
-79.8818
  0
LINE
  8
0
 10
47.7861
 20
-79.8818
 11
47.7334
 21
-79.8037
  0
LINE
  8
0
 10
47.7334
 20
-79.8037
 11
47.6855
 21
-79.7227
  0
LINE
  8
0
 10
47.6855
 20
-79.7227
 11
47.6426
 21
-79.6387
  0
LINE
  8
0
 10
47.6426
 20
-79.6387
 11
47.6055
 21
-79.5518
  0
LINE
  8
0
 10
47.6055
 20
-79.5518
 11
47.5732
 21
-79.4639
  0
LINE
  8
0
 10
47.5732
 20
-79.4639
 11
47.5469
 21
-79.373
  0
LINE
  8
0
 10
47.5469
 20
-79.373
 11
47.5264
 21
-79.2812
  0
LINE
  8
0
 10
47.5264
 20
-79.2812
 11
47.5117
 21
-79.1885
  0
LINE
  8
0
 10
47.5117
 20
-79.1885
 11
47.5029
 21
-79.0938
  0
LINE
  8
0
 10
47.5029
 20
-79.0938
 11
47.5
 21
-79
  0
LINE
  8
0
 10
47.5
 20
-79
 11
47.5029
 21
-78.9062
  0
LINE
  8
0
 10
47.5029
 20
-78.9062
 11
47.5117
 21
-78.8115
  0
LINE
  8
0
 10
47.5117
 20
-78.8115
 11
47.5264
 21
-78.7188
  0
LINE
  8
0
 10
47.5264
 20
-78.7188
 11
47.5469
 21
-78.627
  0
LINE
  8
0
 10
47.5469
 20
-78.627
 11
47.5732
 21
-78.5361
  0
LINE
  8
0
 10
47.5732
 20
-78.5361
 11
47.6055
 21
-78.4482
  0
LINE
  8
0
 10
47.6055
 20
-78.4482
 11
47.6426
 21
-78.3613
  0
LINE
  8
0
 10
47.6426
 20
-78.3613
 11
47.6855
 21
-78.2773
  0
LINE
  8
0
 10
47.6855
 20
-78.2773
 11
47.7334
 21
-78.1963
  0
LINE
  8
0
 10
47.7334
 20
-78.1963
 11
47.7861
 21
-78.1182
  0
LINE
  8
0
 10
47.7861
 20
-78.1182
 11
47.8438
 21
-78.0439
  0
LINE
  8
0
 10
47.8438
 20
-78.0439
 11
47.9062
 21
-77.9736
  0
LINE
  8
0
 10
47.9062
 20
-77.9736
 11
47.9736
 21
-77.9062
  0
LINE
  8
0
 10
47.9736
 20
-77.9062
 11
48.0439
 21
-77.8438
  0
LINE
  8
0
 10
48.0439
 20
-77.8438
 11
48.1182
 21
-77.7861
  0
LINE
  8
0
 10
48.1182
 20
-77.7861
 11
48.1963
 21
-77.7334
  0
LINE
  8
0
 10
48.1963
 20
-77.7334
 11
48.2773
 21
-77.6855
  0
LINE
  8
0
 10
48.2773
 20
-77.6855
 11
48.3613
 21
-77.6426
  0
LINE
  8
0
 10
48.3613
 20
-77.6426
 11
48.4482
 21
-77.6055
  0
LINE
  8
0
 10
48.4482
 20
-77.6055
 11
48.5361
 21
-77.5732
  0
LINE
  8
0
 10
48.5361
 20
-77.5732
 11
48.627
 21
-77.5469
  0
LINE
  8
0
 10
48.627
 20
-77.5469
 11
48.7188
 21
-77.5264
  0
LINE
  8
0
 10
48.7188
 20
-77.5264
 11
48.8115
 21
-77.5117
  0
LINE
  8
0
 10
48.8115
 20
-77.5117
 11
48.9062
 21
-77.5029
  0
LINE
  8
0
 10
48.9062
 20
-77.5029
 11
49
 21
-77.5
  0
LINE
  8
0
 10
49
 20
-77.5
 11
49.0938
 21
-77.5029
  0
LINE
  8
0
 10
49.0938
 20
-77.5029
 11
49.1885
 21
-77.5117
  0
LINE
  8
0
 10
49.1885
 20
-77.5117
 11
49.2812
 21
-77.5264
  0
LINE
  8
0
 10
49.2812
 20
-77.5264
 11
49.373
 21
-77.5469
  0
LINE
  8
0
 10
49.373
 20
-77.5469
 11
49.4639
 21
-77.5732
  0
LINE
  8
0
 10
49.4639
 20
-77.5732
 11
49.5518
 21
-77.6055
  0
LINE
  8
0
 10
49.5518
 20
-77.6055
 11
49.6387
 21
-77.6426
  0
LINE
  8
0
 10
49.6387
 20
-77.6426
 11
49.7227
 21
-77.6855
  0
LINE
  8
0
 10
49.7227
 20
-77.6855
 11
49.8037
 21
-77.7334
  0
LINE
  8
0
 10
49.8037
 20
-77.7334
 11
49.8818
 21
-77.7861
  0
LINE
  8
0
 10
49.8818
 20
-77.7861
 11
49.9561
 21
-77.8438
  0
LINE
  8
0
 10
49.9561
 20
-77.8438
 11
50.0264
 21
-77.9062
  0
LINE
  8
0
 10
50.0264
 20
-77.9062
 11
50.0938
 21
-77.9736
  0
LINE
  8
0
 10
50.0938
 20
-77.9736
 11
50.1562
 21
-78.0439
  0
LINE
  8
0
 10
50.1562
 20
-78.0439
 11
50.2139
 21
-78.1182
  0
LINE
  8
0
 10
50.2139
 20
-78.1182
 11
50.2666
 21
-78.1963
  0
LINE
  8
0
 10
50.2666
 20
-78.1963
 11
50.3145
 21
-78.2773
  0
LINE
  8
0
 10
50.3145
 20
-78.2773
 11
50.3574
 21
-78.3613
  0
LINE
  8
0
 10
50.3574
 20
-78.3613
 11
50.3945
 21
-78.4482
  0
LINE
  8
0
 10
50.3945
 20
-78.4482
 11
50.4268
 21
-78.5361
  0
LINE
  8
0
 10
50.4268
 20
-78.5361
 11
50.4531
 21
-78.627
  0
LINE
  8
0
 10
50.4531
 20
-78.627
 11
50.4736
 21
-78.7188
  0
LINE
  8
0
 10
50.4736
 20
-78.7188
 11
50.4883
 21
-78.8115
  0
LINE
  8
0
 10
50.4883
 20
-78.8115
 11
50.4971
 21
-78.9062
  0
LINE
  8
0
 10
50.4971
 20
-78.9062
 11
50.5
 21
-79
  0
LINE
  8
0
 10
50.5
 20
-79
 11
50.4971
 21
-79.0938
  0
LINE
  8
0
 10
50.4971
 20
-79.0938
 11
50.4883
 21
-79.1885
  0
LINE
  8
0
 10
50.4883
 20
-79.1885
 11
50.4736
 21
-79.2812
  0
LINE
  8
0
 10
50.4736
 20
-79.2812
 11
50.4531
 21
-79.373
  0
LINE
  8
0
 10
50.4531
 20
-79.373
 11
50.4268
 21
-79.4639
  0
LINE
  8
0
 10
50.4268
 20
-79.4639
 11
50.3945
 21
-79.5518
  0
LINE
  8
0
 10
50.3945
 20
-79.5518
 11
50.3574
 21
-79.6387
  0
LINE
  8
0
 10
50.3574
 20
-79.6387
 11
50.3145
 21
-79.7227
  0
LINE
  8
0
 10
50.3145
 20
-79.7227
 11
50.2666
 21
-79.8037
  0
LINE
  8
0
 10
50.2666
 20
-79.8037
 11
50.2139
 21
-79.8818
  0
LINE
  8
0
 10
50.2139
 20
-79.8818
 11
50.1562
 21
-79.9561
  0
LINE
  8
0
 10
50.1562
 20
-79.9561
 11
50.0938
 21
-80.0264
  0
LINE
  8
0
 10
50.0938
 20
-80.0264
 11
50.0264
 21
-80.0938
  0
LINE
  8
0
 10
50.0264
 20
-80.0938
 11
49.9561
 21
-80.1562
  0
LINE
  8
0
 10
49.9561
 20
-80.1562
 11
49.8818
 21
-80.2139
  0
LINE
  8
0
 10
49.8818
 20
-80.2139
 11
49.8037
 21
-80.2666
  0
LINE
  8
0
 10
49.8037
 20
-80.2666
 11
49.7227
 21
-80.3145
  0
LINE
  8
0
 10
49.7227
 20
-80.3145
 11
49.6387
 21
-80.3574
  0
LINE
  8
0
 10
49.6387
 20
-80.3574
 11
49.5518
 21
-80.3945
  0
LINE
  8
0
 10
49.5518
 20
-80.3945
 11
49.4639
 21
-80.4268
  0
LINE
  8
0
 10
49.4639
 20
-80.4268
 11
49.373
 21
-80.4531
  0
LINE
  8
0
 10
49.373
 20
-80.4531
 11
49.2812
 21
-80.4736
  0
LINE
  8
0
 10
49.2812
 20
-80.4736
 11
49.1885
 21
-80.4883
  0
LINE
  8
0
 10
49.1885
 20
-80.4883
 11
49.0938
 21
-80.4971
  0
LINE
  8
0
 10
49.0938
 20
-80.4971
 11
49
 21
-80.5
  0
LINE
  8
0
 10
49
 20
-80.5
 11
48.9062
 21
-80.4971
  0
LINE
  8
0
 10
48.9062
 20
-160.497
 11
48.8115
 21
-160.488
  0
LINE
  8
0
 10
48.8115
 20
-160.488
 11
48.7187
 21
-160.474
  0
LINE
  8
0
 10
48.7187
 20
-160.474
 11
48.6269
 21
-160.453
  0
LINE
  8
0
 10
48.6269
 20
-160.453
 11
48.5361
 21
-160.427
  0
LINE
  8
0
 10
48.5361
 20
-160.427
 11
48.4482
 21
-160.395
  0
LINE
  8
0
 10
48.4482
 20
-160.395
 11
48.3613
 21
-160.357
  0
LINE
  8
0
 10
48.3613
 20
-160.357
 11
48.2773
 21
-160.314
  0
LINE
  8
0
 10
48.2773
 20
-160.314
 11
48.1963
 21
-160.267
  0
LINE
  8
0
 10
48.1963
 20
-160.267
 11
48.1181
 21
-160.214
  0
LINE
  8
0
 10
48.1181
 20
-160.214
 11
48.0439
 21
-160.156
  0
LINE
  8
0
 10
48.0439
 20
-160.156
 11
47.9736
 21
-160.094
  0
LINE
  8
0
 10
47.9736
 20
-160.094
 11
47.9062
 21
-160.026
  0
LINE
  8
0
 10
47.9062
 20
-160.026
 11
47.8437
 21
-159.956
  0
LINE
  8
0
 10
47.8437
 20
-159.956
 11
47.7861
 21
-159.882
  0
LINE
  8
0
 10
47.7861
 20
-159.882
 11
47.7334
 21
-159.804
  0
LINE
  8
0
 10
47.7334
 20
-159.804
 11
47.6855
 21
-159.723
  0
LINE
  8
0
 10
47.6855
 20
-159.723
 11
47.6426
 21
-159.639
  0
LINE
  8
0
 10
47.6426
 20
-159.639
 11
47.6055
 21
-159.552
  0
LINE
  8
0
 10
47.6055
 20
-159.552
 11
47.5732
 21
-159.464
  0
LINE
  8
0
 10
47.5732
 20
-159.464
 11
47.5469
 21
-159.373
  0
LINE
  8
0
 10
47.5469
 20
-159.373
 11
47.5264
 21
-159.281
  0
LINE
  8
0
 10
47.5264
 20
-159.281
 11
47.5117
 21
-159.188
  0
LINE
  8
0
 10
47.5117
 20
-159.188
 11
47.5029
 21
-159.094
  0
LINE
  8
0
 10
47.5029
 20
-159.094
 11
47.5
 21
-159
  0
LINE
  8
0
 10
47.5
 20
-159
 11
47.5029
 21
-158.906
  0
LINE
  8
0
 10
47.5029
 20
-158.906
 11
47.5117
 21
-158.812
  0
LINE
  8
0
 10
47.5117
 20
-158.812
 11
47.5264
 21
-158.719
  0
LINE
  8
0
 10
47.5264
 20
-158.719
 11
47.5469
 21
-158.627
  0
LINE
  8
0
 10
47.5469
 20
-158.627
 11
47.5732
 21
-158.536
  0
LINE
  8
0
 10
47.5732
 20
-158.536
 11
47.6055
 21
-158.448
  0
LINE
  8
0
 10
47.6055
 20
-158.448
 11
47.6426
 21
-158.361
  0
LINE
  8
0
 10
47.6426
 20
-158.361
 11
47.6855
 21
-158.277
  0
LINE
  8
0
 10
47.6855
 20
-158.277
 11
47.7334
 21
-158.196
  0
LINE
  8
0
 10
47.7334
 20
-158.196
 11
47.7861
 21
-158.118
  0
LINE
  8
0
 10
47.7861
 20
-158.118
 11
47.8437
 21
-158.044
  0
LINE
  8
0
 10
47.8437
 20
-158.044
 11
47.9062
 21
-157.974
  0
LINE
  8
0
 10
47.9062
 20
-157.974
 11
47.9736
 21
-157.906
  0
LINE
  8
0
 10
47.9736
 20
-157.906
 11
48.0439
 21
-157.844
  0
LINE
  8
0
 10
48.0439
 20
-157.844
 11
48.1181
 21
-157.786
  0
LINE
  8
0
 10
48.1181
 20
-157.786
 11
48.1963
 21
-157.733
  0
LINE
  8
0
 10
48.1963
 20
-157.733
 11
48.2773
 21
-157.686
  0
LINE
  8
0
 10
48.2773
 20
-157.686
 11
48.3613
 21
-157.643
  0
LINE
  8
0
 10
48.3613
 20
-157.643
 11
48.4482
 21
-157.605
  0
LINE
  8
0
 10
48.4482
 20
-157.605
 11
48.5361
 21
-157.573
  0
LINE
  8
0
 10
48.5361
 20
-157.573
 11
48.6269
 21
-157.547
  0
LINE
  8
0
 10
48.6269
 20
-157.547
 11
48.7187
 21
-157.526
  0
LINE
  8
0
 10
48.7187
 20
-157.526
 11
48.8115
 21
-157.512
  0
LINE
  8
0
 10
48.8115
 20
-157.512
 11
48.9062
 21
-157.503
  0
LINE
  8
0
 10
48.9062
 20
-157.503
 11
49
 21
-157.5
  0
LINE
  8
0
 10
49
 20
-157.5
 11
49.0937
 21
-157.503
  0
LINE
  8
0
 10
49.0937
 20
-157.503
 11
49.1885
 21
-157.512
  0
LINE
  8
0
 10
49.1885
 20
-157.512
 11
49.2812
 21
-157.526
  0
LINE
  8
0
 10
49.2812
 20
-157.526
 11
49.373
 21
-157.547
  0
LINE
  8
0
 10
49.373
 20
-157.547
 11
49.4639
 21
-157.573
  0
LINE
  8
0
 10
49.4639
 20
-157.573
 11
49.5517
 21
-157.605
  0
LINE
  8
0
 10
49.5517
 20
-157.605
 11
49.6387
 21
-157.643
  0
LINE
  8
0
 10
49.6387
 20
-157.643
 11
49.7226
 21
-157.686
  0
LINE
  8
0
 10
49.7226
 20
-157.686
 11
49.8037
 21
-157.733
  0
LINE
  8
0
 10
49.8037
 20
-157.733
 11
49.8818
 21
-157.786
  0
LINE
  8
0
 10
49.8818
 20
-157.786
 11
49.956
 21
-157.844
  0
LINE
  8
0
 10
49.956
 20
-157.844
 11
50.0264
 21
-157.906
  0
LINE
  8
0
 10
50.0264
 20
-157.906
 11
50.0937
 21
-157.974
  0
LINE
  8
0
 10
50.0937
 20
-157.974
 11
50.1562
 21
-158.044
  0
LINE
  8
0
 10
50.1562
 20
-158.044
 11
50.2139
 21
-158.118
  0
LINE
  8
0
 10
50.2139
 20
-158.118
 11
50.2666
 21
-158.196
  0
LINE
  8
0
 10
50.2666
 20
-158.196
 11
50.3144
 21
-158.277
  0
LINE
  8
0
 10
50.3144
 20
-158.277
 11
50.3574
 21
-158.361
  0
LINE
  8
0
 10
50.3574
 20
-158.361
 11
50.3945
 21
-158.448
  0
LINE
  8
0
 10
50.3945
 20
-158.448
 11
50.4267
 21
-158.536
  0
LINE
  8
0
 10
50.4267
 20
-158.536
 11
50.4531
 21
-158.627
  0
LINE
  8
0
 10
50.4531
 20
-158.627
 11
50.4736
 21
-158.719
  0
LINE
  8
0
 10
50.4736
 20
-158.719
 11
50.4883
 21
-158.812
  0
LINE
  8
0
 10
50.4883
 20
-158.812
 11
50.4971
 21
-158.906
  0
LINE
  8
0
 10
50.4971
 20
-158.906
 11
50.5
 21
-159
  0
LINE
  8
0
 10
50.5
 20
-159
 11
50.4971
 21
-159.094
  0
LINE
  8
0
 10
50.4971
 20
-159.094
 11
50.4883
 21
-159.188
  0
LINE
  8
0
 10
50.4883
 20
-159.188
 11
50.4736
 21
-159.281
  0
LINE
  8
0
 10
50.4736
 20
-159.281
 11
50.4531
 21
-159.373
  0
LINE
  8
0
 10
50.4531
 20
-159.373
 11
50.4267
 21
-159.464
  0
LINE
  8
0
 10
50.4267
 20
-159.464
 11
50.3945
 21
-159.552
  0
LINE
  8
0
 10
50.3945
 20
-159.552
 11
50.3574
 21
-159.639
  0
LINE
  8
0
 10
50.3574
 20
-159.639
 11
50.3144
 21
-159.723
  0
LINE
  8
0
 10
50.3144
 20
-159.723
 11
50.2666
 21
-159.804
  0
LINE
  8
0
 10
50.2666
 20
-159.804
 11
50.2139
 21
-159.882
  0
LINE
  8
0
 10
50.2139
 20
-159.882
 11
50.1562
 21
-159.956
  0
LINE
  8
0
 10
50.1562
 20
-159.956
 11
50.0937
 21
-160.026
  0
LINE
  8
0
 10
50.0937
 20
-160.026
 11
50.0264
 21
-160.094
  0
LINE
  8
0
 10
50.0264
 20
-160.094
 11
49.956
 21
-160.156
  0
LINE
  8
0
 10
49.956
 20
-160.156
 11
49.8818
 21
-160.214
  0
LINE
  8
0
 10
49.8818
 20
-160.214
 11
49.8037
 21
-160.267
  0
LINE
  8
0
 10
49.8037
 20
-160.267
 11
49.7226
 21
-160.314
  0
LINE
  8
0
 10
49.7226
 20
-160.314
 11
49.6387
 21
-160.357
  0
LINE
  8
0
 10
49.6387
 20
-160.357
 11
49.5517
 21
-160.395
  0
LINE
  8
0
 10
49.5517
 20
-160.395
 11
49.4639
 21
-160.427
  0
LINE
  8
0
 10
49.4639
 20
-160.427
 11
49.373
 21
-160.453
  0
LINE
  8
0
 10
49.373
 20
-160.453
 11
49.2812
 21
-160.474
  0
LINE
  8
0
 10
49.2812
 20
-160.474
 11
49.1885
 21
-160.488
  0
LINE
  8
0
 10
49.1885
 20
-160.488
 11
49.0937
 21
-160.497
  0
LINE
  8
0
 10
49.0937
 20
-160.497
 11
49
 21
-160.5
  0
LINE
  8
0
 10
49
 20
-160.5
 11
48.9062
 21
-160.497
  0
LINE
  8
0
 10
-49.0938
 20
-160.497
 11
-49.1885
 21
-160.488
  0
LINE
  8
0
 10
-49.1885
 20
-160.488
 11
-49.2812
 21
-160.474
  0
LINE
  8
0
 10
-49.2812
 20
-160.474
 11
-49.373
 21
-160.453
  0
LINE
  8
0
 10
-49.373
 20
-160.453
 11
-49.4639
 21
-160.427
  0
LINE
  8
0
 10
-49.4639
 20
-160.427
 11
-49.5518
 21
-160.395
  0
LINE
  8
0
 10
-49.5518
 20
-160.395
 11
-49.6387
 21
-160.357
  0
LINE
  8
0
 10
-49.6387
 20
-160.357
 11
-49.7227
 21
-160.314
  0
LINE
  8
0
 10
-49.7227
 20
-160.314
 11
-49.8037
 21
-160.267
  0
LINE
  8
0
 10
-49.8037
 20
-160.267
 11
-49.8818
 21
-160.214
  0
LINE
  8
0
 10
-49.8818
 20
-160.214
 11
-49.9561
 21
-160.156
  0
LINE
  8
0
 10
-49.9561
 20
-160.156
 11
-50.0264
 21
-160.094
  0
LINE
  8
0
 10
-50.0264
 20
-160.094
 11
-50.0938
 21
-160.026
  0
LINE
  8
0
 10
-50.0938
 20
-160.026
 11
-50.1562
 21
-159.956
  0
LINE
  8
0
 10
-50.1562
 20
-159.956
 11
-50.2139
 21
-159.882
  0
LINE
  8
0
 10
-50.2139
 20
-159.882
 11
-50.2666
 21
-159.804
  0
LINE
  8
0
 10
-50.2666
 20
-159.804
 11
-50.3145
 21
-159.723
  0
LINE
  8
0
 10
-50.3145
 20
-159.723
 11
-50.3574
 21
-159.639
  0
LINE
  8
0
 10
-50.3574
 20
-159.639
 11
-50.3945
 21
-159.552
  0
LINE
  8
0
 10
-50.3945
 20
-159.552
 11
-50.4268
 21
-159.464
  0
LINE
  8
0
 10
-50.4268
 20
-159.464
 11
-50.4531
 21
-159.373
  0
LINE
  8
0
 10
-50.4531
 20
-159.373
 11
-50.4736
 21
-159.281
  0
LINE
  8
0
 10
-50.4736
 20
-159.281
 11
-50.4883
 21
-159.188
  0
LINE
  8
0
 10
-50.4883
 20
-159.188
 11
-50.4971
 21
-159.094
  0
LINE
  8
0
 10
-50.4971
 20
-159.094
 11
-50.5
 21
-159
  0
LINE
  8
0
 10
-50.5
 20
-159
 11
-50.4971
 21
-158.906
  0
LINE
  8
0
 10
-50.4971
 20
-158.906
 11
-50.4883
 21
-158.812
  0
LINE
  8
0
 10
-50.4883
 20
-158.812
 11
-50.4736
 21
-158.719
  0
LINE
  8
0
 10
-50.4736
 20
-158.719
 11
-50.4531
 21
-158.627
  0
LINE
  8
0
 10
-50.4531
 20
-158.627
 11
-50.4268
 21
-158.536
  0
LINE
  8
0
 10
-50.4268
 20
-158.536
 11
-50.3945
 21
-158.448
  0
LINE
  8
0
 10
-50.3945
 20
-158.448
 11
-50.3574
 21
-158.361
  0
LINE
  8
0
 10
-50.3574
 20
-158.361
 11
-50.3145
 21
-158.277
  0
LINE
  8
0
 10
-50.3145
 20
-158.277
 11
-50.2666
 21
-158.196
  0
LINE
  8
0
 10
-50.2666
 20
-158.196
 11
-50.2139
 21
-158.118
  0
LINE
  8
0
 10
-50.2139
 20
-158.118
 11
-50.1562
 21
-158.044
  0
LINE
  8
0
 10
-50.1562
 20
-158.044
 11
-50.0938
 21
-157.974
  0
LINE
  8
0
 10
-50.0938
 20
-157.974
 11
-50.0264
 21
-157.906
  0
LINE
  8
0
 10
-50.0264
 20
-157.906
 11
-49.9561
 21
-157.844
  0
LINE
  8
0
 10
-49.9561
 20
-157.844
 11
-49.8818
 21
-157.786
  0
LINE
  8
0
 10
-49.8818
 20
-157.786
 11
-49.8037
 21
-157.733
  0
LINE
  8
0
 10
-49.8037
 20
-157.733
 11
-49.7227
 21
-157.686
  0
LINE
  8
0
 10
-49.7227
 20
-157.686
 11
-49.6387
 21
-157.643
  0
LINE
  8
0
 10
-49.6387
 20
-157.643
 11
-49.5518
 21
-157.605
  0
LINE
  8
0
 10
-49.5518
 20
-157.605
 11
-49.4639
 21
-157.573
  0
LINE
  8
0
 10
-49.4639
 20
-157.573
 11
-49.373
 21
-157.547
  0
LINE
  8
0
 10
-49.373
 20
-157.547
 11
-49.2812
 21
-157.526
  0
LINE
  8
0
 10
-49.2812
 20
-157.526
 11
-49.1885
 21
-157.512
  0
LINE
  8
0
 10
-49.1885
 20
-157.512
 11
-49.0938
 21
-157.503
  0
LINE
  8
0
 10
-49.0938
 20
-157.503
 11
-49
 21
-157.5
  0
LINE
  8
0
 10
-49
 20
-157.5
 11
-48.9062
 21
-157.503
  0
LINE
  8
0
 10
-48.9062
 20
-157.503
 11
-48.8115
 21
-157.512
  0
LINE
  8
0
 10
-48.8115
 20
-157.512
 11
-48.7188
 21
-157.526
  0
LINE
  8
0
 10
-48.7188
 20
-157.526
 11
-48.627
 21
-157.547
  0
LINE
  8
0
 10
-48.627
 20
-157.547
 11
-48.5361
 21
-157.573
  0
LINE
  8
0
 10
-48.5361
 20
-157.573
 11
-48.4482
 21
-157.605
  0
LINE
  8
0
 10
-48.4482
 20
-157.605
 11
-48.3613
 21
-157.643
  0
LINE
  8
0
 10
-48.3613
 20
-157.643
 11
-48.2773
 21
-157.686
  0
LINE
  8
0
 10
-48.2773
 20
-157.686
 11
-48.1963
 21
-157.733
  0
LINE
  8
0
 10
-48.1963
 20
-157.733
 11
-48.1182
 21
-157.786
  0
LINE
  8
0
 10
-48.1182
 20
-157.786
 11
-48.0439
 21
-157.844
  0
LINE
  8
0
 10
-48.0439
 20
-157.844
 11
-47.9736
 21
-157.906
  0
LINE
  8
0
 10
-47.9736
 20
-157.906
 11
-47.9062
 21
-157.974
  0
LINE
  8
0
 10
-47.9062
 20
-157.974
 11
-47.8438
 21
-158.044
  0
LINE
  8
0
 10
-47.8438
 20
-158.044
 11
-47.7861
 21
-158.118
  0
LINE
  8
0
 10
-47.7861
 20
-158.118
 11
-47.7334
 21
-158.196
  0
LINE
  8
0
 10
-47.7334
 20
-158.196
 11
-47.6855
 21
-158.277
  0
LINE
  8
0
 10
-47.6855
 20
-158.277
 11
-47.6426
 21
-158.361
  0
LINE
  8
0
 10
-47.6426
 20
-158.361
 11
-47.6055
 21
-158.448
  0
LINE
  8
0
 10
-47.6055
 20
-158.448
 11
-47.5732
 21
-158.536
  0
LINE
  8
0
 10
-47.5732
 20
-158.536
 11
-47.5469
 21
-158.627
  0
LINE
  8
0
 10
-47.5469
 20
-158.627
 11
-47.5264
 21
-158.719
  0
LINE
  8
0
 10
-47.5264
 20
-158.719
 11
-47.5117
 21
-158.812
  0
LINE
  8
0
 10
-47.5117
 20
-158.812
 11
-47.5029
 21
-158.906
  0
LINE
  8
0
 10
-47.5029
 20
-158.906
 11
-47.5
 21
-159
  0
LINE
  8
0
 10
-47.5
 20
-159
 11
-47.5029
 21
-159.094
  0
LINE
  8
0
 10
-47.5029
 20
-159.094
 11
-47.5117
 21
-159.188
  0
LINE
  8
0
 10
-47.5117
 20
-159.188
 11
-47.5264
 21
-159.281
  0
LINE
  8
0
 10
-47.5264
 20
-159.281
 11
-47.5469
 21
-159.373
  0
LINE
  8
0
 10
-47.5469
 20
-159.373
 11
-47.5732
 21
-159.464
  0
LINE
  8
0
 10
-47.5732
 20
-159.464
 11
-47.6055
 21
-159.552
  0
LINE
  8
0
 10
-47.6055
 20
-159.552
 11
-47.6426
 21
-159.639
  0
LINE
  8
0
 10
-47.6426
 20
-159.639
 11
-47.6855
 21
-159.723
  0
LINE
  8
0
 10
-47.6855
 20
-159.723
 11
-47.7334
 21
-159.804
  0
LINE
  8
0
 10
-47.7334
 20
-159.804
 11
-47.7861
 21
-159.882
  0
LINE
  8
0
 10
-47.7861
 20
-159.882
 11
-47.8438
 21
-159.956
  0
LINE
  8
0
 10
-47.8438
 20
-159.956
 11
-47.9062
 21
-160.026
  0
LINE
  8
0
 10
-47.9062
 20
-160.026
 11
-47.9736
 21
-160.094
  0
LINE
  8
0
 10
-47.9736
 20
-160.094
 11
-48.0439
 21
-160.156
  0
LINE
  8
0
 10
-48.0439
 20
-160.156
 11
-48.1182
 21
-160.214
  0
LINE
  8
0
 10
-48.1182
 20
-160.214
 11
-48.1963
 21
-160.267
  0
LINE
  8
0
 10
-48.1963
 20
-160.267
 11
-48.2773
 21
-160.314
  0
LINE
  8
0
 10
-48.2773
 20
-160.314
 11
-48.3613
 21
-160.357
  0
LINE
  8
0
 10
-48.3613
 20
-160.357
 11
-48.4482
 21
-160.395
  0
LINE
  8
0
 10
-48.4482
 20
-160.395
 11
-48.5361
 21
-160.427
  0
LINE
  8
0
 10
-48.5361
 20
-160.427
 11
-48.627
 21
-160.453
  0
LINE
  8
0
 10
-48.627
 20
-160.453
 11
-48.7188
 21
-160.474
  0
LINE
  8
0
 10
-48.7188
 20
-160.474
 11
-48.8115
 21
-160.488
  0
LINE
  8
0
 10
-48.8115
 20
-160.488
 11
-48.9062
 21
-160.497
  0
LINE
  8
0
 10
-48.9062
 20
-160.497
 11
-49
 21
-160.5
  0
LINE
  8
0
 10
-49
 20
-160.5
 11
-49.0938
 21
-160.497
  0
LINE
  8
0
 10
-59.0938
 20
-170.497
 11
-59.1885
 21
-170.488
  0
LINE
  8
0
 10
-59.1885
 20
-170.488
 11
-59.2812
 21
-170.474
  0
LINE
  8
0
 10
-59.2812
 20
-170.474
 11
-59.373
 21
-170.453
  0
LINE
  8
0
 10
-59.373
 20
-170.453
 11
-59.4639
 21
-170.427
  0
LINE
  8
0
 10
-59.4639
 20
-170.427
 11
-59.5518
 21
-170.395
  0
LINE
  8
0
 10
-59.5518
 20
-170.395
 11
-59.6387
 21
-170.357
  0
LINE
  8
0
 10
-59.6387
 20
-170.357
 11
-59.7227
 21
-170.314
  0
LINE
  8
0
 10
-59.7227
 20
-170.314
 11
-59.8037
 21
-170.267
  0
LINE
  8
0
 10
-59.8037
 20
-170.267
 11
-59.8818
 21
-170.214
  0
LINE
  8
0
 10
-59.8818
 20
-170.214
 11
-59.9561
 21
-170.156
  0
LINE
  8
0
 10
-59.9561
 20
-170.156
 11
-60.0264
 21
-170.094
  0
LINE
  8
0
 10
-60.0264
 20
-170.094
 11
-60.0938
 21
-170.026
  0
LINE
  8
0
 10
-60.0938
 20
-170.026
 11
-60.1562
 21
-169.956
  0
LINE
  8
0
 10
-60.1562
 20
-169.956
 11
-60.2139
 21
-169.882
  0
LINE
  8
0
 10
-60.2139
 20
-169.882
 11
-60.2666
 21
-169.804
  0
LINE
  8
0
 10
-60.2666
 20
-169.804
 11
-60.3145
 21
-169.723
  0
LINE
  8
0
 10
-60.3145
 20
-169.723
 11
-60.3574
 21
-169.639
  0
LINE
  8
0
 10
-60.3574
 20
-169.639
 11
-60.3945
 21
-169.552
  0
LINE
  8
0
 10
-60.3945
 20
-169.552
 11
-60.4268
 21
-169.464
  0
LINE
  8
0
 10
-60.4268
 20
-169.464
 11
-60.4531
 21
-169.373
  0
LINE
  8
0
 10
-60.4531
 20
-169.373
 11
-60.4736
 21
-169.281
  0
LINE
  8
0
 10
-60.4736
 20
-169.281
 11
-60.4883
 21
-169.188
  0
LINE
  8
0
 10
-60.4883
 20
-169.188
 11
-60.4971
 21
-169.094
  0
LINE
  8
0
 10
-60.4971
 20
-169.094
 11
-60.5
 21
-169
  0
LINE
  8
0
 10
-60.5
 20
-169
 11
-60.4971
 21
-168.906
  0
LINE
  8
0
 10
-60.4971
 20
-168.906
 11
-60.4883
 21
-168.812
  0
LINE
  8
0
 10
-60.4883
 20
-168.812
 11
-60.4736
 21
-168.719
  0
LINE
  8
0
 10
-60.4736
 20
-168.719
 11
-60.4531
 21
-168.627
  0
LINE
  8
0
 10
-60.4531
 20
-168.627
 11
-60.4268
 21
-168.536
  0
LINE
  8
0
 10
-60.4268
 20
-168.536
 11
-60.3945
 21
-168.448
  0
LINE
  8
0
 10
-60.3945
 20
-168.448
 11
-60.3574
 21
-168.361
  0
LINE
  8
0
 10
-60.3574
 20
-168.361
 11
-60.3145
 21
-168.277
  0
LINE
  8
0
 10
-60.3145
 20
-168.277
 11
-60.2666
 21
-168.196
  0
LINE
  8
0
 10
-60.2666
 20
-168.196
 11
-60.2139
 21
-168.118
  0
LINE
  8
0
 10
-60.2139
 20
-168.118
 11
-60.1562
 21
-168.044
  0
LINE
  8
0
 10
-60.1562
 20
-168.044
 11
-60.0938
 21
-167.974
  0
LINE
  8
0
 10
-60.0938
 20
-167.974
 11
-60.0264
 21
-167.906
  0
LINE
  8
0
 10
-60.0264
 20
-167.906
 11
-59.9561
 21
-167.844
  0
LINE
  8
0
 10
-59.9561
 20
-167.844
 11
-59.8818
 21
-167.786
  0
LINE
  8
0
 10
-59.8818
 20
-167.786
 11
-59.8037
 21
-167.733
  0
LINE
  8
0
 10
-59.8037
 20
-167.733
 11
-59.7227
 21
-167.686
  0
LINE
  8
0
 10
-59.7227
 20
-167.686
 11
-59.6387
 21
-167.643
  0
LINE
  8
0
 10
-59.6387
 20
-167.643
 11
-59.5518
 21
-167.605
  0
LINE
  8
0
 10
-59.5518
 20
-167.605
 11
-59.4639
 21
-167.573
  0
LINE
  8
0
 10
-59.4639
 20
-167.573
 11
-59.373
 21
-167.547
  0
LINE
  8
0
 10
-59.373
 20
-167.547
 11
-59.2812
 21
-167.526
  0
LINE
  8
0
 10
-59.2812
 20
-167.526
 11
-59.1885
 21
-167.512
  0
LINE
  8
0
 10
-59.1885
 20
-167.512
 11
-59.0938
 21
-167.503
  0
LINE
  8
0
 10
-59.0938
 20
-167.503
 11
-59
 21
-167.5
  0
LINE
  8
0
 10
-59
 20
-167.5
 11
-58.9062
 21
-167.503
  0
LINE
  8
0
 10
-58.9062
 20
-167.503
 11
-58.8115
 21
-167.512
  0
LINE
  8
0
 10
-58.8115
 20
-167.512
 11
-58.7188
 21
-167.526
  0
LINE
  8
0
 10
-58.7188
 20
-167.526
 11
-58.627
 21
-167.547
  0
LINE
  8
0
 10
-58.627
 20
-167.547
 11
-58.5361
 21
-167.573
  0
LINE
  8
0
 10
-58.5361
 20
-167.573
 11
-58.4482
 21
-167.605
  0
LINE
  8
0
 10
-58.4482
 20
-167.605
 11
-58.3613
 21
-167.643
  0
LINE
  8
0
 10
-58.3613
 20
-167.643
 11
-58.2773
 21
-167.686
  0
LINE
  8
0
 10
-58.2773
 20
-167.686
 11
-58.1963
 21
-167.733
  0
LINE
  8
0
 10
-58.1963
 20
-167.733
 11
-58.1182
 21
-167.786
  0
LINE
  8
0
 10
-58.1182
 20
-167.786
 11
-58.0439
 21
-167.844
  0
LINE
  8
0
 10
-58.0439
 20
-167.844
 11
-57.9736
 21
-167.906
  0
LINE
  8
0
 10
-57.9736
 20
-167.906
 11
-57.9062
 21
-167.974
  0
LINE
  8
0
 10
-57.9062
 20
-167.974
 11
-57.8438
 21
-168.044
  0
LINE
  8
0
 10
-57.8438
 20
-168.044
 11
-57.7861
 21
-168.118
  0
LINE
  8
0
 10
-57.7861
 20
-168.118
 11
-57.7334
 21
-168.196
  0
LINE
  8
0
 10
-57.7334
 20
-168.196
 11
-57.6855
 21
-168.277
  0
LINE
  8
0
 10
-57.6855
 20
-168.277
 11
-57.6426
 21
-168.361
  0
LINE
  8
0
 10
-57.6426
 20
-168.361
 11
-57.6055
 21
-168.448
  0
LINE
  8
0
 10
-57.6055
 20
-168.448
 11
-57.5732
 21
-168.536
  0
LINE
  8
0
 10
-57.5732
 20
-168.536
 11
-57.5469
 21
-168.627
  0
LINE
  8
0
 10
-57.5469
 20
-168.627
 11
-57.5264
 21
-168.719
  0
LINE
  8
0
 10
-57.5264
 20
-168.719
 11
-57.5117
 21
-168.812
  0
LINE
  8
0
 10
-57.5117
 20
-168.812
 11
-57.5029
 21
-168.906
  0
LINE
  8
0
 10
-57.5029
 20
-168.906
 11
-57.5
 21
-169
  0
LINE
  8
0
 10
-57.5
 20
-169
 11
-57.5029
 21
-169.094
  0
LINE
  8
0
 10
-57.5029
 20
-169.094
 11
-57.5117
 21
-169.188
  0
LINE
  8
0
 10
-57.5117
 20
-169.188
 11
-57.5264
 21
-169.281
  0
LINE
  8
0
 10
-57.5264
 20
-169.281
 11
-57.5469
 21
-169.373
  0
LINE
  8
0
 10
-57.5469
 20
-169.373
 11
-57.5732
 21
-169.464
  0
LINE
  8
0
 10
-57.5732
 20
-169.464
 11
-57.6055
 21
-169.552
  0
LINE
  8
0
 10
-57.6055
 20
-169.552
 11
-57.6426
 21
-169.639
  0
LINE
  8
0
 10
-57.6426
 20
-169.639
 11
-57.6855
 21
-169.723
  0
LINE
  8
0
 10
-57.6855
 20
-169.723
 11
-57.7334
 21
-169.804
  0
LINE
  8
0
 10
-57.7334
 20
-169.804
 11
-57.7861
 21
-169.882
  0
LINE
  8
0
 10
-57.7861
 20
-169.882
 11
-57.8438
 21
-169.956
  0
LINE
  8
0
 10
-57.8438
 20
-169.956
 11
-57.9062
 21
-170.026
  0
LINE
  8
0
 10
-57.9062
 20
-170.026
 11
-57.9736
 21
-170.094
  0
LINE
  8
0
 10
-57.9736
 20
-170.094
 11
-58.0439
 21
-170.156
  0
LINE
  8
0
 10
-58.0439
 20
-170.156
 11
-58.1182
 21
-170.214
  0
LINE
  8
0
 10
-58.1182
 20
-170.214
 11
-58.1963
 21
-170.267
  0
LINE
  8
0
 10
-58.1963
 20
-170.267
 11
-58.2773
 21
-170.314
  0
LINE
  8
0
 10
-58.2773
 20
-170.314
 11
-58.3613
 21
-170.357
  0
LINE
  8
0
 10
-58.3613
 20
-170.357
 11
-58.4482
 21
-170.395
  0
LINE
  8
0
 10
-58.4482
 20
-170.395
 11
-58.5361
 21
-170.427
  0
LINE
  8
0
 10
-58.5361
 20
-170.427
 11
-58.627
 21
-170.453
  0
LINE
  8
0
 10
-58.627
 20
-170.453
 11
-58.7188
 21
-170.474
  0
LINE
  8
0
 10
-58.7188
 20
-170.474
 11
-58.8115
 21
-170.488
  0
LINE
  8
0
 10
-58.8115
 20
-170.488
 11
-58.9062
 21
-170.497
  0
LINE
  8
0
 10
-58.9062
 20
-170.497
 11
-59
 21
-170.5
  0
LINE
  8
0
 10
-59
 20
-170.5
 11
-59.0938
 21
-170.497
  0
LINE
  8
0
 10
58.9062
 20
-170.497
 11
58.8115
 21
-170.488
  0
LINE
  8
0
 10
58.8115
 20
-170.488
 11
58.7187
 21
-170.474
  0
LINE
  8
0
 10
58.7187
 20
-170.474
 11
58.6269
 21
-170.453
  0
LINE
  8
0
 10
58.6269
 20
-170.453
 11
58.5361
 21
-170.427
  0
LINE
  8
0
 10
58.5361
 20
-170.427
 11
58.4482
 21
-170.395
  0
LINE
  8
0
 10
58.4482
 20
-170.395
 11
58.3613
 21
-170.357
  0
LINE
  8
0
 10
58.3613
 20
-170.357
 11
58.2773
 21
-170.314
  0
LINE
  8
0
 10
58.2773
 20
-170.314
 11
58.1963
 21
-170.267
  0
LINE
  8
0
 10
58.1963
 20
-170.267
 11
58.1181
 21
-170.214
  0
LINE
  8
0
 10
58.1181
 20
-170.214
 11
58.0439
 21
-170.156
  0
LINE
  8
0
 10
58.0439
 20
-170.156
 11
57.9736
 21
-170.094
  0
LINE
  8
0
 10
57.9736
 20
-170.094
 11
57.9062
 21
-170.026
  0
LINE
  8
0
 10
57.9062
 20
-170.026
 11
57.8437
 21
-169.956
  0
LINE
  8
0
 10
57.8437
 20
-169.956
 11
57.7861
 21
-169.882
  0
LINE
  8
0
 10
57.7861
 20
-169.882
 11
57.7334
 21
-169.804
  0
LINE
  8
0
 10
57.7334
 20
-169.804
 11
57.6855
 21
-169.723
  0
LINE
  8
0
 10
57.6855
 20
-169.723
 11
57.6426
 21
-169.639
  0
LINE
  8
0
 10
57.6426
 20
-169.639
 11
57.6055
 21
-169.552
  0
LINE
  8
0
 10
57.6055
 20
-169.552
 11
57.5732
 21
-169.464
  0
LINE
  8
0
 10
57.5732
 20
-169.464
 11
57.5469
 21
-169.373
  0
LINE
  8
0
 10
57.5469
 20
-169.373
 11
57.5264
 21
-169.281
  0
LINE
  8
0
 10
57.5264
 20
-169.281
 11
57.5117
 21
-169.188
  0
LINE
  8
0
 10
57.5117
 20
-169.188
 11
57.5029
 21
-169.094
  0
LINE
  8
0
 10
57.5029
 20
-169.094
 11
57.5
 21
-169
  0
LINE
  8
0
 10
57.5
 20
-169
 11
57.5029
 21
-168.906
  0
LINE
  8
0
 10
57.5029
 20
-168.906
 11
57.5117
 21
-168.812
  0
LINE
  8
0
 10
57.5117
 20
-168.812
 11
57.5264
 21
-168.719
  0
LINE
  8
0
 10
57.5264
 20
-168.719
 11
57.5469
 21
-168.627
  0
LINE
  8
0
 10
57.5469
 20
-168.627
 11
57.5732
 21
-168.536
  0
LINE
  8
0
 10
57.5732
 20
-168.536
 11
57.6055
 21
-168.448
  0
LINE
  8
0
 10
57.6055
 20
-168.448
 11
57.6426
 21
-168.361
  0
LINE
  8
0
 10
57.6426
 20
-168.361
 11
57.6855
 21
-168.277
  0
LINE
  8
0
 10
57.6855
 20
-168.277
 11
57.7334
 21
-168.196
  0
LINE
  8
0
 10
57.7334
 20
-168.196
 11
57.7861
 21
-168.118
  0
LINE
  8
0
 10
57.7861
 20
-168.118
 11
57.8437
 21
-168.044
  0
LINE
  8
0
 10
57.8437
 20
-168.044
 11
57.9062
 21
-167.974
  0
LINE
  8
0
 10
57.9062
 20
-167.974
 11
57.9736
 21
-167.906
  0
LINE
  8
0
 10
57.9736
 20
-167.906
 11
58.0439
 21
-167.844
  0
LINE
  8
0
 10
58.0439
 20
-167.844
 11
58.1181
 21
-167.786
  0
LINE
  8
0
 10
58.1181
 20
-167.786
 11
58.1963
 21
-167.733
  0
LINE
  8
0
 10
58.1963
 20
-167.733
 11
58.2773
 21
-167.686
  0
LINE
  8
0
 10
58.2773
 20
-167.686
 11
58.3613
 21
-167.643
  0
LINE
  8
0
 10
58.3613
 20
-167.643
 11
58.4482
 21
-167.605
  0
LINE
  8
0
 10
58.4482
 20
-167.605
 11
58.5361
 21
-167.573
  0
LINE
  8
0
 10
58.5361
 20
-167.573
 11
58.6269
 21
-167.547
  0
LINE
  8
0
 10
58.6269
 20
-167.547
 11
58.7187
 21
-167.526
  0
LINE
  8
0
 10
58.7187
 20
-167.526
 11
58.8115
 21
-167.512
  0
LINE
  8
0
 10
58.8115
 20
-167.512
 11
58.9062
 21
-167.503
  0
LINE
  8
0
 10
58.9062
 20
-167.503
 11
59
 21
-167.5
  0
LINE
  8
0
 10
59
 20
-167.5
 11
59.0937
 21
-167.503
  0
LINE
  8
0
 10
59.0937
 20
-167.503
 11
59.1885
 21
-167.512
  0
LINE
  8
0
 10
59.1885
 20
-167.512
 11
59.2812
 21
-167.526
  0
LINE
  8
0
 10
59.2812
 20
-167.526
 11
59.373
 21
-167.547
  0
LINE
  8
0
 10
59.373
 20
-167.547
 11
59.4639
 21
-167.573
  0
LINE
  8
0
 10
59.4639
 20
-167.573
 11
59.5517
 21
-167.605
  0
LINE
  8
0
 10
59.5517
 20
-167.605
 11
59.6387
 21
-167.643
  0
LINE
  8
0
 10
59.6387
 20
-167.643
 11
59.7226
 21
-167.686
  0
LINE
  8
0
 10
59.7226
 20
-167.686
 11
59.8037
 21
-167.733
  0
LINE
  8
0
 10
59.8037
 20
-167.733
 11
59.8818
 21
-167.786
  0
LINE
  8
0
 10
59.8818
 20
-167.786
 11
59.956
 21
-167.844
  0
LINE
  8
0
 10
59.956
 20
-167.844
 11
60.0264
 21
-167.906
  0
LINE
  8
0
 10
60.0264
 20
-167.906
 11
60.0937
 21
-167.974
  0
LINE
  8
0
 10
60.0937
 20
-167.974
 11
60.1562
 21
-168.044
  0
LINE
  8
0
 10
60.1562
 20
-168.044
 11
60.2139
 21
-168.118
  0
LINE
  8
0
 10
60.2139
 20
-168.118
 11
60.2666
 21
-168.196
  0
LINE
  8
0
 10
60.2666
 20
-168.196
 11
60.3144
 21
-168.277
  0
LINE
  8
0
 10
60.3144
 20
-168.277
 11
60.3574
 21
-168.361
  0
LINE
  8
0
 10
60.3574
 20
-168.361
 11
60.3945
 21
-168.448
  0
LINE
  8
0
 10
60.3945
 20
-168.448
 11
60.4267
 21
-168.536
  0
LINE
  8
0
 10
60.4267
 20
-168.536
 11
60.4531
 21
-168.627
  0
LINE
  8
0
 10
60.4531
 20
-168.627
 11
60.4736
 21
-168.719
  0
LINE
  8
0
 10
60.4736
 20
-168.719
 11
60.4883
 21
-168.812
  0
LINE
  8
0
 10
60.4883
 20
-168.812
 11
60.4971
 21
-168.906
  0
LINE
  8
0
 10
60.4971
 20
-168.906
 11
60.5
 21
-169
  0
LINE
  8
0
 10
60.5
 20
-169
 11
60.4971
 21
-169.094
  0
LINE
  8
0
 10
60.4971
 20
-169.094
 11
60.4883
 21
-169.188
  0
LINE
  8
0
 10
60.4883
 20
-169.188
 11
60.4736
 21
-169.281
  0
LINE
  8
0
 10
60.4736
 20
-169.281
 11
60.4531
 21
-169.373
  0
LINE
  8
0
 10
60.4531
 20
-169.373
 11
60.4267
 21
-169.464
  0
LINE
  8
0
 10
60.4267
 20
-169.464
 11
60.3945
 21
-169.552
  0
LINE
  8
0
 10
60.3945
 20
-169.552
 11
60.3574
 21
-169.639
  0
LINE
  8
0
 10
60.3574
 20
-169.639
 11
60.3144
 21
-169.723
  0
LINE
  8
0
 10
60.3144
 20
-169.723
 11
60.2666
 21
-169.804
  0
LINE
  8
0
 10
60.2666
 20
-169.804
 11
60.2139
 21
-169.882
  0
LINE
  8
0
 10
60.2139
 20
-169.882
 11
60.1562
 21
-169.956
  0
LINE
  8
0
 10
60.1562
 20
-169.956
 11
60.0937
 21
-170.026
  0
LINE
  8
0
 10
60.0937
 20
-170.026
 11
60.0264
 21
-170.094
  0
LINE
  8
0
 10
60.0264
 20
-170.094
 11
59.956
 21
-170.156
  0
LINE
  8
0
 10
59.956
 20
-170.156
 11
59.8818
 21
-170.214
  0
LINE
  8
0
 10
59.8818
 20
-170.214
 11
59.8037
 21
-170.267
  0
LINE
  8
0
 10
59.8037
 20
-170.267
 11
59.7226
 21
-170.314
  0
LINE
  8
0
 10
59.7226
 20
-170.314
 11
59.6387
 21
-170.357
  0
LINE
  8
0
 10
59.6387
 20
-170.357
 11
59.5517
 21
-170.395
  0
LINE
  8
0
 10
59.5517
 20
-170.395
 11
59.4639
 21
-170.427
  0
LINE
  8
0
 10
59.4639
 20
-170.427
 11
59.373
 21
-170.453
  0
LINE
  8
0
 10
59.373
 20
-170.453
 11
59.2812
 21
-170.474
  0
LINE
  8
0
 10
59.2812
 20
-170.474
 11
59.1885
 21
-170.488
  0
LINE
  8
0
 10
59.1885
 20
-170.488
 11
59.0937
 21
-170.497
  0
LINE
  8
0
 10
59.0937
 20
-170.497
 11
59
 21
-170.5
  0
LINE
  8
0
 10
59
 20
-170.5
 11
58.9062
 21
-170.497
  0
LINE
  8
0
 10
-61
 20
-209
 11
-2.5
 21
-209
  0
LINE
  8
0
 10
-2.5
 20
-209
 11
-2.5
 21
-212
  0
LINE
  8
0
 10
-2.5
 20
-212
 11
2.5
 21
-212
  0
LINE
  8
0
 10
2.5
 20
-212
 11
2.5
 21
-209
  0
LINE
  8
0
 10
2.5
 20
-209
 11
61
 21
-209
  0
LINE
  8
0
 10
61
 20
-209
 11
61
 21
-212
  0
LINE
  8
0
 10
61
 20
-212
 11
66
 21
-212
  0
LINE
  8
0
 10
66
 20
-212
 11
66
 21
-205
  0
LINE
  8
0
 10
66
 20
-205
 11
63
 21
-205
  0
LINE
  8
0
 10
63
 20
-205
 11
63
 21
-200
  0
LINE
  8
0
 10
63
 20
-200
 11
66
 21
-200
  0
LINE
  8
0
 10
66
 20
-200
 11
66
 21
-193
  0
LINE
  8
0
 10
66
 20
-193
 11
63
 21
-193
  0
LINE
  8
0
 10
63
 20
-193
 11
63
 21
-188
  0
LINE
  8
0
 10
63
 20
-188
 11
66
 21
-188
  0
LINE
  8
0
 10
66
 20
-188
 11
66
 21
-181
  0
LINE
  8
0
 10
66
 20
-181
 11
61
 21
-181
  0
LINE
  8
0
 10
61
 20
-181
 11
61
 21
-184
  0
LINE
  8
0
 10
61
 20
-184
 11
2.5
 21
-184
  0
LINE
  8
0
 10
2.5
 20
-184
 11
2.5
 21
-181
  0
LINE
  8
0
 10
2.5
 20
-181
 11
-2.5
 21
-181
  0
LINE
  8
0
 10
-2.5
 20
-181
 11
-2.5
 21
-184
  0
LINE
  8
0
 10
-2.5
 20
-184
 11
-61
 21
-184
  0
LINE
  8
0
 10
-61
 20
-184
 11
-61
 21
-181
  0
LINE
  8
0
 10
-61
 20
-181
 11
-66
 21
-181
  0
LINE
  8
0
 10
-66
 20
-181
 11
-66
 21
-188
  0
LINE
  8
0
 10
-66
 20
-188
 11
-63
 21
-188
  0
LINE
  8
0
 10
-63
 20
-188
 11
-63
 21
-193
  0
LINE
  8
0
 10
-63
 20
-193
 11
-66
 21
-193
  0
LINE
  8
0
 10
-66
 20
-193
 11
-66
 21
-200
  0
LINE
  8
0
 10
-66
 20
-200
 11
-63
 21
-200
  0
LINE
  8
0
 10
-63
 20
-200
 11
-63
 21
-205
  0
LINE
  8
0
 10
-63
 20
-205
 11
-66
 21
-205
  0
LINE
  8
0
 10
-66
 20
-205
 11
-66
 21
-212
  0
LINE
  8
0
 10
-66
 20
-212
 11
-61
 21
-212
  0
LINE
  8
0
 10
-61
 20
-212
 11
-61
 21
-209
  0
LINE
  8
0
 10
-61
 20
-245
 11
-2.5
 21
-245
  0
LINE
  8
0
 10
-2.5
 20
-245
 11
-2.5
 21
-248
  0
LINE
  8
0
 10
-2.5
 20
-248
 11
2.5
 21
-248
  0
LINE
  8
0
 10
2.5
 20
-248
 11
2.5
 21
-245
  0
LINE
  8
0
 10
2.5
 20
-245
 11
61
 21
-245
  0
LINE
  8
0
 10
61
 20
-245
 11
61
 21
-248
  0
LINE
  8
0
 10
61
 20
-248
 11
66
 21
-248
  0
LINE
  8
0
 10
66
 20
-248
 11
66
 21
-241
  0
LINE
  8
0
 10
66
 20
-241
 11
63
 21
-241
  0
LINE
  8
0
 10
63
 20
-241
 11
63
 21
-236
  0
LINE
  8
0
 10
63
 20
-236
 11
66
 21
-236
  0
LINE
  8
0
 10
66
 20
-236
 11
66
 21
-229
  0
LINE
  8
0
 10
66
 20
-229
 11
63
 21
-229
  0
LINE
  8
0
 10
63
 20
-229
 11
63
 21
-224
  0
LINE
  8
0
 10
63
 20
-224
 11
66
 21
-224
  0
LINE
  8
0
 10
66
 20
-224
 11
66
 21
-217
  0
LINE
  8
0
 10
66
 20
-217
 11
61
 21
-217
  0
LINE
  8
0
 10
61
 20
-217
 11
61
 21
-220
  0
LINE
  8
0
 10
61
 20
-220
 11
2.5
 21
-220
  0
LINE
  8
0
 10
2.5
 20
-220
 11
2.5
 21
-217
  0
LINE
  8
0
 10
2.5
 20
-217
 11
-2.5
 21
-217
  0
LINE
  8
0
 10
-2.5
 20
-217
 11
-2.5
 21
-220
  0
LINE
  8
0
 10
-2.5
 20
-220
 11
-61
 21
-220
  0
LINE
  8
0
 10
-61
 20
-220
 11
-61
 21
-217
  0
LINE
  8
0
 10
-61
 20
-217
 11
-66
 21
-217
  0
LINE
  8
0
 10
-66
 20
-217
 11
-66
 21
-224
  0
LINE
  8
0
 10
-66
 20
-224
 11
-63
 21
-224
  0
LINE
  8
0
 10
-63
 20
-224
 11
-63
 21
-229
  0
LINE
  8
0
 10
-63
 20
-229
 11
-66
 21
-229
  0
LINE
  8
0
 10
-66
 20
-229
 11
-66
 21
-236
  0
LINE
  8
0
 10
-66
 20
-236
 11
-63
 21
-236
  0
LINE
  8
0
 10
-63
 20
-236
 11
-63
 21
-241
  0
LINE
  8
0
 10
-63
 20
-241
 11
-66
 21
-241
  0
LINE
  8
0
 10
-66
 20
-241
 11
-66
 21
-248
  0
LINE
  8
0
 10
-66
 20
-248
 11
-61
 21
-248
  0
LINE
  8
0
 10
-61
 20
-248
 11
-61
 21
-245
  0
LINE
  8
0
 10
-53.5
 20
-234.5
 11
-53.5
 21
-231.5
  0
LINE
  8
0
 10
-53.5
 20
-231.5
 11
-45.5
 21
-231.5
  0
LINE
  8
0
 10
-45.5
 20
-231.5
 11
-45.5
 21
-234.5
  0
LINE
  8
0
 10
-45.5
 20
-234.5
 11
-53.5
 21
-234.5
  0
LINE
  8
0
 10
46
 20
-237.2
 11
46
 21
-234.2
  0
LINE
  8
0
 10
46
 20
-234.2
 11
53
 21
-234.2
  0
LINE
  8
0
 10
53
 20
-234.2
 11
53
 21
-237.2
  0
LINE
  8
0
 10
53
 20
-237.2
 11
46
 21
-237.2
  0
LINE
  8
0
 10
-52.0195
 20
-238.604
 11
-52.0195
 21
-236.604
  0
LINE
  8
0
 10
-52.0195
 20
-236.604
 11
-47.0195
 21
-236.604
  0
LINE
  8
0
 10
-47.0195
 20
-236.604
 11
-47.0195
 21
-238.604
  0
LINE
  8
0
 10
-47.0195
 20
-238.604
 11
-52.0195
 21
-238.604
  0
LINE
  8
0
 10
-45
 20
-281
 11
45
 21
-281
  0
LINE
  8
0
 10
45
 20
-281
 11
45
 21
-284
  0
LINE
  8
0
 10
45
 20
-284
 11
50
 21
-284
  0
LINE
  8
0
 10
50
 20
-284
 11
50
 21
-281
  0
LINE
  8
0
 10
50
 20
-281
 11
54
 21
-281
  0
LINE
  8
0
 10
54
 20
-281
 11
54
 21
-277
  0
LINE
  8
0
 10
54
 20
-277
 11
57
 21
-277
  0
LINE
  8
0
 10
57
 20
-277
 11
57
 21
-272
  0
LINE
  8
0
 10
57
 20
-272
 11
54
 21
-272
  0
LINE
  8
0
 10
54
 20
-272
 11
54
 21
-265
  0
LINE
  8
0
 10
54
 20
-265
 11
57
 21
-265
  0
LINE
  8
0
 10
57
 20
-265
 11
57
 21
-260
  0
LINE
  8
0
 10
57
 20
-260
 11
54
 21
-260
  0
LINE
  8
0
 10
54
 20
-260
 11
54
 21
-256
  0
LINE
  8
0
 10
54
 20
-256
 11
50
 21
-256
  0
LINE
  8
0
 10
50
 20
-256
 11
50
 21
-253
  0
LINE
  8
0
 10
50
 20
-253
 11
45
 21
-253
  0
LINE
  8
0
 10
45
 20
-253
 11
45
 21
-256
  0
LINE
  8
0
 10
45
 20
-256
 11
-45
 21
-256
  0
LINE
  8
0
 10
-45
 20
-256
 11
-45
 21
-253
  0
LINE
  8
0
 10
-45
 20
-253
 11
-50
 21
-253
  0
LINE
  8
0
 10
-50
 20
-253
 11
-50
 21
-256
  0
LINE
  8
0
 10
-50
 20
-256
 11
-54
 21
-256
  0
LINE
  8
0
 10
-54
 20
-256
 11
-54
 21
-260
  0
LINE
  8
0
 10
-54
 20
-260
 11
-57
 21
-260
  0
LINE
  8
0
 10
-57
 20
-260
 11
-57
 21
-265
  0
LINE
  8
0
 10
-57
 20
-265
 11
-54
 21
-265
  0
LINE
  8
0
 10
-54
 20
-265
 11
-54
 21
-272
  0
LINE
  8
0
 10
-54
 20
-272
 11
-57
 21
-272
  0
LINE
  8
0
 10
-57
 20
-272
 11
-57
 21
-277
  0
LINE
  8
0
 10
-57
 20
-277
 11
-54
 21
-277
  0
LINE
  8
0
 10
-54
 20
-277
 11
-54
 21
-281
  0
LINE
  8
0
 10
-54
 20
-281
 11
-50
 21
-281
  0
LINE
  8
0
 10
-50
 20
-281
 11
-50
 21
-284
  0
LINE
  8
0
 10
-50
 20
-284
 11
-45
 21
-284
  0
LINE
  8
0
 10
-45
 20
-284
 11
-45
 21
-281
  0
LINE
  8
0
 10
-45
 20
-317
 11
45
 21
-317
  0
LINE
  8
0
 10
45
 20
-317
 11
45
 21
-320
  0
LINE
  8
0
 10
45
 20
-320
 11
50
 21
-320
  0
LINE
  8
0
 10
50
 20
-320
 11
50
 21
-317
  0
LINE
  8
0
 10
50
 20
-317
 11
54
 21
-317
  0
LINE
  8
0
 10
54
 20
-317
 11
54
 21
-313
  0
LINE
  8
0
 10
54
 20
-313
 11
57
 21
-313
  0
LINE
  8
0
 10
57
 20
-313
 11
57
 21
-308
  0
LINE
  8
0
 10
57
 20
-308
 11
54
 21
-308
  0
LINE
  8
0
 10
54
 20
-308
 11
54
 21
-301
  0
LINE
  8
0
 10
54
 20
-301
 11
57
 21
-301
  0
LINE
  8
0
 10
57
 20
-301
 11
57
 21
-296
  0
LINE
  8
0
 10
57
 20
-296
 11
54
 21
-296
  0
LINE
  8
0
 10
54
 20
-296
 11
54
 21
-292
  0
LINE
  8
0
 10
54
 20
-292
 11
50
 21
-292
  0
LINE
  8
0
 10
50
 20
-292
 11
50
 21
-289
  0
LINE
  8
0
 10
50
 20
-289
 11
45
 21
-289
  0
LINE
  8
0
 10
45
 20
-289
 11
45
 21
-292
  0
LINE
  8
0
 10
45
 20
-292
 11
-45
 21
-292
  0
LINE
  8
0
 10
-45
 20
-292
 11
-45
 21
-289
  0
LINE
  8
0
 10
-45
 20
-289
 11
-50
 21
-289
  0
LINE
  8
0
 10
-50
 20
-289
 11
-50
 21
-292
  0
LINE
  8
0
 10
-50
 20
-292
 11
-54
 21
-292
  0
LINE
  8
0
 10
-54
 20
-292
 11
-54
 21
-296
  0
LINE
  8
0
 10
-54
 20
-296
 11
-57
 21
-296
  0
LINE
  8
0
 10
-57
 20
-296
 11
-57
 21
-301
  0
LINE
  8
0
 10
-57
 20
-301
 11
-54
 21
-301
  0
LINE
  8
0
 10
-54
 20
-301
 11
-54
 21
-308
  0
LINE
  8
0
 10
-54
 20
-308
 11
-57
 21
-308
  0
LINE
  8
0
 10
-57
 20
-308
 11
-57
 21
-313
  0
LINE
  8
0
 10
-57
 20
-313
 11
-54
 21
-313
  0
LINE
  8
0
 10
-54
 20
-313
 11
-54
 21
-317
  0
LINE
  8
0
 10
-54
 20
-317
 11
-50
 21
-317
  0
LINE
  8
0
 10
-50
 20
-317
 11
-50
 21
-320
  0
LINE
  8
0
 10
-50
 20
-320
 11
-45
 21
-320
  0
LINE
  8
0
 10
-45
 20
-320
 11
-45
 21
-317
  0
ENDSEC
  0
SECTION
  2
OBJECTS
  0
DICTIONARY
  0
ENDSEC
  0
EOF
