G04 #@! TF.GenerationSoftware,KiCad,Pcbnew,(6.0.7)*
G04 #@! TF.CreationDate,2022-08-25T22:48:20+02:00*
G04 #@! TF.ProjectId,mixerli,6d697865-726c-4692-9e6b-696361645f70,rev?*
G04 #@! TF.SameCoordinates,Original*
G04 #@! TF.FileFunction,Legend,Top*
G04 #@! TF.FilePolarity,Positive*
%FSLAX46Y46*%
G04 Gerber Fmt 4.6, Leading zero omitted, Abs format (unit mm)*
G04 Created by KiCad (PCBNEW (6.0.7)) date 2022-08-25 22:48:20*
%MOMM*%
%LPD*%
G01*
G04 APERTURE LIST*
G04 #@! TA.AperFunction,Profile*
%ADD10C,0.100000*%
G04 #@! TD*
%ADD11C,0.150000*%
%ADD12C,0.200000*%
%ADD13C,0.120000*%
G04 APERTURE END LIST*
D10*
X14000000Y-88000000D02*
X14000000Y-196000000D01*
X140000000Y-88000000D02*
X14000000Y-88000000D01*
X14000000Y-196000000D02*
X140000000Y-196000000D01*
X140000000Y-88000000D02*
X140000000Y-196000000D01*
D11*
X104066666Y-108652380D02*
X104066666Y-109366666D01*
X104019047Y-109509523D01*
X103923809Y-109604761D01*
X103780952Y-109652380D01*
X103685714Y-109652380D01*
X105066666Y-109652380D02*
X104495238Y-109652380D01*
X104780952Y-109652380D02*
X104780952Y-108652380D01*
X104685714Y-108795238D01*
X104590476Y-108890476D01*
X104495238Y-108938095D01*
X123602666Y-94700380D02*
X123602666Y-95414666D01*
X123555047Y-95557523D01*
X123459809Y-95652761D01*
X123316952Y-95700380D01*
X123221714Y-95700380D01*
X124031238Y-94795619D02*
X124078857Y-94748000D01*
X124174095Y-94700380D01*
X124412190Y-94700380D01*
X124507428Y-94748000D01*
X124555047Y-94795619D01*
X124602666Y-94890857D01*
X124602666Y-94986095D01*
X124555047Y-95128952D01*
X123983619Y-95700380D01*
X124602666Y-95700380D01*
X126388761Y-186886380D02*
X126055428Y-186410190D01*
X125817333Y-186886380D02*
X125817333Y-185886380D01*
X126198285Y-185886380D01*
X126293523Y-185934000D01*
X126341142Y-185981619D01*
X126388761Y-186076857D01*
X126388761Y-186219714D01*
X126341142Y-186314952D01*
X126293523Y-186362571D01*
X126198285Y-186410190D01*
X125817333Y-186410190D01*
X126674476Y-185886380D02*
X127007809Y-186886380D01*
X127341142Y-185886380D01*
X128198285Y-186886380D02*
X127626857Y-186886380D01*
X127912571Y-186886380D02*
X127912571Y-185886380D01*
X127817333Y-186029238D01*
X127722095Y-186124476D01*
X127626857Y-186172095D01*
X43745066Y-95005180D02*
X43745066Y-95719466D01*
X43697447Y-95862323D01*
X43602209Y-95957561D01*
X43459352Y-96005180D01*
X43364114Y-96005180D01*
X44649828Y-95338514D02*
X44649828Y-96005180D01*
X44411733Y-94957561D02*
X44173638Y-95671847D01*
X44792685Y-95671847D01*
X63709466Y-95259180D02*
X63709466Y-95973466D01*
X63661847Y-96116323D01*
X63566609Y-96211561D01*
X63423752Y-96259180D01*
X63328514Y-96259180D01*
X64661847Y-95259180D02*
X64185657Y-95259180D01*
X64138038Y-95735371D01*
X64185657Y-95687752D01*
X64280895Y-95640133D01*
X64518990Y-95640133D01*
X64614228Y-95687752D01*
X64661847Y-95735371D01*
X64709466Y-95830609D01*
X64709466Y-96068704D01*
X64661847Y-96163942D01*
X64614228Y-96211561D01*
X64518990Y-96259180D01*
X64280895Y-96259180D01*
X64185657Y-96211561D01*
X64138038Y-96163942D01*
X83572266Y-94903580D02*
X83572266Y-95617866D01*
X83524647Y-95760723D01*
X83429409Y-95855961D01*
X83286552Y-95903580D01*
X83191314Y-95903580D01*
X84477028Y-94903580D02*
X84286552Y-94903580D01*
X84191314Y-94951200D01*
X84143695Y-94998819D01*
X84048457Y-95141676D01*
X84000838Y-95332152D01*
X84000838Y-95713104D01*
X84048457Y-95808342D01*
X84096076Y-95855961D01*
X84191314Y-95903580D01*
X84381790Y-95903580D01*
X84477028Y-95855961D01*
X84524647Y-95808342D01*
X84572266Y-95713104D01*
X84572266Y-95475009D01*
X84524647Y-95379771D01*
X84477028Y-95332152D01*
X84381790Y-95284533D01*
X84191314Y-95284533D01*
X84096076Y-95332152D01*
X84048457Y-95379771D01*
X84000838Y-95475009D01*
X103536666Y-94700380D02*
X103536666Y-95414666D01*
X103489047Y-95557523D01*
X103393809Y-95652761D01*
X103250952Y-95700380D01*
X103155714Y-95700380D01*
X103917619Y-94700380D02*
X104584285Y-94700380D01*
X104155714Y-95700380D01*
X46404761Y-186886380D02*
X46071428Y-186410190D01*
X45833333Y-186886380D02*
X45833333Y-185886380D01*
X46214285Y-185886380D01*
X46309523Y-185934000D01*
X46357142Y-185981619D01*
X46404761Y-186076857D01*
X46404761Y-186219714D01*
X46357142Y-186314952D01*
X46309523Y-186362571D01*
X46214285Y-186410190D01*
X45833333Y-186410190D01*
X46690476Y-185886380D02*
X47023809Y-186886380D01*
X47357142Y-185886380D01*
X47595238Y-185886380D02*
X48214285Y-185886380D01*
X47880952Y-186267333D01*
X48023809Y-186267333D01*
X48119047Y-186314952D01*
X48166666Y-186362571D01*
X48214285Y-186457809D01*
X48214285Y-186695904D01*
X48166666Y-186791142D01*
X48119047Y-186838761D01*
X48023809Y-186886380D01*
X47738095Y-186886380D01*
X47642857Y-186838761D01*
X47595238Y-186791142D01*
X66444761Y-186886380D02*
X66111428Y-186410190D01*
X65873333Y-186886380D02*
X65873333Y-185886380D01*
X66254285Y-185886380D01*
X66349523Y-185934000D01*
X66397142Y-185981619D01*
X66444761Y-186076857D01*
X66444761Y-186219714D01*
X66397142Y-186314952D01*
X66349523Y-186362571D01*
X66254285Y-186410190D01*
X65873333Y-186410190D01*
X66730476Y-185886380D02*
X67063809Y-186886380D01*
X67397142Y-185886380D01*
X68159047Y-186219714D02*
X68159047Y-186886380D01*
X67920952Y-185838761D02*
X67682857Y-186553047D01*
X68301904Y-186553047D01*
X86256761Y-186886380D02*
X85923428Y-186410190D01*
X85685333Y-186886380D02*
X85685333Y-185886380D01*
X86066285Y-185886380D01*
X86161523Y-185934000D01*
X86209142Y-185981619D01*
X86256761Y-186076857D01*
X86256761Y-186219714D01*
X86209142Y-186314952D01*
X86161523Y-186362571D01*
X86066285Y-186410190D01*
X85685333Y-186410190D01*
X86542476Y-185886380D02*
X86875809Y-186886380D01*
X87209142Y-185886380D01*
X87590095Y-186886380D02*
X87780571Y-186886380D01*
X87875809Y-186838761D01*
X87923428Y-186791142D01*
X88018666Y-186648285D01*
X88066285Y-186457809D01*
X88066285Y-186076857D01*
X88018666Y-185981619D01*
X87971047Y-185934000D01*
X87875809Y-185886380D01*
X87685333Y-185886380D01*
X87590095Y-185934000D01*
X87542476Y-185981619D01*
X87494857Y-186076857D01*
X87494857Y-186314952D01*
X87542476Y-186410190D01*
X87590095Y-186457809D01*
X87685333Y-186505428D01*
X87875809Y-186505428D01*
X87971047Y-186457809D01*
X88018666Y-186410190D01*
X88066285Y-186314952D01*
X106100571Y-186886380D02*
X105767238Y-186410190D01*
X105529142Y-186886380D02*
X105529142Y-185886380D01*
X105910095Y-185886380D01*
X106005333Y-185934000D01*
X106052952Y-185981619D01*
X106100571Y-186076857D01*
X106100571Y-186219714D01*
X106052952Y-186314952D01*
X106005333Y-186362571D01*
X105910095Y-186410190D01*
X105529142Y-186410190D01*
X106386285Y-185886380D02*
X106719619Y-186886380D01*
X107052952Y-185886380D01*
X107910095Y-186886380D02*
X107338666Y-186886380D01*
X107624380Y-186886380D02*
X107624380Y-185886380D01*
X107529142Y-186029238D01*
X107433904Y-186124476D01*
X107338666Y-186172095D01*
X108529142Y-185886380D02*
X108624380Y-185886380D01*
X108719619Y-185934000D01*
X108767238Y-185981619D01*
X108814857Y-186076857D01*
X108862476Y-186267333D01*
X108862476Y-186505428D01*
X108814857Y-186695904D01*
X108767238Y-186791142D01*
X108719619Y-186838761D01*
X108624380Y-186886380D01*
X108529142Y-186886380D01*
X108433904Y-186838761D01*
X108386285Y-186791142D01*
X108338666Y-186695904D01*
X108291047Y-186505428D01*
X108291047Y-186267333D01*
X108338666Y-186076857D01*
X108386285Y-185981619D01*
X108433904Y-185934000D01*
X108529142Y-185886380D01*
X23577466Y-95055980D02*
X23577466Y-95770266D01*
X23529847Y-95913123D01*
X23434609Y-96008361D01*
X23291752Y-96055980D01*
X23196514Y-96055980D01*
X23958419Y-95055980D02*
X24577466Y-95055980D01*
X24244133Y-95436933D01*
X24386990Y-95436933D01*
X24482228Y-95484552D01*
X24529847Y-95532171D01*
X24577466Y-95627409D01*
X24577466Y-95865504D01*
X24529847Y-95960742D01*
X24482228Y-96008361D01*
X24386990Y-96055980D01*
X24101276Y-96055980D01*
X24006038Y-96008361D01*
X23958419Y-95960742D01*
X26312761Y-186886380D02*
X25979428Y-186410190D01*
X25741333Y-186886380D02*
X25741333Y-185886380D01*
X26122285Y-185886380D01*
X26217523Y-185934000D01*
X26265142Y-185981619D01*
X26312761Y-186076857D01*
X26312761Y-186219714D01*
X26265142Y-186314952D01*
X26217523Y-186362571D01*
X26122285Y-186410190D01*
X25741333Y-186410190D01*
X26598476Y-185886380D02*
X26931809Y-186886380D01*
X27265142Y-185886380D01*
X27550857Y-185981619D02*
X27598476Y-185934000D01*
X27693714Y-185886380D01*
X27931809Y-185886380D01*
X28027047Y-185934000D01*
X28074666Y-185981619D01*
X28122285Y-186076857D01*
X28122285Y-186172095D01*
X28074666Y-186314952D01*
X27503238Y-186886380D01*
X28122285Y-186886380D01*
X26424761Y-116579180D02*
X26091428Y-116102990D01*
X25853333Y-116579180D02*
X25853333Y-115579180D01*
X26234285Y-115579180D01*
X26329523Y-115626800D01*
X26377142Y-115674419D01*
X26424761Y-115769657D01*
X26424761Y-115912514D01*
X26377142Y-116007752D01*
X26329523Y-116055371D01*
X26234285Y-116102990D01*
X25853333Y-116102990D01*
X26710476Y-115579180D02*
X27043809Y-116579180D01*
X27377142Y-115579180D01*
X28186666Y-115579180D02*
X27710476Y-115579180D01*
X27662857Y-116055371D01*
X27710476Y-116007752D01*
X27805714Y-115960133D01*
X28043809Y-115960133D01*
X28139047Y-116007752D01*
X28186666Y-116055371D01*
X28234285Y-116150609D01*
X28234285Y-116388704D01*
X28186666Y-116483942D01*
X28139047Y-116531561D01*
X28043809Y-116579180D01*
X27805714Y-116579180D01*
X27710476Y-116531561D01*
X27662857Y-116483942D01*
X46429561Y-116426780D02*
X46096228Y-115950590D01*
X45858133Y-116426780D02*
X45858133Y-115426780D01*
X46239085Y-115426780D01*
X46334323Y-115474400D01*
X46381942Y-115522019D01*
X46429561Y-115617257D01*
X46429561Y-115760114D01*
X46381942Y-115855352D01*
X46334323Y-115902971D01*
X46239085Y-115950590D01*
X45858133Y-115950590D01*
X46715276Y-115426780D02*
X47048609Y-116426780D01*
X47381942Y-115426780D01*
X48143847Y-115426780D02*
X47953371Y-115426780D01*
X47858133Y-115474400D01*
X47810514Y-115522019D01*
X47715276Y-115664876D01*
X47667657Y-115855352D01*
X47667657Y-116236304D01*
X47715276Y-116331542D01*
X47762895Y-116379161D01*
X47858133Y-116426780D01*
X48048609Y-116426780D01*
X48143847Y-116379161D01*
X48191466Y-116331542D01*
X48239085Y-116236304D01*
X48239085Y-115998209D01*
X48191466Y-115902971D01*
X48143847Y-115855352D01*
X48048609Y-115807733D01*
X47858133Y-115807733D01*
X47762895Y-115855352D01*
X47715276Y-115902971D01*
X47667657Y-115998209D01*
X66424761Y-116486380D02*
X66091428Y-116010190D01*
X65853333Y-116486380D02*
X65853333Y-115486380D01*
X66234285Y-115486380D01*
X66329523Y-115534000D01*
X66377142Y-115581619D01*
X66424761Y-115676857D01*
X66424761Y-115819714D01*
X66377142Y-115914952D01*
X66329523Y-115962571D01*
X66234285Y-116010190D01*
X65853333Y-116010190D01*
X66710476Y-115486380D02*
X67043809Y-116486380D01*
X67377142Y-115486380D01*
X67615238Y-115486380D02*
X68281904Y-115486380D01*
X67853333Y-116486380D01*
X86424761Y-116579180D02*
X86091428Y-116102990D01*
X85853333Y-116579180D02*
X85853333Y-115579180D01*
X86234285Y-115579180D01*
X86329523Y-115626800D01*
X86377142Y-115674419D01*
X86424761Y-115769657D01*
X86424761Y-115912514D01*
X86377142Y-116007752D01*
X86329523Y-116055371D01*
X86234285Y-116102990D01*
X85853333Y-116102990D01*
X86710476Y-115579180D02*
X87043809Y-116579180D01*
X87377142Y-115579180D01*
X87853333Y-116007752D02*
X87758095Y-115960133D01*
X87710476Y-115912514D01*
X87662857Y-115817276D01*
X87662857Y-115769657D01*
X87710476Y-115674419D01*
X87758095Y-115626800D01*
X87853333Y-115579180D01*
X88043809Y-115579180D01*
X88139047Y-115626800D01*
X88186666Y-115674419D01*
X88234285Y-115769657D01*
X88234285Y-115817276D01*
X88186666Y-115912514D01*
X88139047Y-115960133D01*
X88043809Y-116007752D01*
X87853333Y-116007752D01*
X87758095Y-116055371D01*
X87710476Y-116102990D01*
X87662857Y-116198228D01*
X87662857Y-116388704D01*
X87710476Y-116483942D01*
X87758095Y-116531561D01*
X87853333Y-116579180D01*
X88043809Y-116579180D01*
X88139047Y-116531561D01*
X88186666Y-116483942D01*
X88234285Y-116388704D01*
X88234285Y-116198228D01*
X88186666Y-116102990D01*
X88139047Y-116055371D01*
X88043809Y-116007752D01*
D12*
X108500000Y-120500000D02*
X111500000Y-120500000D01*
X108600000Y-110000000D02*
X111500000Y-110000000D01*
X111500000Y-120500000D02*
X111500000Y-110000000D01*
X102500000Y-110000000D02*
X105400000Y-110000000D01*
X102500000Y-120500000D02*
X105500000Y-120500000D01*
X102500000Y-120500000D02*
X102500000Y-110000000D01*
D13*
X107000000Y-113104999D02*
G75*
G03*
X105703737Y-118588577I0J-2895001D01*
G01*
X108296263Y-118588576D02*
G75*
G03*
X107000000Y-113105000I-1296263J2588576D01*
G01*
X108800000Y-116000000D02*
G75*
G03*
X108800000Y-116000000I-1800000J0D01*
G01*
D12*
X122500000Y-104500000D02*
X122500000Y-94000000D01*
X122500000Y-94000000D02*
X125400000Y-94000000D01*
X122500000Y-104500000D02*
X125500000Y-104500000D01*
X131500000Y-104500000D02*
X131500000Y-94000000D01*
X128500000Y-104500000D02*
X131500000Y-104500000D01*
X128600000Y-94000000D02*
X131500000Y-94000000D01*
D13*
X128296263Y-102588576D02*
G75*
G03*
X127000000Y-97105000I-1296263J2588576D01*
G01*
X127000000Y-97104999D02*
G75*
G03*
X125703737Y-102588577I0J-2895001D01*
G01*
X128800000Y-100000000D02*
G75*
G03*
X128800000Y-100000000I-1800000J0D01*
G01*
D11*
X131500000Y-132000000D02*
X131500000Y-192000000D01*
X122500000Y-139500000D02*
X122500000Y-184500000D01*
X122500000Y-192000000D02*
X131500000Y-192000000D01*
X122500000Y-132000000D02*
X131500000Y-132000000D01*
X122500000Y-132000000D02*
X122500000Y-192000000D01*
D13*
X23565000Y-89186000D02*
X23565000Y-89342000D01*
X23565000Y-91502000D02*
X23565000Y-91658000D01*
X23565000Y-91657516D02*
G75*
G03*
X26797335Y-91500608I1560000J1235516D01*
G01*
X26166130Y-89342163D02*
G75*
G03*
X24084039Y-89342000I-1041130J-1079837D01*
G01*
X26797335Y-89343392D02*
G75*
G03*
X23565000Y-89186484I-1672335J-1078608D01*
G01*
X24084039Y-91502000D02*
G75*
G03*
X26166130Y-91501837I1040961J1080000D01*
G01*
X128544000Y-114488000D02*
X128544000Y-114332000D01*
X128544000Y-116804000D02*
X128544000Y-116648000D01*
X125311665Y-116646608D02*
G75*
G03*
X128544000Y-116803516I1672335J1078608D01*
G01*
X125942870Y-116647837D02*
G75*
G03*
X128024961Y-116648000I1041130J1079837D01*
G01*
X128024961Y-114488000D02*
G75*
G03*
X125942870Y-114488163I-1040961J-1080000D01*
G01*
X128544000Y-114332484D02*
G75*
G03*
X125311665Y-114489392I-1560000J-1235516D01*
G01*
D12*
X42500000Y-94000000D02*
X45400000Y-94000000D01*
X42500000Y-104500000D02*
X45500000Y-104500000D01*
X48600000Y-94000000D02*
X51500000Y-94000000D01*
X42500000Y-104500000D02*
X42500000Y-94000000D01*
X51500000Y-104500000D02*
X51500000Y-94000000D01*
X48500000Y-104500000D02*
X51500000Y-104500000D01*
D13*
X47000000Y-97104999D02*
G75*
G03*
X45703737Y-102588577I0J-2895001D01*
G01*
X48296263Y-102588576D02*
G75*
G03*
X47000000Y-97105000I-1296263J2588576D01*
G01*
X48800000Y-100000000D02*
G75*
G03*
X48800000Y-100000000I-1800000J0D01*
G01*
D12*
X68600000Y-94000000D02*
X71500000Y-94000000D01*
X68500000Y-104500000D02*
X71500000Y-104500000D01*
X62500000Y-94000000D02*
X65400000Y-94000000D01*
X62500000Y-104500000D02*
X65500000Y-104500000D01*
X71500000Y-104500000D02*
X71500000Y-94000000D01*
X62500000Y-104500000D02*
X62500000Y-94000000D01*
D13*
X67000000Y-97104999D02*
G75*
G03*
X65703737Y-102588577I0J-2895001D01*
G01*
X68296263Y-102588576D02*
G75*
G03*
X67000000Y-97105000I-1296263J2588576D01*
G01*
X68800000Y-100000000D02*
G75*
G03*
X68800000Y-100000000I-1800000J0D01*
G01*
D12*
X82500000Y-94000000D02*
X85400000Y-94000000D01*
X82500000Y-104500000D02*
X85500000Y-104500000D01*
X88500000Y-104500000D02*
X91500000Y-104500000D01*
X82500000Y-104500000D02*
X82500000Y-94000000D01*
X88600000Y-94000000D02*
X91500000Y-94000000D01*
X91500000Y-104500000D02*
X91500000Y-94000000D01*
D13*
X88296263Y-102588576D02*
G75*
G03*
X87000000Y-97105000I-1296263J2588576D01*
G01*
X87000000Y-97104999D02*
G75*
G03*
X85703737Y-102588577I0J-2895001D01*
G01*
X88800000Y-100000000D02*
G75*
G03*
X88800000Y-100000000I-1800000J0D01*
G01*
D12*
X108600000Y-94000000D02*
X111500000Y-94000000D01*
X102500000Y-104500000D02*
X105500000Y-104500000D01*
X111500000Y-104500000D02*
X111500000Y-94000000D01*
X102500000Y-104500000D02*
X102500000Y-94000000D01*
X108500000Y-104500000D02*
X111500000Y-104500000D01*
X102500000Y-94000000D02*
X105400000Y-94000000D01*
D13*
X108296263Y-102588576D02*
G75*
G03*
X107000000Y-97105000I-1296263J2588576D01*
G01*
X107000000Y-97104999D02*
G75*
G03*
X105703737Y-102588577I0J-2895001D01*
G01*
X108800000Y-100000000D02*
G75*
G03*
X108800000Y-100000000I-1800000J0D01*
G01*
D11*
X51500000Y-132000000D02*
X51500000Y-192000000D01*
X42500000Y-132000000D02*
X42500000Y-192000000D01*
X42500000Y-132000000D02*
X51500000Y-132000000D01*
X42500000Y-192000000D02*
X51500000Y-192000000D01*
X42500000Y-139500000D02*
X42500000Y-184500000D01*
X62500000Y-132000000D02*
X62500000Y-192000000D01*
X62500000Y-192000000D02*
X71500000Y-192000000D01*
X62500000Y-132000000D02*
X71500000Y-132000000D01*
X62500000Y-139500000D02*
X62500000Y-184500000D01*
X71500000Y-132000000D02*
X71500000Y-192000000D01*
X82500000Y-132000000D02*
X91500000Y-132000000D01*
X82500000Y-132000000D02*
X82500000Y-192000000D01*
X91500000Y-132000000D02*
X91500000Y-192000000D01*
X82500000Y-139500000D02*
X82500000Y-184500000D01*
X82500000Y-192000000D02*
X91500000Y-192000000D01*
X102500000Y-132000000D02*
X102500000Y-192000000D01*
X102500000Y-132000000D02*
X111500000Y-132000000D01*
X111500000Y-132000000D02*
X111500000Y-192000000D01*
X102500000Y-139500000D02*
X102500000Y-184500000D01*
X102500000Y-192000000D02*
X111500000Y-192000000D01*
D12*
X28600000Y-94000000D02*
X31500000Y-94000000D01*
X22500000Y-104500000D02*
X22500000Y-94000000D01*
X31500000Y-104500000D02*
X31500000Y-94000000D01*
X22500000Y-104500000D02*
X25500000Y-104500000D01*
X28500000Y-104500000D02*
X31500000Y-104500000D01*
X22500000Y-94000000D02*
X25400000Y-94000000D01*
D13*
X28296263Y-102588576D02*
G75*
G03*
X27000000Y-97105000I-1296263J2588576D01*
G01*
X27000000Y-97104999D02*
G75*
G03*
X25703737Y-102588577I0J-2895001D01*
G01*
X28800000Y-100000000D02*
G75*
G03*
X28800000Y-100000000I-1800000J0D01*
G01*
D11*
X22500000Y-132000000D02*
X22500000Y-192000000D01*
X22500000Y-192000000D02*
X31500000Y-192000000D01*
X22500000Y-132000000D02*
X31500000Y-132000000D01*
X31500000Y-132000000D02*
X31500000Y-192000000D01*
X22500000Y-139500000D02*
X22500000Y-184500000D01*
X25520000Y-113534000D02*
X30020000Y-116034000D01*
X34020000Y-109334000D02*
X34020000Y-125734000D01*
X20020000Y-109334000D02*
X34020000Y-109334000D01*
X20020000Y-109334000D02*
X20020000Y-125734000D01*
X34020000Y-125734000D02*
X20020000Y-125734000D01*
X31020000Y-116034000D02*
G75*
G03*
X31020000Y-116034000I-4000000J0D01*
G01*
X30020000Y-116034000D02*
G75*
G03*
X30020000Y-116034000I-3000000J0D01*
G01*
X45520000Y-113534000D02*
X50020000Y-116034000D01*
X54020000Y-109334000D02*
X54020000Y-125734000D01*
X54020000Y-125734000D02*
X40020000Y-125734000D01*
X40020000Y-109334000D02*
X40020000Y-125734000D01*
X40020000Y-109334000D02*
X54020000Y-109334000D01*
X51020000Y-116034000D02*
G75*
G03*
X51020000Y-116034000I-4000000J0D01*
G01*
X50020000Y-116034000D02*
G75*
G03*
X50020000Y-116034000I-3000000J0D01*
G01*
X60020000Y-109334000D02*
X60020000Y-125734000D01*
X65520000Y-113534000D02*
X70020000Y-116034000D01*
X74020000Y-109334000D02*
X74020000Y-125734000D01*
X74020000Y-125734000D02*
X60020000Y-125734000D01*
X60020000Y-109334000D02*
X74020000Y-109334000D01*
X71020000Y-116034000D02*
G75*
G03*
X71020000Y-116034000I-4000000J0D01*
G01*
X70020000Y-116034000D02*
G75*
G03*
X70020000Y-116034000I-3000000J0D01*
G01*
X80020000Y-109334000D02*
X94020000Y-109334000D01*
X80020000Y-109334000D02*
X80020000Y-125734000D01*
X94020000Y-125734000D02*
X80020000Y-125734000D01*
X94020000Y-109334000D02*
X94020000Y-125734000D01*
X85520000Y-113534000D02*
X90020000Y-116034000D01*
X91020000Y-116034000D02*
G75*
G03*
X91020000Y-116034000I-4000000J0D01*
G01*
X90020000Y-116034000D02*
G75*
G03*
X90020000Y-116034000I-3000000J0D01*
G01*
D13*
X36814000Y-101919000D02*
X34214000Y-101919000D01*
X38084000Y-101919000D02*
X39414000Y-101919000D01*
X39414000Y-101919000D02*
X39414000Y-103249000D01*
X34214000Y-101919000D02*
X34214000Y-104579000D01*
X36814000Y-101919000D02*
X36814000Y-104579000D01*
X36814000Y-104579000D02*
X34214000Y-104579000D01*
M02*
