G04 #@! TF.GenerationSoftware,KiCad,Pcbnew,(6.0.7)*
G04 #@! TF.CreationDate,2022-08-25T22:48:20+02:00*
G04 #@! TF.ProjectId,mixerli,6d697865-726c-4692-9e6b-696361645f70,rev?*
G04 #@! TF.SameCoordinates,Original*
G04 #@! TF.FileFunction,Soldermask,Bot*
G04 #@! TF.FilePolarity,Negative*
%FSLAX46Y46*%
G04 Gerber Fmt 4.6, Leading zero omitted, Abs format (unit mm)*
G04 Created by KiCad (PCBNEW (6.0.7)) date 2022-08-25 22:48:20*
%MOMM*%
%LPD*%
G01*
G04 APERTURE LIST*
G04 Aperture macros list*
%AMRoundRect*
0 Rectangle with rounded corners*
0 $1 Rounding radius*
0 $2 $3 $4 $5 $6 $7 $8 $9 X,Y pos of 4 corners*
0 Add a 4 corners polygon primitive as box body*
4,1,4,$2,$3,$4,$5,$6,$7,$8,$9,$2,$3,0*
0 Add four circle primitives for the rounded corners*
1,1,$1+$1,$2,$3*
1,1,$1+$1,$4,$5*
1,1,$1+$1,$6,$7*
1,1,$1+$1,$8,$9*
0 Add four rect primitives between the rounded corners*
20,1,$1+$1,$2,$3,$4,$5,0*
20,1,$1+$1,$4,$5,$6,$7,0*
20,1,$1+$1,$6,$7,$8,$9,0*
20,1,$1+$1,$8,$9,$2,$3,0*%
%AMFreePoly0*
4,1,30,0.174003,0.741867,0.334039,0.684881,0.477472,0.593856,0.597174,0.473315,0.687196,0.329249,0.743064,0.168820,0.762000,0.000000,0.761703,-0.021276,0.738060,-0.189502,0.677735,-0.348309,0.583726,-0.489804,0.460705,-0.606956,0.314786,-0.693941,0.153221,-0.746436,-0.015958,-0.761833,-0.184344,-0.739365,-0.343569,-0.680150,-0.485717,-0.587131,-0.603725,-0.464931,-0.691726,-0.319622,
-0.745348,-0.158429,-0.761926,0.010639,-0.740634,0.179178,-0.682532,0.338812,-0.590508,0.481606,-0.469134,0.600464,-0.324444,0.689478,-0.163628,0.744224,0.005320,0.761981,0.174003,0.741867,0.174003,0.741867,$1*%
%AMFreePoly1*
4,1,6,1.000000,0.000000,0.500000,-0.750000,-0.500000,-0.750000,-0.500000,0.750000,0.500000,0.750000,1.000000,0.000000,1.000000,0.000000,$1*%
%AMFreePoly2*
4,1,6,0.500000,-0.750000,-0.650000,-0.750000,-0.150000,0.000000,-0.650000,0.750000,0.500000,0.750000,0.500000,-0.750000,0.500000,-0.750000,$1*%
G04 Aperture macros list end*
G04 #@! TA.AperFunction,Profile*
%ADD10C,0.100000*%
G04 #@! TD*
%ADD11RoundRect,0.650000X-0.650000X-0.650000X0.650000X-0.650000X0.650000X0.650000X-0.650000X0.650000X0*%
%ADD12O,3.100000X2.100000*%
%ADD13C,2.000000*%
%ADD14R,1.800000X1.800000*%
%ADD15C,1.800000*%
%ADD16RoundRect,1.000000X-1.000000X-1.000000X1.000000X-1.000000X1.000000X1.000000X-1.000000X1.000000X0*%
%ADD17FreePoly0,0.000000*%
%ADD18R,1.700000X1.700000*%
%ADD19O,1.700000X1.700000*%
%ADD20C,6.000000*%
%ADD21RoundRect,0.250000X0.650000X-0.325000X0.650000X0.325000X-0.650000X0.325000X-0.650000X-0.325000X0*%
%ADD22RoundRect,0.250000X0.325000X0.650000X-0.325000X0.650000X-0.325000X-0.650000X0.325000X-0.650000X0*%
%ADD23RoundRect,0.250000X-0.325000X-0.650000X0.325000X-0.650000X0.325000X0.650000X-0.325000X0.650000X0*%
%ADD24RoundRect,0.250000X-0.650000X0.325000X-0.650000X-0.325000X0.650000X-0.325000X0.650000X0.325000X0*%
%ADD25RoundRect,0.250000X1.250000X0.550000X-1.250000X0.550000X-1.250000X-0.550000X1.250000X-0.550000X0*%
%ADD26RoundRect,0.250000X-1.250000X-0.550000X1.250000X-0.550000X1.250000X0.550000X-1.250000X0.550000X0*%
%ADD27RoundRect,0.250000X-0.625000X0.312500X-0.625000X-0.312500X0.625000X-0.312500X0.625000X0.312500X0*%
%ADD28RoundRect,0.250000X0.312500X0.625000X-0.312500X0.625000X-0.312500X-0.625000X0.312500X-0.625000X0*%
%ADD29RoundRect,0.250000X-0.312500X-0.625000X0.312500X-0.625000X0.312500X0.625000X-0.312500X0.625000X0*%
%ADD30RoundRect,0.250000X0.625000X-0.312500X0.625000X0.312500X-0.625000X0.312500X-0.625000X-0.312500X0*%
%ADD31RoundRect,0.150000X0.825000X0.150000X-0.825000X0.150000X-0.825000X-0.150000X0.825000X-0.150000X0*%
%ADD32RoundRect,0.150000X0.512500X0.150000X-0.512500X0.150000X-0.512500X-0.150000X0.512500X-0.150000X0*%
%ADD33R,0.700000X1.150000*%
%ADD34R,0.800000X1.150000*%
%ADD35R,0.900000X1.150000*%
%ADD36O,1.000000X1.700000*%
%ADD37FreePoly1,180.000000*%
%ADD38FreePoly2,180.000000*%
%ADD39FreePoly1,90.000000*%
%ADD40FreePoly2,90.000000*%
%ADD41RoundRect,0.250000X-0.625000X0.350000X-0.625000X-0.350000X0.625000X-0.350000X0.625000X0.350000X0*%
%ADD42O,1.750000X1.200000*%
%ADD43RoundRect,0.150000X-0.150000X0.587500X-0.150000X-0.587500X0.150000X-0.587500X0.150000X0.587500X0*%
%ADD44R,0.600000X0.450000*%
%ADD45C,1.200000*%
G04 APERTURE END LIST*
D10*
X14000000Y-88000000D02*
X14000000Y-196000000D01*
X140000000Y-88000000D02*
X14000000Y-88000000D01*
X14000000Y-196000000D02*
X140000000Y-196000000D01*
X140000000Y-88000000D02*
X140000000Y-196000000D01*
D11*
X107000000Y-119380000D03*
D12*
X107000000Y-122480000D03*
D11*
X107000000Y-111080000D03*
X127000000Y-103380000D03*
D12*
X127000000Y-106480000D03*
D11*
X127000000Y-95080000D03*
D13*
X125750000Y-189500000D03*
X123250000Y-189500000D03*
X125750000Y-134500000D03*
X130750000Y-189500000D03*
X128250000Y-189500000D03*
X130750000Y-134500000D03*
D14*
X23855000Y-90422000D03*
D15*
X26395000Y-90422000D03*
D14*
X128254000Y-115568000D03*
D15*
X125714000Y-115568000D03*
D11*
X47000000Y-103380000D03*
D12*
X47000000Y-106480000D03*
D11*
X47000000Y-95080000D03*
X67000000Y-103380000D03*
D12*
X67000000Y-106480000D03*
D11*
X67000000Y-95080000D03*
X87000000Y-103380000D03*
D12*
X87000000Y-106480000D03*
D11*
X87000000Y-95080000D03*
X107000000Y-103380000D03*
D12*
X107000000Y-106480000D03*
D11*
X107000000Y-95080000D03*
D13*
X45750000Y-189500000D03*
X43250000Y-189500000D03*
X45750000Y-134500000D03*
X50750000Y-189500000D03*
X48250000Y-189500000D03*
X50750000Y-134500000D03*
X65750000Y-189500000D03*
X63250000Y-189500000D03*
X65750000Y-134500000D03*
X70750000Y-189500000D03*
X68250000Y-189500000D03*
X70750000Y-134500000D03*
X85750000Y-189500000D03*
X83250000Y-189500000D03*
X85750000Y-134500000D03*
X90750000Y-189500000D03*
X88250000Y-189500000D03*
X90750000Y-134500000D03*
X105750000Y-189500000D03*
X103250000Y-189500000D03*
X105750000Y-134500000D03*
X110750000Y-189500000D03*
X108250000Y-189500000D03*
X110750000Y-134500000D03*
D11*
X27000000Y-103380000D03*
D12*
X27000000Y-106480000D03*
D11*
X27000000Y-95080000D03*
D13*
X25750000Y-189500000D03*
X23250000Y-189500000D03*
X25750000Y-134500000D03*
X30750000Y-189500000D03*
X28250000Y-189500000D03*
X30750000Y-134500000D03*
D16*
X33670000Y-116034000D03*
D17*
X21020000Y-127034000D03*
X33020000Y-127034000D03*
D16*
X20370000Y-116034000D03*
D17*
X23020000Y-127034000D03*
X27020000Y-127034000D03*
X31020000Y-127034000D03*
X25020000Y-127034000D03*
X29020000Y-127034000D03*
D16*
X53670000Y-116034000D03*
X40370000Y-116034000D03*
D17*
X41020000Y-127034000D03*
X53020000Y-127034000D03*
X43020000Y-127034000D03*
X47020000Y-127034000D03*
X51020000Y-127034000D03*
X45020000Y-127034000D03*
X49020000Y-127034000D03*
D16*
X60370000Y-116034000D03*
X73670000Y-116034000D03*
D17*
X61020000Y-127034000D03*
X73020000Y-127034000D03*
X63020000Y-127034000D03*
X67020000Y-127034000D03*
X71020000Y-127034000D03*
X65020000Y-127034000D03*
X69020000Y-127034000D03*
X93020000Y-127034000D03*
D16*
X93670000Y-116034000D03*
D17*
X81020000Y-127034000D03*
D16*
X80370000Y-116034000D03*
D17*
X83020000Y-127034000D03*
X87020000Y-127034000D03*
X91020000Y-127034000D03*
X85020000Y-127034000D03*
X89020000Y-127034000D03*
D18*
X38084000Y-103249000D03*
D19*
X35544000Y-103249000D03*
D20*
X18000000Y-192000000D03*
X18000000Y-92000000D03*
X136000000Y-192000000D03*
X136000000Y-92000000D03*
D21*
X113776000Y-143205000D03*
X113776000Y-140255000D03*
D22*
X109790000Y-145540000D03*
X106840000Y-145540000D03*
D23*
X111031000Y-137158000D03*
X113981000Y-137158000D03*
D21*
X113776000Y-129489000D03*
X113776000Y-126539000D03*
X102854000Y-130505000D03*
X102854000Y-127555000D03*
D24*
X134350000Y-140001000D03*
X134350000Y-142951000D03*
D21*
X123174000Y-143459000D03*
X123174000Y-140509000D03*
D25*
X116230000Y-110488000D03*
X111830000Y-110488000D03*
X101752000Y-110488000D03*
X97352000Y-110488000D03*
D22*
X129983000Y-146048000D03*
X127033000Y-146048000D03*
D23*
X127287000Y-137158000D03*
X130237000Y-137158000D03*
X129319000Y-157478000D03*
X132269000Y-157478000D03*
X127033000Y-148842000D03*
X129983000Y-148842000D03*
D25*
X134264000Y-110488000D03*
X129864000Y-110488000D03*
X125628000Y-110488000D03*
X121228000Y-110488000D03*
D26*
X45155000Y-164590000D03*
X49555000Y-164590000D03*
D25*
X49555000Y-170940000D03*
X45155000Y-170940000D03*
D24*
X21955000Y-151685000D03*
X21955000Y-154635000D03*
X53705000Y-151685000D03*
X53705000Y-154635000D03*
D22*
X29145000Y-157605000D03*
X26195000Y-157605000D03*
X49465000Y-157605000D03*
X46515000Y-157605000D03*
D23*
X26195000Y-148715000D03*
X29145000Y-148715000D03*
X46515000Y-148715000D03*
X49465000Y-148715000D03*
D26*
X65475000Y-164590000D03*
X69875000Y-164590000D03*
D25*
X69875000Y-170940000D03*
X65475000Y-170940000D03*
D24*
X73390000Y-151685000D03*
X73390000Y-154635000D03*
X61960000Y-151685000D03*
X61960000Y-154635000D03*
D22*
X69785000Y-157605000D03*
X66835000Y-157605000D03*
D23*
X66200000Y-148715000D03*
X69150000Y-148715000D03*
D26*
X85160000Y-164590000D03*
X89560000Y-164590000D03*
D25*
X89560000Y-170940000D03*
X85160000Y-170940000D03*
D24*
X93710000Y-151685000D03*
X93710000Y-154635000D03*
X82280000Y-151685000D03*
X82280000Y-154635000D03*
D22*
X90105000Y-157605000D03*
X87155000Y-157605000D03*
D23*
X86520000Y-148715000D03*
X89470000Y-148715000D03*
D26*
X105480000Y-164590000D03*
X109880000Y-164590000D03*
D25*
X109880000Y-170940000D03*
X105480000Y-170940000D03*
D24*
X114030000Y-151685000D03*
X114030000Y-154635000D03*
X102600000Y-151685000D03*
X102600000Y-154635000D03*
D22*
X110425000Y-157605000D03*
X107475000Y-157605000D03*
D23*
X106967000Y-149096000D03*
X109917000Y-149096000D03*
D21*
X53070000Y-92659000D03*
X53070000Y-89709000D03*
X61960000Y-92659000D03*
X61960000Y-89709000D03*
D27*
X116570000Y-140267500D03*
X116570000Y-143192500D03*
X100060000Y-140775500D03*
X100060000Y-143700500D03*
X116570000Y-135441500D03*
X116570000Y-138366500D03*
X100060000Y-135949500D03*
X100060000Y-138874500D03*
X116570000Y-126551500D03*
X116570000Y-129476500D03*
X100314000Y-127567500D03*
X100314000Y-130492500D03*
X116570000Y-121725500D03*
X116570000Y-124650500D03*
X102854000Y-122741500D03*
X102854000Y-125666500D03*
X137144000Y-140013500D03*
X137144000Y-142938500D03*
X120634000Y-140521500D03*
X120634000Y-143446500D03*
D28*
X118032500Y-105408000D03*
X115107500Y-105408000D03*
X136574500Y-152398000D03*
X133649500Y-152398000D03*
D29*
X120187500Y-152652000D03*
X123112500Y-152652000D03*
D28*
X134542500Y-105408000D03*
X131617500Y-105408000D03*
D29*
X119933500Y-105408000D03*
X122858500Y-105408000D03*
D27*
X35925000Y-156777500D03*
X35925000Y-159702500D03*
X19415000Y-156777500D03*
X19415000Y-159702500D03*
X56245000Y-156777500D03*
X56245000Y-159702500D03*
X39735000Y-156777500D03*
X39735000Y-159702500D03*
D29*
X26207500Y-160145000D03*
X29132500Y-160145000D03*
X46527500Y-160145000D03*
X49452500Y-160145000D03*
D28*
X48062500Y-175385000D03*
X45137500Y-175385000D03*
D27*
X35925000Y-151697500D03*
X35925000Y-154622500D03*
X19415000Y-151697500D03*
X19415000Y-154622500D03*
X56245000Y-151697500D03*
X56245000Y-154622500D03*
X75930000Y-156777500D03*
X75930000Y-159702500D03*
X59420000Y-156777500D03*
X59420000Y-159702500D03*
D29*
X66847500Y-160145000D03*
X69772500Y-160145000D03*
D28*
X68062500Y-175385000D03*
X65137500Y-175385000D03*
D27*
X75930000Y-151697500D03*
X75930000Y-154622500D03*
X59420000Y-151697500D03*
X59420000Y-154622500D03*
D30*
X21955000Y-124142500D03*
X21955000Y-121217500D03*
X33385000Y-124142500D03*
X33385000Y-121217500D03*
X25892000Y-124142500D03*
X25892000Y-121217500D03*
X29702000Y-124142500D03*
X29702000Y-121217500D03*
X42275000Y-124142500D03*
X42275000Y-121217500D03*
X54340000Y-124142500D03*
X54340000Y-121217500D03*
X47037500Y-124142500D03*
X47037500Y-121217500D03*
X50022000Y-124142500D03*
X50022000Y-121217500D03*
X61960000Y-124142500D03*
X61960000Y-121217500D03*
X73898000Y-124142500D03*
X73898000Y-121217500D03*
X66976500Y-124142500D03*
X66976500Y-121217500D03*
X70024500Y-124142500D03*
X70024500Y-121217500D03*
X81645000Y-124142500D03*
X81645000Y-121217500D03*
X93710000Y-124142500D03*
X93710000Y-121217500D03*
X86852000Y-124142500D03*
X86852000Y-121217500D03*
X90027000Y-124142500D03*
X90027000Y-121217500D03*
X116570000Y-149796500D03*
X116570000Y-146871500D03*
X100060000Y-149796500D03*
X100060000Y-146871500D03*
D27*
X96250000Y-156777500D03*
X96250000Y-159702500D03*
X79740000Y-156777500D03*
X79740000Y-159702500D03*
D29*
X87167500Y-160145000D03*
X90092500Y-160145000D03*
D28*
X88062500Y-175385000D03*
X85137500Y-175385000D03*
D27*
X96250000Y-151697500D03*
X96250000Y-154622500D03*
X79740000Y-151697500D03*
X79740000Y-154622500D03*
X116570000Y-156777500D03*
X116570000Y-159702500D03*
X100060000Y-156777500D03*
X100060000Y-159702500D03*
D29*
X107487500Y-160145000D03*
X110412500Y-160145000D03*
D28*
X108062500Y-175385000D03*
X105137500Y-175385000D03*
D27*
X116570000Y-151697500D03*
X116570000Y-154622500D03*
X100060000Y-151697500D03*
X100060000Y-154622500D03*
D29*
X56687500Y-91184000D03*
X59612500Y-91184000D03*
D30*
X122920000Y-119570500D03*
X122920000Y-116645500D03*
D31*
X110663000Y-139571000D03*
X110663000Y-140841000D03*
X110663000Y-142111000D03*
X110663000Y-143381000D03*
X105713000Y-143381000D03*
X105713000Y-142111000D03*
X105713000Y-140841000D03*
X105713000Y-139571000D03*
X110663000Y-126109000D03*
X110663000Y-127379000D03*
X110663000Y-128649000D03*
X110663000Y-129919000D03*
X105713000Y-129919000D03*
X105713000Y-128649000D03*
X105713000Y-127379000D03*
X105713000Y-126109000D03*
X131237000Y-139825000D03*
X131237000Y-141095000D03*
X131237000Y-142365000D03*
X131237000Y-143635000D03*
X126287000Y-143635000D03*
X126287000Y-142365000D03*
X126287000Y-141095000D03*
X126287000Y-139825000D03*
X131237000Y-151255000D03*
X131237000Y-152525000D03*
X131237000Y-153795000D03*
X131237000Y-155065000D03*
X126287000Y-155065000D03*
X126287000Y-153795000D03*
X126287000Y-152525000D03*
X126287000Y-151255000D03*
X30145000Y-151255000D03*
X30145000Y-152525000D03*
X30145000Y-153795000D03*
X30145000Y-155065000D03*
X25195000Y-155065000D03*
X25195000Y-153795000D03*
X25195000Y-152525000D03*
X25195000Y-151255000D03*
X50465000Y-151255000D03*
X50465000Y-152525000D03*
X50465000Y-153795000D03*
X50465000Y-155065000D03*
X45515000Y-155065000D03*
X45515000Y-153795000D03*
X45515000Y-152525000D03*
X45515000Y-151255000D03*
X70150000Y-151255000D03*
X70150000Y-152525000D03*
X70150000Y-153795000D03*
X70150000Y-155065000D03*
X65200000Y-155065000D03*
X65200000Y-153795000D03*
X65200000Y-152525000D03*
X65200000Y-151255000D03*
X90470000Y-151255000D03*
X90470000Y-152525000D03*
X90470000Y-153795000D03*
X90470000Y-155065000D03*
X85520000Y-155065000D03*
X85520000Y-153795000D03*
X85520000Y-152525000D03*
X85520000Y-151255000D03*
X110790000Y-151255000D03*
X110790000Y-152525000D03*
X110790000Y-153795000D03*
X110790000Y-155065000D03*
X105840000Y-155065000D03*
X105840000Y-153795000D03*
X105840000Y-152525000D03*
X105840000Y-151255000D03*
D32*
X59287500Y-94044000D03*
X59287500Y-94994000D03*
X59287500Y-95944000D03*
X57012500Y-95944000D03*
X57012500Y-94044000D03*
D26*
X25470000Y-164590000D03*
X29870000Y-164590000D03*
D25*
X29870000Y-170940000D03*
X25470000Y-170940000D03*
D28*
X101014500Y-105408000D03*
X98089500Y-105408000D03*
D24*
X33385000Y-151685000D03*
X33385000Y-154635000D03*
D27*
X39735000Y-151697500D03*
X39735000Y-154622500D03*
D24*
X42275000Y-151685000D03*
X42275000Y-154635000D03*
D28*
X28062500Y-175385000D03*
X25137500Y-175385000D03*
D21*
X102854000Y-143713000D03*
X102854000Y-140763000D03*
D22*
X109663000Y-131934000D03*
X106713000Y-131934000D03*
D23*
X110015000Y-123696000D03*
X112965000Y-123696000D03*
D33*
X36441000Y-94476000D03*
D34*
X38461000Y-94476000D03*
D35*
X39691000Y-94476000D03*
D33*
X37441000Y-94476000D03*
D34*
X35421000Y-94476000D03*
D35*
X34191000Y-94476000D03*
D36*
X41261000Y-94476000D03*
X32621000Y-94476000D03*
X32621000Y-90676000D03*
X41261000Y-90676000D03*
D27*
X29575000Y-90168000D03*
X29575000Y-93093000D03*
D37*
X48969000Y-137920000D03*
D38*
X47519000Y-137920000D03*
D37*
X69035000Y-137920000D03*
D38*
X67585000Y-137920000D03*
D37*
X89064000Y-137920000D03*
D38*
X87614000Y-137920000D03*
D39*
X108315000Y-135470000D03*
D40*
X108315000Y-134020000D03*
D18*
X134284000Y-163534000D03*
X134284000Y-166074000D03*
X134284000Y-168614000D03*
X134284000Y-171154000D03*
X134284000Y-173694000D03*
D29*
X55925500Y-98804000D03*
X58850500Y-98804000D03*
D18*
X66420000Y-89834000D03*
D19*
X66420000Y-92374000D03*
D41*
X71270000Y-91334000D03*
D42*
X71270000Y-93334000D03*
D43*
X56565000Y-102565500D03*
X58465000Y-102565500D03*
X57515000Y-104440500D03*
D44*
X58565000Y-106805000D03*
X56465000Y-106805000D03*
D37*
X29030000Y-137920000D03*
D38*
X27580000Y-137920000D03*
D45*
X124222000Y-90422000D03*
X126222000Y-90422000D03*
X128222000Y-90422000D03*
M02*
