M48
INCH,TZ
T1C0.0197
T2C0.0236
T3C0.0276
T4C0.0295
T5C0.0315
T6C0.0354
T7C0.0394
T8C0.0433
T9C0.1181
%
G90
G05
T3
X48906Y-35599
X49694Y-35599
X50481Y-35599
T4
X28059Y-35958
X28059Y-36746
T5
X10294Y-57599
X11425Y-56785
X12994Y-61699
X18294Y-57599
X19220Y-56706
X20894Y-61699
X25094Y-37099
X25994Y-57599
X27173Y-56706
X28794Y-61699
X30047Y-50053
X34094Y-57699
X35362Y-56785
X36594Y-61699
X40294Y-52999
X40294Y-54199
X41394Y-57099
X41394Y-58699
X42794Y-64099
X43994Y-57299
X44394Y-58699
X44494Y-61699
X44794Y-57161
X45894Y-57099
X47294Y-40599
X47294Y-59199
X47394Y-45599
X48565Y-59278
X48694Y-57299
X49021Y-58599
X49394Y-47099
X50575Y-63160
X52594Y-61399
X53094Y-57699
T6
X9392Y-35599
X10392Y-35599
X49494Y-45499
X50494Y-45499
T7
X8276Y-50013
X9063Y-50013
X9850Y-50013
X10638Y-50013
X11425Y-50013
X12213Y-50013
X13000Y-50013
X13994Y-40649
X14994Y-40649
X16150Y-50013
X16937Y-50013
X17724Y-50013
X18512Y-50013
X19299Y-50013
X20087Y-50013
X20874Y-50013
X24024Y-50013
X24811Y-50013
X25598Y-50013
X26150Y-35368
X26150Y-36368
X26386Y-50013
X27173Y-50013
X27961Y-50013
X28748Y-50013
X31898Y-50013
X32685Y-50013
X33472Y-50013
X34260Y-50013
X35047Y-50013
X35835Y-50013
X36622Y-50013
X52868Y-64383
X52868Y-65383
X52868Y-66383
X52868Y-67383
X52868Y-68383
T8
X9154Y-74606
X10138Y-52953
X10138Y-74606
X11122Y-74606
X12106Y-52953
X12106Y-74606
X17028Y-74606
X18012Y-52953
X18012Y-74606
X18996Y-74606
X19980Y-52953
X19980Y-74606
X24902Y-74606
X25886Y-52953
X25886Y-74606
X26870Y-74606
X27854Y-52953
X27854Y-74606
X32776Y-74606
X33760Y-52953
X33760Y-74606
X34744Y-74606
X35728Y-52953
X35728Y-74606
X40650Y-74606
X41634Y-52953
X41634Y-74606
X42618Y-74606
X43602Y-52953
X43602Y-74606
X48524Y-74606
X49508Y-52953
X49508Y-74606
X50492Y-74606
X51476Y-52953
X51476Y-74606
T9
X7087Y-36220
X7087Y-75591
X53543Y-36220
X53543Y-75591
T1
G00X12843Y-35561
M15
G01X12843Y-35837
M16
G05
G00X12843Y-37057
M15
G01X12843Y-37333
M16
G05
G00X16244Y-35561
M15
G01X16244Y-35837
M16
G05
G00X16244Y-37057
M15
G01X16244Y-37333
M16
G05
T2
G00X10433Y-37433
M15
G01X10827Y-37433
M16
G05
G00X10433Y-40701
M15
G01X10827Y-40701
M16
G05
G00X10433Y-41921
M15
G01X10827Y-41921
M16
G05
G00X18307Y-37433
M15
G01X18701Y-37433
M16
G05
G00X18307Y-40701
M15
G01X18701Y-40701
M16
G05
G00X18307Y-41921
M15
G01X18701Y-41921
M16
G05
G00X26181Y-37433
M15
G01X26575Y-37433
M16
G05
G00X26181Y-40701
M15
G01X26575Y-40701
M16
G05
G00X26181Y-41921
M15
G01X26575Y-41921
M16
G05
G00X34055Y-37433
M15
G01X34449Y-37433
M16
G05
G00X34055Y-40701
M15
G01X34449Y-40701
M16
G05
G00X34055Y-41921
M15
G01X34449Y-41921
M16
G05
G00X41929Y-37433
M15
G01X42323Y-37433
M16
G05
G00X41929Y-40701
M15
G01X42323Y-40701
M16
G05
G00X41929Y-41921
M15
G01X42323Y-41921
M16
G05
G00X41929Y-43732
M15
G01X42323Y-43732
M16
G05
G00X41929Y-47000
M15
G01X42323Y-47000
M16
G05
G00X41929Y-48220
M15
G01X42323Y-48220
M16
G05
G00X49803Y-37433
M15
G01X50197Y-37433
M16
G05
G00X49803Y-40701
M15
G01X50197Y-40701
M16
G05
G00X49803Y-41921
M15
G01X50197Y-41921
M16
G05
T0
M30
