G04 #@! TF.GenerationSoftware,KiCad,Pcbnew,(6.0.7)*
G04 #@! TF.CreationDate,2022-08-25T22:48:20+02:00*
G04 #@! TF.ProjectId,mixerli,6d697865-726c-4692-9e6b-696361645f70,rev?*
G04 #@! TF.SameCoordinates,Original*
G04 #@! TF.FileFunction,Soldermask,Top*
G04 #@! TF.FilePolarity,Negative*
%FSLAX46Y46*%
G04 Gerber Fmt 4.6, Leading zero omitted, Abs format (unit mm)*
G04 Created by KiCad (PCBNEW (6.0.7)) date 2022-08-25 22:48:20*
%MOMM*%
%LPD*%
G01*
G04 APERTURE LIST*
G04 Aperture macros list*
%AMRoundRect*
0 Rectangle with rounded corners*
0 $1 Rounding radius*
0 $2 $3 $4 $5 $6 $7 $8 $9 X,Y pos of 4 corners*
0 Add a 4 corners polygon primitive as box body*
4,1,4,$2,$3,$4,$5,$6,$7,$8,$9,$2,$3,0*
0 Add four circle primitives for the rounded corners*
1,1,$1+$1,$2,$3*
1,1,$1+$1,$4,$5*
1,1,$1+$1,$6,$7*
1,1,$1+$1,$8,$9*
0 Add four rect primitives between the rounded corners*
20,1,$1+$1,$2,$3,$4,$5,0*
20,1,$1+$1,$4,$5,$6,$7,0*
20,1,$1+$1,$6,$7,$8,$9,0*
20,1,$1+$1,$8,$9,$2,$3,0*%
%AMFreePoly0*
4,1,30,0.174003,0.741867,0.334039,0.684881,0.477472,0.593856,0.597174,0.473315,0.687196,0.329249,0.743064,0.168820,0.762000,0.000000,0.761703,-0.021276,0.738060,-0.189502,0.677735,-0.348309,0.583726,-0.489804,0.460705,-0.606956,0.314786,-0.693941,0.153221,-0.746436,-0.015958,-0.761833,-0.184344,-0.739365,-0.343569,-0.680150,-0.485717,-0.587131,-0.603725,-0.464931,-0.691726,-0.319622,
-0.745348,-0.158429,-0.761926,0.010639,-0.740634,0.179178,-0.682532,0.338812,-0.590508,0.481606,-0.469134,0.600464,-0.324444,0.689478,-0.163628,0.744224,0.005320,0.761981,0.174003,0.741867,0.174003,0.741867,$1*%
G04 Aperture macros list end*
G04 #@! TA.AperFunction,Profile*
%ADD10C,0.100000*%
G04 #@! TD*
%ADD11RoundRect,0.650000X-0.650000X-0.650000X0.650000X-0.650000X0.650000X0.650000X-0.650000X0.650000X0*%
%ADD12O,3.100000X2.100000*%
%ADD13C,2.000000*%
%ADD14R,1.800000X1.800000*%
%ADD15C,1.800000*%
%ADD16RoundRect,1.000000X-1.000000X-1.000000X1.000000X-1.000000X1.000000X1.000000X-1.000000X1.000000X0*%
%ADD17FreePoly0,0.000000*%
%ADD18R,1.700000X1.700000*%
%ADD19O,1.700000X1.700000*%
%ADD20C,6.000000*%
%ADD21O,1.000000X1.700000*%
%ADD22RoundRect,0.250000X-0.625000X0.350000X-0.625000X-0.350000X0.625000X-0.350000X0.625000X0.350000X0*%
%ADD23O,1.750000X1.200000*%
%ADD24C,1.200000*%
G04 APERTURE END LIST*
D10*
X14000000Y-88000000D02*
X14000000Y-196000000D01*
X140000000Y-88000000D02*
X14000000Y-88000000D01*
X14000000Y-196000000D02*
X140000000Y-196000000D01*
X140000000Y-88000000D02*
X140000000Y-196000000D01*
D11*
X107000000Y-119380000D03*
D12*
X107000000Y-122480000D03*
D11*
X107000000Y-111080000D03*
X127000000Y-103380000D03*
D12*
X127000000Y-106480000D03*
D11*
X127000000Y-95080000D03*
D13*
X125750000Y-189500000D03*
X123250000Y-189500000D03*
X125750000Y-134500000D03*
X130750000Y-189500000D03*
X128250000Y-189500000D03*
X130750000Y-134500000D03*
D14*
X23855000Y-90422000D03*
D15*
X26395000Y-90422000D03*
D14*
X128254000Y-115568000D03*
D15*
X125714000Y-115568000D03*
D11*
X47000000Y-103380000D03*
D12*
X47000000Y-106480000D03*
D11*
X47000000Y-95080000D03*
X67000000Y-103380000D03*
D12*
X67000000Y-106480000D03*
D11*
X67000000Y-95080000D03*
X87000000Y-103380000D03*
D12*
X87000000Y-106480000D03*
D11*
X87000000Y-95080000D03*
X107000000Y-103380000D03*
D12*
X107000000Y-106480000D03*
D11*
X107000000Y-95080000D03*
D13*
X45750000Y-189500000D03*
X43250000Y-189500000D03*
X45750000Y-134500000D03*
X50750000Y-189500000D03*
X48250000Y-189500000D03*
X50750000Y-134500000D03*
X65750000Y-189500000D03*
X63250000Y-189500000D03*
X65750000Y-134500000D03*
X70750000Y-189500000D03*
X68250000Y-189500000D03*
X70750000Y-134500000D03*
X85750000Y-189500000D03*
X83250000Y-189500000D03*
X85750000Y-134500000D03*
X90750000Y-189500000D03*
X88250000Y-189500000D03*
X90750000Y-134500000D03*
X105750000Y-189500000D03*
X103250000Y-189500000D03*
X105750000Y-134500000D03*
X110750000Y-189500000D03*
X108250000Y-189500000D03*
X110750000Y-134500000D03*
D11*
X27000000Y-103380000D03*
D12*
X27000000Y-106480000D03*
D11*
X27000000Y-95080000D03*
D13*
X25750000Y-189500000D03*
X23250000Y-189500000D03*
X25750000Y-134500000D03*
X30750000Y-189500000D03*
X28250000Y-189500000D03*
X30750000Y-134500000D03*
D16*
X33670000Y-116034000D03*
D17*
X21020000Y-127034000D03*
X33020000Y-127034000D03*
D16*
X20370000Y-116034000D03*
D17*
X23020000Y-127034000D03*
X27020000Y-127034000D03*
X31020000Y-127034000D03*
X25020000Y-127034000D03*
X29020000Y-127034000D03*
D16*
X53670000Y-116034000D03*
X40370000Y-116034000D03*
D17*
X41020000Y-127034000D03*
X53020000Y-127034000D03*
X43020000Y-127034000D03*
X47020000Y-127034000D03*
X51020000Y-127034000D03*
X45020000Y-127034000D03*
X49020000Y-127034000D03*
D16*
X60370000Y-116034000D03*
X73670000Y-116034000D03*
D17*
X61020000Y-127034000D03*
X73020000Y-127034000D03*
X63020000Y-127034000D03*
X67020000Y-127034000D03*
X71020000Y-127034000D03*
X65020000Y-127034000D03*
X69020000Y-127034000D03*
X93020000Y-127034000D03*
D16*
X93670000Y-116034000D03*
D17*
X81020000Y-127034000D03*
D16*
X80370000Y-116034000D03*
D17*
X83020000Y-127034000D03*
X87020000Y-127034000D03*
X91020000Y-127034000D03*
X85020000Y-127034000D03*
X89020000Y-127034000D03*
D18*
X38084000Y-103249000D03*
D19*
X35544000Y-103249000D03*
D20*
X18000000Y-192000000D03*
X18000000Y-92000000D03*
X136000000Y-192000000D03*
X136000000Y-92000000D03*
D21*
X41261000Y-94476000D03*
X32621000Y-94476000D03*
X32621000Y-90676000D03*
X41261000Y-90676000D03*
D18*
X134284000Y-163534000D03*
X134284000Y-166074000D03*
X134284000Y-168614000D03*
X134284000Y-171154000D03*
X134284000Y-173694000D03*
X66420000Y-89834000D03*
D19*
X66420000Y-92374000D03*
D22*
X71270000Y-91334000D03*
D23*
X71270000Y-93334000D03*
D24*
X124222000Y-90422000D03*
X126222000Y-90422000D03*
X128222000Y-90422000D03*
M02*
