M48
INCH,TZ
T1C0.020
T2C0.022
T3C0.028
T4C0.031
T5C0.035
T6C0.039
T7C0.043
T8C0.114
%
G90
G05
T3
X48906Y-35599
X49694Y-35599
X50481Y-35599
T4
X10294Y-57599
X12994Y-61699
X15144Y-47549
X18294Y-57599
X19894Y-47549
X20894Y-61699
X23394Y-47549
X25994Y-57599
X27894Y-47549
X28794Y-61699
X31144Y-47549
X34094Y-57699
X35894Y-47549
X36594Y-61699
X37994Y-56799
X40294Y-52999
X40294Y-54199
X41194Y-56925
X41394Y-58699
X43994Y-57399
X44494Y-59099
X44494Y-61699
X44794Y-57299
X45894Y-57099
X47294Y-40599
X47294Y-59199
X47394Y-45599
X48565Y-59278
X48694Y-57299
X49021Y-58599
X50094Y-62699
X52594Y-61399
T5
X14044Y-35899
X15044Y-35899
X49494Y-45499
X50494Y-45499
T6
X8661Y-50000
X9449Y-50000
X10236Y-50000
X11024Y-50000
X11811Y-50000
X12598Y-50000
X14087Y-38596
X15087Y-38596
X16535Y-50000
X17323Y-50000
X18110Y-50000
X18898Y-50000
X19685Y-50000
X20472Y-50000
X21894Y-43199
X22894Y-43199
X24409Y-50000
X25197Y-50000
X25984Y-50000
X26772Y-50000
X27559Y-50000
X28346Y-50000
X32283Y-50000
X33071Y-50000
X33858Y-50000
X34646Y-50000
X35433Y-50000
X36220Y-50000
T7
X9154Y-74606
X10138Y-52953
X10138Y-74606
X11122Y-74606
X12106Y-52953
X12106Y-74606
X17028Y-74606
X18012Y-52953
X18012Y-74606
X18996Y-74606
X19980Y-52953
X19980Y-74606
X24902Y-74606
X25886Y-52953
X25886Y-74606
X26870Y-74606
X27854Y-52953
X27854Y-74606
X32776Y-74606
X33760Y-52953
X33760Y-74606
X34744Y-74606
X35728Y-52953
X35728Y-74606
X40650Y-74606
X41634Y-52953
X41634Y-74606
X42618Y-74606
X43602Y-52953
X43602Y-74606
X48524Y-74606
X49508Y-52953
X49508Y-74606
X50492Y-74606
X51476Y-52953
X51476Y-74606
T8
X9173Y-39370
X10630Y-37992
X10630Y-41142
X12087Y-39370
X17047Y-39370
X18504Y-37992
X18504Y-41142
X19961Y-39370
X24921Y-39370
X26378Y-37992
X26378Y-41142
X27835Y-39370
X32795Y-39370
X34252Y-37992
X34252Y-41142
X35709Y-39370
X40669Y-39370
X40669Y-45669
X42126Y-37992
X42126Y-41142
X42126Y-44291
X42126Y-47441
X43583Y-39370
X43583Y-45669
X48543Y-39370
X50000Y-37992
X50000Y-41142
X51457Y-39370
T1
X9466Y-35140G85X9466Y-35396
G05
X12222Y-35140G85X12222Y-35396
G05
T2
X9919Y-36331G85X9800Y-36331
G05
X11887Y-36331G85X11769Y-36331
G05
T0
M30
