G04 #@! TF.FileFunction,Copper,L1,Top,Signal*
%FSLAX46Y46*%
G04 Gerber Fmt 4.6, Leading zero omitted, Abs format (unit mm)*
G04 Created by KiCad (PCBNEW 4.0.6) date Fri Jul 14 20:21:39 2017*
%MOMM*%
%LPD*%
G01*
G04 APERTURE LIST*
%ADD10C,0.100000*%
%ADD11C,3.900000*%
%ADD12R,2.600000X3.000000*%
%ADD13C,1.500000*%
%ADD14R,1.800000X1.800000*%
%ADD15C,1.800000*%
%ADD16R,1.700000X1.700000*%
%ADD17O,1.700000X1.700000*%
%ADD18R,0.400000X1.350000*%
%ADD19O,1.250000X0.950000*%
%ADD20O,1.000000X1.550000*%
%ADD21C,2.000000*%
%ADD22C,1.200000*%
%ADD23C,1.000000*%
%ADD24C,0.300000*%
%ADD25C,0.254000*%
G04 APERTURE END LIST*
D10*
D11*
X103300000Y-116000000D03*
X107000000Y-112500000D03*
X107000000Y-120500000D03*
X110700000Y-116000000D03*
X123300000Y-100000000D03*
X127000000Y-96500000D03*
X127000000Y-104500000D03*
X130700000Y-100000000D03*
X23300000Y-100000000D03*
X27000000Y-96500000D03*
X27000000Y-104500000D03*
X30700000Y-100000000D03*
X43300000Y-100000000D03*
X47000000Y-96500000D03*
X47000000Y-104500000D03*
X50700000Y-100000000D03*
X63300000Y-100000000D03*
X67000000Y-96500000D03*
X67000000Y-104500000D03*
X70700000Y-100000000D03*
X83300000Y-100000000D03*
X87000000Y-96500000D03*
X87000000Y-104500000D03*
X90700000Y-100000000D03*
X103300000Y-100000000D03*
X107000000Y-96500000D03*
X107000000Y-104500000D03*
X110700000Y-100000000D03*
D12*
X52700000Y-116000000D03*
D13*
X42000000Y-127000000D03*
X44000000Y-127000000D03*
X46000000Y-127000000D03*
X48000000Y-127000000D03*
X50000000Y-127000000D03*
X52000000Y-127000000D03*
D12*
X41300000Y-116000000D03*
X32700000Y-116000000D03*
D13*
X22000000Y-127000000D03*
X24000000Y-127000000D03*
X26000000Y-127000000D03*
X28000000Y-127000000D03*
X30000000Y-127000000D03*
X32000000Y-127000000D03*
D12*
X21300000Y-116000000D03*
X72700000Y-116000000D03*
D13*
X62000000Y-127000000D03*
X64000000Y-127000000D03*
X66000000Y-127000000D03*
X68000000Y-127000000D03*
X70000000Y-127000000D03*
X72000000Y-127000000D03*
D12*
X61300000Y-116000000D03*
X92700000Y-116000000D03*
D13*
X82000000Y-127000000D03*
X84000000Y-127000000D03*
X86000000Y-127000000D03*
X88000000Y-127000000D03*
X90000000Y-127000000D03*
X92000000Y-127000000D03*
D12*
X81300000Y-116000000D03*
D14*
X35671000Y-91184000D03*
D15*
X38211000Y-91184000D03*
D16*
X38320000Y-98034000D03*
D17*
X35780000Y-98034000D03*
D16*
X58150000Y-109726000D03*
D17*
X55610000Y-109726000D03*
D14*
X128254000Y-115568000D03*
D15*
X125714000Y-115568000D03*
D18*
X28843000Y-92280000D03*
X28193000Y-92280000D03*
X27543000Y-92280000D03*
X26893000Y-92280000D03*
X26243000Y-92280000D03*
D19*
X30043000Y-92280000D03*
X25043000Y-92280000D03*
D20*
X31043000Y-89580000D03*
X24043000Y-89580000D03*
D21*
X125750000Y-189500000D03*
X123250000Y-189500000D03*
X125750000Y-134500000D03*
X128250000Y-189500000D03*
X130750000Y-189500000D03*
X130750000Y-134500000D03*
X85750000Y-189500000D03*
X83250000Y-189500000D03*
X85750000Y-134500000D03*
X88250000Y-189500000D03*
X90750000Y-189500000D03*
X90750000Y-134500000D03*
X105750000Y-189500000D03*
X103250000Y-189500000D03*
X105750000Y-134500000D03*
X108250000Y-189500000D03*
X110750000Y-189500000D03*
X110750000Y-134500000D03*
X65750000Y-189500000D03*
X63250000Y-189500000D03*
X65750000Y-134500000D03*
X68250000Y-189500000D03*
X70750000Y-189500000D03*
X70750000Y-134500000D03*
X45750000Y-189500000D03*
X43250000Y-189500000D03*
X45750000Y-134500000D03*
X48250000Y-189500000D03*
X50750000Y-189500000D03*
X50750000Y-134500000D03*
X25750000Y-189500000D03*
X23250000Y-189500000D03*
X25750000Y-134500000D03*
X28250000Y-189500000D03*
X30750000Y-189500000D03*
X30750000Y-134500000D03*
D22*
X128222000Y-90422000D03*
X126222000Y-90422000D03*
X124222000Y-90422000D03*
D23*
X120126000Y-103122000D03*
X102346000Y-134618000D03*
X123682000Y-145540000D03*
X124514000Y-148842000D03*
X104632000Y-144590000D03*
X120380000Y-115822000D03*
X120126000Y-150366000D03*
X113776000Y-145540000D03*
X96504000Y-144270000D03*
X91170000Y-120775000D03*
X79105000Y-120775000D03*
X70850000Y-120775000D03*
X59420000Y-120775000D03*
X50530000Y-120775000D03*
X38465000Y-120775000D03*
X127238000Y-159256000D03*
X113014000Y-150112000D03*
X111744000Y-145794000D03*
X113014000Y-156716000D03*
X133588000Y-155954000D03*
X73136000Y-156716000D03*
X33004000Y-156716000D03*
X92948000Y-156716000D03*
X53070000Y-156716000D03*
X116570000Y-145032000D03*
X102346000Y-137666000D03*
X123354655Y-150565822D03*
X105140000Y-149096000D03*
X86598000Y-146556000D03*
X66024000Y-146302000D03*
X46466000Y-146302000D03*
X26146000Y-146302000D03*
D24*
X26243000Y-92280000D02*
X26243000Y-93135002D01*
X34930001Y-97184001D02*
X35780000Y-98034000D01*
X26243000Y-93135002D02*
X27307997Y-94199999D01*
X27307997Y-94199999D02*
X31945999Y-94199999D01*
X31945999Y-94199999D02*
X34930001Y-97184001D01*
X35720000Y-97974000D02*
X35780000Y-98034000D01*
X120126000Y-103122000D02*
X113822000Y-103122000D01*
X113822000Y-103122000D02*
X110700000Y-100000000D01*
X123682000Y-145540000D02*
X123182001Y-146039999D01*
X123182001Y-146039999D02*
X123182001Y-147510001D01*
X123182001Y-147510001D02*
X124014001Y-148342001D01*
X124014001Y-148342001D02*
X124514000Y-148842000D01*
X104124000Y-144082000D02*
X104124000Y-144016000D01*
X104632000Y-144590000D02*
X104124000Y-144082000D01*
X120126000Y-119632000D02*
X120126000Y-115822000D01*
X120126000Y-115822000D02*
X120380000Y-115822000D01*
X120126000Y-150366000D02*
X120126000Y-119632000D01*
X111651990Y-143415990D02*
X113776000Y-145540000D01*
X96504000Y-144270000D02*
X97358010Y-143415990D01*
X97358010Y-143415990D02*
X111651990Y-143415990D01*
X79105000Y-120775000D02*
X91170000Y-120775000D01*
X59420000Y-120775000D02*
X70850000Y-120775000D01*
X38465000Y-120775000D02*
X50530000Y-120775000D01*
X23662000Y-99876000D02*
X24622000Y-100582000D01*
X22000000Y-127000000D02*
X21900000Y-127000000D01*
X62000000Y-127000000D02*
X61905000Y-127000000D01*
X27000000Y-96500000D02*
X25700001Y-97799999D01*
X25700001Y-97799999D02*
X25700001Y-102247997D01*
X25700001Y-102247997D02*
X19549999Y-108397999D01*
X19549999Y-108397999D02*
X19549999Y-128299999D01*
X19549999Y-128299999D02*
X24750001Y-133500001D01*
X24750001Y-133500001D02*
X25750000Y-134500000D01*
X30750000Y-134500000D02*
X33385000Y-131865000D01*
X33385000Y-131865000D02*
X33385000Y-120295002D01*
X33385000Y-120295002D02*
X27000000Y-113910002D01*
X27000000Y-113910002D02*
X27000000Y-107257716D01*
X27000000Y-107257716D02*
X27000000Y-104500000D01*
X45750000Y-134500000D02*
X37514999Y-126264999D01*
X37514999Y-126264999D02*
X37514999Y-109337003D01*
X47000000Y-99257716D02*
X47000000Y-96500000D01*
X37514999Y-109337003D02*
X47000000Y-99852002D01*
X47000000Y-99852002D02*
X47000000Y-99257716D01*
X47000000Y-104500000D02*
X47000000Y-114568998D01*
X47000000Y-114568998D02*
X53200001Y-120768999D01*
X53200001Y-120768999D02*
X53200001Y-132049999D01*
X53200001Y-132049999D02*
X51749999Y-133500001D01*
X51749999Y-133500001D02*
X50750000Y-134500000D01*
X65750000Y-134500000D02*
X58404000Y-127154000D01*
X58404000Y-127154000D02*
X58404000Y-111802002D01*
X58404000Y-111802002D02*
X64699999Y-105506003D01*
X64699999Y-105506003D02*
X64699999Y-102004003D01*
X64699999Y-102004003D02*
X67000000Y-99704002D01*
X67000000Y-99704002D02*
X67000000Y-99257716D01*
X67000000Y-99257716D02*
X67000000Y-96500000D01*
X70750000Y-134500000D02*
X73200001Y-132049999D01*
X73200001Y-132049999D02*
X73200001Y-120745003D01*
X73200001Y-120745003D02*
X67000000Y-114545002D01*
X67000000Y-114545002D02*
X67000000Y-107257716D01*
X67000000Y-107257716D02*
X67000000Y-104500000D01*
X85750000Y-134500000D02*
X78254999Y-127004999D01*
X78254999Y-127004999D02*
X78254999Y-108449003D01*
X78254999Y-108449003D02*
X87000000Y-99704002D01*
X87000000Y-99704002D02*
X87000000Y-99257716D01*
X87000000Y-99257716D02*
X87000000Y-96500000D01*
X90750000Y-134500000D02*
X93200001Y-132049999D01*
X93200001Y-132049999D02*
X93200001Y-120110003D01*
X87000000Y-113910002D02*
X87000000Y-107257716D01*
X93200001Y-120110003D02*
X87000000Y-113910002D01*
X87000000Y-107257716D02*
X87000000Y-104500000D01*
X107000000Y-96500000D02*
X107000000Y-99852002D01*
X107000000Y-99852002D02*
X95934999Y-110917003D01*
X95934999Y-110917003D02*
X95934999Y-124684999D01*
X95934999Y-124684999D02*
X104750001Y-133500001D01*
X104750001Y-133500001D02*
X105750000Y-134500000D01*
X107000000Y-104500000D02*
X116885001Y-114385001D01*
X116885001Y-114385001D02*
X116885001Y-128364999D01*
X116885001Y-128364999D02*
X111749999Y-133500001D01*
X111749999Y-133500001D02*
X110750000Y-134500000D01*
X127238000Y-159256000D02*
X127238000Y-185512000D01*
X127238000Y-185512000D02*
X123250000Y-189500000D01*
X113014000Y-156716000D02*
X113776000Y-156716000D01*
X111744000Y-145794000D02*
X113014000Y-147064000D01*
X113014000Y-147064000D02*
X113014000Y-150112000D01*
X132826000Y-156716000D02*
X133588000Y-155954000D01*
X113776000Y-156716000D02*
X132826000Y-156716000D01*
X92948000Y-156716000D02*
X113776000Y-156716000D01*
X33004000Y-156716000D02*
X53070000Y-156716000D01*
X73136000Y-156716000D02*
X92948000Y-156716000D01*
X53070000Y-156716000D02*
X73136000Y-156716000D01*
X116570000Y-146302000D02*
X116570000Y-146810000D01*
X116570000Y-146810000D02*
X116570000Y-151316001D01*
X116570000Y-145032000D02*
X116570000Y-146810000D01*
X86598000Y-146556000D02*
X86598000Y-147263106D01*
X86598000Y-147263106D02*
X88430894Y-149096000D01*
X88430894Y-149096000D02*
X104432894Y-149096000D01*
X104432894Y-149096000D02*
X105140000Y-149096000D01*
X107360001Y-151316001D02*
X116570000Y-151316001D01*
X116570000Y-151316001D02*
X122604476Y-151316001D01*
X102346000Y-137666000D02*
X107934000Y-137666000D01*
X107934000Y-137666000D02*
X116570000Y-146302000D01*
X105140000Y-149096000D02*
X107360001Y-151316001D01*
X122604476Y-151316001D02*
X123354655Y-150565822D01*
X86598000Y-146302000D02*
X86598000Y-146556000D01*
X66024000Y-146302000D02*
X86598000Y-146302000D01*
X66024000Y-146302000D02*
X46466000Y-146302000D01*
X26146000Y-146302000D02*
X46466000Y-146302000D01*
X28843000Y-92280000D02*
X28843000Y-92755000D01*
X35135989Y-93699989D02*
X38320000Y-96884000D01*
X28843000Y-92755000D02*
X29787989Y-93699989D01*
X29787989Y-93699989D02*
X35135989Y-93699989D01*
X38320000Y-96884000D02*
X38320000Y-98034000D01*
X28843000Y-92280000D02*
X28843000Y-91805000D01*
X30193000Y-92280000D02*
X30043000Y-92280000D01*
X24893000Y-92280000D02*
X25043000Y-92280000D01*
D25*
G36*
X22994397Y-88843030D02*
X22908000Y-89277376D01*
X22908000Y-89882624D01*
X22994397Y-90316970D01*
X23240434Y-90685190D01*
X23608654Y-90931227D01*
X24043000Y-91017624D01*
X24477346Y-90931227D01*
X24845566Y-90685190D01*
X25091603Y-90316970D01*
X25178000Y-89882624D01*
X25178000Y-89277376D01*
X25091603Y-88843030D01*
X24986011Y-88685000D01*
X30099989Y-88685000D01*
X29994397Y-88843030D01*
X29908000Y-89277376D01*
X29908000Y-89882624D01*
X29994397Y-90316970D01*
X30240434Y-90685190D01*
X30608654Y-90931227D01*
X31043000Y-91017624D01*
X31477346Y-90931227D01*
X31845566Y-90685190D01*
X32091603Y-90316970D01*
X32098161Y-90284000D01*
X34123560Y-90284000D01*
X34123560Y-92084000D01*
X34167838Y-92319317D01*
X34306910Y-92535441D01*
X34519110Y-92680431D01*
X34771000Y-92731440D01*
X36571000Y-92731440D01*
X36806317Y-92687162D01*
X37022441Y-92548090D01*
X37167431Y-92335890D01*
X37171567Y-92315466D01*
X37340357Y-92484551D01*
X37904330Y-92718733D01*
X38514991Y-92719265D01*
X39079371Y-92486068D01*
X39142734Y-92422815D01*
X133864630Y-92422815D01*
X134188980Y-93207800D01*
X134789041Y-93808909D01*
X135573459Y-94134628D01*
X136422815Y-94135370D01*
X137207800Y-93811020D01*
X137808909Y-93210959D01*
X138134628Y-92426541D01*
X138135370Y-91577185D01*
X137811020Y-90792200D01*
X137210959Y-90191091D01*
X136426541Y-89865372D01*
X135577185Y-89864630D01*
X134792200Y-90188980D01*
X134191091Y-90789041D01*
X133865372Y-91573459D01*
X133864630Y-92422815D01*
X39142734Y-92422815D01*
X39511551Y-92054643D01*
X39745733Y-91490670D01*
X39746265Y-90880009D01*
X39658078Y-90666579D01*
X122986786Y-90666579D01*
X123174408Y-91120657D01*
X123521515Y-91468371D01*
X123975266Y-91656785D01*
X124466579Y-91657214D01*
X124920657Y-91469592D01*
X125222221Y-91168554D01*
X125521515Y-91468371D01*
X125975266Y-91656785D01*
X126466579Y-91657214D01*
X126920657Y-91469592D01*
X127222221Y-91168554D01*
X127521515Y-91468371D01*
X127975266Y-91656785D01*
X128466579Y-91657214D01*
X128920657Y-91469592D01*
X129268371Y-91122485D01*
X129456785Y-90668734D01*
X129457214Y-90177421D01*
X129269592Y-89723343D01*
X128922485Y-89375629D01*
X128468734Y-89187215D01*
X127977421Y-89186786D01*
X127523343Y-89374408D01*
X127221779Y-89675446D01*
X126922485Y-89375629D01*
X126468734Y-89187215D01*
X125977421Y-89186786D01*
X125523343Y-89374408D01*
X125221779Y-89675446D01*
X124922485Y-89375629D01*
X124468734Y-89187215D01*
X123977421Y-89186786D01*
X123523343Y-89374408D01*
X123175629Y-89721515D01*
X122987215Y-90175266D01*
X122986786Y-90666579D01*
X39658078Y-90666579D01*
X39513068Y-90315629D01*
X39081643Y-89883449D01*
X38517670Y-89649267D01*
X37907009Y-89648735D01*
X37342629Y-89881932D01*
X37174387Y-90049880D01*
X37174162Y-90048683D01*
X37035090Y-89832559D01*
X36822890Y-89687569D01*
X36571000Y-89636560D01*
X34771000Y-89636560D01*
X34535683Y-89680838D01*
X34319559Y-89819910D01*
X34174569Y-90032110D01*
X34123560Y-90284000D01*
X32098161Y-90284000D01*
X32178000Y-89882624D01*
X32178000Y-89277376D01*
X32091603Y-88843030D01*
X31986011Y-88685000D01*
X139315000Y-88685000D01*
X139315000Y-195315000D01*
X14685000Y-195315000D01*
X14685000Y-192422815D01*
X15864630Y-192422815D01*
X16188980Y-193207800D01*
X16789041Y-193808909D01*
X17573459Y-194134628D01*
X18422815Y-194135370D01*
X19207800Y-193811020D01*
X19808909Y-193210959D01*
X20134628Y-192426541D01*
X20134631Y-192422815D01*
X133864630Y-192422815D01*
X134188980Y-193207800D01*
X134789041Y-193808909D01*
X135573459Y-194134628D01*
X136422815Y-194135370D01*
X137207800Y-193811020D01*
X137808909Y-193210959D01*
X138134628Y-192426541D01*
X138135370Y-191577185D01*
X137811020Y-190792200D01*
X137210959Y-190191091D01*
X136426541Y-189865372D01*
X135577185Y-189864630D01*
X134792200Y-190188980D01*
X134191091Y-190789041D01*
X133865372Y-191573459D01*
X133864630Y-192422815D01*
X20134631Y-192422815D01*
X20135370Y-191577185D01*
X19811020Y-190792200D01*
X19210959Y-190191091D01*
X18426541Y-189865372D01*
X17577185Y-189864630D01*
X16792200Y-190188980D01*
X16191091Y-190789041D01*
X15865372Y-191573459D01*
X15864630Y-192422815D01*
X14685000Y-192422815D01*
X14685000Y-189823795D01*
X21614716Y-189823795D01*
X21863106Y-190424943D01*
X22322637Y-190885278D01*
X22923352Y-191134716D01*
X23573795Y-191135284D01*
X24174943Y-190886894D01*
X24409715Y-190652532D01*
X24777073Y-190652532D01*
X24875736Y-190919387D01*
X25485461Y-191145908D01*
X26135460Y-191121856D01*
X26624264Y-190919387D01*
X26722927Y-190652532D01*
X25750000Y-189679605D01*
X24777073Y-190652532D01*
X24409715Y-190652532D01*
X24591752Y-190470813D01*
X24597468Y-190472927D01*
X25570395Y-189500000D01*
X25929605Y-189500000D01*
X26902532Y-190472927D01*
X26908722Y-190470639D01*
X27322637Y-190885278D01*
X27923352Y-191134716D01*
X28573795Y-191135284D01*
X29174943Y-190886894D01*
X29409715Y-190652532D01*
X29777073Y-190652532D01*
X29875736Y-190919387D01*
X30485461Y-191145908D01*
X31135460Y-191121856D01*
X31624264Y-190919387D01*
X31722927Y-190652532D01*
X30750000Y-189679605D01*
X29777073Y-190652532D01*
X29409715Y-190652532D01*
X29591752Y-190470813D01*
X29597468Y-190472927D01*
X30570395Y-189500000D01*
X30929605Y-189500000D01*
X31902532Y-190472927D01*
X32169387Y-190374264D01*
X32373893Y-189823795D01*
X41614716Y-189823795D01*
X41863106Y-190424943D01*
X42322637Y-190885278D01*
X42923352Y-191134716D01*
X43573795Y-191135284D01*
X44174943Y-190886894D01*
X44409715Y-190652532D01*
X44777073Y-190652532D01*
X44875736Y-190919387D01*
X45485461Y-191145908D01*
X46135460Y-191121856D01*
X46624264Y-190919387D01*
X46722927Y-190652532D01*
X45750000Y-189679605D01*
X44777073Y-190652532D01*
X44409715Y-190652532D01*
X44591752Y-190470813D01*
X44597468Y-190472927D01*
X45570395Y-189500000D01*
X45929605Y-189500000D01*
X46902532Y-190472927D01*
X46908722Y-190470639D01*
X47322637Y-190885278D01*
X47923352Y-191134716D01*
X48573795Y-191135284D01*
X49174943Y-190886894D01*
X49409715Y-190652532D01*
X49777073Y-190652532D01*
X49875736Y-190919387D01*
X50485461Y-191145908D01*
X51135460Y-191121856D01*
X51624264Y-190919387D01*
X51722927Y-190652532D01*
X50750000Y-189679605D01*
X49777073Y-190652532D01*
X49409715Y-190652532D01*
X49591752Y-190470813D01*
X49597468Y-190472927D01*
X50570395Y-189500000D01*
X50929605Y-189500000D01*
X51902532Y-190472927D01*
X52169387Y-190374264D01*
X52373893Y-189823795D01*
X61614716Y-189823795D01*
X61863106Y-190424943D01*
X62322637Y-190885278D01*
X62923352Y-191134716D01*
X63573795Y-191135284D01*
X64174943Y-190886894D01*
X64409715Y-190652532D01*
X64777073Y-190652532D01*
X64875736Y-190919387D01*
X65485461Y-191145908D01*
X66135460Y-191121856D01*
X66624264Y-190919387D01*
X66722927Y-190652532D01*
X65750000Y-189679605D01*
X64777073Y-190652532D01*
X64409715Y-190652532D01*
X64591752Y-190470813D01*
X64597468Y-190472927D01*
X65570395Y-189500000D01*
X65929605Y-189500000D01*
X66902532Y-190472927D01*
X66908722Y-190470639D01*
X67322637Y-190885278D01*
X67923352Y-191134716D01*
X68573795Y-191135284D01*
X69174943Y-190886894D01*
X69409715Y-190652532D01*
X69777073Y-190652532D01*
X69875736Y-190919387D01*
X70485461Y-191145908D01*
X71135460Y-191121856D01*
X71624264Y-190919387D01*
X71722927Y-190652532D01*
X70750000Y-189679605D01*
X69777073Y-190652532D01*
X69409715Y-190652532D01*
X69591752Y-190470813D01*
X69597468Y-190472927D01*
X70570395Y-189500000D01*
X70929605Y-189500000D01*
X71902532Y-190472927D01*
X72169387Y-190374264D01*
X72373893Y-189823795D01*
X81614716Y-189823795D01*
X81863106Y-190424943D01*
X82322637Y-190885278D01*
X82923352Y-191134716D01*
X83573795Y-191135284D01*
X84174943Y-190886894D01*
X84409715Y-190652532D01*
X84777073Y-190652532D01*
X84875736Y-190919387D01*
X85485461Y-191145908D01*
X86135460Y-191121856D01*
X86624264Y-190919387D01*
X86722927Y-190652532D01*
X85750000Y-189679605D01*
X84777073Y-190652532D01*
X84409715Y-190652532D01*
X84591752Y-190470813D01*
X84597468Y-190472927D01*
X85570395Y-189500000D01*
X85929605Y-189500000D01*
X86902532Y-190472927D01*
X86908722Y-190470639D01*
X87322637Y-190885278D01*
X87923352Y-191134716D01*
X88573795Y-191135284D01*
X89174943Y-190886894D01*
X89409715Y-190652532D01*
X89777073Y-190652532D01*
X89875736Y-190919387D01*
X90485461Y-191145908D01*
X91135460Y-191121856D01*
X91624264Y-190919387D01*
X91722927Y-190652532D01*
X90750000Y-189679605D01*
X89777073Y-190652532D01*
X89409715Y-190652532D01*
X89591752Y-190470813D01*
X89597468Y-190472927D01*
X90570395Y-189500000D01*
X90929605Y-189500000D01*
X91902532Y-190472927D01*
X92169387Y-190374264D01*
X92373893Y-189823795D01*
X101614716Y-189823795D01*
X101863106Y-190424943D01*
X102322637Y-190885278D01*
X102923352Y-191134716D01*
X103573795Y-191135284D01*
X104174943Y-190886894D01*
X104409715Y-190652532D01*
X104777073Y-190652532D01*
X104875736Y-190919387D01*
X105485461Y-191145908D01*
X106135460Y-191121856D01*
X106624264Y-190919387D01*
X106722927Y-190652532D01*
X105750000Y-189679605D01*
X104777073Y-190652532D01*
X104409715Y-190652532D01*
X104591752Y-190470813D01*
X104597468Y-190472927D01*
X105570395Y-189500000D01*
X105929605Y-189500000D01*
X106902532Y-190472927D01*
X106908722Y-190470639D01*
X107322637Y-190885278D01*
X107923352Y-191134716D01*
X108573795Y-191135284D01*
X109174943Y-190886894D01*
X109409715Y-190652532D01*
X109777073Y-190652532D01*
X109875736Y-190919387D01*
X110485461Y-191145908D01*
X111135460Y-191121856D01*
X111624264Y-190919387D01*
X111722927Y-190652532D01*
X110750000Y-189679605D01*
X109777073Y-190652532D01*
X109409715Y-190652532D01*
X109591752Y-190470813D01*
X109597468Y-190472927D01*
X110570395Y-189500000D01*
X110929605Y-189500000D01*
X111902532Y-190472927D01*
X112169387Y-190374264D01*
X112373893Y-189823795D01*
X121614716Y-189823795D01*
X121863106Y-190424943D01*
X122322637Y-190885278D01*
X122923352Y-191134716D01*
X123573795Y-191135284D01*
X124174943Y-190886894D01*
X124409715Y-190652532D01*
X124777073Y-190652532D01*
X124875736Y-190919387D01*
X125485461Y-191145908D01*
X126135460Y-191121856D01*
X126624264Y-190919387D01*
X126722927Y-190652532D01*
X125750000Y-189679605D01*
X124777073Y-190652532D01*
X124409715Y-190652532D01*
X124591752Y-190470813D01*
X124597468Y-190472927D01*
X125570395Y-189500000D01*
X125929605Y-189500000D01*
X126902532Y-190472927D01*
X126908722Y-190470639D01*
X127322637Y-190885278D01*
X127923352Y-191134716D01*
X128573795Y-191135284D01*
X129174943Y-190886894D01*
X129409715Y-190652532D01*
X129777073Y-190652532D01*
X129875736Y-190919387D01*
X130485461Y-191145908D01*
X131135460Y-191121856D01*
X131624264Y-190919387D01*
X131722927Y-190652532D01*
X130750000Y-189679605D01*
X129777073Y-190652532D01*
X129409715Y-190652532D01*
X129591752Y-190470813D01*
X129597468Y-190472927D01*
X130570395Y-189500000D01*
X130929605Y-189500000D01*
X131902532Y-190472927D01*
X132169387Y-190374264D01*
X132395908Y-189764539D01*
X132371856Y-189114540D01*
X132169387Y-188625736D01*
X131902532Y-188527073D01*
X130929605Y-189500000D01*
X130570395Y-189500000D01*
X129597468Y-188527073D01*
X129591278Y-188529361D01*
X129409703Y-188347468D01*
X129777073Y-188347468D01*
X130750000Y-189320395D01*
X131722927Y-188347468D01*
X131624264Y-188080613D01*
X131014539Y-187854092D01*
X130364540Y-187878144D01*
X129875736Y-188080613D01*
X129777073Y-188347468D01*
X129409703Y-188347468D01*
X129177363Y-188114722D01*
X128576648Y-187865284D01*
X127926205Y-187864716D01*
X127325057Y-188113106D01*
X126908248Y-188529187D01*
X126902532Y-188527073D01*
X125929605Y-189500000D01*
X125570395Y-189500000D01*
X125556253Y-189485858D01*
X125735858Y-189306253D01*
X125750000Y-189320395D01*
X126722927Y-188347468D01*
X126624264Y-188080613D01*
X126014539Y-187854092D01*
X126005740Y-187854418D01*
X127793079Y-186067079D01*
X127963245Y-185812406D01*
X128023000Y-185512000D01*
X128023000Y-160076102D01*
X128199645Y-159899765D01*
X128372803Y-159482756D01*
X128373197Y-159031225D01*
X128200767Y-158613914D01*
X127881765Y-158294355D01*
X127464756Y-158121197D01*
X127013225Y-158120803D01*
X126595914Y-158293233D01*
X126276355Y-158612235D01*
X126103197Y-159029244D01*
X126102803Y-159480775D01*
X126275233Y-159898086D01*
X126453000Y-160076163D01*
X126453000Y-185186842D01*
X123716490Y-187923352D01*
X123576648Y-187865284D01*
X122926205Y-187864716D01*
X122325057Y-188113106D01*
X121864722Y-188572637D01*
X121615284Y-189173352D01*
X121614716Y-189823795D01*
X112373893Y-189823795D01*
X112395908Y-189764539D01*
X112371856Y-189114540D01*
X112169387Y-188625736D01*
X111902532Y-188527073D01*
X110929605Y-189500000D01*
X110570395Y-189500000D01*
X109597468Y-188527073D01*
X109591278Y-188529361D01*
X109409703Y-188347468D01*
X109777073Y-188347468D01*
X110750000Y-189320395D01*
X111722927Y-188347468D01*
X111624264Y-188080613D01*
X111014539Y-187854092D01*
X110364540Y-187878144D01*
X109875736Y-188080613D01*
X109777073Y-188347468D01*
X109409703Y-188347468D01*
X109177363Y-188114722D01*
X108576648Y-187865284D01*
X107926205Y-187864716D01*
X107325057Y-188113106D01*
X106908248Y-188529187D01*
X106902532Y-188527073D01*
X105929605Y-189500000D01*
X105570395Y-189500000D01*
X104597468Y-188527073D01*
X104591278Y-188529361D01*
X104409703Y-188347468D01*
X104777073Y-188347468D01*
X105750000Y-189320395D01*
X106722927Y-188347468D01*
X106624264Y-188080613D01*
X106014539Y-187854092D01*
X105364540Y-187878144D01*
X104875736Y-188080613D01*
X104777073Y-188347468D01*
X104409703Y-188347468D01*
X104177363Y-188114722D01*
X103576648Y-187865284D01*
X102926205Y-187864716D01*
X102325057Y-188113106D01*
X101864722Y-188572637D01*
X101615284Y-189173352D01*
X101614716Y-189823795D01*
X92373893Y-189823795D01*
X92395908Y-189764539D01*
X92371856Y-189114540D01*
X92169387Y-188625736D01*
X91902532Y-188527073D01*
X90929605Y-189500000D01*
X90570395Y-189500000D01*
X89597468Y-188527073D01*
X89591278Y-188529361D01*
X89409703Y-188347468D01*
X89777073Y-188347468D01*
X90750000Y-189320395D01*
X91722927Y-188347468D01*
X91624264Y-188080613D01*
X91014539Y-187854092D01*
X90364540Y-187878144D01*
X89875736Y-188080613D01*
X89777073Y-188347468D01*
X89409703Y-188347468D01*
X89177363Y-188114722D01*
X88576648Y-187865284D01*
X87926205Y-187864716D01*
X87325057Y-188113106D01*
X86908248Y-188529187D01*
X86902532Y-188527073D01*
X85929605Y-189500000D01*
X85570395Y-189500000D01*
X84597468Y-188527073D01*
X84591278Y-188529361D01*
X84409703Y-188347468D01*
X84777073Y-188347468D01*
X85750000Y-189320395D01*
X86722927Y-188347468D01*
X86624264Y-188080613D01*
X86014539Y-187854092D01*
X85364540Y-187878144D01*
X84875736Y-188080613D01*
X84777073Y-188347468D01*
X84409703Y-188347468D01*
X84177363Y-188114722D01*
X83576648Y-187865284D01*
X82926205Y-187864716D01*
X82325057Y-188113106D01*
X81864722Y-188572637D01*
X81615284Y-189173352D01*
X81614716Y-189823795D01*
X72373893Y-189823795D01*
X72395908Y-189764539D01*
X72371856Y-189114540D01*
X72169387Y-188625736D01*
X71902532Y-188527073D01*
X70929605Y-189500000D01*
X70570395Y-189500000D01*
X69597468Y-188527073D01*
X69591278Y-188529361D01*
X69409703Y-188347468D01*
X69777073Y-188347468D01*
X70750000Y-189320395D01*
X71722927Y-188347468D01*
X71624264Y-188080613D01*
X71014539Y-187854092D01*
X70364540Y-187878144D01*
X69875736Y-188080613D01*
X69777073Y-188347468D01*
X69409703Y-188347468D01*
X69177363Y-188114722D01*
X68576648Y-187865284D01*
X67926205Y-187864716D01*
X67325057Y-188113106D01*
X66908248Y-188529187D01*
X66902532Y-188527073D01*
X65929605Y-189500000D01*
X65570395Y-189500000D01*
X64597468Y-188527073D01*
X64591278Y-188529361D01*
X64409703Y-188347468D01*
X64777073Y-188347468D01*
X65750000Y-189320395D01*
X66722927Y-188347468D01*
X66624264Y-188080613D01*
X66014539Y-187854092D01*
X65364540Y-187878144D01*
X64875736Y-188080613D01*
X64777073Y-188347468D01*
X64409703Y-188347468D01*
X64177363Y-188114722D01*
X63576648Y-187865284D01*
X62926205Y-187864716D01*
X62325057Y-188113106D01*
X61864722Y-188572637D01*
X61615284Y-189173352D01*
X61614716Y-189823795D01*
X52373893Y-189823795D01*
X52395908Y-189764539D01*
X52371856Y-189114540D01*
X52169387Y-188625736D01*
X51902532Y-188527073D01*
X50929605Y-189500000D01*
X50570395Y-189500000D01*
X49597468Y-188527073D01*
X49591278Y-188529361D01*
X49409703Y-188347468D01*
X49777073Y-188347468D01*
X50750000Y-189320395D01*
X51722927Y-188347468D01*
X51624264Y-188080613D01*
X51014539Y-187854092D01*
X50364540Y-187878144D01*
X49875736Y-188080613D01*
X49777073Y-188347468D01*
X49409703Y-188347468D01*
X49177363Y-188114722D01*
X48576648Y-187865284D01*
X47926205Y-187864716D01*
X47325057Y-188113106D01*
X46908248Y-188529187D01*
X46902532Y-188527073D01*
X45929605Y-189500000D01*
X45570395Y-189500000D01*
X44597468Y-188527073D01*
X44591278Y-188529361D01*
X44409703Y-188347468D01*
X44777073Y-188347468D01*
X45750000Y-189320395D01*
X46722927Y-188347468D01*
X46624264Y-188080613D01*
X46014539Y-187854092D01*
X45364540Y-187878144D01*
X44875736Y-188080613D01*
X44777073Y-188347468D01*
X44409703Y-188347468D01*
X44177363Y-188114722D01*
X43576648Y-187865284D01*
X42926205Y-187864716D01*
X42325057Y-188113106D01*
X41864722Y-188572637D01*
X41615284Y-189173352D01*
X41614716Y-189823795D01*
X32373893Y-189823795D01*
X32395908Y-189764539D01*
X32371856Y-189114540D01*
X32169387Y-188625736D01*
X31902532Y-188527073D01*
X30929605Y-189500000D01*
X30570395Y-189500000D01*
X29597468Y-188527073D01*
X29591278Y-188529361D01*
X29409703Y-188347468D01*
X29777073Y-188347468D01*
X30750000Y-189320395D01*
X31722927Y-188347468D01*
X31624264Y-188080613D01*
X31014539Y-187854092D01*
X30364540Y-187878144D01*
X29875736Y-188080613D01*
X29777073Y-188347468D01*
X29409703Y-188347468D01*
X29177363Y-188114722D01*
X28576648Y-187865284D01*
X27926205Y-187864716D01*
X27325057Y-188113106D01*
X26908248Y-188529187D01*
X26902532Y-188527073D01*
X25929605Y-189500000D01*
X25570395Y-189500000D01*
X24597468Y-188527073D01*
X24591278Y-188529361D01*
X24409703Y-188347468D01*
X24777073Y-188347468D01*
X25750000Y-189320395D01*
X26722927Y-188347468D01*
X26624264Y-188080613D01*
X26014539Y-187854092D01*
X25364540Y-187878144D01*
X24875736Y-188080613D01*
X24777073Y-188347468D01*
X24409703Y-188347468D01*
X24177363Y-188114722D01*
X23576648Y-187865284D01*
X22926205Y-187864716D01*
X22325057Y-188113106D01*
X21864722Y-188572637D01*
X21615284Y-189173352D01*
X21614716Y-189823795D01*
X14685000Y-189823795D01*
X14685000Y-156940775D01*
X31868803Y-156940775D01*
X32041233Y-157358086D01*
X32360235Y-157677645D01*
X32777244Y-157850803D01*
X33228775Y-157851197D01*
X33646086Y-157678767D01*
X33824163Y-157501000D01*
X52249898Y-157501000D01*
X52426235Y-157677645D01*
X52843244Y-157850803D01*
X53294775Y-157851197D01*
X53712086Y-157678767D01*
X53890163Y-157501000D01*
X72315898Y-157501000D01*
X72492235Y-157677645D01*
X72909244Y-157850803D01*
X73360775Y-157851197D01*
X73778086Y-157678767D01*
X73956163Y-157501000D01*
X92127898Y-157501000D01*
X92304235Y-157677645D01*
X92721244Y-157850803D01*
X93172775Y-157851197D01*
X93590086Y-157678767D01*
X93768163Y-157501000D01*
X112193898Y-157501000D01*
X112370235Y-157677645D01*
X112787244Y-157850803D01*
X113238775Y-157851197D01*
X113656086Y-157678767D01*
X113834163Y-157501000D01*
X132826000Y-157501000D01*
X133126407Y-157441245D01*
X133381079Y-157271079D01*
X133563179Y-157088979D01*
X133812775Y-157089197D01*
X134230086Y-156916767D01*
X134549645Y-156597765D01*
X134722803Y-156180756D01*
X134723197Y-155729225D01*
X134550767Y-155311914D01*
X134231765Y-154992355D01*
X133814756Y-154819197D01*
X133363225Y-154818803D01*
X132945914Y-154991233D01*
X132626355Y-155310235D01*
X132453197Y-155727244D01*
X132453019Y-155931000D01*
X113834102Y-155931000D01*
X113657765Y-155754355D01*
X113240756Y-155581197D01*
X112789225Y-155580803D01*
X112371914Y-155753233D01*
X112193837Y-155931000D01*
X93768102Y-155931000D01*
X93591765Y-155754355D01*
X93174756Y-155581197D01*
X92723225Y-155580803D01*
X92305914Y-155753233D01*
X92127837Y-155931000D01*
X73956102Y-155931000D01*
X73779765Y-155754355D01*
X73362756Y-155581197D01*
X72911225Y-155580803D01*
X72493914Y-155753233D01*
X72315837Y-155931000D01*
X53890102Y-155931000D01*
X53713765Y-155754355D01*
X53296756Y-155581197D01*
X52845225Y-155580803D01*
X52427914Y-155753233D01*
X52249837Y-155931000D01*
X33824102Y-155931000D01*
X33647765Y-155754355D01*
X33230756Y-155581197D01*
X32779225Y-155580803D01*
X32361914Y-155753233D01*
X32042355Y-156072235D01*
X31869197Y-156489244D01*
X31868803Y-156940775D01*
X14685000Y-156940775D01*
X14685000Y-146526775D01*
X25010803Y-146526775D01*
X25183233Y-146944086D01*
X25502235Y-147263645D01*
X25919244Y-147436803D01*
X26370775Y-147437197D01*
X26788086Y-147264767D01*
X26966163Y-147087000D01*
X45645898Y-147087000D01*
X45822235Y-147263645D01*
X46239244Y-147436803D01*
X46690775Y-147437197D01*
X47108086Y-147264767D01*
X47286163Y-147087000D01*
X65203898Y-147087000D01*
X65380235Y-147263645D01*
X65797244Y-147436803D01*
X66248775Y-147437197D01*
X66666086Y-147264767D01*
X66844163Y-147087000D01*
X85589333Y-147087000D01*
X85635233Y-147198086D01*
X85841085Y-147404297D01*
X85872755Y-147563513D01*
X86042921Y-147818185D01*
X87875815Y-149651079D01*
X88130488Y-149821245D01*
X88430894Y-149881001D01*
X88430899Y-149881000D01*
X104319898Y-149881000D01*
X104496235Y-150057645D01*
X104913244Y-150230803D01*
X105164865Y-150231023D01*
X106804920Y-151871077D01*
X106804922Y-151871080D01*
X107059595Y-152041246D01*
X107360001Y-152101002D01*
X107360006Y-152101001D01*
X122604476Y-152101001D01*
X122904883Y-152041246D01*
X123159555Y-151871080D01*
X123329834Y-151700801D01*
X123579430Y-151701019D01*
X123996741Y-151528589D01*
X124316300Y-151209587D01*
X124489458Y-150792578D01*
X124489852Y-150341047D01*
X124317422Y-149923736D01*
X123998420Y-149604177D01*
X123581411Y-149431019D01*
X123129880Y-149430625D01*
X122712569Y-149603055D01*
X122393010Y-149922057D01*
X122219852Y-150339066D01*
X122219685Y-150531001D01*
X121260857Y-150531001D01*
X121261197Y-150141225D01*
X121088767Y-149723914D01*
X120911000Y-149545837D01*
X120911000Y-134823795D01*
X124114716Y-134823795D01*
X124363106Y-135424943D01*
X124822637Y-135885278D01*
X125423352Y-136134716D01*
X126073795Y-136135284D01*
X126674943Y-135886894D01*
X127135278Y-135427363D01*
X127384716Y-134826648D01*
X127384718Y-134823795D01*
X129114716Y-134823795D01*
X129363106Y-135424943D01*
X129822637Y-135885278D01*
X130423352Y-136134716D01*
X131073795Y-136135284D01*
X131674943Y-135886894D01*
X132135278Y-135427363D01*
X132384716Y-134826648D01*
X132385284Y-134176205D01*
X132136894Y-133575057D01*
X131677363Y-133114722D01*
X131076648Y-132865284D01*
X130426205Y-132864716D01*
X129825057Y-133113106D01*
X129364722Y-133572637D01*
X129115284Y-134173352D01*
X129114716Y-134823795D01*
X127384718Y-134823795D01*
X127385284Y-134176205D01*
X127136894Y-133575057D01*
X126677363Y-133114722D01*
X126076648Y-132865284D01*
X125426205Y-132864716D01*
X124825057Y-133113106D01*
X124364722Y-133572637D01*
X124115284Y-134173352D01*
X124114716Y-134823795D01*
X120911000Y-134823795D01*
X120911000Y-116830667D01*
X121022086Y-116784767D01*
X121341645Y-116465765D01*
X121514803Y-116048756D01*
X121514957Y-115871991D01*
X124178735Y-115871991D01*
X124411932Y-116436371D01*
X124843357Y-116868551D01*
X125407330Y-117102733D01*
X126017991Y-117103265D01*
X126582371Y-116870068D01*
X126759841Y-116692908D01*
X126815673Y-116827699D01*
X126994302Y-117006327D01*
X127227691Y-117103000D01*
X127968250Y-117103000D01*
X128127000Y-116944250D01*
X128127000Y-115695000D01*
X128381000Y-115695000D01*
X128381000Y-116944250D01*
X128539750Y-117103000D01*
X129280309Y-117103000D01*
X129513698Y-117006327D01*
X129692327Y-116827699D01*
X129789000Y-116594310D01*
X129789000Y-115853750D01*
X129630250Y-115695000D01*
X128381000Y-115695000D01*
X128127000Y-115695000D01*
X128107000Y-115695000D01*
X128107000Y-115441000D01*
X128127000Y-115441000D01*
X128127000Y-114191750D01*
X128381000Y-114191750D01*
X128381000Y-115441000D01*
X129630250Y-115441000D01*
X129789000Y-115282250D01*
X129789000Y-114541690D01*
X129692327Y-114308301D01*
X129513698Y-114129673D01*
X129280309Y-114033000D01*
X128539750Y-114033000D01*
X128381000Y-114191750D01*
X128127000Y-114191750D01*
X127968250Y-114033000D01*
X127227691Y-114033000D01*
X126994302Y-114129673D01*
X126815673Y-114308301D01*
X126759881Y-114442994D01*
X126584643Y-114267449D01*
X126020670Y-114033267D01*
X125410009Y-114032735D01*
X124845629Y-114265932D01*
X124413449Y-114697357D01*
X124179267Y-115261330D01*
X124178735Y-115871991D01*
X121514957Y-115871991D01*
X121515197Y-115597225D01*
X121342767Y-115179914D01*
X121023765Y-114860355D01*
X120606756Y-114687197D01*
X120155225Y-114686803D01*
X119737914Y-114859233D01*
X119418355Y-115178235D01*
X119245197Y-115595244D01*
X119244803Y-116046775D01*
X119341000Y-116279589D01*
X119341000Y-149545898D01*
X119164355Y-149722235D01*
X118991197Y-150139244D01*
X118990855Y-150531001D01*
X117355000Y-150531001D01*
X117355000Y-145852102D01*
X117531645Y-145675765D01*
X117704803Y-145258756D01*
X117705197Y-144807225D01*
X117532767Y-144389914D01*
X117213765Y-144070355D01*
X116796756Y-143897197D01*
X116345225Y-143896803D01*
X115927914Y-144069233D01*
X115687443Y-144309285D01*
X108489079Y-137110921D01*
X108234407Y-136940755D01*
X107934000Y-136881000D01*
X103166102Y-136881000D01*
X102989765Y-136704355D01*
X102572756Y-136531197D01*
X102121225Y-136530803D01*
X101703914Y-136703233D01*
X101384355Y-137022235D01*
X101211197Y-137439244D01*
X101210803Y-137890775D01*
X101383233Y-138308086D01*
X101702235Y-138627645D01*
X102119244Y-138800803D01*
X102570775Y-138801197D01*
X102988086Y-138628767D01*
X103166163Y-138451000D01*
X107608842Y-138451000D01*
X111822810Y-142664968D01*
X111651990Y-142630990D01*
X97358015Y-142630990D01*
X97358010Y-142630989D01*
X97057604Y-142690745D01*
X96802931Y-142860911D01*
X96802929Y-142860914D01*
X96528822Y-143135021D01*
X96279225Y-143134803D01*
X95861914Y-143307233D01*
X95542355Y-143626235D01*
X95369197Y-144043244D01*
X95368803Y-144494775D01*
X95541233Y-144912086D01*
X95860235Y-145231645D01*
X96277244Y-145404803D01*
X96728775Y-145405197D01*
X97146086Y-145232767D01*
X97465645Y-144913765D01*
X97638803Y-144496756D01*
X97639023Y-144245135D01*
X97683167Y-144200990D01*
X111326832Y-144200990D01*
X111784877Y-144659035D01*
X111519225Y-144658803D01*
X111101914Y-144831233D01*
X110782355Y-145150235D01*
X110609197Y-145567244D01*
X110608803Y-146018775D01*
X110781233Y-146436086D01*
X111100235Y-146755645D01*
X111517244Y-146928803D01*
X111768865Y-146929023D01*
X112229000Y-147389158D01*
X112229000Y-149291898D01*
X112052355Y-149468235D01*
X111879197Y-149885244D01*
X111878803Y-150336775D01*
X111959056Y-150531001D01*
X107685158Y-150531001D01*
X106274979Y-149120821D01*
X106275197Y-148871225D01*
X106102767Y-148453914D01*
X105783765Y-148134355D01*
X105366756Y-147961197D01*
X104915225Y-147960803D01*
X104497914Y-148133233D01*
X104319837Y-148311000D01*
X88756052Y-148311000D01*
X87584635Y-147139583D01*
X87732803Y-146782756D01*
X87733197Y-146331225D01*
X87560767Y-145913914D01*
X87241765Y-145594355D01*
X86824756Y-145421197D01*
X86373225Y-145420803D01*
X86140411Y-145517000D01*
X66844102Y-145517000D01*
X66667765Y-145340355D01*
X66250756Y-145167197D01*
X65799225Y-145166803D01*
X65381914Y-145339233D01*
X65203837Y-145517000D01*
X47286102Y-145517000D01*
X47109765Y-145340355D01*
X46692756Y-145167197D01*
X46241225Y-145166803D01*
X45823914Y-145339233D01*
X45645837Y-145517000D01*
X26966102Y-145517000D01*
X26789765Y-145340355D01*
X26372756Y-145167197D01*
X25921225Y-145166803D01*
X25503914Y-145339233D01*
X25184355Y-145658235D01*
X25011197Y-146075244D01*
X25010803Y-146526775D01*
X14685000Y-146526775D01*
X14685000Y-108397999D01*
X18764999Y-108397999D01*
X18764999Y-128299999D01*
X18824754Y-128600406D01*
X18994920Y-128855078D01*
X24173352Y-134033510D01*
X24115284Y-134173352D01*
X24114716Y-134823795D01*
X24363106Y-135424943D01*
X24822637Y-135885278D01*
X25423352Y-136134716D01*
X26073795Y-136135284D01*
X26674943Y-135886894D01*
X27135278Y-135427363D01*
X27384716Y-134826648D01*
X27385284Y-134176205D01*
X27136894Y-133575057D01*
X26677363Y-133114722D01*
X26076648Y-132865284D01*
X25426205Y-132864716D01*
X25283740Y-132923582D01*
X20334999Y-127974841D01*
X20334999Y-127274285D01*
X20614760Y-127274285D01*
X20825169Y-127783515D01*
X21214436Y-128173461D01*
X21723298Y-128384759D01*
X22274285Y-128385240D01*
X22783515Y-128174831D01*
X22987183Y-127971517D01*
X23208088Y-127971517D01*
X23276077Y-128212460D01*
X23795171Y-128397201D01*
X24345448Y-128369230D01*
X24723923Y-128212460D01*
X24791912Y-127971517D01*
X24000000Y-127179605D01*
X23208088Y-127971517D01*
X22987183Y-127971517D01*
X23173461Y-127785564D01*
X23271901Y-127548494D01*
X23820395Y-127000000D01*
X24179605Y-127000000D01*
X24728033Y-127548428D01*
X24825169Y-127783515D01*
X25214436Y-128173461D01*
X25723298Y-128384759D01*
X26274285Y-128385240D01*
X26783515Y-128174831D01*
X27000036Y-127958687D01*
X27214436Y-128173461D01*
X27723298Y-128384759D01*
X28274285Y-128385240D01*
X28783515Y-128174831D01*
X28987183Y-127971517D01*
X29208088Y-127971517D01*
X29276077Y-128212460D01*
X29795171Y-128397201D01*
X30345448Y-128369230D01*
X30723923Y-128212460D01*
X30791912Y-127971517D01*
X30000000Y-127179605D01*
X29208088Y-127971517D01*
X28987183Y-127971517D01*
X29173461Y-127785564D01*
X29271901Y-127548494D01*
X29820395Y-127000000D01*
X29271967Y-126451572D01*
X29174831Y-126216485D01*
X28987157Y-126028483D01*
X29208088Y-126028483D01*
X30000000Y-126820395D01*
X30791912Y-126028483D01*
X30723923Y-125787540D01*
X30204829Y-125602799D01*
X29654552Y-125630770D01*
X29276077Y-125787540D01*
X29208088Y-126028483D01*
X28987157Y-126028483D01*
X28785564Y-125826539D01*
X28276702Y-125615241D01*
X27725715Y-125614760D01*
X27216485Y-125825169D01*
X26999964Y-126041313D01*
X26785564Y-125826539D01*
X26276702Y-125615241D01*
X25725715Y-125614760D01*
X25216485Y-125825169D01*
X24826539Y-126214436D01*
X24728099Y-126451506D01*
X24179605Y-127000000D01*
X23820395Y-127000000D01*
X23271967Y-126451572D01*
X23174831Y-126216485D01*
X22987157Y-126028483D01*
X23208088Y-126028483D01*
X24000000Y-126820395D01*
X24791912Y-126028483D01*
X24723923Y-125787540D01*
X24204829Y-125602799D01*
X23654552Y-125630770D01*
X23276077Y-125787540D01*
X23208088Y-126028483D01*
X22987157Y-126028483D01*
X22785564Y-125826539D01*
X22276702Y-125615241D01*
X21725715Y-125614760D01*
X21216485Y-125825169D01*
X20826539Y-126214436D01*
X20615241Y-126723298D01*
X20614760Y-127274285D01*
X20334999Y-127274285D01*
X20334999Y-118147440D01*
X22600000Y-118147440D01*
X22835317Y-118103162D01*
X23051441Y-117964090D01*
X23196431Y-117751890D01*
X23247440Y-117500000D01*
X23247440Y-114500000D01*
X23203162Y-114264683D01*
X23064090Y-114048559D01*
X22851890Y-113903569D01*
X22600000Y-113852560D01*
X20334999Y-113852560D01*
X20334999Y-108723157D01*
X24414874Y-104643282D01*
X24414552Y-105011932D01*
X24807266Y-105962372D01*
X25533803Y-106690178D01*
X26215000Y-106973036D01*
X26215000Y-113910002D01*
X26274755Y-114210409D01*
X26444921Y-114465081D01*
X32600000Y-120620160D01*
X32600000Y-125749486D01*
X32276702Y-125615241D01*
X31725715Y-125614760D01*
X31216485Y-125825169D01*
X30826539Y-126214436D01*
X30728099Y-126451506D01*
X30179605Y-127000000D01*
X30728033Y-127548428D01*
X30825169Y-127783515D01*
X31214436Y-128173461D01*
X31723298Y-128384759D01*
X32274285Y-128385240D01*
X32600000Y-128250658D01*
X32600000Y-131539842D01*
X31216490Y-132923352D01*
X31076648Y-132865284D01*
X30426205Y-132864716D01*
X29825057Y-133113106D01*
X29364722Y-133572637D01*
X29115284Y-134173352D01*
X29114716Y-134823795D01*
X29363106Y-135424943D01*
X29822637Y-135885278D01*
X30423352Y-136134716D01*
X31073795Y-136135284D01*
X31674943Y-135886894D01*
X32135278Y-135427363D01*
X32384716Y-134826648D01*
X32385284Y-134176205D01*
X32326418Y-134033740D01*
X33940079Y-132420079D01*
X34110245Y-132165406D01*
X34170000Y-131865000D01*
X34170000Y-120295007D01*
X34170001Y-120295002D01*
X34110245Y-119994596D01*
X33940079Y-119739923D01*
X32347596Y-118147440D01*
X34000000Y-118147440D01*
X34235317Y-118103162D01*
X34451441Y-117964090D01*
X34596431Y-117751890D01*
X34647440Y-117500000D01*
X34647440Y-114500000D01*
X34603162Y-114264683D01*
X34464090Y-114048559D01*
X34251890Y-113903569D01*
X34000000Y-113852560D01*
X31400000Y-113852560D01*
X31164683Y-113896838D01*
X30948559Y-114035910D01*
X30803569Y-114248110D01*
X30752560Y-114500000D01*
X30752560Y-116552404D01*
X27785000Y-113584844D01*
X27785000Y-109337003D01*
X36729999Y-109337003D01*
X36729999Y-126264999D01*
X36789754Y-126565406D01*
X36959920Y-126820078D01*
X44173352Y-134033510D01*
X44115284Y-134173352D01*
X44114716Y-134823795D01*
X44363106Y-135424943D01*
X44822637Y-135885278D01*
X45423352Y-136134716D01*
X46073795Y-136135284D01*
X46674943Y-135886894D01*
X47135278Y-135427363D01*
X47384716Y-134826648D01*
X47385284Y-134176205D01*
X47136894Y-133575057D01*
X46677363Y-133114722D01*
X46076648Y-132865284D01*
X45426205Y-132864716D01*
X45283740Y-132923582D01*
X39634443Y-127274285D01*
X40614760Y-127274285D01*
X40825169Y-127783515D01*
X41214436Y-128173461D01*
X41723298Y-128384759D01*
X42274285Y-128385240D01*
X42783515Y-128174831D01*
X42987183Y-127971517D01*
X43208088Y-127971517D01*
X43276077Y-128212460D01*
X43795171Y-128397201D01*
X44345448Y-128369230D01*
X44723923Y-128212460D01*
X44791912Y-127971517D01*
X44000000Y-127179605D01*
X43208088Y-127971517D01*
X42987183Y-127971517D01*
X43173461Y-127785564D01*
X43271901Y-127548494D01*
X43820395Y-127000000D01*
X44179605Y-127000000D01*
X44728033Y-127548428D01*
X44825169Y-127783515D01*
X45214436Y-128173461D01*
X45723298Y-128384759D01*
X46274285Y-128385240D01*
X46783515Y-128174831D01*
X47000036Y-127958687D01*
X47214436Y-128173461D01*
X47723298Y-128384759D01*
X48274285Y-128385240D01*
X48783515Y-128174831D01*
X48987183Y-127971517D01*
X49208088Y-127971517D01*
X49276077Y-128212460D01*
X49795171Y-128397201D01*
X50345448Y-128369230D01*
X50723923Y-128212460D01*
X50791912Y-127971517D01*
X50000000Y-127179605D01*
X49208088Y-127971517D01*
X48987183Y-127971517D01*
X49173461Y-127785564D01*
X49271901Y-127548494D01*
X49820395Y-127000000D01*
X49271967Y-126451572D01*
X49174831Y-126216485D01*
X48987157Y-126028483D01*
X49208088Y-126028483D01*
X50000000Y-126820395D01*
X50791912Y-126028483D01*
X50723923Y-125787540D01*
X50204829Y-125602799D01*
X49654552Y-125630770D01*
X49276077Y-125787540D01*
X49208088Y-126028483D01*
X48987157Y-126028483D01*
X48785564Y-125826539D01*
X48276702Y-125615241D01*
X47725715Y-125614760D01*
X47216485Y-125825169D01*
X46999964Y-126041313D01*
X46785564Y-125826539D01*
X46276702Y-125615241D01*
X45725715Y-125614760D01*
X45216485Y-125825169D01*
X44826539Y-126214436D01*
X44728099Y-126451506D01*
X44179605Y-127000000D01*
X43820395Y-127000000D01*
X43271967Y-126451572D01*
X43174831Y-126216485D01*
X42987157Y-126028483D01*
X43208088Y-126028483D01*
X44000000Y-126820395D01*
X44791912Y-126028483D01*
X44723923Y-125787540D01*
X44204829Y-125602799D01*
X43654552Y-125630770D01*
X43276077Y-125787540D01*
X43208088Y-126028483D01*
X42987157Y-126028483D01*
X42785564Y-125826539D01*
X42276702Y-125615241D01*
X41725715Y-125614760D01*
X41216485Y-125825169D01*
X40826539Y-126214436D01*
X40615241Y-126723298D01*
X40614760Y-127274285D01*
X39634443Y-127274285D01*
X38299999Y-125939841D01*
X38299999Y-121909857D01*
X38689775Y-121910197D01*
X39107086Y-121737767D01*
X39285163Y-121560000D01*
X49709898Y-121560000D01*
X49886235Y-121736645D01*
X50303244Y-121909803D01*
X50754775Y-121910197D01*
X51172086Y-121737767D01*
X51491645Y-121418765D01*
X51664803Y-121001756D01*
X51665197Y-120550225D01*
X51520234Y-120199389D01*
X52415001Y-121094156D01*
X52415001Y-125672668D01*
X52276702Y-125615241D01*
X51725715Y-125614760D01*
X51216485Y-125825169D01*
X50826539Y-126214436D01*
X50728099Y-126451506D01*
X50179605Y-127000000D01*
X50728033Y-127548428D01*
X50825169Y-127783515D01*
X51214436Y-128173461D01*
X51723298Y-128384759D01*
X52274285Y-128385240D01*
X52415001Y-128327097D01*
X52415001Y-131724842D01*
X51216490Y-132923352D01*
X51076648Y-132865284D01*
X50426205Y-132864716D01*
X49825057Y-133113106D01*
X49364722Y-133572637D01*
X49115284Y-134173352D01*
X49114716Y-134823795D01*
X49363106Y-135424943D01*
X49822637Y-135885278D01*
X50423352Y-136134716D01*
X51073795Y-136135284D01*
X51674943Y-135886894D01*
X52135278Y-135427363D01*
X52384716Y-134826648D01*
X52385284Y-134176205D01*
X52326418Y-134033740D01*
X53755077Y-132605080D01*
X53755080Y-132605078D01*
X53925246Y-132350405D01*
X53985001Y-132049999D01*
X53985001Y-120769004D01*
X53985002Y-120768999D01*
X53925246Y-120468593D01*
X53890773Y-120417000D01*
X53755080Y-120213920D01*
X53755077Y-120213918D01*
X51688599Y-118147440D01*
X54000000Y-118147440D01*
X54235317Y-118103162D01*
X54451441Y-117964090D01*
X54596431Y-117751890D01*
X54647440Y-117500000D01*
X54647440Y-114500000D01*
X54603162Y-114264683D01*
X54464090Y-114048559D01*
X54251890Y-113903569D01*
X54000000Y-113852560D01*
X51400000Y-113852560D01*
X51164683Y-113896838D01*
X50948559Y-114035910D01*
X50803569Y-114248110D01*
X50752560Y-114500000D01*
X50752560Y-117211401D01*
X47785000Y-114243840D01*
X47785000Y-110082892D01*
X54168514Y-110082892D01*
X54414817Y-110607358D01*
X54843076Y-110997645D01*
X55253110Y-111167476D01*
X55483000Y-111046155D01*
X55483000Y-109853000D01*
X54289181Y-109853000D01*
X54168514Y-110082892D01*
X47785000Y-110082892D01*
X47785000Y-109369108D01*
X54168514Y-109369108D01*
X54289181Y-109599000D01*
X55483000Y-109599000D01*
X55483000Y-108405845D01*
X55737000Y-108405845D01*
X55737000Y-109599000D01*
X55757000Y-109599000D01*
X55757000Y-109853000D01*
X55737000Y-109853000D01*
X55737000Y-111046155D01*
X55966890Y-111167476D01*
X56376924Y-110997645D01*
X56679937Y-110721499D01*
X56696838Y-110811317D01*
X56835910Y-111027441D01*
X57048110Y-111172431D01*
X57300000Y-111223440D01*
X57872404Y-111223440D01*
X57848921Y-111246923D01*
X57678755Y-111501595D01*
X57678755Y-111501596D01*
X57619000Y-111802002D01*
X57619000Y-127154000D01*
X57678755Y-127454407D01*
X57848921Y-127709079D01*
X64173352Y-134033510D01*
X64115284Y-134173352D01*
X64114716Y-134823795D01*
X64363106Y-135424943D01*
X64822637Y-135885278D01*
X65423352Y-136134716D01*
X66073795Y-136135284D01*
X66674943Y-135886894D01*
X67135278Y-135427363D01*
X67384716Y-134826648D01*
X67385284Y-134176205D01*
X67136894Y-133575057D01*
X66677363Y-133114722D01*
X66076648Y-132865284D01*
X65426205Y-132864716D01*
X65283740Y-132923582D01*
X59634443Y-127274285D01*
X60614760Y-127274285D01*
X60825169Y-127783515D01*
X61214436Y-128173461D01*
X61723298Y-128384759D01*
X62274285Y-128385240D01*
X62783515Y-128174831D01*
X62987183Y-127971517D01*
X63208088Y-127971517D01*
X63276077Y-128212460D01*
X63795171Y-128397201D01*
X64345448Y-128369230D01*
X64723923Y-128212460D01*
X64791912Y-127971517D01*
X64000000Y-127179605D01*
X63208088Y-127971517D01*
X62987183Y-127971517D01*
X63173461Y-127785564D01*
X63271901Y-127548494D01*
X63820395Y-127000000D01*
X64179605Y-127000000D01*
X64728033Y-127548428D01*
X64825169Y-127783515D01*
X65214436Y-128173461D01*
X65723298Y-128384759D01*
X66274285Y-128385240D01*
X66783515Y-128174831D01*
X67000036Y-127958687D01*
X67214436Y-128173461D01*
X67723298Y-128384759D01*
X68274285Y-128385240D01*
X68783515Y-128174831D01*
X68987183Y-127971517D01*
X69208088Y-127971517D01*
X69276077Y-128212460D01*
X69795171Y-128397201D01*
X70345448Y-128369230D01*
X70723923Y-128212460D01*
X70791912Y-127971517D01*
X70000000Y-127179605D01*
X69208088Y-127971517D01*
X68987183Y-127971517D01*
X69173461Y-127785564D01*
X69271901Y-127548494D01*
X69820395Y-127000000D01*
X69271967Y-126451572D01*
X69174831Y-126216485D01*
X68987157Y-126028483D01*
X69208088Y-126028483D01*
X70000000Y-126820395D01*
X70791912Y-126028483D01*
X70723923Y-125787540D01*
X70204829Y-125602799D01*
X69654552Y-125630770D01*
X69276077Y-125787540D01*
X69208088Y-126028483D01*
X68987157Y-126028483D01*
X68785564Y-125826539D01*
X68276702Y-125615241D01*
X67725715Y-125614760D01*
X67216485Y-125825169D01*
X66999964Y-126041313D01*
X66785564Y-125826539D01*
X66276702Y-125615241D01*
X65725715Y-125614760D01*
X65216485Y-125825169D01*
X64826539Y-126214436D01*
X64728099Y-126451506D01*
X64179605Y-127000000D01*
X63820395Y-127000000D01*
X63271967Y-126451572D01*
X63174831Y-126216485D01*
X62987157Y-126028483D01*
X63208088Y-126028483D01*
X64000000Y-126820395D01*
X64791912Y-126028483D01*
X64723923Y-125787540D01*
X64204829Y-125602799D01*
X63654552Y-125630770D01*
X63276077Y-125787540D01*
X63208088Y-126028483D01*
X62987157Y-126028483D01*
X62785564Y-125826539D01*
X62276702Y-125615241D01*
X61725715Y-125614760D01*
X61216485Y-125825169D01*
X60826539Y-126214436D01*
X60615241Y-126723298D01*
X60614760Y-127274285D01*
X59634443Y-127274285D01*
X59189000Y-126828842D01*
X59189000Y-121908041D01*
X59193244Y-121909803D01*
X59644775Y-121910197D01*
X60062086Y-121737767D01*
X60240163Y-121560000D01*
X70029898Y-121560000D01*
X70206235Y-121736645D01*
X70623244Y-121909803D01*
X71074775Y-121910197D01*
X71492086Y-121737767D01*
X71811645Y-121418765D01*
X71984803Y-121001756D01*
X71985118Y-120640278D01*
X72415001Y-121070160D01*
X72415001Y-125672668D01*
X72276702Y-125615241D01*
X71725715Y-125614760D01*
X71216485Y-125825169D01*
X70826539Y-126214436D01*
X70728099Y-126451506D01*
X70179605Y-127000000D01*
X70728033Y-127548428D01*
X70825169Y-127783515D01*
X71214436Y-128173461D01*
X71723298Y-128384759D01*
X72274285Y-128385240D01*
X72415001Y-128327097D01*
X72415001Y-131724841D01*
X71216490Y-132923352D01*
X71076648Y-132865284D01*
X70426205Y-132864716D01*
X69825057Y-133113106D01*
X69364722Y-133572637D01*
X69115284Y-134173352D01*
X69114716Y-134823795D01*
X69363106Y-135424943D01*
X69822637Y-135885278D01*
X70423352Y-136134716D01*
X71073795Y-136135284D01*
X71674943Y-135886894D01*
X72135278Y-135427363D01*
X72384716Y-134826648D01*
X72385284Y-134176205D01*
X72326418Y-134033740D01*
X73755080Y-132605078D01*
X73925246Y-132350405D01*
X73985002Y-132049999D01*
X73985001Y-132049994D01*
X73985001Y-120745008D01*
X73985002Y-120745003D01*
X73925246Y-120444597D01*
X73902403Y-120410410D01*
X73755080Y-120189924D01*
X73755077Y-120189922D01*
X71712595Y-118147440D01*
X74000000Y-118147440D01*
X74235317Y-118103162D01*
X74451441Y-117964090D01*
X74596431Y-117751890D01*
X74647440Y-117500000D01*
X74647440Y-114500000D01*
X74603162Y-114264683D01*
X74464090Y-114048559D01*
X74251890Y-113903569D01*
X74000000Y-113852560D01*
X71400000Y-113852560D01*
X71164683Y-113896838D01*
X70948559Y-114035910D01*
X70803569Y-114248110D01*
X70752560Y-114500000D01*
X70752560Y-117187405D01*
X67785000Y-114219844D01*
X67785000Y-108449003D01*
X77469999Y-108449003D01*
X77469999Y-127004999D01*
X77529754Y-127305406D01*
X77699920Y-127560078D01*
X84173352Y-134033510D01*
X84115284Y-134173352D01*
X84114716Y-134823795D01*
X84363106Y-135424943D01*
X84822637Y-135885278D01*
X85423352Y-136134716D01*
X86073795Y-136135284D01*
X86674943Y-135886894D01*
X87135278Y-135427363D01*
X87384716Y-134826648D01*
X87385284Y-134176205D01*
X87136894Y-133575057D01*
X86677363Y-133114722D01*
X86076648Y-132865284D01*
X85426205Y-132864716D01*
X85283740Y-132923582D01*
X79634443Y-127274285D01*
X80614760Y-127274285D01*
X80825169Y-127783515D01*
X81214436Y-128173461D01*
X81723298Y-128384759D01*
X82274285Y-128385240D01*
X82783515Y-128174831D01*
X82987183Y-127971517D01*
X83208088Y-127971517D01*
X83276077Y-128212460D01*
X83795171Y-128397201D01*
X84345448Y-128369230D01*
X84723923Y-128212460D01*
X84791912Y-127971517D01*
X84000000Y-127179605D01*
X83208088Y-127971517D01*
X82987183Y-127971517D01*
X83173461Y-127785564D01*
X83271901Y-127548494D01*
X83820395Y-127000000D01*
X84179605Y-127000000D01*
X84728033Y-127548428D01*
X84825169Y-127783515D01*
X85214436Y-128173461D01*
X85723298Y-128384759D01*
X86274285Y-128385240D01*
X86783515Y-128174831D01*
X87000036Y-127958687D01*
X87214436Y-128173461D01*
X87723298Y-128384759D01*
X88274285Y-128385240D01*
X88783515Y-128174831D01*
X88987183Y-127971517D01*
X89208088Y-127971517D01*
X89276077Y-128212460D01*
X89795171Y-128397201D01*
X90345448Y-128369230D01*
X90723923Y-128212460D01*
X90791912Y-127971517D01*
X90000000Y-127179605D01*
X89208088Y-127971517D01*
X88987183Y-127971517D01*
X89173461Y-127785564D01*
X89271901Y-127548494D01*
X89820395Y-127000000D01*
X89271967Y-126451572D01*
X89174831Y-126216485D01*
X88987157Y-126028483D01*
X89208088Y-126028483D01*
X90000000Y-126820395D01*
X90791912Y-126028483D01*
X90723923Y-125787540D01*
X90204829Y-125602799D01*
X89654552Y-125630770D01*
X89276077Y-125787540D01*
X89208088Y-126028483D01*
X88987157Y-126028483D01*
X88785564Y-125826539D01*
X88276702Y-125615241D01*
X87725715Y-125614760D01*
X87216485Y-125825169D01*
X86999964Y-126041313D01*
X86785564Y-125826539D01*
X86276702Y-125615241D01*
X85725715Y-125614760D01*
X85216485Y-125825169D01*
X84826539Y-126214436D01*
X84728099Y-126451506D01*
X84179605Y-127000000D01*
X83820395Y-127000000D01*
X83271967Y-126451572D01*
X83174831Y-126216485D01*
X82987157Y-126028483D01*
X83208088Y-126028483D01*
X84000000Y-126820395D01*
X84791912Y-126028483D01*
X84723923Y-125787540D01*
X84204829Y-125602799D01*
X83654552Y-125630770D01*
X83276077Y-125787540D01*
X83208088Y-126028483D01*
X82987157Y-126028483D01*
X82785564Y-125826539D01*
X82276702Y-125615241D01*
X81725715Y-125614760D01*
X81216485Y-125825169D01*
X80826539Y-126214436D01*
X80615241Y-126723298D01*
X80614760Y-127274285D01*
X79634443Y-127274285D01*
X79039999Y-126679841D01*
X79039999Y-121909944D01*
X79329775Y-121910197D01*
X79747086Y-121737767D01*
X79925163Y-121560000D01*
X90349898Y-121560000D01*
X90526235Y-121736645D01*
X90943244Y-121909803D01*
X91394775Y-121910197D01*
X91812086Y-121737767D01*
X92131645Y-121418765D01*
X92304803Y-121001756D01*
X92305197Y-120550225D01*
X92146858Y-120167017D01*
X92415001Y-120435160D01*
X92415001Y-125672668D01*
X92276702Y-125615241D01*
X91725715Y-125614760D01*
X91216485Y-125825169D01*
X90826539Y-126214436D01*
X90728099Y-126451506D01*
X90179605Y-127000000D01*
X90728033Y-127548428D01*
X90825169Y-127783515D01*
X91214436Y-128173461D01*
X91723298Y-128384759D01*
X92274285Y-128385240D01*
X92415001Y-128327097D01*
X92415001Y-131724841D01*
X91216490Y-132923352D01*
X91076648Y-132865284D01*
X90426205Y-132864716D01*
X89825057Y-133113106D01*
X89364722Y-133572637D01*
X89115284Y-134173352D01*
X89114716Y-134823795D01*
X89363106Y-135424943D01*
X89822637Y-135885278D01*
X90423352Y-136134716D01*
X91073795Y-136135284D01*
X91674943Y-135886894D01*
X92135278Y-135427363D01*
X92384716Y-134826648D01*
X92385284Y-134176205D01*
X92326418Y-134033740D01*
X93755080Y-132605078D01*
X93925246Y-132350405D01*
X93985002Y-132049999D01*
X93985001Y-132049994D01*
X93985001Y-120110008D01*
X93985002Y-120110003D01*
X93925246Y-119809597D01*
X93755080Y-119554924D01*
X93755077Y-119554922D01*
X92347595Y-118147440D01*
X94000000Y-118147440D01*
X94235317Y-118103162D01*
X94451441Y-117964090D01*
X94596431Y-117751890D01*
X94647440Y-117500000D01*
X94647440Y-114500000D01*
X94603162Y-114264683D01*
X94464090Y-114048559D01*
X94251890Y-113903569D01*
X94000000Y-113852560D01*
X91400000Y-113852560D01*
X91164683Y-113896838D01*
X90948559Y-114035910D01*
X90803569Y-114248110D01*
X90752560Y-114500000D01*
X90752560Y-116552405D01*
X87785000Y-113584844D01*
X87785000Y-110917003D01*
X95149999Y-110917003D01*
X95149999Y-124684999D01*
X95209754Y-124985406D01*
X95379920Y-125240078D01*
X104173352Y-134033510D01*
X104115284Y-134173352D01*
X104114716Y-134823795D01*
X104363106Y-135424943D01*
X104822637Y-135885278D01*
X105423352Y-136134716D01*
X106073795Y-136135284D01*
X106674943Y-135886894D01*
X107135278Y-135427363D01*
X107384716Y-134826648D01*
X107385284Y-134176205D01*
X107136894Y-133575057D01*
X106677363Y-133114722D01*
X106076648Y-132865284D01*
X105426205Y-132864716D01*
X105283740Y-132923582D01*
X96719999Y-124359841D01*
X96719999Y-121011932D01*
X104414552Y-121011932D01*
X104807266Y-121962372D01*
X105533803Y-122690178D01*
X106483556Y-123084550D01*
X107511932Y-123085448D01*
X108462372Y-122692734D01*
X109190178Y-121966197D01*
X109584550Y-121016444D01*
X109585448Y-119988068D01*
X109192734Y-119037628D01*
X108466197Y-118309822D01*
X107516444Y-117915450D01*
X106488068Y-117914552D01*
X105537628Y-118307266D01*
X104809822Y-119033803D01*
X104415450Y-119983556D01*
X104414552Y-121011932D01*
X96719999Y-121011932D01*
X96719999Y-116511932D01*
X100714552Y-116511932D01*
X101107266Y-117462372D01*
X101833803Y-118190178D01*
X102783556Y-118584550D01*
X103811932Y-118585448D01*
X104762372Y-118192734D01*
X105116796Y-117838927D01*
X109040678Y-117838927D01*
X109255353Y-118204451D01*
X110208927Y-118589490D01*
X111237263Y-118580302D01*
X112144647Y-118204451D01*
X112359322Y-117838927D01*
X110700000Y-116179605D01*
X109040678Y-117838927D01*
X105116796Y-117838927D01*
X105490178Y-117466197D01*
X105884550Y-116516444D01*
X105885448Y-115488068D01*
X105560315Y-114701187D01*
X106483556Y-115084550D01*
X107511932Y-115085448D01*
X108435612Y-114703791D01*
X108110510Y-115508927D01*
X108119698Y-116537263D01*
X108495549Y-117444647D01*
X108861073Y-117659322D01*
X110520395Y-116000000D01*
X110879605Y-116000000D01*
X112538927Y-117659322D01*
X112904451Y-117444647D01*
X113289490Y-116491073D01*
X113280302Y-115462737D01*
X112904451Y-114555353D01*
X112538927Y-114340678D01*
X110879605Y-116000000D01*
X110520395Y-116000000D01*
X110506253Y-115985858D01*
X110685858Y-115806253D01*
X110700000Y-115820395D01*
X112359322Y-114161073D01*
X112144647Y-113795549D01*
X111191073Y-113410510D01*
X110162737Y-113419698D01*
X109262218Y-113792705D01*
X109584550Y-113016444D01*
X109585448Y-111988068D01*
X109192734Y-111037628D01*
X108466197Y-110309822D01*
X107516444Y-109915450D01*
X106488068Y-109914552D01*
X105537628Y-110307266D01*
X104809822Y-111033803D01*
X104415450Y-111983556D01*
X104414552Y-113011932D01*
X104739685Y-113798813D01*
X103816444Y-113415450D01*
X102788068Y-113414552D01*
X101837628Y-113807266D01*
X101109822Y-114533803D01*
X100715450Y-115483556D01*
X100714552Y-116511932D01*
X96719999Y-116511932D01*
X96719999Y-111242161D01*
X104725652Y-103236508D01*
X104415450Y-103983556D01*
X104414552Y-105011932D01*
X104807266Y-105962372D01*
X105533803Y-106690178D01*
X106483556Y-107084550D01*
X107511932Y-107085448D01*
X108193622Y-106803779D01*
X116100001Y-114710158D01*
X116100001Y-128039842D01*
X111216490Y-132923352D01*
X111076648Y-132865284D01*
X110426205Y-132864716D01*
X109825057Y-133113106D01*
X109364722Y-133572637D01*
X109115284Y-134173352D01*
X109114716Y-134823795D01*
X109363106Y-135424943D01*
X109822637Y-135885278D01*
X110423352Y-136134716D01*
X111073795Y-136135284D01*
X111674943Y-135886894D01*
X112135278Y-135427363D01*
X112384716Y-134826648D01*
X112385284Y-134176205D01*
X112326418Y-134033740D01*
X117440077Y-128920080D01*
X117440080Y-128920078D01*
X117610246Y-128665405D01*
X117670001Y-128364999D01*
X117670001Y-114385001D01*
X117610246Y-114084595D01*
X117440080Y-113829922D01*
X117440077Y-113829920D01*
X109303484Y-105693326D01*
X109584550Y-105016444D01*
X109584553Y-105011932D01*
X124414552Y-105011932D01*
X124807266Y-105962372D01*
X125533803Y-106690178D01*
X126483556Y-107084550D01*
X127511932Y-107085448D01*
X128462372Y-106692734D01*
X129190178Y-105966197D01*
X129584550Y-105016444D01*
X129585448Y-103988068D01*
X129192734Y-103037628D01*
X128466197Y-102309822D01*
X127516444Y-101915450D01*
X126488068Y-101914552D01*
X125537628Y-102307266D01*
X124809822Y-103033803D01*
X124415450Y-103983556D01*
X124414552Y-105011932D01*
X109584553Y-105011932D01*
X109585448Y-103988068D01*
X109192734Y-103037628D01*
X108466197Y-102309822D01*
X107516444Y-101915450D01*
X106488068Y-101914552D01*
X105737464Y-102224696D01*
X106123232Y-101838927D01*
X109040678Y-101838927D01*
X109255353Y-102204451D01*
X110208927Y-102589490D01*
X111237263Y-102580302D01*
X112144647Y-102204451D01*
X112359322Y-101838927D01*
X110700000Y-100179605D01*
X109040678Y-101838927D01*
X106123232Y-101838927D01*
X107555076Y-100407083D01*
X107555079Y-100407081D01*
X107725245Y-100152408D01*
X107785000Y-99852002D01*
X107785000Y-98972619D01*
X108435612Y-98703791D01*
X108110510Y-99508927D01*
X108119698Y-100537263D01*
X108495549Y-101444647D01*
X108861073Y-101659322D01*
X110520395Y-100000000D01*
X110879605Y-100000000D01*
X112538927Y-101659322D01*
X112904451Y-101444647D01*
X113281067Y-100511932D01*
X120714552Y-100511932D01*
X121107266Y-101462372D01*
X121833803Y-102190178D01*
X122783556Y-102584550D01*
X123811932Y-102585448D01*
X124762372Y-102192734D01*
X125116796Y-101838927D01*
X129040678Y-101838927D01*
X129255353Y-102204451D01*
X130208927Y-102589490D01*
X131237263Y-102580302D01*
X132144647Y-102204451D01*
X132359322Y-101838927D01*
X130700000Y-100179605D01*
X129040678Y-101838927D01*
X125116796Y-101838927D01*
X125490178Y-101466197D01*
X125884550Y-100516444D01*
X125885448Y-99488068D01*
X125560315Y-98701187D01*
X126483556Y-99084550D01*
X127511932Y-99085448D01*
X128435612Y-98703791D01*
X128110510Y-99508927D01*
X128119698Y-100537263D01*
X128495549Y-101444647D01*
X128861073Y-101659322D01*
X130520395Y-100000000D01*
X130879605Y-100000000D01*
X132538927Y-101659322D01*
X132904451Y-101444647D01*
X133289490Y-100491073D01*
X133280302Y-99462737D01*
X132904451Y-98555353D01*
X132538927Y-98340678D01*
X130879605Y-100000000D01*
X130520395Y-100000000D01*
X130506253Y-99985858D01*
X130685858Y-99806253D01*
X130700000Y-99820395D01*
X132359322Y-98161073D01*
X132144647Y-97795549D01*
X131191073Y-97410510D01*
X130162737Y-97419698D01*
X129262218Y-97792705D01*
X129584550Y-97016444D01*
X129585448Y-95988068D01*
X129192734Y-95037628D01*
X128466197Y-94309822D01*
X127516444Y-93915450D01*
X126488068Y-93914552D01*
X125537628Y-94307266D01*
X124809822Y-95033803D01*
X124415450Y-95983556D01*
X124414552Y-97011932D01*
X124739685Y-97798813D01*
X123816444Y-97415450D01*
X122788068Y-97414552D01*
X121837628Y-97807266D01*
X121109822Y-98533803D01*
X120715450Y-99483556D01*
X120714552Y-100511932D01*
X113281067Y-100511932D01*
X113289490Y-100491073D01*
X113280302Y-99462737D01*
X112904451Y-98555353D01*
X112538927Y-98340678D01*
X110879605Y-100000000D01*
X110520395Y-100000000D01*
X110506253Y-99985858D01*
X110685858Y-99806253D01*
X110700000Y-99820395D01*
X112359322Y-98161073D01*
X112144647Y-97795549D01*
X111191073Y-97410510D01*
X110162737Y-97419698D01*
X109262218Y-97792705D01*
X109584550Y-97016444D01*
X109585448Y-95988068D01*
X109192734Y-95037628D01*
X108466197Y-94309822D01*
X107516444Y-93915450D01*
X106488068Y-93914552D01*
X105537628Y-94307266D01*
X104809822Y-95033803D01*
X104415450Y-95983556D01*
X104414552Y-97011932D01*
X104739685Y-97798813D01*
X103816444Y-97415450D01*
X102788068Y-97414552D01*
X101837628Y-97807266D01*
X101109822Y-98533803D01*
X100715450Y-99483556D01*
X100714552Y-100511932D01*
X101107266Y-101462372D01*
X101833803Y-102190178D01*
X102783556Y-102584550D01*
X103156969Y-102584876D01*
X95379920Y-110361924D01*
X95209754Y-110616596D01*
X95209754Y-110616597D01*
X95149999Y-110917003D01*
X87785000Y-110917003D01*
X87785000Y-106972619D01*
X88462372Y-106692734D01*
X89190178Y-105966197D01*
X89584550Y-105016444D01*
X89585448Y-103988068D01*
X89192734Y-103037628D01*
X88466197Y-102309822D01*
X87516444Y-101915450D01*
X86488068Y-101914552D01*
X85537628Y-102307266D01*
X84809822Y-103033803D01*
X84415450Y-103983556D01*
X84414552Y-105011932D01*
X84807266Y-105962372D01*
X85533803Y-106690178D01*
X86215000Y-106973036D01*
X86215000Y-113910002D01*
X86274755Y-114210409D01*
X86444921Y-114465081D01*
X91778590Y-119798749D01*
X91396756Y-119640197D01*
X90945225Y-119639803D01*
X90527914Y-119812233D01*
X90349837Y-119990000D01*
X79925102Y-119990000D01*
X79748765Y-119813355D01*
X79331756Y-119640197D01*
X79039999Y-119639942D01*
X79039999Y-114500000D01*
X79352560Y-114500000D01*
X79352560Y-117500000D01*
X79396838Y-117735317D01*
X79535910Y-117951441D01*
X79748110Y-118096431D01*
X80000000Y-118147440D01*
X82600000Y-118147440D01*
X82835317Y-118103162D01*
X83051441Y-117964090D01*
X83196431Y-117751890D01*
X83247440Y-117500000D01*
X83247440Y-114500000D01*
X83203162Y-114264683D01*
X83064090Y-114048559D01*
X82851890Y-113903569D01*
X82600000Y-113852560D01*
X80000000Y-113852560D01*
X79764683Y-113896838D01*
X79548559Y-114035910D01*
X79403569Y-114248110D01*
X79352560Y-114500000D01*
X79039999Y-114500000D01*
X79039999Y-108774161D01*
X85975233Y-101838927D01*
X89040678Y-101838927D01*
X89255353Y-102204451D01*
X90208927Y-102589490D01*
X91237263Y-102580302D01*
X92144647Y-102204451D01*
X92359322Y-101838927D01*
X90700000Y-100179605D01*
X89040678Y-101838927D01*
X85975233Y-101838927D01*
X87555079Y-100259081D01*
X87725245Y-100004409D01*
X87785000Y-99704002D01*
X87785000Y-98972619D01*
X88435612Y-98703791D01*
X88110510Y-99508927D01*
X88119698Y-100537263D01*
X88495549Y-101444647D01*
X88861073Y-101659322D01*
X90520395Y-100000000D01*
X90879605Y-100000000D01*
X92538927Y-101659322D01*
X92904451Y-101444647D01*
X93289490Y-100491073D01*
X93280302Y-99462737D01*
X92904451Y-98555353D01*
X92538927Y-98340678D01*
X90879605Y-100000000D01*
X90520395Y-100000000D01*
X90506253Y-99985858D01*
X90685858Y-99806253D01*
X90700000Y-99820395D01*
X92359322Y-98161073D01*
X92144647Y-97795549D01*
X91191073Y-97410510D01*
X90162737Y-97419698D01*
X89262218Y-97792705D01*
X89584550Y-97016444D01*
X89585448Y-95988068D01*
X89192734Y-95037628D01*
X88466197Y-94309822D01*
X87516444Y-93915450D01*
X86488068Y-93914552D01*
X85537628Y-94307266D01*
X84809822Y-95033803D01*
X84415450Y-95983556D01*
X84414552Y-97011932D01*
X84739685Y-97798813D01*
X83816444Y-97415450D01*
X82788068Y-97414552D01*
X81837628Y-97807266D01*
X81109822Y-98533803D01*
X80715450Y-99483556D01*
X80714552Y-100511932D01*
X81107266Y-101462372D01*
X81833803Y-102190178D01*
X82783556Y-102584550D01*
X83009097Y-102584747D01*
X77699920Y-107893924D01*
X77529754Y-108148596D01*
X77529754Y-108148597D01*
X77469999Y-108449003D01*
X67785000Y-108449003D01*
X67785000Y-106972619D01*
X68462372Y-106692734D01*
X69190178Y-105966197D01*
X69584550Y-105016444D01*
X69585448Y-103988068D01*
X69192734Y-103037628D01*
X68466197Y-102309822D01*
X67516444Y-101915450D01*
X66488068Y-101914552D01*
X65537628Y-102307266D01*
X65484999Y-102359803D01*
X65484999Y-102329161D01*
X65975233Y-101838927D01*
X69040678Y-101838927D01*
X69255353Y-102204451D01*
X70208927Y-102589490D01*
X71237263Y-102580302D01*
X72144647Y-102204451D01*
X72359322Y-101838927D01*
X70700000Y-100179605D01*
X69040678Y-101838927D01*
X65975233Y-101838927D01*
X67555079Y-100259081D01*
X67725245Y-100004408D01*
X67785001Y-99704002D01*
X67785000Y-99703997D01*
X67785000Y-98972619D01*
X68435612Y-98703791D01*
X68110510Y-99508927D01*
X68119698Y-100537263D01*
X68495549Y-101444647D01*
X68861073Y-101659322D01*
X70520395Y-100000000D01*
X70879605Y-100000000D01*
X72538927Y-101659322D01*
X72904451Y-101444647D01*
X73289490Y-100491073D01*
X73280302Y-99462737D01*
X72904451Y-98555353D01*
X72538927Y-98340678D01*
X70879605Y-100000000D01*
X70520395Y-100000000D01*
X70506253Y-99985858D01*
X70685858Y-99806253D01*
X70700000Y-99820395D01*
X72359322Y-98161073D01*
X72144647Y-97795549D01*
X71191073Y-97410510D01*
X70162737Y-97419698D01*
X69262218Y-97792705D01*
X69584550Y-97016444D01*
X69585448Y-95988068D01*
X69192734Y-95037628D01*
X68466197Y-94309822D01*
X67516444Y-93915450D01*
X66488068Y-93914552D01*
X65537628Y-94307266D01*
X64809822Y-95033803D01*
X64415450Y-95983556D01*
X64414552Y-97011932D01*
X64739685Y-97798813D01*
X63816444Y-97415450D01*
X62788068Y-97414552D01*
X61837628Y-97807266D01*
X61109822Y-98533803D01*
X60715450Y-99483556D01*
X60714552Y-100511932D01*
X61107266Y-101462372D01*
X61833803Y-102190178D01*
X62783556Y-102584550D01*
X63811932Y-102585448D01*
X63914999Y-102542862D01*
X63914999Y-105180845D01*
X59647440Y-109448404D01*
X59647440Y-108876000D01*
X59603162Y-108640683D01*
X59464090Y-108424559D01*
X59251890Y-108279569D01*
X59000000Y-108228560D01*
X57300000Y-108228560D01*
X57064683Y-108272838D01*
X56848559Y-108411910D01*
X56703569Y-108624110D01*
X56681699Y-108732107D01*
X56376924Y-108454355D01*
X55966890Y-108284524D01*
X55737000Y-108405845D01*
X55483000Y-108405845D01*
X55253110Y-108284524D01*
X54843076Y-108454355D01*
X54414817Y-108844642D01*
X54168514Y-109369108D01*
X47785000Y-109369108D01*
X47785000Y-106972619D01*
X48462372Y-106692734D01*
X49190178Y-105966197D01*
X49584550Y-105016444D01*
X49585448Y-103988068D01*
X49192734Y-103037628D01*
X48466197Y-102309822D01*
X47516444Y-101915450D01*
X46488068Y-101914552D01*
X45737465Y-102224695D01*
X46123233Y-101838927D01*
X49040678Y-101838927D01*
X49255353Y-102204451D01*
X50208927Y-102589490D01*
X51237263Y-102580302D01*
X52144647Y-102204451D01*
X52359322Y-101838927D01*
X50700000Y-100179605D01*
X49040678Y-101838927D01*
X46123233Y-101838927D01*
X47555079Y-100407081D01*
X47725245Y-100152409D01*
X47785000Y-99852002D01*
X47785000Y-98972619D01*
X48435612Y-98703791D01*
X48110510Y-99508927D01*
X48119698Y-100537263D01*
X48495549Y-101444647D01*
X48861073Y-101659322D01*
X50520395Y-100000000D01*
X50879605Y-100000000D01*
X52538927Y-101659322D01*
X52904451Y-101444647D01*
X53289490Y-100491073D01*
X53280302Y-99462737D01*
X52904451Y-98555353D01*
X52538927Y-98340678D01*
X50879605Y-100000000D01*
X50520395Y-100000000D01*
X50506253Y-99985858D01*
X50685858Y-99806253D01*
X50700000Y-99820395D01*
X52359322Y-98161073D01*
X52144647Y-97795549D01*
X51191073Y-97410510D01*
X50162737Y-97419698D01*
X49262218Y-97792705D01*
X49584550Y-97016444D01*
X49585448Y-95988068D01*
X49192734Y-95037628D01*
X48466197Y-94309822D01*
X47516444Y-93915450D01*
X46488068Y-93914552D01*
X45537628Y-94307266D01*
X44809822Y-95033803D01*
X44415450Y-95983556D01*
X44414552Y-97011932D01*
X44739685Y-97798813D01*
X43816444Y-97415450D01*
X42788068Y-97414552D01*
X41837628Y-97807266D01*
X41109822Y-98533803D01*
X40715450Y-99483556D01*
X40714552Y-100511932D01*
X41107266Y-101462372D01*
X41833803Y-102190178D01*
X42783556Y-102584550D01*
X43156968Y-102584876D01*
X36959920Y-108781924D01*
X36789754Y-109036596D01*
X36750487Y-109234003D01*
X36729999Y-109337003D01*
X27785000Y-109337003D01*
X27785000Y-106972619D01*
X28462372Y-106692734D01*
X29190178Y-105966197D01*
X29584550Y-105016444D01*
X29585448Y-103988068D01*
X29192734Y-103037628D01*
X28466197Y-102309822D01*
X27516444Y-101915450D01*
X26488068Y-101914552D01*
X26485001Y-101915819D01*
X26485001Y-101838927D01*
X29040678Y-101838927D01*
X29255353Y-102204451D01*
X30208927Y-102589490D01*
X31237263Y-102580302D01*
X32144647Y-102204451D01*
X32359322Y-101838927D01*
X30700000Y-100179605D01*
X29040678Y-101838927D01*
X26485001Y-101838927D01*
X26485001Y-99084551D01*
X27511932Y-99085448D01*
X28435612Y-98703791D01*
X28110510Y-99508927D01*
X28119698Y-100537263D01*
X28495549Y-101444647D01*
X28861073Y-101659322D01*
X30520395Y-100000000D01*
X30879605Y-100000000D01*
X32538927Y-101659322D01*
X32904451Y-101444647D01*
X33289490Y-100491073D01*
X33280302Y-99462737D01*
X32904451Y-98555353D01*
X32624426Y-98390892D01*
X34338514Y-98390892D01*
X34584817Y-98915358D01*
X35013076Y-99305645D01*
X35423110Y-99475476D01*
X35653000Y-99354155D01*
X35653000Y-98161000D01*
X34459181Y-98161000D01*
X34338514Y-98390892D01*
X32624426Y-98390892D01*
X32538927Y-98340678D01*
X30879605Y-100000000D01*
X30520395Y-100000000D01*
X30506253Y-99985858D01*
X30685858Y-99806253D01*
X30700000Y-99820395D01*
X32359322Y-98161073D01*
X32144647Y-97795549D01*
X31851321Y-97677108D01*
X34338514Y-97677108D01*
X34459181Y-97907000D01*
X35653000Y-97907000D01*
X35653000Y-96713845D01*
X35423110Y-96592524D01*
X35013076Y-96762355D01*
X34584817Y-97152642D01*
X34338514Y-97677108D01*
X31851321Y-97677108D01*
X31191073Y-97410510D01*
X30162737Y-97419698D01*
X29262218Y-97792705D01*
X29584550Y-97016444D01*
X29585448Y-95988068D01*
X29192734Y-95037628D01*
X28466197Y-94309822D01*
X27516444Y-93915450D01*
X26488068Y-93914552D01*
X25537628Y-94307266D01*
X24809822Y-95033803D01*
X24415450Y-95983556D01*
X24414552Y-97011932D01*
X24739685Y-97798813D01*
X23816444Y-97415450D01*
X22788068Y-97414552D01*
X21837628Y-97807266D01*
X21109822Y-98533803D01*
X20715450Y-99483556D01*
X20714552Y-100511932D01*
X21107266Y-101462372D01*
X21833803Y-102190178D01*
X22783556Y-102584550D01*
X23811932Y-102585448D01*
X24562535Y-102275305D01*
X18994920Y-107842920D01*
X18824754Y-108097592D01*
X18798703Y-108228560D01*
X18764999Y-108397999D01*
X14685000Y-108397999D01*
X14685000Y-92422815D01*
X15864630Y-92422815D01*
X16188980Y-93207800D01*
X16789041Y-93808909D01*
X17573459Y-94134628D01*
X18422815Y-94135370D01*
X19207800Y-93811020D01*
X19808909Y-93210959D01*
X20134628Y-92426541D01*
X20134756Y-92280000D01*
X23758315Y-92280000D01*
X23842809Y-92704779D01*
X24083426Y-93064889D01*
X24443536Y-93305506D01*
X24868315Y-93390000D01*
X25217685Y-93390000D01*
X25519867Y-93329892D01*
X25683301Y-93493327D01*
X25916690Y-93590000D01*
X25984250Y-93590000D01*
X26143000Y-93431250D01*
X26143000Y-93272933D01*
X26228910Y-93406441D01*
X26441110Y-93551431D01*
X26468785Y-93557035D01*
X26501750Y-93590000D01*
X26569310Y-93590000D01*
X26589753Y-93581532D01*
X26693000Y-93602440D01*
X27093000Y-93602440D01*
X27222589Y-93578056D01*
X27343000Y-93602440D01*
X27743000Y-93602440D01*
X27872589Y-93578056D01*
X27993000Y-93602440D01*
X28393000Y-93602440D01*
X28522589Y-93578056D01*
X28564356Y-93586514D01*
X29232910Y-94255068D01*
X29487582Y-94425234D01*
X29787989Y-94484989D01*
X34810831Y-94484989D01*
X37035105Y-96709263D01*
X37018559Y-96719910D01*
X36873569Y-96932110D01*
X36851699Y-97040107D01*
X36546924Y-96762355D01*
X36136890Y-96592524D01*
X35907000Y-96713845D01*
X35907000Y-97907000D01*
X35927000Y-97907000D01*
X35927000Y-98161000D01*
X35907000Y-98161000D01*
X35907000Y-99354155D01*
X36136890Y-99475476D01*
X36546924Y-99305645D01*
X36849937Y-99029499D01*
X36866838Y-99119317D01*
X37005910Y-99335441D01*
X37218110Y-99480431D01*
X37470000Y-99531440D01*
X39170000Y-99531440D01*
X39405317Y-99487162D01*
X39621441Y-99348090D01*
X39766431Y-99135890D01*
X39817440Y-98884000D01*
X39817440Y-97184000D01*
X39773162Y-96948683D01*
X39634090Y-96732559D01*
X39421890Y-96587569D01*
X39170000Y-96536560D01*
X39013818Y-96536560D01*
X38875079Y-96328921D01*
X38875076Y-96328919D01*
X35691068Y-93144910D01*
X35436396Y-92974744D01*
X35135989Y-92914989D01*
X31102734Y-92914989D01*
X31243191Y-92704779D01*
X31327685Y-92280000D01*
X31243191Y-91855221D01*
X31002574Y-91495111D01*
X30642464Y-91254494D01*
X30217685Y-91170000D01*
X29868315Y-91170000D01*
X29557458Y-91231833D01*
X29507090Y-91153559D01*
X29294890Y-91008569D01*
X29043000Y-90957560D01*
X28643000Y-90957560D01*
X28513411Y-90981944D01*
X28393000Y-90957560D01*
X27993000Y-90957560D01*
X27863411Y-90981944D01*
X27743000Y-90957560D01*
X27343000Y-90957560D01*
X27213411Y-90981944D01*
X27093000Y-90957560D01*
X26693000Y-90957560D01*
X26587295Y-90977450D01*
X26569310Y-90970000D01*
X26501750Y-90970000D01*
X26472746Y-90999004D01*
X26457683Y-91001838D01*
X26241559Y-91140910D01*
X26143000Y-91285156D01*
X26143000Y-91128750D01*
X25984250Y-90970000D01*
X25916690Y-90970000D01*
X25683301Y-91066673D01*
X25519867Y-91230108D01*
X25217685Y-91170000D01*
X24868315Y-91170000D01*
X24443536Y-91254494D01*
X24083426Y-91495111D01*
X23842809Y-91855221D01*
X23758315Y-92280000D01*
X20134756Y-92280000D01*
X20135370Y-91577185D01*
X19811020Y-90792200D01*
X19210959Y-90191091D01*
X18426541Y-89865372D01*
X17577185Y-89864630D01*
X16792200Y-90188980D01*
X16191091Y-90789041D01*
X15865372Y-91573459D01*
X15864630Y-92422815D01*
X14685000Y-92422815D01*
X14685000Y-88685000D01*
X23099989Y-88685000D01*
X22994397Y-88843030D01*
X22994397Y-88843030D01*
G37*
X22994397Y-88843030D02*
X22908000Y-89277376D01*
X22908000Y-89882624D01*
X22994397Y-90316970D01*
X23240434Y-90685190D01*
X23608654Y-90931227D01*
X24043000Y-91017624D01*
X24477346Y-90931227D01*
X24845566Y-90685190D01*
X25091603Y-90316970D01*
X25178000Y-89882624D01*
X25178000Y-89277376D01*
X25091603Y-88843030D01*
X24986011Y-88685000D01*
X30099989Y-88685000D01*
X29994397Y-88843030D01*
X29908000Y-89277376D01*
X29908000Y-89882624D01*
X29994397Y-90316970D01*
X30240434Y-90685190D01*
X30608654Y-90931227D01*
X31043000Y-91017624D01*
X31477346Y-90931227D01*
X31845566Y-90685190D01*
X32091603Y-90316970D01*
X32098161Y-90284000D01*
X34123560Y-90284000D01*
X34123560Y-92084000D01*
X34167838Y-92319317D01*
X34306910Y-92535441D01*
X34519110Y-92680431D01*
X34771000Y-92731440D01*
X36571000Y-92731440D01*
X36806317Y-92687162D01*
X37022441Y-92548090D01*
X37167431Y-92335890D01*
X37171567Y-92315466D01*
X37340357Y-92484551D01*
X37904330Y-92718733D01*
X38514991Y-92719265D01*
X39079371Y-92486068D01*
X39142734Y-92422815D01*
X133864630Y-92422815D01*
X134188980Y-93207800D01*
X134789041Y-93808909D01*
X135573459Y-94134628D01*
X136422815Y-94135370D01*
X137207800Y-93811020D01*
X137808909Y-93210959D01*
X138134628Y-92426541D01*
X138135370Y-91577185D01*
X137811020Y-90792200D01*
X137210959Y-90191091D01*
X136426541Y-89865372D01*
X135577185Y-89864630D01*
X134792200Y-90188980D01*
X134191091Y-90789041D01*
X133865372Y-91573459D01*
X133864630Y-92422815D01*
X39142734Y-92422815D01*
X39511551Y-92054643D01*
X39745733Y-91490670D01*
X39746265Y-90880009D01*
X39658078Y-90666579D01*
X122986786Y-90666579D01*
X123174408Y-91120657D01*
X123521515Y-91468371D01*
X123975266Y-91656785D01*
X124466579Y-91657214D01*
X124920657Y-91469592D01*
X125222221Y-91168554D01*
X125521515Y-91468371D01*
X125975266Y-91656785D01*
X126466579Y-91657214D01*
X126920657Y-91469592D01*
X127222221Y-91168554D01*
X127521515Y-91468371D01*
X127975266Y-91656785D01*
X128466579Y-91657214D01*
X128920657Y-91469592D01*
X129268371Y-91122485D01*
X129456785Y-90668734D01*
X129457214Y-90177421D01*
X129269592Y-89723343D01*
X128922485Y-89375629D01*
X128468734Y-89187215D01*
X127977421Y-89186786D01*
X127523343Y-89374408D01*
X127221779Y-89675446D01*
X126922485Y-89375629D01*
X126468734Y-89187215D01*
X125977421Y-89186786D01*
X125523343Y-89374408D01*
X125221779Y-89675446D01*
X124922485Y-89375629D01*
X124468734Y-89187215D01*
X123977421Y-89186786D01*
X123523343Y-89374408D01*
X123175629Y-89721515D01*
X122987215Y-90175266D01*
X122986786Y-90666579D01*
X39658078Y-90666579D01*
X39513068Y-90315629D01*
X39081643Y-89883449D01*
X38517670Y-89649267D01*
X37907009Y-89648735D01*
X37342629Y-89881932D01*
X37174387Y-90049880D01*
X37174162Y-90048683D01*
X37035090Y-89832559D01*
X36822890Y-89687569D01*
X36571000Y-89636560D01*
X34771000Y-89636560D01*
X34535683Y-89680838D01*
X34319559Y-89819910D01*
X34174569Y-90032110D01*
X34123560Y-90284000D01*
X32098161Y-90284000D01*
X32178000Y-89882624D01*
X32178000Y-89277376D01*
X32091603Y-88843030D01*
X31986011Y-88685000D01*
X139315000Y-88685000D01*
X139315000Y-195315000D01*
X14685000Y-195315000D01*
X14685000Y-192422815D01*
X15864630Y-192422815D01*
X16188980Y-193207800D01*
X16789041Y-193808909D01*
X17573459Y-194134628D01*
X18422815Y-194135370D01*
X19207800Y-193811020D01*
X19808909Y-193210959D01*
X20134628Y-192426541D01*
X20134631Y-192422815D01*
X133864630Y-192422815D01*
X134188980Y-193207800D01*
X134789041Y-193808909D01*
X135573459Y-194134628D01*
X136422815Y-194135370D01*
X137207800Y-193811020D01*
X137808909Y-193210959D01*
X138134628Y-192426541D01*
X138135370Y-191577185D01*
X137811020Y-190792200D01*
X137210959Y-190191091D01*
X136426541Y-189865372D01*
X135577185Y-189864630D01*
X134792200Y-190188980D01*
X134191091Y-190789041D01*
X133865372Y-191573459D01*
X133864630Y-192422815D01*
X20134631Y-192422815D01*
X20135370Y-191577185D01*
X19811020Y-190792200D01*
X19210959Y-190191091D01*
X18426541Y-189865372D01*
X17577185Y-189864630D01*
X16792200Y-190188980D01*
X16191091Y-190789041D01*
X15865372Y-191573459D01*
X15864630Y-192422815D01*
X14685000Y-192422815D01*
X14685000Y-189823795D01*
X21614716Y-189823795D01*
X21863106Y-190424943D01*
X22322637Y-190885278D01*
X22923352Y-191134716D01*
X23573795Y-191135284D01*
X24174943Y-190886894D01*
X24409715Y-190652532D01*
X24777073Y-190652532D01*
X24875736Y-190919387D01*
X25485461Y-191145908D01*
X26135460Y-191121856D01*
X26624264Y-190919387D01*
X26722927Y-190652532D01*
X25750000Y-189679605D01*
X24777073Y-190652532D01*
X24409715Y-190652532D01*
X24591752Y-190470813D01*
X24597468Y-190472927D01*
X25570395Y-189500000D01*
X25929605Y-189500000D01*
X26902532Y-190472927D01*
X26908722Y-190470639D01*
X27322637Y-190885278D01*
X27923352Y-191134716D01*
X28573795Y-191135284D01*
X29174943Y-190886894D01*
X29409715Y-190652532D01*
X29777073Y-190652532D01*
X29875736Y-190919387D01*
X30485461Y-191145908D01*
X31135460Y-191121856D01*
X31624264Y-190919387D01*
X31722927Y-190652532D01*
X30750000Y-189679605D01*
X29777073Y-190652532D01*
X29409715Y-190652532D01*
X29591752Y-190470813D01*
X29597468Y-190472927D01*
X30570395Y-189500000D01*
X30929605Y-189500000D01*
X31902532Y-190472927D01*
X32169387Y-190374264D01*
X32373893Y-189823795D01*
X41614716Y-189823795D01*
X41863106Y-190424943D01*
X42322637Y-190885278D01*
X42923352Y-191134716D01*
X43573795Y-191135284D01*
X44174943Y-190886894D01*
X44409715Y-190652532D01*
X44777073Y-190652532D01*
X44875736Y-190919387D01*
X45485461Y-191145908D01*
X46135460Y-191121856D01*
X46624264Y-190919387D01*
X46722927Y-190652532D01*
X45750000Y-189679605D01*
X44777073Y-190652532D01*
X44409715Y-190652532D01*
X44591752Y-190470813D01*
X44597468Y-190472927D01*
X45570395Y-189500000D01*
X45929605Y-189500000D01*
X46902532Y-190472927D01*
X46908722Y-190470639D01*
X47322637Y-190885278D01*
X47923352Y-191134716D01*
X48573795Y-191135284D01*
X49174943Y-190886894D01*
X49409715Y-190652532D01*
X49777073Y-190652532D01*
X49875736Y-190919387D01*
X50485461Y-191145908D01*
X51135460Y-191121856D01*
X51624264Y-190919387D01*
X51722927Y-190652532D01*
X50750000Y-189679605D01*
X49777073Y-190652532D01*
X49409715Y-190652532D01*
X49591752Y-190470813D01*
X49597468Y-190472927D01*
X50570395Y-189500000D01*
X50929605Y-189500000D01*
X51902532Y-190472927D01*
X52169387Y-190374264D01*
X52373893Y-189823795D01*
X61614716Y-189823795D01*
X61863106Y-190424943D01*
X62322637Y-190885278D01*
X62923352Y-191134716D01*
X63573795Y-191135284D01*
X64174943Y-190886894D01*
X64409715Y-190652532D01*
X64777073Y-190652532D01*
X64875736Y-190919387D01*
X65485461Y-191145908D01*
X66135460Y-191121856D01*
X66624264Y-190919387D01*
X66722927Y-190652532D01*
X65750000Y-189679605D01*
X64777073Y-190652532D01*
X64409715Y-190652532D01*
X64591752Y-190470813D01*
X64597468Y-190472927D01*
X65570395Y-189500000D01*
X65929605Y-189500000D01*
X66902532Y-190472927D01*
X66908722Y-190470639D01*
X67322637Y-190885278D01*
X67923352Y-191134716D01*
X68573795Y-191135284D01*
X69174943Y-190886894D01*
X69409715Y-190652532D01*
X69777073Y-190652532D01*
X69875736Y-190919387D01*
X70485461Y-191145908D01*
X71135460Y-191121856D01*
X71624264Y-190919387D01*
X71722927Y-190652532D01*
X70750000Y-189679605D01*
X69777073Y-190652532D01*
X69409715Y-190652532D01*
X69591752Y-190470813D01*
X69597468Y-190472927D01*
X70570395Y-189500000D01*
X70929605Y-189500000D01*
X71902532Y-190472927D01*
X72169387Y-190374264D01*
X72373893Y-189823795D01*
X81614716Y-189823795D01*
X81863106Y-190424943D01*
X82322637Y-190885278D01*
X82923352Y-191134716D01*
X83573795Y-191135284D01*
X84174943Y-190886894D01*
X84409715Y-190652532D01*
X84777073Y-190652532D01*
X84875736Y-190919387D01*
X85485461Y-191145908D01*
X86135460Y-191121856D01*
X86624264Y-190919387D01*
X86722927Y-190652532D01*
X85750000Y-189679605D01*
X84777073Y-190652532D01*
X84409715Y-190652532D01*
X84591752Y-190470813D01*
X84597468Y-190472927D01*
X85570395Y-189500000D01*
X85929605Y-189500000D01*
X86902532Y-190472927D01*
X86908722Y-190470639D01*
X87322637Y-190885278D01*
X87923352Y-191134716D01*
X88573795Y-191135284D01*
X89174943Y-190886894D01*
X89409715Y-190652532D01*
X89777073Y-190652532D01*
X89875736Y-190919387D01*
X90485461Y-191145908D01*
X91135460Y-191121856D01*
X91624264Y-190919387D01*
X91722927Y-190652532D01*
X90750000Y-189679605D01*
X89777073Y-190652532D01*
X89409715Y-190652532D01*
X89591752Y-190470813D01*
X89597468Y-190472927D01*
X90570395Y-189500000D01*
X90929605Y-189500000D01*
X91902532Y-190472927D01*
X92169387Y-190374264D01*
X92373893Y-189823795D01*
X101614716Y-189823795D01*
X101863106Y-190424943D01*
X102322637Y-190885278D01*
X102923352Y-191134716D01*
X103573795Y-191135284D01*
X104174943Y-190886894D01*
X104409715Y-190652532D01*
X104777073Y-190652532D01*
X104875736Y-190919387D01*
X105485461Y-191145908D01*
X106135460Y-191121856D01*
X106624264Y-190919387D01*
X106722927Y-190652532D01*
X105750000Y-189679605D01*
X104777073Y-190652532D01*
X104409715Y-190652532D01*
X104591752Y-190470813D01*
X104597468Y-190472927D01*
X105570395Y-189500000D01*
X105929605Y-189500000D01*
X106902532Y-190472927D01*
X106908722Y-190470639D01*
X107322637Y-190885278D01*
X107923352Y-191134716D01*
X108573795Y-191135284D01*
X109174943Y-190886894D01*
X109409715Y-190652532D01*
X109777073Y-190652532D01*
X109875736Y-190919387D01*
X110485461Y-191145908D01*
X111135460Y-191121856D01*
X111624264Y-190919387D01*
X111722927Y-190652532D01*
X110750000Y-189679605D01*
X109777073Y-190652532D01*
X109409715Y-190652532D01*
X109591752Y-190470813D01*
X109597468Y-190472927D01*
X110570395Y-189500000D01*
X110929605Y-189500000D01*
X111902532Y-190472927D01*
X112169387Y-190374264D01*
X112373893Y-189823795D01*
X121614716Y-189823795D01*
X121863106Y-190424943D01*
X122322637Y-190885278D01*
X122923352Y-191134716D01*
X123573795Y-191135284D01*
X124174943Y-190886894D01*
X124409715Y-190652532D01*
X124777073Y-190652532D01*
X124875736Y-190919387D01*
X125485461Y-191145908D01*
X126135460Y-191121856D01*
X126624264Y-190919387D01*
X126722927Y-190652532D01*
X125750000Y-189679605D01*
X124777073Y-190652532D01*
X124409715Y-190652532D01*
X124591752Y-190470813D01*
X124597468Y-190472927D01*
X125570395Y-189500000D01*
X125929605Y-189500000D01*
X126902532Y-190472927D01*
X126908722Y-190470639D01*
X127322637Y-190885278D01*
X127923352Y-191134716D01*
X128573795Y-191135284D01*
X129174943Y-190886894D01*
X129409715Y-190652532D01*
X129777073Y-190652532D01*
X129875736Y-190919387D01*
X130485461Y-191145908D01*
X131135460Y-191121856D01*
X131624264Y-190919387D01*
X131722927Y-190652532D01*
X130750000Y-189679605D01*
X129777073Y-190652532D01*
X129409715Y-190652532D01*
X129591752Y-190470813D01*
X129597468Y-190472927D01*
X130570395Y-189500000D01*
X130929605Y-189500000D01*
X131902532Y-190472927D01*
X132169387Y-190374264D01*
X132395908Y-189764539D01*
X132371856Y-189114540D01*
X132169387Y-188625736D01*
X131902532Y-188527073D01*
X130929605Y-189500000D01*
X130570395Y-189500000D01*
X129597468Y-188527073D01*
X129591278Y-188529361D01*
X129409703Y-188347468D01*
X129777073Y-188347468D01*
X130750000Y-189320395D01*
X131722927Y-188347468D01*
X131624264Y-188080613D01*
X131014539Y-187854092D01*
X130364540Y-187878144D01*
X129875736Y-188080613D01*
X129777073Y-188347468D01*
X129409703Y-188347468D01*
X129177363Y-188114722D01*
X128576648Y-187865284D01*
X127926205Y-187864716D01*
X127325057Y-188113106D01*
X126908248Y-188529187D01*
X126902532Y-188527073D01*
X125929605Y-189500000D01*
X125570395Y-189500000D01*
X125556253Y-189485858D01*
X125735858Y-189306253D01*
X125750000Y-189320395D01*
X126722927Y-188347468D01*
X126624264Y-188080613D01*
X126014539Y-187854092D01*
X126005740Y-187854418D01*
X127793079Y-186067079D01*
X127963245Y-185812406D01*
X128023000Y-185512000D01*
X128023000Y-160076102D01*
X128199645Y-159899765D01*
X128372803Y-159482756D01*
X128373197Y-159031225D01*
X128200767Y-158613914D01*
X127881765Y-158294355D01*
X127464756Y-158121197D01*
X127013225Y-158120803D01*
X126595914Y-158293233D01*
X126276355Y-158612235D01*
X126103197Y-159029244D01*
X126102803Y-159480775D01*
X126275233Y-159898086D01*
X126453000Y-160076163D01*
X126453000Y-185186842D01*
X123716490Y-187923352D01*
X123576648Y-187865284D01*
X122926205Y-187864716D01*
X122325057Y-188113106D01*
X121864722Y-188572637D01*
X121615284Y-189173352D01*
X121614716Y-189823795D01*
X112373893Y-189823795D01*
X112395908Y-189764539D01*
X112371856Y-189114540D01*
X112169387Y-188625736D01*
X111902532Y-188527073D01*
X110929605Y-189500000D01*
X110570395Y-189500000D01*
X109597468Y-188527073D01*
X109591278Y-188529361D01*
X109409703Y-188347468D01*
X109777073Y-188347468D01*
X110750000Y-189320395D01*
X111722927Y-188347468D01*
X111624264Y-188080613D01*
X111014539Y-187854092D01*
X110364540Y-187878144D01*
X109875736Y-188080613D01*
X109777073Y-188347468D01*
X109409703Y-188347468D01*
X109177363Y-188114722D01*
X108576648Y-187865284D01*
X107926205Y-187864716D01*
X107325057Y-188113106D01*
X106908248Y-188529187D01*
X106902532Y-188527073D01*
X105929605Y-189500000D01*
X105570395Y-189500000D01*
X104597468Y-188527073D01*
X104591278Y-188529361D01*
X104409703Y-188347468D01*
X104777073Y-188347468D01*
X105750000Y-189320395D01*
X106722927Y-188347468D01*
X106624264Y-188080613D01*
X106014539Y-187854092D01*
X105364540Y-187878144D01*
X104875736Y-188080613D01*
X104777073Y-188347468D01*
X104409703Y-188347468D01*
X104177363Y-188114722D01*
X103576648Y-187865284D01*
X102926205Y-187864716D01*
X102325057Y-188113106D01*
X101864722Y-188572637D01*
X101615284Y-189173352D01*
X101614716Y-189823795D01*
X92373893Y-189823795D01*
X92395908Y-189764539D01*
X92371856Y-189114540D01*
X92169387Y-188625736D01*
X91902532Y-188527073D01*
X90929605Y-189500000D01*
X90570395Y-189500000D01*
X89597468Y-188527073D01*
X89591278Y-188529361D01*
X89409703Y-188347468D01*
X89777073Y-188347468D01*
X90750000Y-189320395D01*
X91722927Y-188347468D01*
X91624264Y-188080613D01*
X91014539Y-187854092D01*
X90364540Y-187878144D01*
X89875736Y-188080613D01*
X89777073Y-188347468D01*
X89409703Y-188347468D01*
X89177363Y-188114722D01*
X88576648Y-187865284D01*
X87926205Y-187864716D01*
X87325057Y-188113106D01*
X86908248Y-188529187D01*
X86902532Y-188527073D01*
X85929605Y-189500000D01*
X85570395Y-189500000D01*
X84597468Y-188527073D01*
X84591278Y-188529361D01*
X84409703Y-188347468D01*
X84777073Y-188347468D01*
X85750000Y-189320395D01*
X86722927Y-188347468D01*
X86624264Y-188080613D01*
X86014539Y-187854092D01*
X85364540Y-187878144D01*
X84875736Y-188080613D01*
X84777073Y-188347468D01*
X84409703Y-188347468D01*
X84177363Y-188114722D01*
X83576648Y-187865284D01*
X82926205Y-187864716D01*
X82325057Y-188113106D01*
X81864722Y-188572637D01*
X81615284Y-189173352D01*
X81614716Y-189823795D01*
X72373893Y-189823795D01*
X72395908Y-189764539D01*
X72371856Y-189114540D01*
X72169387Y-188625736D01*
X71902532Y-188527073D01*
X70929605Y-189500000D01*
X70570395Y-189500000D01*
X69597468Y-188527073D01*
X69591278Y-188529361D01*
X69409703Y-188347468D01*
X69777073Y-188347468D01*
X70750000Y-189320395D01*
X71722927Y-188347468D01*
X71624264Y-188080613D01*
X71014539Y-187854092D01*
X70364540Y-187878144D01*
X69875736Y-188080613D01*
X69777073Y-188347468D01*
X69409703Y-188347468D01*
X69177363Y-188114722D01*
X68576648Y-187865284D01*
X67926205Y-187864716D01*
X67325057Y-188113106D01*
X66908248Y-188529187D01*
X66902532Y-188527073D01*
X65929605Y-189500000D01*
X65570395Y-189500000D01*
X64597468Y-188527073D01*
X64591278Y-188529361D01*
X64409703Y-188347468D01*
X64777073Y-188347468D01*
X65750000Y-189320395D01*
X66722927Y-188347468D01*
X66624264Y-188080613D01*
X66014539Y-187854092D01*
X65364540Y-187878144D01*
X64875736Y-188080613D01*
X64777073Y-188347468D01*
X64409703Y-188347468D01*
X64177363Y-188114722D01*
X63576648Y-187865284D01*
X62926205Y-187864716D01*
X62325057Y-188113106D01*
X61864722Y-188572637D01*
X61615284Y-189173352D01*
X61614716Y-189823795D01*
X52373893Y-189823795D01*
X52395908Y-189764539D01*
X52371856Y-189114540D01*
X52169387Y-188625736D01*
X51902532Y-188527073D01*
X50929605Y-189500000D01*
X50570395Y-189500000D01*
X49597468Y-188527073D01*
X49591278Y-188529361D01*
X49409703Y-188347468D01*
X49777073Y-188347468D01*
X50750000Y-189320395D01*
X51722927Y-188347468D01*
X51624264Y-188080613D01*
X51014539Y-187854092D01*
X50364540Y-187878144D01*
X49875736Y-188080613D01*
X49777073Y-188347468D01*
X49409703Y-188347468D01*
X49177363Y-188114722D01*
X48576648Y-187865284D01*
X47926205Y-187864716D01*
X47325057Y-188113106D01*
X46908248Y-188529187D01*
X46902532Y-188527073D01*
X45929605Y-189500000D01*
X45570395Y-189500000D01*
X44597468Y-188527073D01*
X44591278Y-188529361D01*
X44409703Y-188347468D01*
X44777073Y-188347468D01*
X45750000Y-189320395D01*
X46722927Y-188347468D01*
X46624264Y-188080613D01*
X46014539Y-187854092D01*
X45364540Y-187878144D01*
X44875736Y-188080613D01*
X44777073Y-188347468D01*
X44409703Y-188347468D01*
X44177363Y-188114722D01*
X43576648Y-187865284D01*
X42926205Y-187864716D01*
X42325057Y-188113106D01*
X41864722Y-188572637D01*
X41615284Y-189173352D01*
X41614716Y-189823795D01*
X32373893Y-189823795D01*
X32395908Y-189764539D01*
X32371856Y-189114540D01*
X32169387Y-188625736D01*
X31902532Y-188527073D01*
X30929605Y-189500000D01*
X30570395Y-189500000D01*
X29597468Y-188527073D01*
X29591278Y-188529361D01*
X29409703Y-188347468D01*
X29777073Y-188347468D01*
X30750000Y-189320395D01*
X31722927Y-188347468D01*
X31624264Y-188080613D01*
X31014539Y-187854092D01*
X30364540Y-187878144D01*
X29875736Y-188080613D01*
X29777073Y-188347468D01*
X29409703Y-188347468D01*
X29177363Y-188114722D01*
X28576648Y-187865284D01*
X27926205Y-187864716D01*
X27325057Y-188113106D01*
X26908248Y-188529187D01*
X26902532Y-188527073D01*
X25929605Y-189500000D01*
X25570395Y-189500000D01*
X24597468Y-188527073D01*
X24591278Y-188529361D01*
X24409703Y-188347468D01*
X24777073Y-188347468D01*
X25750000Y-189320395D01*
X26722927Y-188347468D01*
X26624264Y-188080613D01*
X26014539Y-187854092D01*
X25364540Y-187878144D01*
X24875736Y-188080613D01*
X24777073Y-188347468D01*
X24409703Y-188347468D01*
X24177363Y-188114722D01*
X23576648Y-187865284D01*
X22926205Y-187864716D01*
X22325057Y-188113106D01*
X21864722Y-188572637D01*
X21615284Y-189173352D01*
X21614716Y-189823795D01*
X14685000Y-189823795D01*
X14685000Y-156940775D01*
X31868803Y-156940775D01*
X32041233Y-157358086D01*
X32360235Y-157677645D01*
X32777244Y-157850803D01*
X33228775Y-157851197D01*
X33646086Y-157678767D01*
X33824163Y-157501000D01*
X52249898Y-157501000D01*
X52426235Y-157677645D01*
X52843244Y-157850803D01*
X53294775Y-157851197D01*
X53712086Y-157678767D01*
X53890163Y-157501000D01*
X72315898Y-157501000D01*
X72492235Y-157677645D01*
X72909244Y-157850803D01*
X73360775Y-157851197D01*
X73778086Y-157678767D01*
X73956163Y-157501000D01*
X92127898Y-157501000D01*
X92304235Y-157677645D01*
X92721244Y-157850803D01*
X93172775Y-157851197D01*
X93590086Y-157678767D01*
X93768163Y-157501000D01*
X112193898Y-157501000D01*
X112370235Y-157677645D01*
X112787244Y-157850803D01*
X113238775Y-157851197D01*
X113656086Y-157678767D01*
X113834163Y-157501000D01*
X132826000Y-157501000D01*
X133126407Y-157441245D01*
X133381079Y-157271079D01*
X133563179Y-157088979D01*
X133812775Y-157089197D01*
X134230086Y-156916767D01*
X134549645Y-156597765D01*
X134722803Y-156180756D01*
X134723197Y-155729225D01*
X134550767Y-155311914D01*
X134231765Y-154992355D01*
X133814756Y-154819197D01*
X133363225Y-154818803D01*
X132945914Y-154991233D01*
X132626355Y-155310235D01*
X132453197Y-155727244D01*
X132453019Y-155931000D01*
X113834102Y-155931000D01*
X113657765Y-155754355D01*
X113240756Y-155581197D01*
X112789225Y-155580803D01*
X112371914Y-155753233D01*
X112193837Y-155931000D01*
X93768102Y-155931000D01*
X93591765Y-155754355D01*
X93174756Y-155581197D01*
X92723225Y-155580803D01*
X92305914Y-155753233D01*
X92127837Y-155931000D01*
X73956102Y-155931000D01*
X73779765Y-155754355D01*
X73362756Y-155581197D01*
X72911225Y-155580803D01*
X72493914Y-155753233D01*
X72315837Y-155931000D01*
X53890102Y-155931000D01*
X53713765Y-155754355D01*
X53296756Y-155581197D01*
X52845225Y-155580803D01*
X52427914Y-155753233D01*
X52249837Y-155931000D01*
X33824102Y-155931000D01*
X33647765Y-155754355D01*
X33230756Y-155581197D01*
X32779225Y-155580803D01*
X32361914Y-155753233D01*
X32042355Y-156072235D01*
X31869197Y-156489244D01*
X31868803Y-156940775D01*
X14685000Y-156940775D01*
X14685000Y-146526775D01*
X25010803Y-146526775D01*
X25183233Y-146944086D01*
X25502235Y-147263645D01*
X25919244Y-147436803D01*
X26370775Y-147437197D01*
X26788086Y-147264767D01*
X26966163Y-147087000D01*
X45645898Y-147087000D01*
X45822235Y-147263645D01*
X46239244Y-147436803D01*
X46690775Y-147437197D01*
X47108086Y-147264767D01*
X47286163Y-147087000D01*
X65203898Y-147087000D01*
X65380235Y-147263645D01*
X65797244Y-147436803D01*
X66248775Y-147437197D01*
X66666086Y-147264767D01*
X66844163Y-147087000D01*
X85589333Y-147087000D01*
X85635233Y-147198086D01*
X85841085Y-147404297D01*
X85872755Y-147563513D01*
X86042921Y-147818185D01*
X87875815Y-149651079D01*
X88130488Y-149821245D01*
X88430894Y-149881001D01*
X88430899Y-149881000D01*
X104319898Y-149881000D01*
X104496235Y-150057645D01*
X104913244Y-150230803D01*
X105164865Y-150231023D01*
X106804920Y-151871077D01*
X106804922Y-151871080D01*
X107059595Y-152041246D01*
X107360001Y-152101002D01*
X107360006Y-152101001D01*
X122604476Y-152101001D01*
X122904883Y-152041246D01*
X123159555Y-151871080D01*
X123329834Y-151700801D01*
X123579430Y-151701019D01*
X123996741Y-151528589D01*
X124316300Y-151209587D01*
X124489458Y-150792578D01*
X124489852Y-150341047D01*
X124317422Y-149923736D01*
X123998420Y-149604177D01*
X123581411Y-149431019D01*
X123129880Y-149430625D01*
X122712569Y-149603055D01*
X122393010Y-149922057D01*
X122219852Y-150339066D01*
X122219685Y-150531001D01*
X121260857Y-150531001D01*
X121261197Y-150141225D01*
X121088767Y-149723914D01*
X120911000Y-149545837D01*
X120911000Y-134823795D01*
X124114716Y-134823795D01*
X124363106Y-135424943D01*
X124822637Y-135885278D01*
X125423352Y-136134716D01*
X126073795Y-136135284D01*
X126674943Y-135886894D01*
X127135278Y-135427363D01*
X127384716Y-134826648D01*
X127384718Y-134823795D01*
X129114716Y-134823795D01*
X129363106Y-135424943D01*
X129822637Y-135885278D01*
X130423352Y-136134716D01*
X131073795Y-136135284D01*
X131674943Y-135886894D01*
X132135278Y-135427363D01*
X132384716Y-134826648D01*
X132385284Y-134176205D01*
X132136894Y-133575057D01*
X131677363Y-133114722D01*
X131076648Y-132865284D01*
X130426205Y-132864716D01*
X129825057Y-133113106D01*
X129364722Y-133572637D01*
X129115284Y-134173352D01*
X129114716Y-134823795D01*
X127384718Y-134823795D01*
X127385284Y-134176205D01*
X127136894Y-133575057D01*
X126677363Y-133114722D01*
X126076648Y-132865284D01*
X125426205Y-132864716D01*
X124825057Y-133113106D01*
X124364722Y-133572637D01*
X124115284Y-134173352D01*
X124114716Y-134823795D01*
X120911000Y-134823795D01*
X120911000Y-116830667D01*
X121022086Y-116784767D01*
X121341645Y-116465765D01*
X121514803Y-116048756D01*
X121514957Y-115871991D01*
X124178735Y-115871991D01*
X124411932Y-116436371D01*
X124843357Y-116868551D01*
X125407330Y-117102733D01*
X126017991Y-117103265D01*
X126582371Y-116870068D01*
X126759841Y-116692908D01*
X126815673Y-116827699D01*
X126994302Y-117006327D01*
X127227691Y-117103000D01*
X127968250Y-117103000D01*
X128127000Y-116944250D01*
X128127000Y-115695000D01*
X128381000Y-115695000D01*
X128381000Y-116944250D01*
X128539750Y-117103000D01*
X129280309Y-117103000D01*
X129513698Y-117006327D01*
X129692327Y-116827699D01*
X129789000Y-116594310D01*
X129789000Y-115853750D01*
X129630250Y-115695000D01*
X128381000Y-115695000D01*
X128127000Y-115695000D01*
X128107000Y-115695000D01*
X128107000Y-115441000D01*
X128127000Y-115441000D01*
X128127000Y-114191750D01*
X128381000Y-114191750D01*
X128381000Y-115441000D01*
X129630250Y-115441000D01*
X129789000Y-115282250D01*
X129789000Y-114541690D01*
X129692327Y-114308301D01*
X129513698Y-114129673D01*
X129280309Y-114033000D01*
X128539750Y-114033000D01*
X128381000Y-114191750D01*
X128127000Y-114191750D01*
X127968250Y-114033000D01*
X127227691Y-114033000D01*
X126994302Y-114129673D01*
X126815673Y-114308301D01*
X126759881Y-114442994D01*
X126584643Y-114267449D01*
X126020670Y-114033267D01*
X125410009Y-114032735D01*
X124845629Y-114265932D01*
X124413449Y-114697357D01*
X124179267Y-115261330D01*
X124178735Y-115871991D01*
X121514957Y-115871991D01*
X121515197Y-115597225D01*
X121342767Y-115179914D01*
X121023765Y-114860355D01*
X120606756Y-114687197D01*
X120155225Y-114686803D01*
X119737914Y-114859233D01*
X119418355Y-115178235D01*
X119245197Y-115595244D01*
X119244803Y-116046775D01*
X119341000Y-116279589D01*
X119341000Y-149545898D01*
X119164355Y-149722235D01*
X118991197Y-150139244D01*
X118990855Y-150531001D01*
X117355000Y-150531001D01*
X117355000Y-145852102D01*
X117531645Y-145675765D01*
X117704803Y-145258756D01*
X117705197Y-144807225D01*
X117532767Y-144389914D01*
X117213765Y-144070355D01*
X116796756Y-143897197D01*
X116345225Y-143896803D01*
X115927914Y-144069233D01*
X115687443Y-144309285D01*
X108489079Y-137110921D01*
X108234407Y-136940755D01*
X107934000Y-136881000D01*
X103166102Y-136881000D01*
X102989765Y-136704355D01*
X102572756Y-136531197D01*
X102121225Y-136530803D01*
X101703914Y-136703233D01*
X101384355Y-137022235D01*
X101211197Y-137439244D01*
X101210803Y-137890775D01*
X101383233Y-138308086D01*
X101702235Y-138627645D01*
X102119244Y-138800803D01*
X102570775Y-138801197D01*
X102988086Y-138628767D01*
X103166163Y-138451000D01*
X107608842Y-138451000D01*
X111822810Y-142664968D01*
X111651990Y-142630990D01*
X97358015Y-142630990D01*
X97358010Y-142630989D01*
X97057604Y-142690745D01*
X96802931Y-142860911D01*
X96802929Y-142860914D01*
X96528822Y-143135021D01*
X96279225Y-143134803D01*
X95861914Y-143307233D01*
X95542355Y-143626235D01*
X95369197Y-144043244D01*
X95368803Y-144494775D01*
X95541233Y-144912086D01*
X95860235Y-145231645D01*
X96277244Y-145404803D01*
X96728775Y-145405197D01*
X97146086Y-145232767D01*
X97465645Y-144913765D01*
X97638803Y-144496756D01*
X97639023Y-144245135D01*
X97683167Y-144200990D01*
X111326832Y-144200990D01*
X111784877Y-144659035D01*
X111519225Y-144658803D01*
X111101914Y-144831233D01*
X110782355Y-145150235D01*
X110609197Y-145567244D01*
X110608803Y-146018775D01*
X110781233Y-146436086D01*
X111100235Y-146755645D01*
X111517244Y-146928803D01*
X111768865Y-146929023D01*
X112229000Y-147389158D01*
X112229000Y-149291898D01*
X112052355Y-149468235D01*
X111879197Y-149885244D01*
X111878803Y-150336775D01*
X111959056Y-150531001D01*
X107685158Y-150531001D01*
X106274979Y-149120821D01*
X106275197Y-148871225D01*
X106102767Y-148453914D01*
X105783765Y-148134355D01*
X105366756Y-147961197D01*
X104915225Y-147960803D01*
X104497914Y-148133233D01*
X104319837Y-148311000D01*
X88756052Y-148311000D01*
X87584635Y-147139583D01*
X87732803Y-146782756D01*
X87733197Y-146331225D01*
X87560767Y-145913914D01*
X87241765Y-145594355D01*
X86824756Y-145421197D01*
X86373225Y-145420803D01*
X86140411Y-145517000D01*
X66844102Y-145517000D01*
X66667765Y-145340355D01*
X66250756Y-145167197D01*
X65799225Y-145166803D01*
X65381914Y-145339233D01*
X65203837Y-145517000D01*
X47286102Y-145517000D01*
X47109765Y-145340355D01*
X46692756Y-145167197D01*
X46241225Y-145166803D01*
X45823914Y-145339233D01*
X45645837Y-145517000D01*
X26966102Y-145517000D01*
X26789765Y-145340355D01*
X26372756Y-145167197D01*
X25921225Y-145166803D01*
X25503914Y-145339233D01*
X25184355Y-145658235D01*
X25011197Y-146075244D01*
X25010803Y-146526775D01*
X14685000Y-146526775D01*
X14685000Y-108397999D01*
X18764999Y-108397999D01*
X18764999Y-128299999D01*
X18824754Y-128600406D01*
X18994920Y-128855078D01*
X24173352Y-134033510D01*
X24115284Y-134173352D01*
X24114716Y-134823795D01*
X24363106Y-135424943D01*
X24822637Y-135885278D01*
X25423352Y-136134716D01*
X26073795Y-136135284D01*
X26674943Y-135886894D01*
X27135278Y-135427363D01*
X27384716Y-134826648D01*
X27385284Y-134176205D01*
X27136894Y-133575057D01*
X26677363Y-133114722D01*
X26076648Y-132865284D01*
X25426205Y-132864716D01*
X25283740Y-132923582D01*
X20334999Y-127974841D01*
X20334999Y-127274285D01*
X20614760Y-127274285D01*
X20825169Y-127783515D01*
X21214436Y-128173461D01*
X21723298Y-128384759D01*
X22274285Y-128385240D01*
X22783515Y-128174831D01*
X22987183Y-127971517D01*
X23208088Y-127971517D01*
X23276077Y-128212460D01*
X23795171Y-128397201D01*
X24345448Y-128369230D01*
X24723923Y-128212460D01*
X24791912Y-127971517D01*
X24000000Y-127179605D01*
X23208088Y-127971517D01*
X22987183Y-127971517D01*
X23173461Y-127785564D01*
X23271901Y-127548494D01*
X23820395Y-127000000D01*
X24179605Y-127000000D01*
X24728033Y-127548428D01*
X24825169Y-127783515D01*
X25214436Y-128173461D01*
X25723298Y-128384759D01*
X26274285Y-128385240D01*
X26783515Y-128174831D01*
X27000036Y-127958687D01*
X27214436Y-128173461D01*
X27723298Y-128384759D01*
X28274285Y-128385240D01*
X28783515Y-128174831D01*
X28987183Y-127971517D01*
X29208088Y-127971517D01*
X29276077Y-128212460D01*
X29795171Y-128397201D01*
X30345448Y-128369230D01*
X30723923Y-128212460D01*
X30791912Y-127971517D01*
X30000000Y-127179605D01*
X29208088Y-127971517D01*
X28987183Y-127971517D01*
X29173461Y-127785564D01*
X29271901Y-127548494D01*
X29820395Y-127000000D01*
X29271967Y-126451572D01*
X29174831Y-126216485D01*
X28987157Y-126028483D01*
X29208088Y-126028483D01*
X30000000Y-126820395D01*
X30791912Y-126028483D01*
X30723923Y-125787540D01*
X30204829Y-125602799D01*
X29654552Y-125630770D01*
X29276077Y-125787540D01*
X29208088Y-126028483D01*
X28987157Y-126028483D01*
X28785564Y-125826539D01*
X28276702Y-125615241D01*
X27725715Y-125614760D01*
X27216485Y-125825169D01*
X26999964Y-126041313D01*
X26785564Y-125826539D01*
X26276702Y-125615241D01*
X25725715Y-125614760D01*
X25216485Y-125825169D01*
X24826539Y-126214436D01*
X24728099Y-126451506D01*
X24179605Y-127000000D01*
X23820395Y-127000000D01*
X23271967Y-126451572D01*
X23174831Y-126216485D01*
X22987157Y-126028483D01*
X23208088Y-126028483D01*
X24000000Y-126820395D01*
X24791912Y-126028483D01*
X24723923Y-125787540D01*
X24204829Y-125602799D01*
X23654552Y-125630770D01*
X23276077Y-125787540D01*
X23208088Y-126028483D01*
X22987157Y-126028483D01*
X22785564Y-125826539D01*
X22276702Y-125615241D01*
X21725715Y-125614760D01*
X21216485Y-125825169D01*
X20826539Y-126214436D01*
X20615241Y-126723298D01*
X20614760Y-127274285D01*
X20334999Y-127274285D01*
X20334999Y-118147440D01*
X22600000Y-118147440D01*
X22835317Y-118103162D01*
X23051441Y-117964090D01*
X23196431Y-117751890D01*
X23247440Y-117500000D01*
X23247440Y-114500000D01*
X23203162Y-114264683D01*
X23064090Y-114048559D01*
X22851890Y-113903569D01*
X22600000Y-113852560D01*
X20334999Y-113852560D01*
X20334999Y-108723157D01*
X24414874Y-104643282D01*
X24414552Y-105011932D01*
X24807266Y-105962372D01*
X25533803Y-106690178D01*
X26215000Y-106973036D01*
X26215000Y-113910002D01*
X26274755Y-114210409D01*
X26444921Y-114465081D01*
X32600000Y-120620160D01*
X32600000Y-125749486D01*
X32276702Y-125615241D01*
X31725715Y-125614760D01*
X31216485Y-125825169D01*
X30826539Y-126214436D01*
X30728099Y-126451506D01*
X30179605Y-127000000D01*
X30728033Y-127548428D01*
X30825169Y-127783515D01*
X31214436Y-128173461D01*
X31723298Y-128384759D01*
X32274285Y-128385240D01*
X32600000Y-128250658D01*
X32600000Y-131539842D01*
X31216490Y-132923352D01*
X31076648Y-132865284D01*
X30426205Y-132864716D01*
X29825057Y-133113106D01*
X29364722Y-133572637D01*
X29115284Y-134173352D01*
X29114716Y-134823795D01*
X29363106Y-135424943D01*
X29822637Y-135885278D01*
X30423352Y-136134716D01*
X31073795Y-136135284D01*
X31674943Y-135886894D01*
X32135278Y-135427363D01*
X32384716Y-134826648D01*
X32385284Y-134176205D01*
X32326418Y-134033740D01*
X33940079Y-132420079D01*
X34110245Y-132165406D01*
X34170000Y-131865000D01*
X34170000Y-120295007D01*
X34170001Y-120295002D01*
X34110245Y-119994596D01*
X33940079Y-119739923D01*
X32347596Y-118147440D01*
X34000000Y-118147440D01*
X34235317Y-118103162D01*
X34451441Y-117964090D01*
X34596431Y-117751890D01*
X34647440Y-117500000D01*
X34647440Y-114500000D01*
X34603162Y-114264683D01*
X34464090Y-114048559D01*
X34251890Y-113903569D01*
X34000000Y-113852560D01*
X31400000Y-113852560D01*
X31164683Y-113896838D01*
X30948559Y-114035910D01*
X30803569Y-114248110D01*
X30752560Y-114500000D01*
X30752560Y-116552404D01*
X27785000Y-113584844D01*
X27785000Y-109337003D01*
X36729999Y-109337003D01*
X36729999Y-126264999D01*
X36789754Y-126565406D01*
X36959920Y-126820078D01*
X44173352Y-134033510D01*
X44115284Y-134173352D01*
X44114716Y-134823795D01*
X44363106Y-135424943D01*
X44822637Y-135885278D01*
X45423352Y-136134716D01*
X46073795Y-136135284D01*
X46674943Y-135886894D01*
X47135278Y-135427363D01*
X47384716Y-134826648D01*
X47385284Y-134176205D01*
X47136894Y-133575057D01*
X46677363Y-133114722D01*
X46076648Y-132865284D01*
X45426205Y-132864716D01*
X45283740Y-132923582D01*
X39634443Y-127274285D01*
X40614760Y-127274285D01*
X40825169Y-127783515D01*
X41214436Y-128173461D01*
X41723298Y-128384759D01*
X42274285Y-128385240D01*
X42783515Y-128174831D01*
X42987183Y-127971517D01*
X43208088Y-127971517D01*
X43276077Y-128212460D01*
X43795171Y-128397201D01*
X44345448Y-128369230D01*
X44723923Y-128212460D01*
X44791912Y-127971517D01*
X44000000Y-127179605D01*
X43208088Y-127971517D01*
X42987183Y-127971517D01*
X43173461Y-127785564D01*
X43271901Y-127548494D01*
X43820395Y-127000000D01*
X44179605Y-127000000D01*
X44728033Y-127548428D01*
X44825169Y-127783515D01*
X45214436Y-128173461D01*
X45723298Y-128384759D01*
X46274285Y-128385240D01*
X46783515Y-128174831D01*
X47000036Y-127958687D01*
X47214436Y-128173461D01*
X47723298Y-128384759D01*
X48274285Y-128385240D01*
X48783515Y-128174831D01*
X48987183Y-127971517D01*
X49208088Y-127971517D01*
X49276077Y-128212460D01*
X49795171Y-128397201D01*
X50345448Y-128369230D01*
X50723923Y-128212460D01*
X50791912Y-127971517D01*
X50000000Y-127179605D01*
X49208088Y-127971517D01*
X48987183Y-127971517D01*
X49173461Y-127785564D01*
X49271901Y-127548494D01*
X49820395Y-127000000D01*
X49271967Y-126451572D01*
X49174831Y-126216485D01*
X48987157Y-126028483D01*
X49208088Y-126028483D01*
X50000000Y-126820395D01*
X50791912Y-126028483D01*
X50723923Y-125787540D01*
X50204829Y-125602799D01*
X49654552Y-125630770D01*
X49276077Y-125787540D01*
X49208088Y-126028483D01*
X48987157Y-126028483D01*
X48785564Y-125826539D01*
X48276702Y-125615241D01*
X47725715Y-125614760D01*
X47216485Y-125825169D01*
X46999964Y-126041313D01*
X46785564Y-125826539D01*
X46276702Y-125615241D01*
X45725715Y-125614760D01*
X45216485Y-125825169D01*
X44826539Y-126214436D01*
X44728099Y-126451506D01*
X44179605Y-127000000D01*
X43820395Y-127000000D01*
X43271967Y-126451572D01*
X43174831Y-126216485D01*
X42987157Y-126028483D01*
X43208088Y-126028483D01*
X44000000Y-126820395D01*
X44791912Y-126028483D01*
X44723923Y-125787540D01*
X44204829Y-125602799D01*
X43654552Y-125630770D01*
X43276077Y-125787540D01*
X43208088Y-126028483D01*
X42987157Y-126028483D01*
X42785564Y-125826539D01*
X42276702Y-125615241D01*
X41725715Y-125614760D01*
X41216485Y-125825169D01*
X40826539Y-126214436D01*
X40615241Y-126723298D01*
X40614760Y-127274285D01*
X39634443Y-127274285D01*
X38299999Y-125939841D01*
X38299999Y-121909857D01*
X38689775Y-121910197D01*
X39107086Y-121737767D01*
X39285163Y-121560000D01*
X49709898Y-121560000D01*
X49886235Y-121736645D01*
X50303244Y-121909803D01*
X50754775Y-121910197D01*
X51172086Y-121737767D01*
X51491645Y-121418765D01*
X51664803Y-121001756D01*
X51665197Y-120550225D01*
X51520234Y-120199389D01*
X52415001Y-121094156D01*
X52415001Y-125672668D01*
X52276702Y-125615241D01*
X51725715Y-125614760D01*
X51216485Y-125825169D01*
X50826539Y-126214436D01*
X50728099Y-126451506D01*
X50179605Y-127000000D01*
X50728033Y-127548428D01*
X50825169Y-127783515D01*
X51214436Y-128173461D01*
X51723298Y-128384759D01*
X52274285Y-128385240D01*
X52415001Y-128327097D01*
X52415001Y-131724842D01*
X51216490Y-132923352D01*
X51076648Y-132865284D01*
X50426205Y-132864716D01*
X49825057Y-133113106D01*
X49364722Y-133572637D01*
X49115284Y-134173352D01*
X49114716Y-134823795D01*
X49363106Y-135424943D01*
X49822637Y-135885278D01*
X50423352Y-136134716D01*
X51073795Y-136135284D01*
X51674943Y-135886894D01*
X52135278Y-135427363D01*
X52384716Y-134826648D01*
X52385284Y-134176205D01*
X52326418Y-134033740D01*
X53755077Y-132605080D01*
X53755080Y-132605078D01*
X53925246Y-132350405D01*
X53985001Y-132049999D01*
X53985001Y-120769004D01*
X53985002Y-120768999D01*
X53925246Y-120468593D01*
X53890773Y-120417000D01*
X53755080Y-120213920D01*
X53755077Y-120213918D01*
X51688599Y-118147440D01*
X54000000Y-118147440D01*
X54235317Y-118103162D01*
X54451441Y-117964090D01*
X54596431Y-117751890D01*
X54647440Y-117500000D01*
X54647440Y-114500000D01*
X54603162Y-114264683D01*
X54464090Y-114048559D01*
X54251890Y-113903569D01*
X54000000Y-113852560D01*
X51400000Y-113852560D01*
X51164683Y-113896838D01*
X50948559Y-114035910D01*
X50803569Y-114248110D01*
X50752560Y-114500000D01*
X50752560Y-117211401D01*
X47785000Y-114243840D01*
X47785000Y-110082892D01*
X54168514Y-110082892D01*
X54414817Y-110607358D01*
X54843076Y-110997645D01*
X55253110Y-111167476D01*
X55483000Y-111046155D01*
X55483000Y-109853000D01*
X54289181Y-109853000D01*
X54168514Y-110082892D01*
X47785000Y-110082892D01*
X47785000Y-109369108D01*
X54168514Y-109369108D01*
X54289181Y-109599000D01*
X55483000Y-109599000D01*
X55483000Y-108405845D01*
X55737000Y-108405845D01*
X55737000Y-109599000D01*
X55757000Y-109599000D01*
X55757000Y-109853000D01*
X55737000Y-109853000D01*
X55737000Y-111046155D01*
X55966890Y-111167476D01*
X56376924Y-110997645D01*
X56679937Y-110721499D01*
X56696838Y-110811317D01*
X56835910Y-111027441D01*
X57048110Y-111172431D01*
X57300000Y-111223440D01*
X57872404Y-111223440D01*
X57848921Y-111246923D01*
X57678755Y-111501595D01*
X57678755Y-111501596D01*
X57619000Y-111802002D01*
X57619000Y-127154000D01*
X57678755Y-127454407D01*
X57848921Y-127709079D01*
X64173352Y-134033510D01*
X64115284Y-134173352D01*
X64114716Y-134823795D01*
X64363106Y-135424943D01*
X64822637Y-135885278D01*
X65423352Y-136134716D01*
X66073795Y-136135284D01*
X66674943Y-135886894D01*
X67135278Y-135427363D01*
X67384716Y-134826648D01*
X67385284Y-134176205D01*
X67136894Y-133575057D01*
X66677363Y-133114722D01*
X66076648Y-132865284D01*
X65426205Y-132864716D01*
X65283740Y-132923582D01*
X59634443Y-127274285D01*
X60614760Y-127274285D01*
X60825169Y-127783515D01*
X61214436Y-128173461D01*
X61723298Y-128384759D01*
X62274285Y-128385240D01*
X62783515Y-128174831D01*
X62987183Y-127971517D01*
X63208088Y-127971517D01*
X63276077Y-128212460D01*
X63795171Y-128397201D01*
X64345448Y-128369230D01*
X64723923Y-128212460D01*
X64791912Y-127971517D01*
X64000000Y-127179605D01*
X63208088Y-127971517D01*
X62987183Y-127971517D01*
X63173461Y-127785564D01*
X63271901Y-127548494D01*
X63820395Y-127000000D01*
X64179605Y-127000000D01*
X64728033Y-127548428D01*
X64825169Y-127783515D01*
X65214436Y-128173461D01*
X65723298Y-128384759D01*
X66274285Y-128385240D01*
X66783515Y-128174831D01*
X67000036Y-127958687D01*
X67214436Y-128173461D01*
X67723298Y-128384759D01*
X68274285Y-128385240D01*
X68783515Y-128174831D01*
X68987183Y-127971517D01*
X69208088Y-127971517D01*
X69276077Y-128212460D01*
X69795171Y-128397201D01*
X70345448Y-128369230D01*
X70723923Y-128212460D01*
X70791912Y-127971517D01*
X70000000Y-127179605D01*
X69208088Y-127971517D01*
X68987183Y-127971517D01*
X69173461Y-127785564D01*
X69271901Y-127548494D01*
X69820395Y-127000000D01*
X69271967Y-126451572D01*
X69174831Y-126216485D01*
X68987157Y-126028483D01*
X69208088Y-126028483D01*
X70000000Y-126820395D01*
X70791912Y-126028483D01*
X70723923Y-125787540D01*
X70204829Y-125602799D01*
X69654552Y-125630770D01*
X69276077Y-125787540D01*
X69208088Y-126028483D01*
X68987157Y-126028483D01*
X68785564Y-125826539D01*
X68276702Y-125615241D01*
X67725715Y-125614760D01*
X67216485Y-125825169D01*
X66999964Y-126041313D01*
X66785564Y-125826539D01*
X66276702Y-125615241D01*
X65725715Y-125614760D01*
X65216485Y-125825169D01*
X64826539Y-126214436D01*
X64728099Y-126451506D01*
X64179605Y-127000000D01*
X63820395Y-127000000D01*
X63271967Y-126451572D01*
X63174831Y-126216485D01*
X62987157Y-126028483D01*
X63208088Y-126028483D01*
X64000000Y-126820395D01*
X64791912Y-126028483D01*
X64723923Y-125787540D01*
X64204829Y-125602799D01*
X63654552Y-125630770D01*
X63276077Y-125787540D01*
X63208088Y-126028483D01*
X62987157Y-126028483D01*
X62785564Y-125826539D01*
X62276702Y-125615241D01*
X61725715Y-125614760D01*
X61216485Y-125825169D01*
X60826539Y-126214436D01*
X60615241Y-126723298D01*
X60614760Y-127274285D01*
X59634443Y-127274285D01*
X59189000Y-126828842D01*
X59189000Y-121908041D01*
X59193244Y-121909803D01*
X59644775Y-121910197D01*
X60062086Y-121737767D01*
X60240163Y-121560000D01*
X70029898Y-121560000D01*
X70206235Y-121736645D01*
X70623244Y-121909803D01*
X71074775Y-121910197D01*
X71492086Y-121737767D01*
X71811645Y-121418765D01*
X71984803Y-121001756D01*
X71985118Y-120640278D01*
X72415001Y-121070160D01*
X72415001Y-125672668D01*
X72276702Y-125615241D01*
X71725715Y-125614760D01*
X71216485Y-125825169D01*
X70826539Y-126214436D01*
X70728099Y-126451506D01*
X70179605Y-127000000D01*
X70728033Y-127548428D01*
X70825169Y-127783515D01*
X71214436Y-128173461D01*
X71723298Y-128384759D01*
X72274285Y-128385240D01*
X72415001Y-128327097D01*
X72415001Y-131724841D01*
X71216490Y-132923352D01*
X71076648Y-132865284D01*
X70426205Y-132864716D01*
X69825057Y-133113106D01*
X69364722Y-133572637D01*
X69115284Y-134173352D01*
X69114716Y-134823795D01*
X69363106Y-135424943D01*
X69822637Y-135885278D01*
X70423352Y-136134716D01*
X71073795Y-136135284D01*
X71674943Y-135886894D01*
X72135278Y-135427363D01*
X72384716Y-134826648D01*
X72385284Y-134176205D01*
X72326418Y-134033740D01*
X73755080Y-132605078D01*
X73925246Y-132350405D01*
X73985002Y-132049999D01*
X73985001Y-132049994D01*
X73985001Y-120745008D01*
X73985002Y-120745003D01*
X73925246Y-120444597D01*
X73902403Y-120410410D01*
X73755080Y-120189924D01*
X73755077Y-120189922D01*
X71712595Y-118147440D01*
X74000000Y-118147440D01*
X74235317Y-118103162D01*
X74451441Y-117964090D01*
X74596431Y-117751890D01*
X74647440Y-117500000D01*
X74647440Y-114500000D01*
X74603162Y-114264683D01*
X74464090Y-114048559D01*
X74251890Y-113903569D01*
X74000000Y-113852560D01*
X71400000Y-113852560D01*
X71164683Y-113896838D01*
X70948559Y-114035910D01*
X70803569Y-114248110D01*
X70752560Y-114500000D01*
X70752560Y-117187405D01*
X67785000Y-114219844D01*
X67785000Y-108449003D01*
X77469999Y-108449003D01*
X77469999Y-127004999D01*
X77529754Y-127305406D01*
X77699920Y-127560078D01*
X84173352Y-134033510D01*
X84115284Y-134173352D01*
X84114716Y-134823795D01*
X84363106Y-135424943D01*
X84822637Y-135885278D01*
X85423352Y-136134716D01*
X86073795Y-136135284D01*
X86674943Y-135886894D01*
X87135278Y-135427363D01*
X87384716Y-134826648D01*
X87385284Y-134176205D01*
X87136894Y-133575057D01*
X86677363Y-133114722D01*
X86076648Y-132865284D01*
X85426205Y-132864716D01*
X85283740Y-132923582D01*
X79634443Y-127274285D01*
X80614760Y-127274285D01*
X80825169Y-127783515D01*
X81214436Y-128173461D01*
X81723298Y-128384759D01*
X82274285Y-128385240D01*
X82783515Y-128174831D01*
X82987183Y-127971517D01*
X83208088Y-127971517D01*
X83276077Y-128212460D01*
X83795171Y-128397201D01*
X84345448Y-128369230D01*
X84723923Y-128212460D01*
X84791912Y-127971517D01*
X84000000Y-127179605D01*
X83208088Y-127971517D01*
X82987183Y-127971517D01*
X83173461Y-127785564D01*
X83271901Y-127548494D01*
X83820395Y-127000000D01*
X84179605Y-127000000D01*
X84728033Y-127548428D01*
X84825169Y-127783515D01*
X85214436Y-128173461D01*
X85723298Y-128384759D01*
X86274285Y-128385240D01*
X86783515Y-128174831D01*
X87000036Y-127958687D01*
X87214436Y-128173461D01*
X87723298Y-128384759D01*
X88274285Y-128385240D01*
X88783515Y-128174831D01*
X88987183Y-127971517D01*
X89208088Y-127971517D01*
X89276077Y-128212460D01*
X89795171Y-128397201D01*
X90345448Y-128369230D01*
X90723923Y-128212460D01*
X90791912Y-127971517D01*
X90000000Y-127179605D01*
X89208088Y-127971517D01*
X88987183Y-127971517D01*
X89173461Y-127785564D01*
X89271901Y-127548494D01*
X89820395Y-127000000D01*
X89271967Y-126451572D01*
X89174831Y-126216485D01*
X88987157Y-126028483D01*
X89208088Y-126028483D01*
X90000000Y-126820395D01*
X90791912Y-126028483D01*
X90723923Y-125787540D01*
X90204829Y-125602799D01*
X89654552Y-125630770D01*
X89276077Y-125787540D01*
X89208088Y-126028483D01*
X88987157Y-126028483D01*
X88785564Y-125826539D01*
X88276702Y-125615241D01*
X87725715Y-125614760D01*
X87216485Y-125825169D01*
X86999964Y-126041313D01*
X86785564Y-125826539D01*
X86276702Y-125615241D01*
X85725715Y-125614760D01*
X85216485Y-125825169D01*
X84826539Y-126214436D01*
X84728099Y-126451506D01*
X84179605Y-127000000D01*
X83820395Y-127000000D01*
X83271967Y-126451572D01*
X83174831Y-126216485D01*
X82987157Y-126028483D01*
X83208088Y-126028483D01*
X84000000Y-126820395D01*
X84791912Y-126028483D01*
X84723923Y-125787540D01*
X84204829Y-125602799D01*
X83654552Y-125630770D01*
X83276077Y-125787540D01*
X83208088Y-126028483D01*
X82987157Y-126028483D01*
X82785564Y-125826539D01*
X82276702Y-125615241D01*
X81725715Y-125614760D01*
X81216485Y-125825169D01*
X80826539Y-126214436D01*
X80615241Y-126723298D01*
X80614760Y-127274285D01*
X79634443Y-127274285D01*
X79039999Y-126679841D01*
X79039999Y-121909944D01*
X79329775Y-121910197D01*
X79747086Y-121737767D01*
X79925163Y-121560000D01*
X90349898Y-121560000D01*
X90526235Y-121736645D01*
X90943244Y-121909803D01*
X91394775Y-121910197D01*
X91812086Y-121737767D01*
X92131645Y-121418765D01*
X92304803Y-121001756D01*
X92305197Y-120550225D01*
X92146858Y-120167017D01*
X92415001Y-120435160D01*
X92415001Y-125672668D01*
X92276702Y-125615241D01*
X91725715Y-125614760D01*
X91216485Y-125825169D01*
X90826539Y-126214436D01*
X90728099Y-126451506D01*
X90179605Y-127000000D01*
X90728033Y-127548428D01*
X90825169Y-127783515D01*
X91214436Y-128173461D01*
X91723298Y-128384759D01*
X92274285Y-128385240D01*
X92415001Y-128327097D01*
X92415001Y-131724841D01*
X91216490Y-132923352D01*
X91076648Y-132865284D01*
X90426205Y-132864716D01*
X89825057Y-133113106D01*
X89364722Y-133572637D01*
X89115284Y-134173352D01*
X89114716Y-134823795D01*
X89363106Y-135424943D01*
X89822637Y-135885278D01*
X90423352Y-136134716D01*
X91073795Y-136135284D01*
X91674943Y-135886894D01*
X92135278Y-135427363D01*
X92384716Y-134826648D01*
X92385284Y-134176205D01*
X92326418Y-134033740D01*
X93755080Y-132605078D01*
X93925246Y-132350405D01*
X93985002Y-132049999D01*
X93985001Y-132049994D01*
X93985001Y-120110008D01*
X93985002Y-120110003D01*
X93925246Y-119809597D01*
X93755080Y-119554924D01*
X93755077Y-119554922D01*
X92347595Y-118147440D01*
X94000000Y-118147440D01*
X94235317Y-118103162D01*
X94451441Y-117964090D01*
X94596431Y-117751890D01*
X94647440Y-117500000D01*
X94647440Y-114500000D01*
X94603162Y-114264683D01*
X94464090Y-114048559D01*
X94251890Y-113903569D01*
X94000000Y-113852560D01*
X91400000Y-113852560D01*
X91164683Y-113896838D01*
X90948559Y-114035910D01*
X90803569Y-114248110D01*
X90752560Y-114500000D01*
X90752560Y-116552405D01*
X87785000Y-113584844D01*
X87785000Y-110917003D01*
X95149999Y-110917003D01*
X95149999Y-124684999D01*
X95209754Y-124985406D01*
X95379920Y-125240078D01*
X104173352Y-134033510D01*
X104115284Y-134173352D01*
X104114716Y-134823795D01*
X104363106Y-135424943D01*
X104822637Y-135885278D01*
X105423352Y-136134716D01*
X106073795Y-136135284D01*
X106674943Y-135886894D01*
X107135278Y-135427363D01*
X107384716Y-134826648D01*
X107385284Y-134176205D01*
X107136894Y-133575057D01*
X106677363Y-133114722D01*
X106076648Y-132865284D01*
X105426205Y-132864716D01*
X105283740Y-132923582D01*
X96719999Y-124359841D01*
X96719999Y-121011932D01*
X104414552Y-121011932D01*
X104807266Y-121962372D01*
X105533803Y-122690178D01*
X106483556Y-123084550D01*
X107511932Y-123085448D01*
X108462372Y-122692734D01*
X109190178Y-121966197D01*
X109584550Y-121016444D01*
X109585448Y-119988068D01*
X109192734Y-119037628D01*
X108466197Y-118309822D01*
X107516444Y-117915450D01*
X106488068Y-117914552D01*
X105537628Y-118307266D01*
X104809822Y-119033803D01*
X104415450Y-119983556D01*
X104414552Y-121011932D01*
X96719999Y-121011932D01*
X96719999Y-116511932D01*
X100714552Y-116511932D01*
X101107266Y-117462372D01*
X101833803Y-118190178D01*
X102783556Y-118584550D01*
X103811932Y-118585448D01*
X104762372Y-118192734D01*
X105116796Y-117838927D01*
X109040678Y-117838927D01*
X109255353Y-118204451D01*
X110208927Y-118589490D01*
X111237263Y-118580302D01*
X112144647Y-118204451D01*
X112359322Y-117838927D01*
X110700000Y-116179605D01*
X109040678Y-117838927D01*
X105116796Y-117838927D01*
X105490178Y-117466197D01*
X105884550Y-116516444D01*
X105885448Y-115488068D01*
X105560315Y-114701187D01*
X106483556Y-115084550D01*
X107511932Y-115085448D01*
X108435612Y-114703791D01*
X108110510Y-115508927D01*
X108119698Y-116537263D01*
X108495549Y-117444647D01*
X108861073Y-117659322D01*
X110520395Y-116000000D01*
X110879605Y-116000000D01*
X112538927Y-117659322D01*
X112904451Y-117444647D01*
X113289490Y-116491073D01*
X113280302Y-115462737D01*
X112904451Y-114555353D01*
X112538927Y-114340678D01*
X110879605Y-116000000D01*
X110520395Y-116000000D01*
X110506253Y-115985858D01*
X110685858Y-115806253D01*
X110700000Y-115820395D01*
X112359322Y-114161073D01*
X112144647Y-113795549D01*
X111191073Y-113410510D01*
X110162737Y-113419698D01*
X109262218Y-113792705D01*
X109584550Y-113016444D01*
X109585448Y-111988068D01*
X109192734Y-111037628D01*
X108466197Y-110309822D01*
X107516444Y-109915450D01*
X106488068Y-109914552D01*
X105537628Y-110307266D01*
X104809822Y-111033803D01*
X104415450Y-111983556D01*
X104414552Y-113011932D01*
X104739685Y-113798813D01*
X103816444Y-113415450D01*
X102788068Y-113414552D01*
X101837628Y-113807266D01*
X101109822Y-114533803D01*
X100715450Y-115483556D01*
X100714552Y-116511932D01*
X96719999Y-116511932D01*
X96719999Y-111242161D01*
X104725652Y-103236508D01*
X104415450Y-103983556D01*
X104414552Y-105011932D01*
X104807266Y-105962372D01*
X105533803Y-106690178D01*
X106483556Y-107084550D01*
X107511932Y-107085448D01*
X108193622Y-106803779D01*
X116100001Y-114710158D01*
X116100001Y-128039842D01*
X111216490Y-132923352D01*
X111076648Y-132865284D01*
X110426205Y-132864716D01*
X109825057Y-133113106D01*
X109364722Y-133572637D01*
X109115284Y-134173352D01*
X109114716Y-134823795D01*
X109363106Y-135424943D01*
X109822637Y-135885278D01*
X110423352Y-136134716D01*
X111073795Y-136135284D01*
X111674943Y-135886894D01*
X112135278Y-135427363D01*
X112384716Y-134826648D01*
X112385284Y-134176205D01*
X112326418Y-134033740D01*
X117440077Y-128920080D01*
X117440080Y-128920078D01*
X117610246Y-128665405D01*
X117670001Y-128364999D01*
X117670001Y-114385001D01*
X117610246Y-114084595D01*
X117440080Y-113829922D01*
X117440077Y-113829920D01*
X109303484Y-105693326D01*
X109584550Y-105016444D01*
X109584553Y-105011932D01*
X124414552Y-105011932D01*
X124807266Y-105962372D01*
X125533803Y-106690178D01*
X126483556Y-107084550D01*
X127511932Y-107085448D01*
X128462372Y-106692734D01*
X129190178Y-105966197D01*
X129584550Y-105016444D01*
X129585448Y-103988068D01*
X129192734Y-103037628D01*
X128466197Y-102309822D01*
X127516444Y-101915450D01*
X126488068Y-101914552D01*
X125537628Y-102307266D01*
X124809822Y-103033803D01*
X124415450Y-103983556D01*
X124414552Y-105011932D01*
X109584553Y-105011932D01*
X109585448Y-103988068D01*
X109192734Y-103037628D01*
X108466197Y-102309822D01*
X107516444Y-101915450D01*
X106488068Y-101914552D01*
X105737464Y-102224696D01*
X106123232Y-101838927D01*
X109040678Y-101838927D01*
X109255353Y-102204451D01*
X110208927Y-102589490D01*
X111237263Y-102580302D01*
X112144647Y-102204451D01*
X112359322Y-101838927D01*
X110700000Y-100179605D01*
X109040678Y-101838927D01*
X106123232Y-101838927D01*
X107555076Y-100407083D01*
X107555079Y-100407081D01*
X107725245Y-100152408D01*
X107785000Y-99852002D01*
X107785000Y-98972619D01*
X108435612Y-98703791D01*
X108110510Y-99508927D01*
X108119698Y-100537263D01*
X108495549Y-101444647D01*
X108861073Y-101659322D01*
X110520395Y-100000000D01*
X110879605Y-100000000D01*
X112538927Y-101659322D01*
X112904451Y-101444647D01*
X113281067Y-100511932D01*
X120714552Y-100511932D01*
X121107266Y-101462372D01*
X121833803Y-102190178D01*
X122783556Y-102584550D01*
X123811932Y-102585448D01*
X124762372Y-102192734D01*
X125116796Y-101838927D01*
X129040678Y-101838927D01*
X129255353Y-102204451D01*
X130208927Y-102589490D01*
X131237263Y-102580302D01*
X132144647Y-102204451D01*
X132359322Y-101838927D01*
X130700000Y-100179605D01*
X129040678Y-101838927D01*
X125116796Y-101838927D01*
X125490178Y-101466197D01*
X125884550Y-100516444D01*
X125885448Y-99488068D01*
X125560315Y-98701187D01*
X126483556Y-99084550D01*
X127511932Y-99085448D01*
X128435612Y-98703791D01*
X128110510Y-99508927D01*
X128119698Y-100537263D01*
X128495549Y-101444647D01*
X128861073Y-101659322D01*
X130520395Y-100000000D01*
X130879605Y-100000000D01*
X132538927Y-101659322D01*
X132904451Y-101444647D01*
X133289490Y-100491073D01*
X133280302Y-99462737D01*
X132904451Y-98555353D01*
X132538927Y-98340678D01*
X130879605Y-100000000D01*
X130520395Y-100000000D01*
X130506253Y-99985858D01*
X130685858Y-99806253D01*
X130700000Y-99820395D01*
X132359322Y-98161073D01*
X132144647Y-97795549D01*
X131191073Y-97410510D01*
X130162737Y-97419698D01*
X129262218Y-97792705D01*
X129584550Y-97016444D01*
X129585448Y-95988068D01*
X129192734Y-95037628D01*
X128466197Y-94309822D01*
X127516444Y-93915450D01*
X126488068Y-93914552D01*
X125537628Y-94307266D01*
X124809822Y-95033803D01*
X124415450Y-95983556D01*
X124414552Y-97011932D01*
X124739685Y-97798813D01*
X123816444Y-97415450D01*
X122788068Y-97414552D01*
X121837628Y-97807266D01*
X121109822Y-98533803D01*
X120715450Y-99483556D01*
X120714552Y-100511932D01*
X113281067Y-100511932D01*
X113289490Y-100491073D01*
X113280302Y-99462737D01*
X112904451Y-98555353D01*
X112538927Y-98340678D01*
X110879605Y-100000000D01*
X110520395Y-100000000D01*
X110506253Y-99985858D01*
X110685858Y-99806253D01*
X110700000Y-99820395D01*
X112359322Y-98161073D01*
X112144647Y-97795549D01*
X111191073Y-97410510D01*
X110162737Y-97419698D01*
X109262218Y-97792705D01*
X109584550Y-97016444D01*
X109585448Y-95988068D01*
X109192734Y-95037628D01*
X108466197Y-94309822D01*
X107516444Y-93915450D01*
X106488068Y-93914552D01*
X105537628Y-94307266D01*
X104809822Y-95033803D01*
X104415450Y-95983556D01*
X104414552Y-97011932D01*
X104739685Y-97798813D01*
X103816444Y-97415450D01*
X102788068Y-97414552D01*
X101837628Y-97807266D01*
X101109822Y-98533803D01*
X100715450Y-99483556D01*
X100714552Y-100511932D01*
X101107266Y-101462372D01*
X101833803Y-102190178D01*
X102783556Y-102584550D01*
X103156969Y-102584876D01*
X95379920Y-110361924D01*
X95209754Y-110616596D01*
X95209754Y-110616597D01*
X95149999Y-110917003D01*
X87785000Y-110917003D01*
X87785000Y-106972619D01*
X88462372Y-106692734D01*
X89190178Y-105966197D01*
X89584550Y-105016444D01*
X89585448Y-103988068D01*
X89192734Y-103037628D01*
X88466197Y-102309822D01*
X87516444Y-101915450D01*
X86488068Y-101914552D01*
X85537628Y-102307266D01*
X84809822Y-103033803D01*
X84415450Y-103983556D01*
X84414552Y-105011932D01*
X84807266Y-105962372D01*
X85533803Y-106690178D01*
X86215000Y-106973036D01*
X86215000Y-113910002D01*
X86274755Y-114210409D01*
X86444921Y-114465081D01*
X91778590Y-119798749D01*
X91396756Y-119640197D01*
X90945225Y-119639803D01*
X90527914Y-119812233D01*
X90349837Y-119990000D01*
X79925102Y-119990000D01*
X79748765Y-119813355D01*
X79331756Y-119640197D01*
X79039999Y-119639942D01*
X79039999Y-114500000D01*
X79352560Y-114500000D01*
X79352560Y-117500000D01*
X79396838Y-117735317D01*
X79535910Y-117951441D01*
X79748110Y-118096431D01*
X80000000Y-118147440D01*
X82600000Y-118147440D01*
X82835317Y-118103162D01*
X83051441Y-117964090D01*
X83196431Y-117751890D01*
X83247440Y-117500000D01*
X83247440Y-114500000D01*
X83203162Y-114264683D01*
X83064090Y-114048559D01*
X82851890Y-113903569D01*
X82600000Y-113852560D01*
X80000000Y-113852560D01*
X79764683Y-113896838D01*
X79548559Y-114035910D01*
X79403569Y-114248110D01*
X79352560Y-114500000D01*
X79039999Y-114500000D01*
X79039999Y-108774161D01*
X85975233Y-101838927D01*
X89040678Y-101838927D01*
X89255353Y-102204451D01*
X90208927Y-102589490D01*
X91237263Y-102580302D01*
X92144647Y-102204451D01*
X92359322Y-101838927D01*
X90700000Y-100179605D01*
X89040678Y-101838927D01*
X85975233Y-101838927D01*
X87555079Y-100259081D01*
X87725245Y-100004409D01*
X87785000Y-99704002D01*
X87785000Y-98972619D01*
X88435612Y-98703791D01*
X88110510Y-99508927D01*
X88119698Y-100537263D01*
X88495549Y-101444647D01*
X88861073Y-101659322D01*
X90520395Y-100000000D01*
X90879605Y-100000000D01*
X92538927Y-101659322D01*
X92904451Y-101444647D01*
X93289490Y-100491073D01*
X93280302Y-99462737D01*
X92904451Y-98555353D01*
X92538927Y-98340678D01*
X90879605Y-100000000D01*
X90520395Y-100000000D01*
X90506253Y-99985858D01*
X90685858Y-99806253D01*
X90700000Y-99820395D01*
X92359322Y-98161073D01*
X92144647Y-97795549D01*
X91191073Y-97410510D01*
X90162737Y-97419698D01*
X89262218Y-97792705D01*
X89584550Y-97016444D01*
X89585448Y-95988068D01*
X89192734Y-95037628D01*
X88466197Y-94309822D01*
X87516444Y-93915450D01*
X86488068Y-93914552D01*
X85537628Y-94307266D01*
X84809822Y-95033803D01*
X84415450Y-95983556D01*
X84414552Y-97011932D01*
X84739685Y-97798813D01*
X83816444Y-97415450D01*
X82788068Y-97414552D01*
X81837628Y-97807266D01*
X81109822Y-98533803D01*
X80715450Y-99483556D01*
X80714552Y-100511932D01*
X81107266Y-101462372D01*
X81833803Y-102190178D01*
X82783556Y-102584550D01*
X83009097Y-102584747D01*
X77699920Y-107893924D01*
X77529754Y-108148596D01*
X77529754Y-108148597D01*
X77469999Y-108449003D01*
X67785000Y-108449003D01*
X67785000Y-106972619D01*
X68462372Y-106692734D01*
X69190178Y-105966197D01*
X69584550Y-105016444D01*
X69585448Y-103988068D01*
X69192734Y-103037628D01*
X68466197Y-102309822D01*
X67516444Y-101915450D01*
X66488068Y-101914552D01*
X65537628Y-102307266D01*
X65484999Y-102359803D01*
X65484999Y-102329161D01*
X65975233Y-101838927D01*
X69040678Y-101838927D01*
X69255353Y-102204451D01*
X70208927Y-102589490D01*
X71237263Y-102580302D01*
X72144647Y-102204451D01*
X72359322Y-101838927D01*
X70700000Y-100179605D01*
X69040678Y-101838927D01*
X65975233Y-101838927D01*
X67555079Y-100259081D01*
X67725245Y-100004408D01*
X67785001Y-99704002D01*
X67785000Y-99703997D01*
X67785000Y-98972619D01*
X68435612Y-98703791D01*
X68110510Y-99508927D01*
X68119698Y-100537263D01*
X68495549Y-101444647D01*
X68861073Y-101659322D01*
X70520395Y-100000000D01*
X70879605Y-100000000D01*
X72538927Y-101659322D01*
X72904451Y-101444647D01*
X73289490Y-100491073D01*
X73280302Y-99462737D01*
X72904451Y-98555353D01*
X72538927Y-98340678D01*
X70879605Y-100000000D01*
X70520395Y-100000000D01*
X70506253Y-99985858D01*
X70685858Y-99806253D01*
X70700000Y-99820395D01*
X72359322Y-98161073D01*
X72144647Y-97795549D01*
X71191073Y-97410510D01*
X70162737Y-97419698D01*
X69262218Y-97792705D01*
X69584550Y-97016444D01*
X69585448Y-95988068D01*
X69192734Y-95037628D01*
X68466197Y-94309822D01*
X67516444Y-93915450D01*
X66488068Y-93914552D01*
X65537628Y-94307266D01*
X64809822Y-95033803D01*
X64415450Y-95983556D01*
X64414552Y-97011932D01*
X64739685Y-97798813D01*
X63816444Y-97415450D01*
X62788068Y-97414552D01*
X61837628Y-97807266D01*
X61109822Y-98533803D01*
X60715450Y-99483556D01*
X60714552Y-100511932D01*
X61107266Y-101462372D01*
X61833803Y-102190178D01*
X62783556Y-102584550D01*
X63811932Y-102585448D01*
X63914999Y-102542862D01*
X63914999Y-105180845D01*
X59647440Y-109448404D01*
X59647440Y-108876000D01*
X59603162Y-108640683D01*
X59464090Y-108424559D01*
X59251890Y-108279569D01*
X59000000Y-108228560D01*
X57300000Y-108228560D01*
X57064683Y-108272838D01*
X56848559Y-108411910D01*
X56703569Y-108624110D01*
X56681699Y-108732107D01*
X56376924Y-108454355D01*
X55966890Y-108284524D01*
X55737000Y-108405845D01*
X55483000Y-108405845D01*
X55253110Y-108284524D01*
X54843076Y-108454355D01*
X54414817Y-108844642D01*
X54168514Y-109369108D01*
X47785000Y-109369108D01*
X47785000Y-106972619D01*
X48462372Y-106692734D01*
X49190178Y-105966197D01*
X49584550Y-105016444D01*
X49585448Y-103988068D01*
X49192734Y-103037628D01*
X48466197Y-102309822D01*
X47516444Y-101915450D01*
X46488068Y-101914552D01*
X45737465Y-102224695D01*
X46123233Y-101838927D01*
X49040678Y-101838927D01*
X49255353Y-102204451D01*
X50208927Y-102589490D01*
X51237263Y-102580302D01*
X52144647Y-102204451D01*
X52359322Y-101838927D01*
X50700000Y-100179605D01*
X49040678Y-101838927D01*
X46123233Y-101838927D01*
X47555079Y-100407081D01*
X47725245Y-100152409D01*
X47785000Y-99852002D01*
X47785000Y-98972619D01*
X48435612Y-98703791D01*
X48110510Y-99508927D01*
X48119698Y-100537263D01*
X48495549Y-101444647D01*
X48861073Y-101659322D01*
X50520395Y-100000000D01*
X50879605Y-100000000D01*
X52538927Y-101659322D01*
X52904451Y-101444647D01*
X53289490Y-100491073D01*
X53280302Y-99462737D01*
X52904451Y-98555353D01*
X52538927Y-98340678D01*
X50879605Y-100000000D01*
X50520395Y-100000000D01*
X50506253Y-99985858D01*
X50685858Y-99806253D01*
X50700000Y-99820395D01*
X52359322Y-98161073D01*
X52144647Y-97795549D01*
X51191073Y-97410510D01*
X50162737Y-97419698D01*
X49262218Y-97792705D01*
X49584550Y-97016444D01*
X49585448Y-95988068D01*
X49192734Y-95037628D01*
X48466197Y-94309822D01*
X47516444Y-93915450D01*
X46488068Y-93914552D01*
X45537628Y-94307266D01*
X44809822Y-95033803D01*
X44415450Y-95983556D01*
X44414552Y-97011932D01*
X44739685Y-97798813D01*
X43816444Y-97415450D01*
X42788068Y-97414552D01*
X41837628Y-97807266D01*
X41109822Y-98533803D01*
X40715450Y-99483556D01*
X40714552Y-100511932D01*
X41107266Y-101462372D01*
X41833803Y-102190178D01*
X42783556Y-102584550D01*
X43156968Y-102584876D01*
X36959920Y-108781924D01*
X36789754Y-109036596D01*
X36750487Y-109234003D01*
X36729999Y-109337003D01*
X27785000Y-109337003D01*
X27785000Y-106972619D01*
X28462372Y-106692734D01*
X29190178Y-105966197D01*
X29584550Y-105016444D01*
X29585448Y-103988068D01*
X29192734Y-103037628D01*
X28466197Y-102309822D01*
X27516444Y-101915450D01*
X26488068Y-101914552D01*
X26485001Y-101915819D01*
X26485001Y-101838927D01*
X29040678Y-101838927D01*
X29255353Y-102204451D01*
X30208927Y-102589490D01*
X31237263Y-102580302D01*
X32144647Y-102204451D01*
X32359322Y-101838927D01*
X30700000Y-100179605D01*
X29040678Y-101838927D01*
X26485001Y-101838927D01*
X26485001Y-99084551D01*
X27511932Y-99085448D01*
X28435612Y-98703791D01*
X28110510Y-99508927D01*
X28119698Y-100537263D01*
X28495549Y-101444647D01*
X28861073Y-101659322D01*
X30520395Y-100000000D01*
X30879605Y-100000000D01*
X32538927Y-101659322D01*
X32904451Y-101444647D01*
X33289490Y-100491073D01*
X33280302Y-99462737D01*
X32904451Y-98555353D01*
X32624426Y-98390892D01*
X34338514Y-98390892D01*
X34584817Y-98915358D01*
X35013076Y-99305645D01*
X35423110Y-99475476D01*
X35653000Y-99354155D01*
X35653000Y-98161000D01*
X34459181Y-98161000D01*
X34338514Y-98390892D01*
X32624426Y-98390892D01*
X32538927Y-98340678D01*
X30879605Y-100000000D01*
X30520395Y-100000000D01*
X30506253Y-99985858D01*
X30685858Y-99806253D01*
X30700000Y-99820395D01*
X32359322Y-98161073D01*
X32144647Y-97795549D01*
X31851321Y-97677108D01*
X34338514Y-97677108D01*
X34459181Y-97907000D01*
X35653000Y-97907000D01*
X35653000Y-96713845D01*
X35423110Y-96592524D01*
X35013076Y-96762355D01*
X34584817Y-97152642D01*
X34338514Y-97677108D01*
X31851321Y-97677108D01*
X31191073Y-97410510D01*
X30162737Y-97419698D01*
X29262218Y-97792705D01*
X29584550Y-97016444D01*
X29585448Y-95988068D01*
X29192734Y-95037628D01*
X28466197Y-94309822D01*
X27516444Y-93915450D01*
X26488068Y-93914552D01*
X25537628Y-94307266D01*
X24809822Y-95033803D01*
X24415450Y-95983556D01*
X24414552Y-97011932D01*
X24739685Y-97798813D01*
X23816444Y-97415450D01*
X22788068Y-97414552D01*
X21837628Y-97807266D01*
X21109822Y-98533803D01*
X20715450Y-99483556D01*
X20714552Y-100511932D01*
X21107266Y-101462372D01*
X21833803Y-102190178D01*
X22783556Y-102584550D01*
X23811932Y-102585448D01*
X24562535Y-102275305D01*
X18994920Y-107842920D01*
X18824754Y-108097592D01*
X18798703Y-108228560D01*
X18764999Y-108397999D01*
X14685000Y-108397999D01*
X14685000Y-92422815D01*
X15864630Y-92422815D01*
X16188980Y-93207800D01*
X16789041Y-93808909D01*
X17573459Y-94134628D01*
X18422815Y-94135370D01*
X19207800Y-93811020D01*
X19808909Y-93210959D01*
X20134628Y-92426541D01*
X20134756Y-92280000D01*
X23758315Y-92280000D01*
X23842809Y-92704779D01*
X24083426Y-93064889D01*
X24443536Y-93305506D01*
X24868315Y-93390000D01*
X25217685Y-93390000D01*
X25519867Y-93329892D01*
X25683301Y-93493327D01*
X25916690Y-93590000D01*
X25984250Y-93590000D01*
X26143000Y-93431250D01*
X26143000Y-93272933D01*
X26228910Y-93406441D01*
X26441110Y-93551431D01*
X26468785Y-93557035D01*
X26501750Y-93590000D01*
X26569310Y-93590000D01*
X26589753Y-93581532D01*
X26693000Y-93602440D01*
X27093000Y-93602440D01*
X27222589Y-93578056D01*
X27343000Y-93602440D01*
X27743000Y-93602440D01*
X27872589Y-93578056D01*
X27993000Y-93602440D01*
X28393000Y-93602440D01*
X28522589Y-93578056D01*
X28564356Y-93586514D01*
X29232910Y-94255068D01*
X29487582Y-94425234D01*
X29787989Y-94484989D01*
X34810831Y-94484989D01*
X37035105Y-96709263D01*
X37018559Y-96719910D01*
X36873569Y-96932110D01*
X36851699Y-97040107D01*
X36546924Y-96762355D01*
X36136890Y-96592524D01*
X35907000Y-96713845D01*
X35907000Y-97907000D01*
X35927000Y-97907000D01*
X35927000Y-98161000D01*
X35907000Y-98161000D01*
X35907000Y-99354155D01*
X36136890Y-99475476D01*
X36546924Y-99305645D01*
X36849937Y-99029499D01*
X36866838Y-99119317D01*
X37005910Y-99335441D01*
X37218110Y-99480431D01*
X37470000Y-99531440D01*
X39170000Y-99531440D01*
X39405317Y-99487162D01*
X39621441Y-99348090D01*
X39766431Y-99135890D01*
X39817440Y-98884000D01*
X39817440Y-97184000D01*
X39773162Y-96948683D01*
X39634090Y-96732559D01*
X39421890Y-96587569D01*
X39170000Y-96536560D01*
X39013818Y-96536560D01*
X38875079Y-96328921D01*
X38875076Y-96328919D01*
X35691068Y-93144910D01*
X35436396Y-92974744D01*
X35135989Y-92914989D01*
X31102734Y-92914989D01*
X31243191Y-92704779D01*
X31327685Y-92280000D01*
X31243191Y-91855221D01*
X31002574Y-91495111D01*
X30642464Y-91254494D01*
X30217685Y-91170000D01*
X29868315Y-91170000D01*
X29557458Y-91231833D01*
X29507090Y-91153559D01*
X29294890Y-91008569D01*
X29043000Y-90957560D01*
X28643000Y-90957560D01*
X28513411Y-90981944D01*
X28393000Y-90957560D01*
X27993000Y-90957560D01*
X27863411Y-90981944D01*
X27743000Y-90957560D01*
X27343000Y-90957560D01*
X27213411Y-90981944D01*
X27093000Y-90957560D01*
X26693000Y-90957560D01*
X26587295Y-90977450D01*
X26569310Y-90970000D01*
X26501750Y-90970000D01*
X26472746Y-90999004D01*
X26457683Y-91001838D01*
X26241559Y-91140910D01*
X26143000Y-91285156D01*
X26143000Y-91128750D01*
X25984250Y-90970000D01*
X25916690Y-90970000D01*
X25683301Y-91066673D01*
X25519867Y-91230108D01*
X25217685Y-91170000D01*
X24868315Y-91170000D01*
X24443536Y-91254494D01*
X24083426Y-91495111D01*
X23842809Y-91855221D01*
X23758315Y-92280000D01*
X20134756Y-92280000D01*
X20135370Y-91577185D01*
X19811020Y-90792200D01*
X19210959Y-90191091D01*
X18426541Y-89865372D01*
X17577185Y-89864630D01*
X16792200Y-90188980D01*
X16191091Y-90789041D01*
X15865372Y-91573459D01*
X15864630Y-92422815D01*
X14685000Y-92422815D01*
X14685000Y-88685000D01*
X23099989Y-88685000D01*
X22994397Y-88843030D01*
M02*
